<?xml version="1.0" encoding="utf-8"?>
<!-- Generator: Adobe Illustrator 18.0.0, SVG Export Plug-In . SVG Version: 6.00 Build 0)  -->
<!DOCTYPE svg PUBLIC "-//W3C//DTD SVG 1.1//EN" "http://www.w3.org/Graphics/SVG/1.1/DTD/svg11.dtd">
<svg version="1.1" id="Layer_1" xmlns="http://www.w3.org/2000/svg" xmlns:xlink="http://www.w3.org/1999/xlink" x="0px" y="0px"
	 width="1400px" height="980px" viewBox="0 0 1400 980" enable-background="new 0 0 1400 980" xml:space="preserve">
<rect fill="#FFFFFF" width="1400" height="980"/>
<g>
	<g>
		<path fill="#1F1E1F" d="M657.2,468.3l-7-0.6c0-0.4,3.2-38-0.9-53.4c-3.1-11.7-32.9-39.7-46.9-51.9c-6.2,5.6-23.7,18.9-51.4,18.9
			c-27.9,0-46.3-13.4-52.7-18.9c-14,12.2-43.9,40.2-47,52c-4.1,15.5-0.9,53.1-0.9,53.4l-7,0.6c-0.1-1.6-3.3-39.2,1.1-55.8
			c2-7.5,11.1-19.1,27.8-35.6c12-11.9,23.7-21.9,23.8-22l2.5-2.2l2.3,2.4c0.2,0.2,18.8,19.1,50.1,19.1c31.3,0,48.5-18.8,48.6-19
			l2.3-2.6l2.6,2.2c0.1,0.1,11.8,10.1,23.8,22c16.7,16.5,25.8,28.1,27.8,35.6C660.5,429.2,657.3,466.7,657.2,468.3z"/>
	</g>
	<g>
		<path fill="#1F1E1F" d="M551,338.6c-5.7,0-11.4-1.5-16.5-4.4c-12.6-7.3-27.7-19.1-27.7-33.7l0-40.4h7l0,40.4
			c0,11.9,15.2,22.4,24.2,27.7c8,4.6,17.9,4.6,25.9,0c9-5.2,24.2-15.8,24.2-27.7v-40.4h7v40.4c0,14.6-15.1,26.4-27.7,33.7
			C562.4,337.1,556.7,338.6,551,338.6z"/>
	</g>
	<g>
		<path fill="#1F1E1F" d="M601.2,301l-4.1-5.7l5.1-3.7c2.2-1.5,4.5-4.1,4.6-6.7l0-0.6c0.1-2.7,0.5-8.9-0.6-10.2
			c-1.1-0.5-4,0.3-5.4,1.5l-4.6-5.3c2.8-2.4,9-4.8,13.5-2.2c4.7,2.7,4.3,10.1,4,16.6l0,0.6c-0.2,4.3-3,8.8-7.6,12L601.2,301z"/>
	</g>
	<g>
		<path fill="#1F1E1F" d="M500.7,301l-5.1-3.7c-4.5-3.2-7.3-7.7-7.6-12l0-0.6c-0.3-6.5-0.7-13.9,4-16.6c4.5-2.6,10.7-0.2,13.5,2.2
			l-4.6,5.3c-1.4-1.2-4.3-2-5.4-1.5c-1,1.4-0.7,7.6-0.6,10.2l0,0.6c0.1,2.6,2.5,5.1,4.6,6.7l5.1,3.7L500.7,301z"/>
	</g>
	<g>
		<rect x="523.6" y="336.5" fill="#1F1E1F" width="7" height="13.1"/>
	</g>
	<g>
		<rect x="571" y="336.5" fill="#1F1E1F" width="7" height="13.1"/>
	</g>
	<g>
		<path fill="#1F1E1F" d="M551,369.1c-23,0-41.9-13.3-42.7-13.9l4.1-5.7c0.2,0.1,17.9,12.5,38.6,12.5c20.7,0,38.5-12.4,38.7-12.6
			l4.1,5.7C592.9,355.8,574,369.1,551,369.1z"/>
	</g>
	<g>
		<path fill="#1F1E1F" d="M654.3,386l-5.1-4.8c2.6-2.7,3.6-8.8,2.5-14.6c-1.1-5.2-3.7-9.2-7.3-10.8c-5.5-2.4-9.3-7.3-10.7-13.6
			c-1.7-7.5,0.3-16,4.8-21.3c2.6-3,3.8-7.5,3-12c-0.8-4.6-3.4-8.4-7.4-10.6c-9.1-5.1-11-15.9-11.3-21.6h0l0-0.9c0-0.8,0-1.5,0-2
			l0-0.6c0-25.1-9.5-46.1-26.6-59.2c-16.4-12.5-38.5-16.6-58.9-11c-18.7,5.2-27.7,19.4-27.8,19.5l-1.1,1.7l-2-0.1
			c-8.1-0.3-14,3.5-18.2,11.7c-5.6,10.8-8.4,23.4-8.4,37.3c0.1,1.8,0.6,18.2-11.4,25c-4,2.2-6.6,6-7.4,10.6c-0.8,4.5,0.3,9,3,12
			c4.5,5.2,6.5,13.8,4.8,21.3c-1.4,6.4-5.2,11.2-10.7,13.6c-3.6,1.6-6.3,5.5-7.3,10.8c-1.1,5.7-0.1,11.8,2.5,14.6l-5.1,4.8
			c-4.2-4.4-5.9-12.7-4.3-20.8c1.5-7.5,5.7-13.3,11.4-15.8c4.3-1.9,6-5.8,6.7-8.8c1.2-5.3-0.1-11.6-3.2-15.1
			c-4-4.6-5.7-11.3-4.6-17.8c1.1-6.6,5.1-12.3,10.9-15.5c8.6-4.9,7.8-18.4,7.8-18.5l0-0.2c0-15.1,3.1-28.8,9.2-40.6
			c5.1-9.9,12.9-15.2,22.8-15.5c3.2-4.4,13.2-16,30.7-20.9c22.5-6.2,46.9-1.7,65,12.2c18.1,13.8,28.5,35.5,29.3,61.3h0.3l-0.2,3.7
			c0,0.1-0.8,14,7.8,18.8c5.7,3.2,9.7,8.9,10.9,15.5c1.1,6.5-0.6,13.2-4.6,17.8c-3.1,3.6-4.4,9.8-3.2,15.1c0.7,2.9,2.3,6.9,6.7,8.8
			c5.7,2.5,9.9,8.3,11.4,15.8C660.2,373.3,658.5,381.6,654.3,386z"/>
	</g>
	<g>
		<path fill="#1F1E1F" d="M585.9,257.9c-2-2.5-12.6-14.9-31-15.9c-18.2-1-25.1,8-25.2,8.1l-1.6,2.1l-2.5-0.9
			c-0.3-0.1-8.7-3.1-14.2,2.7l-5.1-4.8c6.5-6.9,15.2-6.1,19.4-5.1c3.5-3.4,12.7-10,29.5-9c20.8,1.2,32.9,14.5,36.1,18.6L585.9,257.9
			z"/>
	</g>
	<g>
		<path fill="#1F1E1F" d="M550,434.5c-8.3,0-15.4-4.9-18.7-12c-3.8,4-9.1,6.4-14.9,6.4c-10.9,0-19.8-8.5-20.5-19.1
			c-2.8,1.4-5.9,2.1-9,2.1c-11.3,0-20.5-9.2-20.5-20.5c0-3.9,1.1-7.7,3.2-11l-0.3-0.3l2.7-2.7c0.4-0.4,0.7-0.8,1.1-1.1
			c11.7-11.5,22.9-21.1,23-21.2l2.5-2.2l2.3,2.4c0.2,0.2,18.8,19.1,50.1,19.1c31.2,0,48.5-18.8,48.6-19l2.3-2.5l2.6,2.2
			c0.1,0.1,11.8,10.1,23.8,22l2.5,2.5l-0.6,0.6c2.2,3.3,3.4,7.3,3.4,11.4c0,11.3-9.2,20.5-20.5,20.5c-3.2,0-6.3-0.7-9-2.1
			c-0.7,10.7-9.6,19.1-20.5,19.1c-5.8,0-11.1-2.5-14.9-6.5C565.5,429.5,558.3,434.5,550,434.5z M530.4,407.9l6.5,1.4l-0.3,3.2
			c-0.1,0.5-0.1,1-0.1,1.5c0,7.5,6.1,13.5,13.5,13.5c7.5,0,13.5-6.1,13.5-13.5c0-0.5,0-1-0.1-1.5l-0.3-3.1l6.5-1.4l0.8,3.4
			c1.4,6.1,6.9,10.6,13.2,10.6c7.5,0,13.5-6.1,13.5-13.5c0-2.4-0.7-4.8-1.9-6.9l-1.8-3.1l6.2-3.4l1.7,3c2.4,4.2,6.9,6.9,11.8,6.9
			c7.5,0,13.5-6.1,13.5-13.5c0-3.4-1.3-6.7-3.7-9.3l-2.4-2.5l0.2-0.2c-7.7-7.4-14.8-13.9-18.4-17c-6.2,5.6-23.7,18.9-51.4,18.9
			c-27.9,0-46.3-13.4-52.7-18.9c-3.9,3.4-12,10.7-20.4,18.9l-0.1,0.1c-0.3,0.3-0.6,0.5-0.8,0.8l-0.2,0.2c-2.2,2.5-3.5,5.7-3.5,9
			c0,7.5,6.1,13.5,13.5,13.5c4.8,0,9.3-2.6,11.7-6.7l1.7-3l6.1,3.4l-1.7,3.1c-1.2,2-1.8,4.4-1.8,6.7c0,7.5,6.1,13.5,13.5,13.5
			c6.3,0,11.8-4.4,13.2-10.6L530.4,407.9z"/>
	</g>
	<g>
		<rect x="483.5" y="448.5" fill="#1F1E1F" width="7" height="17.6"/>
	</g>
	<g>
		<rect x="613.3" y="448.5" fill="#1F1E1F" width="7" height="17.6"/>
	</g>
</g>
<g>
	<g>
		<g>
			<g>
				<path fill="#1F1E1F" d="M363.8,468.3l-7-0.6c0-0.4,3.2-38-0.9-53.4c-3.1-11.7-32.9-39.7-46.9-51.9c-6.2,5.6-23.7,18.9-51.4,18.9
					c-27.9,0-46.3-13.4-52.7-18.9c-14,12.2-43.9,40.2-47,52c-4.1,15.5-0.9,53.1-0.9,53.4l-7,0.6c-0.1-1.6-3.3-39.2,1.1-55.8
					c2-7.5,11.1-19.1,27.8-35.6c12-11.9,23.7-21.9,23.8-22l2.5-2.2l2.3,2.4c0.2,0.2,18.8,19.1,50.1,19.1c31.3,0,48.5-18.8,48.6-19
					l2.3-2.6l2.6,2.2c0.1,0.1,11.8,10.1,23.8,22c16.7,16.5,25.8,28.1,27.8,35.6C367.1,429.2,363.9,466.7,363.8,468.3z"/>
			</g>
			<g>
				<path fill="#1F1E1F" d="M257.6,338.6c-5.7,0-11.4-1.5-16.5-4.4c-12.6-7.3-27.7-19.1-27.7-33.7v-40.4h7v40.4
					c0,11.9,15.2,22.4,24.2,27.7c8,4.6,17.9,4.6,25.9,0c9-5.2,24.2-15.8,24.2-27.7v-40.4h7v40.4c0,14.6-15.1,26.4-27.7,33.7
					C269,337.1,263.3,338.6,257.6,338.6z"/>
			</g>
			<g>
				<path fill="#1F1E1F" d="M307.8,301l-4.1-5.7l5.1-3.7c2.2-1.5,4.5-4.1,4.6-6.7l0-0.6c0.1-2.7,0.5-8.9-0.6-10.2
					c-1.1-0.5-4,0.3-5.4,1.5l-4.6-5.3c2.8-2.4,9-4.8,13.5-2.2c4.7,2.7,4.3,10.1,4,16.6l0,0.6c-0.2,4.3-3,8.8-7.6,12L307.8,301z"/>
			</g>
			<g>
				<path fill="#1F1E1F" d="M207.3,301l-5.1-3.7c-4.5-3.2-7.3-7.7-7.6-12l0-0.6c-0.3-6.5-0.7-13.9,4-16.6c4.5-2.6,10.7-0.2,13.5,2.2
					l-4.6,5.3c-1.4-1.2-4.3-2-5.4-1.5c-1,1.4-0.7,7.6-0.6,10.2l0,0.6c0.1,2.6,2.5,5.1,4.6,6.7l5.1,3.7L207.3,301z"/>
			</g>
			<g>
				<rect x="230.2" y="336.5" fill="#1F1E1F" width="7" height="13.1"/>
			</g>
			<g>
				<rect x="277.6" y="336.5" fill="#1F1E1F" width="7" height="13.1"/>
			</g>
			<g>
				<path fill="#1F1E1F" d="M329.5,343h-31.7v-7h25.7c1.4-9.7,5.8-40.9,5.8-62.8c0-31.8-14.2-49.4-26.1-58.6
					c-16.4-12.7-38.6-17-59.5-11.6c-20.2,5.2-21.8,23-21.8,23.2l-0.3,3.4l-3.4-0.1c-8.5-0.3-15.3,2-20.5,6.9
					c-10.1,9.7-11.6,27.3-11.6,36.9c0,0.4,0.1,41.1,7.1,62.8h24v7h-28.9l-0.8-2.3c-8.3-22.2-8.4-65.7-8.4-67.6
					c0-13.1,2.4-31.1,13.7-41.9c5.9-5.7,13.5-8.7,22.6-8.9c1.6-6.6,7.2-21.2,26.5-26.1c23-6,47.5-1.2,65.6,12.8
					c18.6,14.4,28.8,37.1,28.8,64.1c0,26.7-6.1,65.3-6.3,66.9L329.5,343z"/>
			</g>
		</g>
		<g>
			<path fill="#1F1E1F" d="M301.8,268.5h-88.3V265c0-16.5-2.2-22.7-2.2-22.8l6.5-2.5c0.3,0.7,2.4,6.5,2.6,21.8h74.4
				c0.4-15.5,3.5-21.5,3.8-22.2l6.2,3.3c0,0.1-3,6.1-3,22.4V268.5z"/>
		</g>
		<g>
			<path fill="#1F1E1F" d="M216.4,466.1h-7v-48.3c0-25.4-25-39.5-25.2-39.7l3.4-6.1c1.2,0.7,28.8,16.3,28.8,45.8V466.1z"/>
		</g>
		<g>
			<path fill="#1F1E1F" d="M303.7,466.1h-7v-48.3c0-29.5,27.6-45.2,28.8-45.8l3.4,6.1l-1.7-3.1l1.7,3.1
				c-0.3,0.1-25.2,14.4-25.2,39.7V466.1z"/>
		</g>
		<g>
			<path fill="#1F1E1F" d="M257.6,369.1c-23,0-41.9-13.3-42.7-13.9l4.1-5.7l-2,2.8l2-2.8c0.2,0.1,17.9,12.5,38.6,12.5
				c20.7,0,38.5-12.4,38.7-12.6l4.1,5.7C299.5,355.8,280.6,369.1,257.6,369.1z"/>
		</g>
	</g>
	<g>
		<path fill="#1F1E1F" d="M256.9,424.2c-5.8,0-10.5-4.7-10.5-10.5c0-5.8,4.7-10.5,10.5-10.5s10.5,4.7,10.5,10.5
			C267.4,419.5,262.7,424.2,256.9,424.2z M256.9,410.2c-1.9,0-3.5,1.6-3.5,3.5c0,1.9,1.6,3.5,3.5,3.5s3.5-1.6,3.5-3.5
			C260.4,411.8,258.8,410.2,256.9,410.2z"/>
	</g>
	<g>
		<path fill="#1F1E1F" d="M256.9,465.5c-5.8,0-10.5-4.7-10.5-10.5c0-5.8,4.7-10.5,10.5-10.5s10.5,4.7,10.5,10.5
			C267.4,460.8,262.7,465.5,256.9,465.5z M256.9,451.6c-1.9,0-3.5,1.6-3.5,3.5c0,1.9,1.6,3.5,3.5,3.5s3.5-1.6,3.5-3.5
			C260.4,453.2,258.8,451.6,256.9,451.6z"/>
	</g>
</g>
<g>
	<g>
		<g>
			<path fill="#1F1E1F" d="M947.2,468.3l-7-0.6c0-0.4,3.2-38-0.9-53.4c-3.1-11.7-32.9-39.7-46.9-51.9c-6.2,5.6-23.7,18.9-51.4,18.9
				c-27.9,0-46.3-13.4-52.7-18.9c-14,12.2-43.9,40.2-47,52c-4.1,15.5-0.9,53.1-0.9,53.4l-7,0.6c-0.1-1.6-3.3-39.2,1.1-55.8
				c2-7.5,11.1-19.1,27.8-35.6c12-11.9,23.7-21.9,23.8-22l2.5-2.2l2.3,2.4c0.2,0.2,18.8,19.1,50.1,19.1c31.2,0,48.5-18.8,48.6-19
				l2.3-2.5l2.6,2.2c0.1,0.1,11.8,10.1,23.8,22c16.7,16.5,25.8,28.1,27.8,35.6C950.5,429.2,947.3,466.7,947.2,468.3z"/>
		</g>
		<g>
			<path fill="#1F1E1F" d="M841.1,338.6c-5.7,0-11.4-1.5-16.5-4.4c-12.6-7.3-27.7-19.1-27.7-33.7v-40.4h7v40.4
				c0,11.9,15.2,22.4,24.2,27.7c8,4.6,17.9,4.6,25.9,0c8-4.6,18.1-12.8,22.5-20.6l6.1,3.5c-5.4,9.6-16.9,18.5-25.1,23.2
				C852.4,337.1,846.7,338.6,841.1,338.6z"/>
		</g>
		<g>
			<path fill="#1F1E1F" d="M790.7,301l-5.1-3.7c-4.5-3.2-7.3-7.7-7.6-12l0-0.6c-0.3-6.5-0.7-13.9,4-16.6c4.5-2.6,10.7-0.2,13.5,2.2
				l-4.6,5.3c-1.4-1.2-4.3-2-5.4-1.5c-1,1.4-0.7,7.6-0.6,10.2l0,0.6c0.1,2.6,2.5,5.1,4.6,6.7l5.1,3.7L790.7,301z"/>
		</g>
		<g>
			<rect x="813.7" y="336.5" fill="#1F1E1F" width="7" height="13.1"/>
		</g>
		<g>
			<rect x="861.1" y="336.5" fill="#1F1E1F" width="7" height="13.1"/>
		</g>
		<g>
			<path fill="#1F1E1F" d="M841,369.1c-23,0-41.9-13.3-42.7-13.9l4.1-5.7c0.2,0.1,17.9,12.5,38.6,12.5c20.8,0,38.5-12.4,38.7-12.6
				l4.1,5.7C883,355.8,864,369.1,841,369.1z"/>
		</g>
		<g>
			<path fill="#1F1E1F" d="M899.7,330.7c-18.7-5.3-31.5-29.3-30.4-47.2c0.8-12.8-2.6-23.5-9.7-31.1c-7.2-7.7-16.6-10.4-22.9-10.4
				c-9.2,0-17.1,8.3-17.2,8.4l-1.6,1.7l-2.2-0.8c-0.3-0.1-8.7-3.1-14.2,2.7l-5.1-4.8c6.6-7,15.4-6,19.5-5.1
				c3.3-2.9,11.2-9.1,20.7-9.1c7.8,0,19.2,3.3,28,12.6c5.9,6.3,12.8,17.7,11.6,36.4c-1.1,18.2,12.7,36.5,25.3,40L899.7,330.7z"/>
		</g>
		<g>
			<rect x="773.6" y="448.5" fill="#1F1E1F" width="7" height="17.6"/>
		</g>
		<g>
			<rect x="903.3" y="448.5" fill="#1F1E1F" width="7" height="17.6"/>
		</g>
	</g>
	<g>
		<path fill="#1F1E1F" d="M738.8,381c-12.5-18.7-14.2-43.2-4.6-63.9c3.4-7.3,8.9-12.9,14.2-18.3c7.8-7.9,14.5-14.8,14.1-25.5l0-0.1
			c0-15.1,3.1-28.8,9.2-40.6c5.1-9.9,12.9-15.2,22.8-15.5c3.2-4.4,13.2-16,30.7-20.9c22-6,45.8-1.8,63.8,11.3
			c24.9,18.2,29.4,45.6,30.5,67.5c0.3,5.4,1.7,12.6,6.6,16.4c1.7,1.3,3.5,2.7,5.1,4.3c9.3,9.5,37.6,43.8,10.4,84.5l-5.8-3.9
			c10.3-15.5,12.9-31.6,7.7-47.8c-4.3-13.3-12.7-23.2-17.3-27.9c-1.3-1.3-2.8-2.5-4.3-3.6c-7.1-5.4-9.1-14.7-9.4-21.6
			c-1.6-30.2-10.1-49.4-27.7-62.2c-16.3-11.9-37.9-15.7-57.8-10.2c-18.6,5.1-27.7,19.4-27.8,19.5l-1.1,1.7l-2-0.1
			c-8-0.3-14,3.5-18.2,11.7c-5.6,10.8-8.4,23.4-8.4,37.3c0.5,13.7-7.9,22.3-16.1,30.6c-4.9,5-10,10.2-12.9,16.3
			c-8.6,18.5-7,40.4,4.1,57L738.8,381z"/>
	</g>
	<g>
		<path fill="#1F1E1F" d="M803.9,466.1h-7v-36.8c0-24.1-20.6-35.7-21.5-36.2l3.3-6.2c1,0.6,25.1,13.9,25.1,42.3V466.1z"/>
	</g>
	<g>
		<rect x="816.8" y="390" fill="#1F1E1F" width="7" height="76.1"/>
	</g>
	<g>
		<path fill="#1F1E1F" d="M887,466.1h-7v-36.8c0-28.4,24.1-41.8,25.1-42.3l3.3,6.2l-1.7-3.1l1.7,3.1c-0.9,0.5-21.5,12-21.5,36.2
			V466.1z"/>
	</g>
	<g>
		<rect x="861" y="390" fill="#1F1E1F" width="7" height="76.1"/>
	</g>
	<g>
		<rect x="838.4" y="390" fill="#1F1E1F" width="7" height="76.1"/>
	</g>
</g>
<g>
	<g>
		<path fill="#1F1E1F" d="M1246.2,468.3l-7-0.6c0-0.4,3.2-38-0.9-53.4c-0.7-2.6-3.3-7.7-11.3-17c-9.1,10.8-40.5,43.6-86.1,43.6
			c-45.8,0-78.3-34.4-87.6-45.5c-9.3,10.5-12.2,16-13,18.9c-4.1,15.5-0.9,53.1-0.9,53.4l-7,0.6c-0.1-1.6-3.3-39.2,1.1-55.8
			c1.5-5.7,7.2-13.9,17.4-24.9l2.9-3.1l2.5,3.4c0.3,0.5,34.7,46,84.6,46c49.9,0,82.8-43.7,83.1-44.1l2.5-3.4l2.9,3.2
			c9.1,10.1,14.2,17.6,15.6,23C1249.6,429.2,1246.4,466.7,1246.2,468.3z"/>
	</g>
	<g>
		<path fill="#1F1E1F" d="M1140.1,338.6c-5.7,0-11.4-1.5-16.5-4.4c-12.6-7.3-27.7-19.1-27.7-33.7v-40.4h7v40.4
			c0,11.9,15.2,22.4,24.2,27.7c8,4.6,17.9,4.6,25.9,0c8-4.6,18.1-12.8,22.5-20.6l6.1,3.5c-5.4,9.6-16.9,18.5-25.1,23.2
			C1151.5,337.1,1145.8,338.6,1140.1,338.6z"/>
	</g>
	<g>
		<path fill="#1F1E1F" d="M1089.8,301l-5.1-3.7c-4.5-3.2-7.3-7.7-7.6-12l0-0.6c-0.3-6.5-0.7-13.9,4-16.6c4.5-2.6,10.7-0.2,13.5,2.2
			l-4.6,5.3c-1.4-1.2-4.3-2-5.4-1.5c-1,1.4-0.7,7.6-0.6,10.2l0,0.6c0.1,2.6,2.5,5.1,4.6,6.7l5.1,3.7L1089.8,301z"/>
	</g>
	<g>
		<path fill="#1F1E1F" d="M1065.3,386.2l-4.9-4.9c19.6-19.6,41.4-25.2,49.4-26.7v-18.1h7v24.3l-3.2,0.3
			C1113.3,361.1,1087.5,364,1065.3,386.2z"/>
	</g>
	<g>
		<path fill="#1F1E1F" d="M1216.6,386.2c-22.2-22.2-48-25.1-48.3-25.1l-3.1-0.3l0-24.3h7v18.1c8,1.5,29.8,7.1,49.4,26.7
			L1216.6,386.2z"/>
	</g>
	<g>
		<path fill="#1F1E1F" d="M1198.7,330.7c-18.7-5.3-31.5-29.3-30.4-47.2c0.8-12.8-2.6-23.5-9.7-31.1c-7.2-7.7-16.6-10.4-22.9-10.4
			c-9.3,0-17.1,8.3-17.2,8.4l-1.6,1.7l-2.2-0.8c-0.3-0.1-8.7-3.1-14.2,2.7l-5.1-4.8c6.6-7,15.4-6,19.5-5.1
			c3.3-2.9,11.2-9.1,20.7-9.1c7.8,0,19.2,3.3,28,12.6c5.9,6.3,12.8,17.7,11.6,36.4c-1.1,18.2,12.7,36.5,25.3,40L1198.7,330.7z"/>
	</g>
	<g>
		<rect x="1072.6" y="448.5" fill="#1F1E1F" width="7" height="17.6"/>
	</g>
	<g>
		<rect x="1202.3" y="448.5" fill="#1F1E1F" width="7" height="17.6"/>
	</g>
	<g>
		<path fill="#1F1E1F" d="M1214.4,366.7l-6.7-2.2c6.6-20.3,9.5-46.2,10.6-59.9c0.9-10.5,0.6-20.6-0.9-30.1
			c-4.2-26.5-16.4-48.9-33.5-61.4c-16.3-11.9-37.9-15.7-57.8-10.2c-18.7,5.2-27.7,19.4-27.8,19.5l-1.1,1.7l-2-0.1
			c-8-0.3-14,3.5-18.2,11.7c-7.8,15.1-23.5,57.9-0.9,127.8l-6.7,2.2c-7.8-24.1-23.3-85.4,1.3-133.2c5.1-9.9,12.9-15.2,22.8-15.5
			c3.2-4.4,13.2-16,30.7-20.9c22-6,45.8-1.8,63.8,11.3c18.6,13.6,31.8,37.6,36.3,65.9c1.6,10,1.9,20.7,1,31.8
			C1224.2,319.2,1221.2,345.8,1214.4,366.7z"/>
	</g>
	<g>
		<path fill="#1F1E1F" d="M1131.3,430c-2.3-8-9.7-13.6-18.1-13.6c-4.3,0-8.3,1.4-11.6,4l-4.3-5.5c4.6-3.6,10.1-5.5,16-5.5
			c11.5,0,21.7,7.7,24.8,18.7L1131.3,430z"/>
	</g>
	<g>
		<path fill="#1F1E1F" d="M1152.4,430l-6.7-1.9c3.1-11,13.3-18.7,24.8-18.7c5.9,0,11.4,1.9,16,5.5l-4.3,5.5c-3.3-2.6-7.4-4-11.6-4
			C1162.1,416.3,1154.7,421.9,1152.4,430z"/>
	</g>
</g>
<g>
	<g>
		<g>
			<path fill="#1F1E1F" d="M364.1,790.9l-7-0.6c0-0.4,3.2-38-0.9-53.4c-3.3-12.4-35.2-39.1-47.2-48.3l4.3-5.5
				c4.6,3.5,45.2,35.2,49.7,52.1C367.5,751.8,364.3,789.4,364.1,790.9z"/>
		</g>
		<g>
			<path fill="#1F1E1F" d="M150.4,790.9c-0.1-1.6-3.3-39.2,1.1-55.8c2-7.5,11.2-18.4,28.1-33.3c12.1-10.6,23.9-19.4,24-19.5l4.2,5.6
				c-12.7,9.4-46.2,36.6-49.5,48.9c-4.1,15.5-0.9,53.1-0.9,53.4L150.4,790.9z"/>
		</g>
		<g>
			<path fill="#1F1E1F" d="M258,661.2c-5.7,0-11.4-1.5-16.5-4.4c-12.6-7.3-27.7-19.1-27.7-33.7v-40.4h7v40.4
				c0,11.9,15.2,22.4,24.2,27.7c8,4.6,17.9,4.6,25.9,0c5.5-3.2,13.4-9,18.9-15.5l5.4,4.5c-5.2,6.2-13,12.6-20.8,17.1
				C269.4,659.7,263.7,661.2,258,661.2z"/>
		</g>
		<g>
			<path fill="#1F1E1F" d="M207.7,623.6l-5.1-3.7c-4.5-3.2-7.3-7.7-7.6-12l0-0.6c-0.3-6.5-0.7-13.9,4-16.6
				c4.5-2.6,10.7-0.2,13.5,2.2l-4.6,5.3c-1.4-1.2-4.3-2-5.4-1.5c-1,1.4-0.7,7.6-0.6,10.2l0,0.6c0.1,2.6,2.5,5.1,4.6,6.7l5.1,3.7
				L207.7,623.6z"/>
		</g>
		<g>
			<rect x="230.6" y="659.1" fill="#1F1E1F" width="7" height="13.1"/>
		</g>
		<g>
			<rect x="278" y="659.1" fill="#1F1E1F" width="7" height="13.1"/>
		</g>
		<g>
			<rect x="190.5" y="771.1" fill="#1F1E1F" width="7" height="17.6"/>
		</g>
		<g>
			<rect x="320.3" y="771.1" fill="#1F1E1F" width="7" height="17.6"/>
		</g>
	</g>
	<g>
		<rect x="255.4" y="712.6" fill="#1F1E1F" width="7" height="76.1"/>
	</g>
	<g>
		<path fill="#1F1E1F" d="M302,655.9l-2.5-12.3c-4.5-22.3-27.8-49.5-39.9-62.3l3.4,26.2l-7.7-9.1c-10.7-12.7-29.3-23.8-29.5-23.9
			l3.6-6c0.6,0.4,13,7.8,23.8,17.7l-3.1-24l7.2,6.8c1.5,1.5,33.6,32.3,45.5,61.7c4.3-18.2,9.1-54.4-12.2-76.7
			c-13.3-14-34.1-19.8-51.7-14.5c-5.4,1.6-12,5.2-12.5,9.9l-0.4,3.4l-3.4-0.4c-7.7-0.9-14.9,3.7-17.2,10.8c-0.1,0.3-0.2,0.6-0.3,0.9
			c-2.4,8.9,3.3,16.4,3.4,16.5l-5.6,4.3c-0.3-0.4-7.8-10.4-4.6-22.6c0.1-0.4,0.2-0.8,0.4-1.2c2.9-9.4,11.7-15.7,21.6-15.9
			c3.1-7.9,13.3-11.5,16.6-12.5c20.1-6,43.7,0.5,58.7,16.4c13.4,14.1,19.4,35,17.5,60.6c-1.4,19-6.7,33.8-6.9,34.4L302,655.9z"/>
	</g>
	<g>
		<path fill="#1F1E1F" d="M231.1,716.7c-9.6,0-17.9-6.1-21.1-15.5c-3.1-9.3-0.5-18.7,6.6-24.1l1.5-1.2l44.5,16.7l-1.6,3.4
			C260.7,696.8,251.1,716.7,231.1,716.7z M219.5,683.8c-4.3,4.4-4.3,10.7-2.8,15.1c1.8,5.2,6.5,10.8,14.4,10.8
			c11.2,0,18.4-8.5,21.7-13.4L219.5,683.8z"/>
	</g>
	<g>
		<path fill="#1F1E1F" d="M284.6,716.7c-20,0-29.5-19.9-29.9-20.7l-1.6-3.4l44.5-16.7l1.5,1.2c7.1,5.4,9.7,14.9,6.6,24.1
			C302.5,710.6,294.3,716.7,284.6,716.7z M263,696.3c3.2,4.9,10.5,13.4,21.6,13.4c8,0,12.7-5.6,14.4-10.8c1.5-4.4,1.5-10.7-2.8-15.1
			L263,696.3z"/>
	</g>
	<g>
		<path fill="#1F1E1F" d="M281.9,754.1c-5.8,0-10.5-4.7-10.5-10.5s4.7-10.5,10.5-10.5s10.5,4.7,10.5,10.5S287.6,754.1,281.9,754.1z
			 M281.9,740.2c-1.9,0-3.5,1.6-3.5,3.5c0,1.9,1.6,3.5,3.5,3.5s3.5-1.6,3.5-3.5C285.3,741.7,283.8,740.2,281.9,740.2z"/>
	</g>
	<g>
		<path fill="#1F1E1F" d="M281.9,788.5c-5.8,0-10.5-4.7-10.5-10.5s4.7-10.5,10.5-10.5s10.5,4.7,10.5,10.5S287.6,788.5,281.9,788.5z
			 M281.9,774.5c-1.9,0-3.5,1.6-3.5,3.5c0,1.9,1.6,3.5,3.5,3.5s3.5-1.6,3.5-3.5C285.3,776.1,283.8,774.5,281.9,774.5z"/>
	</g>
</g>
<g>
	<g>
		<g>
			<path fill="#1F1E1F" d="M551,659.2c-5.7,0-11.4-1.5-16.5-4.4c-9-5.2-15.9-10.6-20.5-16.3l5.4-4.5c4.1,4.9,10.5,10,18.7,14.7
				c8,4.6,17.9,4.6,25.9,0c6.3-3.6,13.5-8.1,18.5-14.5l5.5,4.3c-5.8,7.4-13.6,12.2-20.5,16.2C562.4,657.7,556.7,659.2,551,659.2z"/>
		</g>
		<g>
			<rect x="483.5" y="771.1" fill="#1F1E1F" width="7" height="17.6"/>
		</g>
		<g>
			<rect x="613.3" y="771.1" fill="#1F1E1F" width="7" height="17.6"/>
		</g>
	</g>
	<g>
		<path fill="#1F1E1F" d="M485.2,674.3l-5.6-4.2c0.2-0.3,23.9-32.6,23.9-61.1c0-18.4,4.9-31,14.7-37.4c10.2-6.7,22.7-4.7,29.4-2.8
			V553h7v25.9l-4.9-2.1c-0.2-0.1-16.5-6.8-27.7,0.6c-7.6,5.1-11.5,15.7-11.5,31.6C510.5,639.9,486.2,672.9,485.2,674.3z"/>
	</g>
	<g>
		<path fill="#1F1E1F" d="M617.1,674.3c-0.3-0.3-6.4-8.7-12.6-20.8C596,637,591.7,622,591.7,609c0-16.8-4.8-29.1-12.7-32.9
			c-4.4-2-9.3-1.2-13.4,2.3l-4.5-5.4c6.3-5.2,14.1-6.4,20.9-3.2c10.6,5,16.7,19.3,16.7,39.2c0,28.6,23.7,60.8,23.9,61.1L617.1,674.3
			z"/>
	</g>
	<g>
		<path fill="#1F1E1F" d="M458.6,694.4l0-14.5c0-17.4,4.8-28.6,9-38.5c3.1-7.4,5.8-13.7,5.8-21.2c0-43.7,14-71.6,41.6-83
			c20.1-8.3,31.5-3.5,36.3-0.1c0.1-0.1,0.2-0.2,0.4-0.2c5-3.3,16.3-7.7,35.9,0.4c27.6,11.4,41.6,39.3,41.6,83
			c0,7.5,2.7,13.9,5.8,21.2c4.2,9.9,9,21.1,9,38.5v14.5h-7v-14.5c0-15.9-4.5-26.5-8.4-35.7c-3.3-7.7-6.4-15-6.4-23.9
			c0-40.6-12.5-66.3-37.3-76.5c-9.3-3.8-17.6-5-24.1-3.3c-3.1,0.8-5,2-6,2.8v8.1l-6.2-7.4c-0.1-0.1-2.1-2.3-6.8-3.5
			c-6.5-1.7-14.8-0.5-24.1,3.3c-24.7,10.2-37.3,36-37.3,76.5c0,8.9-3.1,16.2-6.4,23.9c-3.9,9.3-8.4,19.8-8.4,35.7l0,14.5H458.6z"/>
	</g>
	<g>
		<path fill="#1F1E1F" d="M657.2,790.9l-7-0.5c0-0.5,3.2-48-0.9-63.5c-2.7-10.1-27-27.6-44.9-38.4c-12.5,40-51.4,51.3-53.1,51.8
			l-1.1,0.3l-1.1-0.4c-32.1-12.6-47.6-41.4-52.3-51.9c-14.2,8.6-42.4,27.4-45.4,38.6c-4.1,15.5-0.9,63-0.9,63.5l-7,0.5
			c-0.1-2-3.3-49.1,1.1-65.8c4.6-17.2,47.2-42.1,52.1-44.9l3.6-2.1l1.4,3.9c0.1,0.4,13.8,36.9,48.8,51.2c6.4-2.2,39.5-15,48.4-50.9
			l1.2-4.1c0.3,0.2,6.3,3.3,6.6,3.5c4.2,2.5,12.7,7.8,21.5,14.1c16.7,12,25.9,21.6,27.9,29.2C660.5,741.8,657.3,788.9,657.2,790.9z"
			/>
	</g>
	<g>
		<path fill="#1F1E1F" d="M508.2,681.1l-2.3-6.6c1.1-0.4,2.2-0.8,3.3-1.2c3.2-1.2,6.5-2.5,10.1-3.2v-15.9h7v22l-3.1,0.3
			c-3.9,0.4-7.8,1.9-11.5,3.3C510.5,680.2,509.4,680.7,508.2,681.1z"/>
	</g>
	<g>
		<path fill="#1F1E1F" d="M593.3,681.1c-1.1-0.4-2.3-0.8-3.4-1.3c-3.7-1.4-7.6-2.9-11.5-3.3l-3.1-0.3v-22h7V670
			c3.5,0.7,6.9,2,10.1,3.2c1.1,0.4,2.2,0.8,3.3,1.2L593.3,681.1z"/>
	</g>
	<g>
		<path fill="#1F1E1F" d="M553.2,737h-7c0-12.2-8-19.1-8.1-19.2l4.5-5.3C543,712.8,553.2,721.6,553.2,737z"/>
	</g>
</g>
<g>
	<g>
		<g>
			<g>
				<rect x="773.6" y="771.1" fill="#1F1E1F" width="7" height="17.6"/>
			</g>
			<g>
				<rect x="903.3" y="771.1" fill="#1F1E1F" width="7" height="17.6"/>
			</g>
		</g>
		<g>
			<path fill="#1F1E1F" d="M947.2,790.9l-7-0.5c0-0.5,3.2-48-0.9-63.5c-2.7-10.1-27-27.6-44.9-38.4c-1.8,5.7-4.2,11.2-7.3,16.2
				c-9,15-24.9,24.4-42.6,25.3c-17.9,0.9-35-7.1-45.7-21.4c-6.3-8.4-10.2-16-12.1-20.4c-14.2,8.6-42.4,27.4-45.4,38.6
				c-4.1,15.5-0.9,63-0.9,63.5l-7,0.5c-0.1-2-3.3-49.1,1.1-65.8c4.6-17.2,47.2-42.1,52.1-44.9l3.6-2.1l1.4,3.9
				c0,0.1,3.9,10.6,12.8,22.4c9.3,12.4,24.2,19.4,39.7,18.6c15.5-0.8,29-8.8,36.9-21.9c3.5-5.8,6.1-12.1,7.8-18.8l1.4-3.9
				c0.5,0.3,6.7,3.5,7.4,3.9c4.5,2.7,12.3,7.6,20.5,13.5c16.7,12,25.9,21.6,27.9,29.2C950.5,741.8,947.3,788.9,947.2,790.9z"/>
		</g>
		<g>
			<path fill="#1F1E1F" d="M798.3,681.1l-2.3-6.6c1.1-0.4,2.2-0.8,3.3-1.2c3.2-1.2,6.5-2.5,10.1-3.2v-15.9h7v22l-3.1,0.3
				c-3.9,0.4-7.8,1.9-11.5,3.3C800.5,680.2,799.4,680.7,798.3,681.1z"/>
		</g>
		<g>
			<path fill="#1F1E1F" d="M883.3,681.1c-1.1-0.4-2.3-0.8-3.4-1.3c-3.7-1.4-7.6-2.9-11.5-3.3l-3.1-0.3v-22h7V670
				c3.5,0.7,6.9,2,10.1,3.2c1.1,0.4,2.2,0.8,3.3,1.2L883.3,681.1z"/>
		</g>
	</g>
	<g>
		<path fill="#1F1E1F" d="M891.2,621.6l-4.1-5.7l5.1-3.7c2.2-1.5,4.5-4.1,4.6-6.7l0-0.6c0.1-2.7,0.5-8.9-0.6-10.2
			c-1.1-0.5-4,0.3-5.4,1.5l-4.6-5.3c2.8-2.4,9-4.8,13.5-2.2c4.7,2.7,4.3,10.1,4,16.6l0,0.6c-0.2,4.3-3,8.8-7.6,12L891.2,621.6z"/>
	</g>
	<g>
		<path fill="#1F1E1F" d="M790.7,621.6l-5.1-3.7c-4.5-3.2-7.3-7.7-7.6-12l0-0.6c-0.3-6.5-0.7-13.9,4-16.6c4.5-2.6,10.7-0.2,13.5,2.2
			l-4.6,5.3c-1.4-1.2-4.3-2-5.4-1.5c-1,1.4-0.7,7.6-0.6,10.2l0,0.6c0.1,2.6,2.5,5.1,4.6,6.7l5.1,3.7L790.7,621.6z"/>
	</g>
	<g>
		<path fill="#1F1E1F" d="M899.2,582.1h-7v-5.5c0-14.3-6.8-27.9-18.1-36.2l-0.3-0.2c-12.4-9-28.9-11.9-44.1-7.7
			c-14.1,3.9-21,14.6-21.1,14.8l-1.1,1.7l-2-0.1c-3.9-0.1-7.5,1.3-10.7,4.4c-4.5,4.3-7.7,11.6-7.7,17.7v11.2h-7V571
			c0-8.1,3.9-17.1,9.8-22.8c4.1-3.9,8.8-6.1,13.9-6.4c2.8-3.7,10.6-12.5,24-16.2c17.2-4.7,35.9-1.4,50.1,8.8l0.3,0.2
			c13.1,9.7,20.9,25.3,20.9,41.9V582.1z"/>
	</g>
	<g>
		<path fill="#1F1E1F" d="M826.8,533.4l-2.5-6.6c1.1-0.4,2.3-0.8,3.5-1.1c11-3,23-2.8,33.9,0.7l-2.1,6.7c-9.6-3.1-20.2-3.3-29.9-0.6
			C828.8,532.7,827.8,533,826.8,533.4z"/>
	</g>
	<g>
		<path fill="#1F1E1F" d="M822.9,534.8l-0.7-4.1c-0.2-1.2-0.3-2.4-0.3-3.7c0-11.7,9.5-21.3,21.3-21.3c11.7,0,21.3,9.5,21.3,21.3
			c0,1-0.1,2.1-0.2,3.1l-0.6,4.1l-3.9-1.3c-5.1-1.6-10.5-2.5-16-2.5c-4.7,0-9.4,0.6-13.9,1.9c-1,0.3-2,0.6-2.9,0.9L822.9,534.8z
			 M843.1,512.8c-7.3,0-13.4,5.5-14.2,12.6c9.2-2.4,19.1-2.5,28.3-0.3C856.3,518.1,850.3,512.8,843.1,512.8z"/>
	</g>
	<g>
		<path fill="#1F1E1F" d="M861.7,586.7c-27.4,0-43-12.5-43.7-13.1l4.4-5.4c0.2,0.1,18.5,14.7,49.9,10.8l0.8,6.9
			C869.2,586.5,865.4,586.7,861.7,586.7z"/>
	</g>
	<g>
		<path fill="#1F1E1F" d="M841,659.2c-5.7,0-11.4-1.5-16.5-4.4c-12.6-7.3-27.7-19.1-27.7-33.7v-29l1.8-1
			c8.3-4.8,10.8-14.7,10.9-14.8l6.8,1.6c-0.1,0.5-2.9,11.6-12.4,18.2v25c0,11.9,15.2,22.4,24.2,27.7c8,4.6,17.9,4.6,25.9,0
			c9-5.2,24.2-15.8,24.2-27.7v-40.4h7v40.4c0,14.6-15.1,26.4-27.7,33.7C852.4,657.7,846.7,659.2,841,659.2z"/>
	</g>
	<g>
		<path fill="#1F1E1F" d="M841,744.5c-23.1,0-38.3-10.6-47-19.4c-9.4-9.6-13.3-19.1-13.5-19.5l6.5-2.6c0.6,1.4,14.6,34.5,54,34.5
			c39.6,0,53.3-34.2,53.5-34.5l6.5,2.5c-0.2,0.4-3.9,9.9-13.2,19.5C879.2,733.9,864.1,744.5,841,744.5z"/>
	</g>
</g>
<g>
	<g>
		<g>
			<g>
				<rect x="1078.3" y="771.1" fill="#1F1E1F" width="7" height="17.6"/>
			</g>
			<g>
				<rect x="1208" y="771.1" fill="#1F1E1F" width="7" height="17.6"/>
			</g>
		</g>
		<g>
			<path fill="#1F1E1F" d="M1251.9,790.9l-7-0.5c0-0.5,3.2-48-0.9-63.5c-2.9-10.8-30.8-30.2-48.8-40.7l1.7-3l1.8-3
				c1.2,0.7,12.4,7.2,24.2,15.7c16.7,12,25.9,21.6,27.9,29.2C1255.2,741.8,1252,788.9,1251.9,790.9z"/>
		</g>
		<g>
			<path fill="#1F1E1F" d="M1038.2,790.9c-0.1-2-3.3-49.1,1.1-65.8c4.6-17.2,47.2-42.1,52.1-44.9l3.5,6.1
				c-0.1,0.1-11.6,6.7-23.3,15.1c-20.1,14.4-24.6,22.2-25.5,25.5c-4.1,15.5-0.9,63-0.9,63.5L1038.2,790.9z"/>
		</g>
		<g>
			<rect x="1114" y="654.2" fill="#1F1E1F" width="7" height="18.8"/>
		</g>
		<g>
			<rect x="1170" y="654.2" fill="#1F1E1F" width="7" height="18.8"/>
		</g>
	</g>
	<g>
		<path fill="#1F1E1F" d="M1195.9,621.6l-4.1-5.7l5.1-3.7c2.2-1.5,4.5-4.1,4.6-6.7l0-0.6c0.1-2.7,0.5-8.8-0.6-10.2
			c-1.1-0.5-4,0.3-5.4,1.5l-4.6-5.3c2.8-2.4,9-4.8,13.5-2.2c4.7,2.7,4.3,10.1,4,16.6l0,0.6c-0.2,4.3-3,8.8-7.6,12L1195.9,621.6z"/>
	</g>
	<g>
		<path fill="#1F1E1F" d="M1095.4,621.6l-5.1-3.7c-4.5-3.2-7.3-7.7-7.6-12l0-0.6c-0.3-6.5-0.7-13.9,4-16.6
			c4.5-2.6,10.7-0.2,13.5,2.2l-4.6,5.3c-1.4-1.2-4.3-2-5.4-1.5c-1,1.4-0.7,7.6-0.6,10.2l0,0.6c0.1,2.6,2.5,5.1,4.6,6.7l5.1,3.7
			L1095.4,621.6z"/>
	</g>
	<g>
		<path fill="#1F1E1F" d="M1203.9,582.1h-7v-5.5c0-14.3-6.8-27.9-18.1-36.2l-0.3-0.2c-12.4-9-28.9-11.9-44.1-7.8
			c-14.1,3.9-21,14.6-21.1,14.8l-1.1,1.7l-2-0.1c-3.9-0.1-7.5,1.3-10.7,4.4c-4.5,4.3-7.7,11.6-7.7,17.7v11.2h-7V571
			c0-8.1,3.9-17.1,9.8-22.8c4.1-3.9,8.8-6.1,13.9-6.4c2.8-3.7,10.6-12.5,24-16.2c17.2-4.7,35.9-1.4,50.1,8.8l0.3,0.2
			c13.1,9.7,20.9,25.3,20.9,41.9V582.1z"/>
	</g>
	<g>
		<path fill="#1F1E1F" d="M1131.6,533.4l-2.5-6.6c1.1-0.4,2.3-0.8,3.5-1.1c11-3,23-2.8,33.9,0.7l-2.1,6.7
			c-9.6-3.1-20.2-3.3-29.9-0.6C1133.5,532.7,1132.5,533,1131.6,533.4z"/>
	</g>
	<g>
		<path fill="#1F1E1F" d="M1145.7,659.2c-5.7,0-11.4-1.5-16.5-4.4c-12.6-7.3-27.7-19.1-27.7-33.7v-26.9h7v26.9
			c0,11.9,15.2,22.4,24.2,27.7c8,4.6,17.9,4.6,25.9,0c9-5.2,24.2-15.8,24.2-27.7v-26.9h7v26.9c0,14.6-15.1,26.4-27.7,33.7
			C1157.1,657.7,1151.4,659.2,1145.7,659.2z"/>
	</g>
	<g>
		<path fill="none" stroke="#1F1E1F" stroke-width="7" stroke-miterlimit="10" d="M1088.4,704.2"/>
	</g>
	<g>
		<path fill="#1F1E1F" d="M1036.9,681.2l-1.1-6.9c9.8-2.3,15.4-22.6,19.1-36c0.4-1.5,0.8-2.9,1.2-4.3c4.6-16.3,20.3-20.8,21-21
			l1.9,6.8l-0.9-3.4l0.9,3.4c-0.5,0.1-12.6,3.7-16.1,16.2c-0.4,1.3-0.8,2.7-1.2,4.2c-2.7,9.9-6.1,22.2-11.6,30.8
			c9.9-3.6,21.9-10.7,24.5-24.5c2.6-13.6,16.5-19.4,17.1-19.7l2.6,6.5c-0.1,0-10.9,4.7-12.8,14.5c-2.4,12.3-10.9,22-24.7,28.1
			C1046.6,680.3,1037.3,681.2,1036.9,681.2z"/>
	</g>
	<g>
		<path fill="#1F1E1F" d="M1252.5,681.2c-0.4,0-9.7-1-19.8-5.4c-13.8-6.1-22.3-15.8-24.7-28.1c-1.9-9.9-12.7-14.5-12.8-14.5l2.6-6.5
			c0.6,0.2,14.4,6.1,17.1,19.7c2.6,13.8,14.6,20.9,24.5,24.5c-5.5-8.6-8.9-20.8-11.6-30.8c-0.4-1.5-0.8-2.9-1.2-4.2
			c-3.5-12.4-15.6-16-16.1-16.2l1.9-6.7c0.7,0.2,16.4,4.7,21,21c0.4,1.3,0.8,2.8,1.2,4.3c3.7,13.4,9.3,33.8,19.1,36L1252.5,681.2z"
			/>
	</g>
	<g>
		<path fill="#1F1E1F" d="M1181.4,593.3h-72.8v-3.5c0-16.5-2.2-22.7-2.2-22.8l6.5-2.5c0.3,0.7,2.4,6.5,2.6,21.8h58.9
			c0.4-15.5,3.5-21.5,3.8-22.2l6.1,3.4l-3.1-1.7l3.1,1.6c0,0.1-3,6.1-3,22.4V593.3z"/>
	</g>
	<g>
		<path fill="#1F1E1F" d="M1159,708.3l-19-22.9l32.5-14.4l21,5.7L1159,708.3z M1151.3,688.1l8.4,10.1l19.7-18l-6.3-1.7L1151.3,688.1
			z"/>
	</g>
	<g>
		<path fill="#1F1E1F" d="M1132.6,708.3l-34.5-31.6l21-5.7l32.5,14.4L1132.6,708.3z M1112.2,680.2l19.7,18l8.4-10.1l-21.8-9.6
			L1112.2,680.2z"/>
	</g>
	<g>
		<rect x="1142.2" y="714.3" fill="#1F1E1F" width="7" height="76.3"/>
	</g>
	<g>
		<path fill="#1F1E1F" d="M1172.1,755.8c-5.8,0-10.5-4.7-10.5-10.5s4.7-10.5,10.5-10.5s10.5,4.7,10.5,10.5
			S1177.9,755.8,1172.1,755.8z M1172.1,741.9c-1.9,0-3.5,1.6-3.5,3.5c0,1.9,1.6,3.5,3.5,3.5c1.9,0,3.5-1.6,3.5-3.5
			C1175.6,743.4,1174,741.9,1172.1,741.9z"/>
	</g>
	<g>
		<path fill="#1F1E1F" d="M1172.1,790.1c-5.8,0-10.5-4.7-10.5-10.5s4.7-10.5,10.5-10.5s10.5,4.7,10.5,10.5
			S1177.9,790.1,1172.1,790.1z M1172.1,776.2c-1.9,0-3.5,1.6-3.5,3.5c0,1.9,1.6,3.5,3.5,3.5c1.9,0,3.5-1.6,3.5-3.5
			C1175.6,777.8,1174,776.2,1172.1,776.2z"/>
	</g>
</g>
</svg>
