<?xml version="1.0" encoding="utf-8"?>
<!-- Generator: Adobe Illustrator 18.0.0, SVG Export Plug-In . SVG Version: 6.00 Build 0)  -->
<!DOCTYPE svg PUBLIC "-//W3C//DTD SVG 1.1//EN" "http://www.w3.org/Graphics/SVG/1.1/DTD/svg11.dtd">
<svg version="1.1" id="Layer_1" xmlns="http://www.w3.org/2000/svg" xmlns:xlink="http://www.w3.org/1999/xlink" x="0px" y="0px"
	 width="1400px" height="980px" viewBox="0 0 1400 980" enable-background="new 0 0 1400 980" xml:space="preserve">
<rect fill="#FFFFFF" width="1400" height="980"/>
<g>
	<g>
		<path fill="#1F1E1F" d="M673.2,467.2h-7V424c0-14.7-8.6-28.2-21.9-34.5L601,369.2c-5,5.5-19.9,18.9-47,18.9
			c-27.4,0-43.6-13.6-48.9-18.9l-43.4,20.4c-13.3,6.3-21.9,19.8-21.9,34.5v43.2h-7V424c0-17.4,10.2-33.4,25.9-40.8l48.1-22.7
			l1.7,2.1c0.1,0.2,15.5,18.4,45.3,18.4c29.9,0,43.1-18,43.2-18.2l1.7-2.4l48.3,22.7c15.7,7.4,25.9,23.4,25.9,40.8V467.2z"/>
	</g>
	<g>
		<path fill="#1F1E1F" d="M554,339.5c-6,0-12.1-1.6-17.4-4.7c-13.4-7.8-29.4-20.2-29.4-35.8v-45.2h7V299c0,5.5,3.4,16.7,25.9,29.7
			c8.6,5,19.3,5,27.9,0c22.6-13,25.9-24.2,25.9-29.7v-47.3h7V299c0,15.5-16,28-29.4,35.8C566.1,337.9,560.1,339.5,554,339.5z"/>
	</g>
	<g>
		<polygon fill="#1F1E1F" points="516.7,364.1 513.6,357.8 522.1,353.7 522.1,336 529.1,336 529.1,358.1 		"/>
	</g>
	<g>
		<polygon fill="#1F1E1F" points="590.5,364 579.5,358 579.5,336 586.5,336 586.5,353.8 593.9,357.9 		"/>
	</g>
	<g>
		<path fill="#1F1E1F" d="M607.4,299.4l-4.1-5.7l5.4-3.9c2.3-1.7,4.9-4.5,5-7.3l0-0.6c0.1-2.7,0.5-9.7-0.7-11.1
			c-1.3-0.7-4.6,0.3-6,1.6l-4.6-5.3c2.9-2.5,9.5-5,14.1-2.3c4.9,2.8,4.5,10.6,4.1,17.5l0,0.6c-0.2,4.5-3.2,9.2-8,12.6L607.4,299.4z"
			/>
	</g>
	<g>
		<path fill="#1F1E1F" d="M500.5,299.4l-5.4-3.9c-4.7-3.4-7.7-8.1-8-12.6l0-0.6c-0.4-6.9-0.8-14.7,4.1-17.5
			c4.7-2.7,11.2-0.2,14.1,2.3l-4.6,5.3c-1.5-1.2-4.7-2.3-6-1.6c-1.2,1.4-0.8,8.4-0.7,11.1l0,0.6c0.1,2.8,2.7,5.6,5,7.3l5.4,3.9
			L500.5,299.4z"/>
	</g>
	<g>
		<path fill="#1F1E1F" d="M590.7,253.3l-6.9-0.9l3.5,0.4l-3.5-0.4c0.3-2.5,0.5-10.2-2.6-13c-0.4-0.4-1.8-1.6-5.4-0.9
			c-6.5,1.4-9.9,2.4-12.4,3.2c-3.2,1-5.1,1.6-9.4,1.6c-4.9,0-6.8-0.6-9.8-1.6c-2.3-0.8-5.5-1.8-11.9-3.2c-3.6-0.8-5,0.5-5.4,0.9
			c-3.1,2.9-2.9,10.5-2.6,13l-6.9,0.9c-0.2-1.3-1.5-13.3,4.8-19c2-1.9,5.7-3.8,11.6-2.5c6.8,1.5,10.3,2.6,12.6,3.3
			c2.8,0.9,3.8,1.2,7.7,1.2c3.3,0,4.4-0.3,7.3-1.2c2.5-0.8,6.2-1.9,12.9-3.3c5.9-1.3,9.6,0.7,11.6,2.5
			C592.2,240,590.9,251.9,590.7,253.3z"/>
	</g>
	<g>
		<path fill="#1F1E1F" d="M504.3,259h-7v-8.4c0-12.5,3.7-24.3,10.6-34.1c3.1-4.4,6.7-8.1,10.7-11.2l5.6-4.4v6.9
			c6.5-5.5,17.4-13.5,28.8-16.4l0.9-0.2l0.9,0.2c11.4,2.9,22.4,10.9,28.8,16.4V201l5.6,4.4c4,3.1,7.6,6.9,10.7,11.2
			c7,9.8,10.6,21.5,10.6,34.1v6.9h-7v-6.9c0-11.1-3.2-21.4-9.3-30c-1.1-1.6-2.4-3.1-3.6-4.5v8.2l-6-6.1
			c-0.2-0.2-15.3-15.4-30.7-19.7c-15.5,4.4-30.6,19.6-30.7,19.7l-6,6.1v-8.3c-1.3,1.4-2.5,2.9-3.6,4.5c-6.1,8.6-9.3,18.9-9.3,30V259
			z"/>
	</g>
	<g>
		<path fill="#1F1E1F" d="M554,403.2c-30.2,0-52.2-17-53.2-17.7l4.3-5.5l-2.2,2.8l2.2-2.8c0.2,0.2,21.1,16.2,48.8,16.2
			c27.9,0,48.5-16,48.7-16.2l4.3,5.5C606.2,386.2,584.3,403.2,554,403.2z"/>
	</g>
	<g>
		<rect x="484.7" y="449.6" fill="#1F1E1F" width="7" height="17.6"/>
	</g>
	<g>
		<rect x="614.4" y="449.6" fill="#1F1E1F" width="7" height="17.6"/>
	</g>
</g>
<g>
	<g>
		<path fill="#1F1E1F" d="M143.2,467.2h-7V424c0-17.4,10.2-33.4,25.9-40.8l44.3-20.9l8-24.1l35.3,19.9l-3.4,6.1l-27.9-15.7
			l-6.3,18.9l-47,22.1c-13.3,6.3-21.9,19.8-21.9,34.5V467.2z"/>
	</g>
	<g>
		<path fill="#1F1E1F" d="M376.5,467.2h-7V424c0-14.7-8.6-28.2-21.9-34.5l-47-22.1l-6.3-18.9L266,364.5l-3.4-6.1l35.6-20.1l8,24.1
			l44.3,20.9c15.7,7.4,25.9,23.4,25.9,40.8V467.2z"/>
	</g>
	<g>
		<path fill="#1F1E1F" d="M257.3,339.5c-6,0-12.1-1.6-17.4-4.7c-13.4-7.8-29.4-20.2-29.4-35.8v-45.2h7V299c0,5.5,3.4,16.7,25.9,29.7
			c8.6,5,19.3,5,27.9,0c22.6-13,25.9-24.2,25.9-29.7v-47.3h7V299c0,15.5-16,28-29.4,35.8C269.4,337.9,263.4,339.5,257.3,339.5z"/>
	</g>
	<g>
		<path fill="#1F1E1F" d="M224.4,259.3l-0.8-7c20.7-2.4,33.9-15.8,34.1-15.9l6-6.2l0,12.6c13.6-7.1,22.7-16.9,28.1-24.2l5.6,4.2
			c-6.6,8.9-18.1,21-35.8,28.8l-4.9,2.2v-7.3C250.3,251.1,239.2,257.6,224.4,259.3z"/>
	</g>
	<g>
		<path fill="#1F1E1F" d="M324.7,257.5h-7c0-7.7-1.7-15.3-4.9-22c-8.6-18-20.3-24.9-30.7-29.3c-7.3-3.1-15-4.7-22.9-4.8
			c-7.8,0.1-15.5,1.7-22.8,4.8c-10.4,4.4-22.1,11.3-30.7,29.3c-3.2,6.7-4.9,14.3-4.9,22h-7c0-8.7,1.9-17.3,5.6-25
			c7.6-16,17.9-25.8,34.2-32.7c8.1-3.5,16.7-5.3,25.5-5.4c8.9,0.1,17.5,1.9,25.6,5.4c16.4,7,26.6,16.8,34.2,32.7
			C322.8,240.1,324.7,248.8,324.7,257.5z"/>
	</g>
	<g>
		<path fill="#1F1E1F" d="M310.9,261.1c-18.3-4.3-31.6-25-32.2-25.9l5.9-3.8c0.1,0.2,12.5,19.2,27.9,22.9L310.9,261.1z"/>
	</g>
	<g>
		<rect x="225.4" y="336" fill="#1F1E1F" width="7" height="14.4"/>
	</g>
	<g>
		<rect x="282.8" y="336" fill="#1F1E1F" width="7" height="14.4"/>
	</g>
	<g>
		
			<rect x="284.3" y="355.8" transform="matrix(0.4958 0.8684 -0.8684 0.4958 469.7051 -61.4348)" fill="#1F1E1F" width="7" height="36"/>
	</g>
	<g>
		
			<rect x="207.7" y="370.3" transform="matrix(0.8685 0.4957 -0.4957 0.8685 215.001 -62.74)" fill="#1F1E1F" width="36" height="7"/>
	</g>
	<g>
		<path fill="#1F1E1F" d="M310.7,299.4l-4.1-5.7l5.4-3.9c2.3-1.7,4.9-4.5,5-7.3l0-0.6c0.1-2.7,0.5-9.7-0.7-11.1
			c-1.3-0.7-4.6,0.3-6,1.6l-4.6-5.3c2.9-2.5,9.5-5,14.1-2.3c4.9,2.8,4.5,10.6,4.1,17.5l0,0.6c-0.2,4.5-3.2,9.2-8,12.6L310.7,299.4z"
			/>
	</g>
	<g>
		<path fill="#1F1E1F" d="M203.8,299.4l-5.4-3.9c-4.7-3.4-7.7-8.1-8-12.6l0-0.6c-0.4-6.9-0.8-14.7,4.1-17.5
			c4.7-2.7,11.2-0.2,14.1,2.3l-4.6,5.3c-1.5-1.2-4.7-2.3-6-1.6c-1.2,1.4-0.8,8.4-0.7,11.1l0,0.6c0.1,2.8,2.7,5.6,5,7.3l5.4,3.9
			L203.8,299.4z"/>
	</g>
	<g>
		<polygon fill="#1F1E1F" points="256.3,425.8 234.3,404.8 247.1,382.8 253.2,386.3 243.1,403.5 256.3,416.1 269.5,403.5 
			259.5,386.3 265.5,382.8 278.4,404.8 		"/>
	</g>
	<g>
		
			<rect x="239.1" y="412" transform="matrix(0.9852 0.1712 -0.1712 0.9852 78.8675 -35.0415)" fill="#1F1E1F" width="7" height="55.6"/>
	</g>
	<g>
		
			<rect x="242.6" y="436.2" transform="matrix(0.1845 0.9828 -0.9828 0.1845 652.8323 92.727)" fill="#1F1E1F" width="55.8" height="7"/>
	</g>
	<g>
		<rect x="189" y="449.6" fill="#1F1E1F" width="7" height="17.6"/>
	</g>
	<g>
		<rect x="318.7" y="449.6" fill="#1F1E1F" width="7" height="17.6"/>
	</g>
</g>
<g>
	<g>
		<rect x="1075.2" y="449.6" fill="#1F1E1F" width="7" height="17.6"/>
	</g>
	<g>
		<rect x="1204.9" y="449.6" fill="#1F1E1F" width="7" height="17.6"/>
	</g>
	<g>
		<g>
			<path fill="#1F1E1F" d="M1262.7,467.2h-7V424c0-14.7-8.6-28.2-21.9-34.5l-45.7-21.5l3-6.3l45.7,21.5
				c15.7,7.4,25.9,23.4,25.9,40.8V467.2z"/>
		</g>
		<g>
			<path fill="#1F1E1F" d="M1029.4,467.2h-7V424c0-17.4,10.2-33.4,25.9-40.8l45.7-21.5l3,6.3l-45.7,21.5
				c-13.3,6.3-21.9,19.8-21.9,34.5V467.2z"/>
		</g>
		<g>
			<polygon fill="#1F1E1F" points="1106.2,364.1 1103.2,357.8 1111.6,353.7 1111.6,336 1118.6,336 1118.6,358.1 			"/>
		</g>
		<g>
			<polygon fill="#1F1E1F" points="1180,364 1169,358 1169,336 1176,336 1176,353.8 1183.4,357.9 			"/>
		</g>
		<g>
			<path fill="#1F1E1F" d="M1196.9,299.4l-4.1-5.7l5.4-3.9c2.3-1.7,4.9-4.5,5-7.3l0-0.6c0.1-2.7,0.5-9.7-0.7-11.1
				c-1.3-0.7-4.6,0.3-6,1.6l-4.6-5.3c2.9-2.5,9.5-5,14.1-2.3c4.9,2.8,4.5,10.6,4.1,17.5l0,0.6c-0.2,4.5-3.2,9.2-8,12.6L1196.9,299.4
				z"/>
		</g>
		<g>
			<path fill="#1F1E1F" d="M1090,299.4l-5.4-3.9c-4.7-3.4-7.7-8.1-8-12.6l0-0.6c-0.4-6.9-0.8-14.7,4.1-17.5
				c4.7-2.7,11.2-0.2,14.1,2.3l-4.6,5.3c-1.5-1.2-4.7-2.3-6-1.6c-1.2,1.4-0.8,8.4-0.7,11.1l0,0.6c0.1,2.8,2.7,5.6,5,7.3l5.4,3.9
				L1090,299.4z"/>
		</g>
		<g>
			<path fill="#1F1E1F" d="M1143.5,339.5c-6,0-12-1.6-17.4-4.7c-13.4-7.8-29.4-20.2-29.4-35.8v-45.2h7V299c0,5.5,3.4,16.7,25.9,29.7
				c8.6,5,19.3,5,27.8,0c22.6-13,25.9-24.2,25.9-29.7v-47.3h7V299c0,15.5-16,28-29.4,35.8C1155.6,337.9,1149.6,339.5,1143.5,339.5z"
				/>
		</g>
		<g>
			<path fill="#1F1E1F" d="M1143.5,371c-18.8,0-30.5-12.1-31-12.7l5.1-4.8c0.1,0.1,10.2,10.5,25.9,10.5c15.9,0,26.4-10.4,26.5-10.5
				l5,4.9C1174.5,358.9,1162.3,371,1143.5,371z"/>
		</g>
	</g>
	<g>
		<path fill="#1F1E1F" d="M1199.3,258.6l-5.3-4.5c3.8-4.4,8.9-17-0.1-25.6c-5.9-5.6-15.7-2.6-15.8-2.6l-4.4,1.4l-0.2-4.6
			c0-0.8-0.8-8-9.8-8.7c-4.3-0.3-9.9,1.6-15.8,3.7c-9.8,3.5-21,7.4-33,3.9c-6.1-1.8-12.4-5.3-17.2-8.3c2.4,8.2,8,19.9,19.9,22.8
			c12.1,2.9,20.8,2.5,27.9,2.2c8.1-0.4,15.1-0.7,22.1,4.5l-4.1,5.6c-5.1-3.7-10.1-3.5-17.7-3.1c-7.5,0.3-16.8,0.8-29.9-2.4
			c-9.9-2.4-17.7-9.6-22.6-21c-3.6-8.3-4.4-15.8-4.4-16.1l-0.8-8.1l6.4,5c0.1,0.1,12,9.2,22.2,12.2c9.8,2.9,19.4-0.5,28.7-3.8
			c6.6-2.3,12.8-4.5,18.6-4.1c9.5,0.7,13.8,6.5,15.4,11.3c4.7-0.7,12.8-0.8,18.9,5C1211.3,235.4,1204.4,252.6,1199.3,258.6z"/>
	</g>
	<g>
		<path fill="#1F1E1F" d="M1087.3,258.7c-5.6-6.5-10-20.6-2.6-31.5l5.8,4c-5.8,8.4-0.9,19.3,2.2,23L1087.3,258.7z"/>
	</g>
	<g>
		<g>
			<path fill="#1F1E1F" d="M1114.6,400.8c-1.6,0-3.1-0.5-4.4-1.4c-2-1.4-3.3-3.8-3.3-6.3v-12.3c0-2.5,1.2-4.8,3.3-6.3
				c2-1.4,4.7-1.8,7-0.9l13.1,4.8l-2.4,6.6l-13.1-4.8c-0.3-0.1-0.5,0-0.6,0.1s-0.3,0.3-0.3,0.5v12.3c0,0.3,0.2,0.5,0.3,0.5
				c0.1,0.1,0.3,0.2,0.6,0.1l13.1-4.8l2.4,6.6l-13.1,4.8C1116.4,400.6,1115.5,400.8,1114.6,400.8z"/>
		</g>
		<g>
			<path fill="#1F1E1F" d="M1173,400.8c-0.9,0-1.8-0.2-2.6-0.5l-13.1-4.8l2.4-6.6l13.1,4.8c0.3,0.1,0.5,0,0.6-0.1s0.3-0.3,0.3-0.5
				v-12.3c0-0.3-0.2-0.5-0.3-0.5s-0.3-0.2-0.6-0.1l-13.1,4.8l-2.4-6.6l13.1-4.8c2.3-0.9,5-0.5,7,0.9c2,1.4,3.3,3.8,3.3,6.3v12.3
				c0,2.5-1.2,4.8-3.3,6.3C1176.1,400.3,1174.5,400.8,1173,400.8z"/>
		</g>
		<g>
			<path fill="#1F1E1F" d="M1153.6,397.2h-19v-20.7h19V397.2z M1141.6,390.2h5v-6.7h-5V390.2z"/>
		</g>
	</g>
	<g>
		<rect x="1140" y="407.1" fill="#1F1E1F" width="7" height="60.1"/>
	</g>
	<g>
		<path fill="#1F1E1F" d="M1168.5,431.6c-5.8,0-10.5-4.7-10.5-10.5s4.7-10.5,10.5-10.5s10.5,4.7,10.5,10.5
			S1174.3,431.6,1168.5,431.6z M1168.5,417.7c-1.9,0-3.5,1.6-3.5,3.5s1.6,3.5,3.5,3.5c1.9,0,3.5-1.6,3.5-3.5
			S1170.5,417.7,1168.5,417.7z"/>
	</g>
	<g>
		<path fill="#1F1E1F" d="M1168.5,466c-5.8,0-10.5-4.7-10.5-10.5s4.7-10.5,10.5-10.5s10.5,4.7,10.5,10.5S1174.3,466,1168.5,466z
			 M1168.5,452.1c-1.9,0-3.5,1.6-3.5,3.5s1.6,3.5,3.5,3.5c1.9,0,3.5-1.6,3.5-3.5S1170.5,452.1,1168.5,452.1z"/>
	</g>
</g>
<g>
	<g>
		<g>
			<path fill="#1F1E1F" d="M967.5,467.2h-7V424c0-14.7-8.6-28.2-21.9-34.5l-43.3-20.4l-38,43l-5.2-4.6l41.5-46.9l48,22.6
				c15.7,7.4,25.9,23.4,25.9,40.8V467.2z"/>
		</g>
		<g>
			<path fill="#1F1E1F" d="M734.3,467.2h-7V424c0-17.4,10.2-33.4,25.9-40.8l48.1-22.6l88,101l-5.3,4.6l-84.5-97l-43.3,20.4
				c-13.3,6.3-21.9,19.8-21.9,34.5V467.2z"/>
		</g>
		<g>
			<polygon fill="#1F1E1F" points="811.1,364.1 808,357.8 816.4,353.7 816.4,336 823.4,336 823.4,358.1 			"/>
		</g>
		<g>
			<polygon fill="#1F1E1F" points="884.9,364 873.9,358 873.9,336 880.9,336 880.9,353.8 888.3,357.9 			"/>
		</g>
		<g>
			<path fill="#1F1E1F" d="M901.8,299.4l-4.1-5.7l5.4-3.9c2.3-1.7,4.9-4.5,5-7.3l0-0.6c0.1-2.7,0.5-9.7-0.7-11.1
				c-1.3-0.7-4.6,0.3-6,1.6L897,267c2.9-2.5,9.5-5,14.1-2.3c4.9,2.8,4.5,10.6,4.1,17.5l0,0.6c-0.2,4.5-3.2,9.2-8,12.6L901.8,299.4z"
				/>
		</g>
		<g>
			<path fill="#1F1E1F" d="M794.9,299.4l-5.4-3.9c-4.7-3.4-7.7-8.1-8-12.6l0-0.6c-0.4-6.9-0.8-14.7,4.1-17.5
				c4.7-2.7,11.2-0.2,14.1,2.3l-4.6,5.3c-1.5-1.2-4.7-2.3-6-1.6c-1.2,1.4-0.8,8.4-0.7,11.1l0,0.6c0.1,2.8,2.7,5.6,5,7.3l5.4,3.9
				L794.9,299.4z"/>
		</g>
		<g>
			<rect x="779" y="449.6" fill="#1F1E1F" width="7" height="17.6"/>
		</g>
		<g>
			<rect x="908.8" y="449.6" fill="#1F1E1F" width="7" height="17.6"/>
		</g>
		<g>
			<path fill="#1F1E1F" d="M848.4,339.5c-6,0-12-1.6-17.4-4.7c-13.4-7.8-29.4-20.2-29.4-35.8v-45.2h7V299c0,5.5,3.4,16.7,25.9,29.7
				c8.6,5,19.3,5,27.8,0c22.6-13,25.9-24.2,25.9-29.7v-47.3h7V299c0,15.5-16,28-29.4,35.8C860.5,337.9,854.4,339.5,848.4,339.5z"/>
		</g>
		<g>
			<path fill="#1F1E1F" d="M869.4,217.7c-5.9-3.5-13.3-5.2-22-5.2c-7.8,0-14.6,1.7-20.1,5l-3.6-6c6.6-4,14.6-6,23.7-6
				c9.9,0,18.5,2.1,25.5,6.2L869.4,217.7z"/>
		</g>
		<g>
			<path fill="#1F1E1F" d="M817.8,265.8l-6.1-3.4c1.1-1.9,2.2-3.7,3.3-5.5c4.8-7.6,6.2-10.5,2.9-13.8c-4.3-4.3-5.5-10.4-5.6-15.3
				c-5,4.5-11.5,12.4-11.5,23.4h-7c0-22.2,20.2-33.4,21-33.9l6.9-3.7l-1.8,7.6c0,0.1-2.6,11.5,2.9,17c7.6,7.6,2.5,15.5-2,22.5
				C819.9,262.3,818.8,264,817.8,265.8z"/>
		</g>
		<g>
			<path fill="#1F1E1F" d="M879.4,265.8c-1-1.8-2.1-3.5-3.1-5.1c-4.5-7-9.5-14.9-2-22.5c5.4-5.4,2.9-16.8,2.9-17l-1.8-7.6l6.9,3.7
				c0.9,0.5,21,11.7,21,33.9h-7c0-11-6.5-18.9-11.5-23.4c-0.1,4.9-1.2,11-5.6,15.3c-3.3,3.3-1.9,6.2,2.9,13.8
				c1.1,1.7,2.3,3.6,3.3,5.5L879.4,265.8z"/>
		</g>
		<g>
			<path fill="#1F1E1F" d="M848.4,371c-18.8,0-30.5-12.1-31-12.7l5.1-4.8c0.1,0.1,10.2,10.5,25.9,10.5c15.8,0,26.4-10.4,26.5-10.5
				l5,4.9C879.4,358.9,867.2,371,848.4,371z"/>
		</g>
	</g>
	<g>
		
			<rect x="773.4" y="420.8" transform="matrix(0.6443 0.7647 -0.7647 0.6443 619.4828 -483.4395)" fill="#1F1E1F" width="112.2" height="7"/>
	</g>
	<g>
		
			<rect x="877.4" y="372.3" transform="matrix(0.7604 0.6495 -0.6495 0.7604 474.9399 -474.7711)" fill="#1F1E1F" width="7" height="67.9"/>
	</g>
</g>
<g>
	<g>
		<rect x="189.9" y="764.1" fill="#1F1E1F" width="7" height="17.6"/>
	</g>
	<g>
		<rect x="319.6" y="764.1" fill="#1F1E1F" width="7" height="17.6"/>
	</g>
	<g>
		<path fill="#1F1E1F" d="M143.2,781.7h-7v-43.2c0-17.4,10.2-33.4,25.9-40.8l44.3-20.9l8-24.1l43.4,25l-3.5,6.1l-36-20.7l-6.3,18.8
			l-47,22.1c-13.3,6.3-21.9,19.8-21.9,34.5V781.7z"/>
	</g>
	<g>
		<path fill="#1F1E1F" d="M376.5,781.7h-7v-43.2c0-14.7-8.6-28.2-21.9-34.5l-43.9-20.7l-32.2,21.5L250.8,680l47.4-27.2l8,24.1
			l44.3,20.9c15.7,7.4,25.9,23.4,25.9,40.8V781.7z M261.5,682l11.3,13.7l26.4-17.6l-5-14.9L261.5,682z"/>
	</g>
	<g>
		<path fill="#1F1E1F" d="M257.3,654c-6,0-12.1-1.6-17.4-4.7c-13.4-7.8-29.4-20.2-29.4-35.8v-45.2h7v45.2c0,5.5,3.4,16.7,25.9,29.7
			c8.6,5,19.3,5,27.9,0c22.6-13,25.9-24.2,25.9-29.7v-47.3h7v47.3c0,15.5-16,28-29.4,35.8C269.4,652.5,263.4,654,257.3,654z"/>
	</g>
	<g>
		<rect x="225.4" y="650.5" fill="#1F1E1F" width="7" height="14.4"/>
	</g>
	<g>
		<rect x="282.8" y="650.5" fill="#1F1E1F" width="7" height="14.4"/>
	</g>
	<g>
		<polygon fill="#1F1E1F" points="242.1,705 208.2,682.4 212,676.5 240.6,695.6 247.8,686.5 253.3,690.8 		"/>
	</g>
	<g>
		<rect x="253.8" y="707.2" fill="#1F1E1F" width="7" height="74.5"/>
	</g>
	<g>
		<path fill="#1F1E1F" d="M285.3,740.3c-5.8,0-10.5-4.7-10.5-10.5s4.7-10.5,10.5-10.5s10.5,4.7,10.5,10.5S291.1,740.3,285.3,740.3z
			 M285.3,726.4c-1.9,0-3.5,1.6-3.5,3.5c0,1.9,1.6,3.5,3.5,3.5s3.5-1.6,3.5-3.5C288.8,727.9,287.2,726.4,285.3,726.4z"/>
	</g>
	<g>
		<path fill="#1F1E1F" d="M285.3,779.6c-5.8,0-10.5-4.7-10.5-10.5s4.7-10.5,10.5-10.5s10.5,4.7,10.5,10.5S291.1,779.6,285.3,779.6z
			 M285.3,765.7c-1.9,0-3.5,1.6-3.5,3.5c0,1.9,1.6,3.5,3.5,3.5s3.5-1.6,3.5-3.5C288.8,767.3,287.2,765.7,285.3,765.7z"/>
	</g>
	<g>
		<path fill="#1F1E1F" d="M308.8,574.1c-8.4,0-16.1-4.4-20.3-11.5c-2.4,0.7-4.9,1-7.4,1c-7.5,0-14.6-2.9-19.9-8.2
			c-1.6-1.6-4.1-1.6-5.7,0c-5.3,5.3-12.4,8.2-19.9,8.2c-2.5,0-5-0.3-7.4-1c-4.2,7.1-11.9,11.5-20.3,11.5c-0.2,0-0.4,0-0.6,0l-0.1,0
			l0.2-7c0.1,0,0.3,0,0.4,0l0.1,0c6.7,0,12.7-4,15.4-10.2l1.3-3.1l3.2,1.3c2.5,1,5.2,1.5,7.9,1.5c5.6,0,11-2.2,15-6.2
			c4.4-4.3,11.2-4.3,15.6,0c4,4,9.3,6.2,15,6.2c2.7,0,5.4-0.5,7.9-1.5l3.2-1.3l1.3,3.1c2.6,6.2,8.7,10.2,15.4,10.2l0.1,0
			c0.1,0,0.3,0,0.4,0l0.2,7l-0.1,0C309.2,574.1,309,574.1,308.8,574.1z"/>
	</g>
	<g>
		<path fill="#1F1E1F" d="M203.9,643.9c-0.5,0-1,0-1.5-0.1c-6.6-0.7-12.1-5.9-13-12.4c-0.2-1.3-0.2-2.6-0.1-3.8
			c-8.3-2.5-14.2-10.1-14.2-19.1c0-4.1,1.2-8,3.5-11.3c-3.8-3.9-6-9.2-6-14.8c0-7.8,4.2-14.9,11.1-18.6c1.8-1,2.6-3.1,1.8-5.1
			c-1-2.6-1.5-5.4-1.5-8.3c0-13.1,10.6-23.7,23.7-23.7c0.3,0,0.5,0,0.8,0c3.7-11.6,14.5-19.7,27-19.7c3.5,0,6.8,0.6,10,1.8
			c3.7-2.9,8.2-4.4,12.9-4.4c4.7,0,9.1,1.5,12.8,4.4c3.1-1.2,6.4-1.8,9.9-1.8c12.4,0,23.3,8.1,27,19.7c0.3,0,0.5,0,0.8,0
			c13.1,0,23.7,10.6,23.7,23.7c0,2.8-0.5,5.6-1.5,8.3c-0.7,2,0,4.1,1.8,5.1c6.8,3.7,11.1,10.9,11.1,18.6c0,5.5-2.2,10.8-6,14.8
			c2.3,3.3,3.5,7.2,3.5,11.3c0,9-5.9,16.6-14.2,19.1c0.2,1.6,0.1,3.3-0.3,4.9c-1.3,5.7-6,10.2-11.8,11.2c-4.4,0.8-8.8-0.4-12.1-3.2
			c-3.4-2.8-5.3-6.9-5.3-11.3h7c0,2.3,1,4.5,2.8,6c1.8,1.5,4.1,2.1,6.4,1.7c3-0.5,5.5-2.9,6.1-5.9c0.4-1.6,0.2-3.2-0.4-4.7l-1.8-4.4
			l4.7-0.4c6.7-0.6,11.7-6.2,11.7-12.9c0-3.5-1.4-6.8-3.8-9.2l-2.9-2.9l3.3-2.4c3.7-2.7,5.9-7,5.9-11.5c0-5.2-2.8-10-7.4-12.5
			c-4.9-2.7-7-8.4-5-13.7c0.7-1.9,1-3.8,1-5.8c0-9.2-7.5-16.7-16.7-16.7c-0.9,0-1.8,0.1-2.8,0.3l-3.4,0.6l-0.7-3.4
			c-1.9-10-10.7-17.2-20.9-17.2c-3.1,0-6.2,0.7-9,2l-2.2,1l-1.7-1.7c-2.6-2.5-6.1-4-9.7-4c-3.7,0-7.1,1.4-9.8,4l-1.7,1.7l-2.2-1.1
			c-2.9-1.4-6-2.1-9.2-2.1c-10.2,0-19,7.2-20.9,17.2l-0.7,3.4l-3.4-0.6c-1-0.2-2-0.3-2.8-0.3c-9.2,0-16.7,7.5-16.7,16.7
			c0,2,0.4,4,1,5.8c2,5.3-0.2,11-5,13.7c-4.6,2.5-7.4,7.3-7.4,12.5c0,4.5,2.2,8.8,5.9,11.5l3.3,2.4l-2.9,2.9
			c-2.5,2.5-3.8,5.7-3.8,9.2c0,6.7,5.1,12.3,11.7,12.9l4.7,0.4l-1.8,4.4c-0.5,1.3-0.7,2.7-0.5,4.2c0.5,3.4,3.4,6.2,6.8,6.5
			c2.2,0.2,4.4-0.5,6-2c1.6-1.5,2.6-3.6,2.6-5.8h7c0,4.2-1.8,8.2-4.9,11C211.1,642.5,207.6,643.9,203.9,643.9z"/>
	</g>
</g>
<g>
	<g>
		<path fill="#1F1E1F" d="M440.9,781.7h-7v-43.2c0-17.4,10.2-33.4,25.9-40.8l44.3-20.9l8-24.1l43.4,25l-3.5,6.1l-36-20.7l-6.3,18.8
			l-47,22.1c-13.3,6.3-21.9,19.8-21.9,34.5V781.7z"/>
	</g>
	<g>
		<path fill="#1F1E1F" d="M674.2,781.7h-7v-43.2c0-14.7-8.6-28.2-21.9-34.5l-43.9-20.7l-32.2,21.5L548.5,680l47.4-27.2l8,24.1
			l44.3,20.9c15.7,7.4,25.9,23.4,25.9,40.8V781.7z M559.2,682l11.3,13.7l26.4-17.6l-5-14.9L559.2,682z"/>
	</g>
	<g>
		<path fill="#1F1E1F" d="M555,654c-6,0-12.1-1.6-17.4-4.7c-13.4-7.8-29.4-20.2-29.4-35.8v-45.2h7v45.2c0,5.5,3.4,16.7,25.9,29.7
			c8.6,5,19.3,5,27.9,0c22.6-13,25.9-24.2,25.9-29.7v-47.3h7v47.3c0,15.5-16,28-29.4,35.8C567.1,652.5,561.1,654,555,654z"/>
	</g>
	<g>
		<path fill="#1F1E1F" d="M518.2,574.3v-19h7v11c18.6-3.5,30-15.2,30.2-15.3l6-6.3v12.6c13.6-7.1,22.7-16.9,28.1-24.2l5.6,4.2
			c-6.6,8.8-18.1,21-35.8,28.8l-4.9,2.2V561c-6.4,4.7-17.6,11.2-32.3,12.9L518.2,574.3z"/>
	</g>
	<g>
		<path fill="#1F1E1F" d="M622.4,572h-7c0-7.7-1.7-15.3-4.9-22c-8.6-18-20.3-24.9-30.7-29.3c-7.3-3.1-15-4.7-22.9-4.8
			c-7.8,0.1-15.5,1.7-22.8,4.8c-10.4,4.4-22.1,11.3-30.7,29.3c-3.2,6.7-4.9,14.3-4.9,22h-7c0-8.7,1.9-17.3,5.6-25
			c7.6-16,17.9-25.8,34.2-32.7c8.1-3.5,16.7-5.3,25.5-5.4c8.9,0.1,17.5,1.9,25.6,5.4c16.4,7,26.6,16.8,34.2,32.7
			C620.5,554.7,622.4,563.3,622.4,572z"/>
	</g>
	<g>
		<path fill="#1F1E1F" d="M608.6,575.6c-18.3-4.3-31.6-25-32.2-25.9l5.9-3.8c0.1,0.2,12.5,19.2,27.9,22.9L608.6,575.6z"/>
	</g>
	<g>
		<rect x="523.1" y="650.5" fill="#1F1E1F" width="7" height="14.4"/>
	</g>
	<g>
		<rect x="580.5" y="650.5" fill="#1F1E1F" width="7" height="14.4"/>
	</g>
	<g>
		<polygon fill="#1F1E1F" points="539.8,705 505.9,682.4 509.8,676.5 538.3,695.6 545.5,686.5 551,690.8 		"/>
	</g>
	<g>
		<path fill="#1F1E1F" d="M608.4,613.9l-4.1-5.7l5.4-3.9c2.3-1.7,4.9-4.5,5-7.3l0-0.6c0.1-2.7,0.5-9.7-0.7-11.1
			c-1.3-0.7-4.6,0.3-6,1.6l-4.6-5.3c2.9-2.5,9.5-5,14.1-2.3c4.9,2.8,4.5,10.6,4.1,17.5l0,0.6c-0.2,4.5-3.2,9.2-8,12.6L608.4,613.9z"
			/>
	</g>
	<g>
		<path fill="#1F1E1F" d="M501.5,613.9l-5.4-3.9c-4.7-3.4-7.7-8.1-8-12.6l0-0.6c-0.4-6.9-0.8-14.7,4.1-17.5
			c4.7-2.7,11.2-0.2,14.1,2.3l-4.6,5.3c-1.5-1.2-4.7-2.3-6-1.6c-1.2,1.4-0.8,8.4-0.7,11.1l0,0.6c0.1,2.8,2.7,5.6,5,7.3l5.4,3.9
			L501.5,613.9z"/>
	</g>
	<g>
		<rect x="484.7" y="764.1" fill="#1F1E1F" width="7" height="17.6"/>
	</g>
	<g>
		<rect x="614.4" y="764.1" fill="#1F1E1F" width="7" height="17.6"/>
	</g>
	<g>
		<path fill="#1F1E1F" d="M624.4,668.5h-18.4v-7h7.6l-9.5-21.1h17.1c-5.1-10-6-23.4-6-24.1l7-0.4c0,0,0,0,0,0l0,0
			c0,0.3,1.2,18,8.2,25.7l5.3,5.8h-20.7L624.4,668.5z"/>
	</g>
	<g>
		<path fill="#1F1E1F" d="M502.7,668.5h-18.4l9.5-21.1h-20.7l5.3-5.8c5.8-6.4,7.9-20.7,8.2-25.7l7,0.4c0,0.7-0.9,14-6,24.1h17.1
			l-9.5,21.1h7.6V668.5z"/>
	</g>
	<g>
		<path fill="#1F1E1F" d="M557.1,781.7h-7v-32.3c-19.1-5.4-34.6-18.1-45-36.9c-8.1-14.7-10.2-27.9-10.3-28.4l6.9-1.1
			c0.1,0.5,8.3,49.6,52.7,60.4l2.7,0.7V781.7z"/>
	</g>
	<g>
		<path fill="#1F1E1F" d="M566.4,746.1l-2.8-6.4c35-15.3,41.8-56.3,41.8-56.7l6.9,1.1C612,685.9,604.9,729.3,566.4,746.1z"/>
	</g>
</g>
<g>
	<g>
		<rect x="781.7" y="764.1" fill="#1F1E1F" width="7" height="17.6"/>
	</g>
	<g>
		<rect x="911.5" y="764.1" fill="#1F1E1F" width="7" height="17.6"/>
	</g>
	<g>
		<path fill="none" stroke="#1F1E1F" stroke-width="7" stroke-miterlimit="10" d="M895.7,679.4"/>
	</g>
	<g>
		<path fill="#1F1E1F" d="M968.8,781.7h-7v-43.2c0-14.7-8.6-28.2-21.9-34.5l-47-22.1l-6.3-18.9c-23.7,12.2-52.1,12.2-75.8,0
			l-6.3,18.9l-47,22.1c-13.3,6.3-21.9,19.8-21.9,34.5v43.2h-7v-43.2c0-17.4,10.2-33.4,25.9-40.8l44.3-20.9l8-24.1l3.7,2.2
			c23.4,13.6,52.6,13.6,76,0.1l4-2.3l8,24.1l44.3,20.9c15.7,7.4,25.9,23.4,25.9,40.8V781.7z"/>
	</g>
	<g>
		<path fill="#1F1E1F" d="M849.7,654c-6,0-12.1-1.6-17.4-4.7c-13.4-7.8-29.4-20.2-29.4-35.8v-29.4h7v29.4c0,5.5,3.4,16.7,25.9,29.7
			c8.6,5,19.3,5,27.9,0c22.6-13,25.9-24.2,25.9-29.7v-47.3h7v47.3c0,15.5-16,28-29.4,35.8C861.7,652.5,855.7,654,849.7,654z"/>
	</g>
	<g>
		<path fill="#1F1E1F" d="M813.6,579.8c-2.2,0-4.4-0.7-6.2-2.1c-2.6-2-4.1-5-4.1-8.2v-6.8h7v6.8c0,1.1,0.5,2,1.3,2.6
			c0.9,0.6,2,0.8,3,0.5c11.2-3.2,20.6-10.1,20.7-10.2l5.6-4.1l0,6.9c0,1.1,0.5,2.1,1.4,2.7c0.9,0.6,2,0.8,3.1,0.4
			c7.2-2.6,12.5-5.1,21.6-11.6l5.5-4v7.8c0,1.8,1.2,2.7,1.8,2.9c1.1,0.6,2.5,0.5,3.5-0.2c3.7-2.6,6.7-5.5,9.1-8.5l5.6,4.2
			c-2.8,3.6-6.3,7-10.6,10c-3.2,2.2-7.3,2.5-10.8,0.7c-1.9-1-3.4-2.5-4.3-4.3c-6.5,4.4-11.7,6.9-19,9.5c-3.2,1.1-6.7,0.7-9.5-1.3
			c-1.1-0.8-2.1-1.8-2.8-3c-4.1,2.6-11.1,6.4-18.9,8.6C815.5,579.6,814.5,579.8,813.6,579.8z"/>
	</g>
	<g>
		<path fill="#1F1E1F" d="M910.4,572h-7c0-6.9-1.5-13.8-4.5-19.9c-7.8-16.3-18.5-22.6-28-26.6c-6.7-2.8-13.7-4.3-20.9-4.4
			c-7.1,0.1-14.1,1.6-20.8,4.4c-9.4,4-20.2,10.3-28,26.6c-2.9,6.1-4.5,13-4.5,19.9h-7c0-8,1.8-15.9,5.1-22.9
			c7-14.6,16.5-23.6,31.6-30c7.5-3.2,15.4-4.8,23.5-4.9c8.2,0.1,16.1,1.7,23.6,4.9c15.1,6.4,24.5,15.4,31.6,30
			C908.6,556.1,910.4,564.1,910.4,572z"/>
	</g>
	<g>
		<rect x="816.7" y="650.5" fill="#1F1E1F" width="7" height="14.4"/>
	</g>
	<g>
		<rect x="874.2" y="650.5" fill="#1F1E1F" width="7" height="14.4"/>
	</g>
	<g>
		<path fill="none" stroke="#1F1E1F" stroke-width="7" stroke-miterlimit="10" d="M802.5,679.4"/>
	</g>
	<g>
		<path fill="#1F1E1F" d="M903.1,613.9l-4.1-5.7l5.4-3.9c2.3-1.7,4.9-4.5,5-7.3l0-0.6c0.1-2.7,0.5-9.7-0.7-11.1
			c-1.3-0.7-4.6,0.3-6,1.6l-4.6-5.3c2.9-2.5,9.5-5,14.1-2.3c4.9,2.8,4.5,10.6,4.1,17.5l0,0.6c-0.2,4.5-3.2,9.2-8,12.6L903.1,613.9z"
			/>
	</g>
	<g>
		<path fill="#1F1E1F" d="M796.2,613.9l-5.4-3.9c-4.7-3.4-7.7-8.1-8-12.6l0-0.6c-0.4-6.9-0.8-14.7,4.1-17.5
			c4.7-2.7,11.2-0.2,14.1,2.3l-4.6,5.3c-1.5-1.2-4.7-2.3-6-1.6c-1.2,1.4-0.8,8.4-0.7,11.1l0,0.6c0.1,2.8,2.7,5.6,5,7.3l5.4,3.9
			L796.2,613.9z"/>
	</g>
	<g>
		<path fill="#1F1E1F" d="M903.1,653.4l-5-4.9c3.9-4,5.3-18.8,5.3-27.1l7,0C910.4,623.9,910.2,646,903.1,653.4z"/>
	</g>
	<g>
		<path fill="#1F1E1F" d="M795.5,653.4c-7.2-7.4-7.3-29.5-7.3-32l7,0c0,8.3,1.4,23.1,5.3,27.1L795.5,653.4z"/>
	</g>
	<g>
		<path fill="#1F1E1F" d="M849.7,687.1c-20.6,0-36.8-8.1-37.5-8.5l3.2-6.2c0.2,0.1,15.5,7.7,34.3,7.7c18.9,0,33.3-7.6,33.4-7.7
			l3.3,6.2C885.8,678.9,870.3,687.1,849.7,687.1z"/>
	</g>
</g>
<g>
	<g>
		<rect x="1076.9" y="764.1" fill="#1F1E1F" width="7" height="17.6"/>
	</g>
	<g>
		<rect x="1206.6" y="764.1" fill="#1F1E1F" width="7" height="17.6"/>
	</g>
	<g>
		<path fill="none" stroke="#1F1E1F" stroke-width="7" stroke-miterlimit="10" d="M1190.9,679.4"/>
	</g>
	<g>
		<path fill="#1F1E1F" d="M1263.9,781.7h-7v-43.2c0-14.7-8.6-28.2-21.9-34.5l-47-22.1l-6.3-18.9c-23.7,12.2-52.1,12.2-75.8,0
			l-6.3,18.9l-47,22.1c-13.3,6.3-21.9,19.8-21.9,34.5v43.2h-7v-43.2c0-17.4,10.2-33.4,25.9-40.8l44.3-20.9l8-24.1l3.7,2.2
			c23.4,13.6,52.6,13.6,76,0.1l4-2.3l8,24.1l44.3,20.9c15.7,7.4,25.9,23.4,25.9,40.8V781.7z"/>
	</g>
	<g>
		<path fill="#1F1E1F" d="M1144.8,654c-6,0-12.1-1.6-17.4-4.7c-13.4-7.8-29.4-20.2-29.4-35.8v-29.4h7v29.4c0,5.5,3.4,16.7,25.9,29.7
			c8.6,5,19.3,5,27.9,0c22.6-13,25.9-24.2,25.9-29.7v-47.3h7v47.3c0,15.5-16,28-29.4,35.8C1156.9,652.5,1150.8,654,1144.8,654z"/>
	</g>
	<g>
		<rect x="1111.9" y="650.5" fill="#1F1E1F" width="7" height="14.4"/>
	</g>
	<g>
		<rect x="1169.3" y="650.5" fill="#1F1E1F" width="7" height="14.4"/>
	</g>
	<g>
		<path fill="none" stroke="#1F1E1F" stroke-width="7" stroke-miterlimit="10" d="M1097.6,679.4"/>
	</g>
	<g>
		<path fill="#1F1E1F" d="M1198.2,613.9l-4.1-5.7l5.4-3.9c2.3-1.7,4.9-4.5,5-7.3l0-0.6c0.1-2.7,0.5-9.7-0.7-11.1
			c-1.3-0.7-4.6,0.3-6,1.6l-4.6-5.3c2.9-2.5,9.5-5,14.1-2.3c4.9,2.8,4.5,10.6,4.1,17.5l0,0.6c-0.2,4.5-3.2,9.2-8,12.6L1198.2,613.9z
			"/>
	</g>
	<g>
		<path fill="#1F1E1F" d="M1091.3,613.9l-5.4-3.9c-4.7-3.4-7.7-8.1-8-12.6l0-0.6c-0.4-6.9-0.8-14.7,4.1-17.5
			c4.7-2.7,11.2-0.2,14.1,2.3l-4.6,5.3c-1.5-1.2-4.7-2.3-6-1.6c-1.2,1.4-0.8,8.4-0.7,11.1l0,0.6c0.1,2.8,2.7,5.6,5,7.3l5.4,3.9
			L1091.3,613.9z"/>
	</g>
	<g>
		<path fill="#1F1E1F" d="M1144.8,687.1c-20.6,0-36.8-8.1-37.5-8.5l3.2-6.2c0.2,0.1,15.5,7.7,34.3,7.7c18.8,0,33.3-7.6,33.4-7.7
			l3.3,6.2C1180.9,678.9,1165.4,687.1,1144.8,687.1z"/>
	</g>
	<g>
		<path fill="#1F1E1F" d="M1162.2,570.4l-2.3-3.2c-0.7-0.9-17-23-46.1-9.1l-3-6.3c27.8-13.3,46.3,2,52.5,8.6
			c9.3-5.9,20.5-2.3,21-2.1l-2.2,6.7c-0.1,0-10.3-3.2-17,2.8L1162.2,570.4z"/>
	</g>
	<g>
		<path fill="#1F1E1F" d="M1088.5,573.8c-5.6-7.5-7.1-18.9-4-29.5c2.3-7.8,9.2-22.1,29.3-29.6c34.2-12.8,55.4,9.2,60.7,15.6
			c10.3-0.9,18.2,1.5,23.4,7.2c9.8,10.7,5.9,28.7,5.8,29.5l-6.8-1.5l3.4,0.8l-3.4-0.7c0-0.2,3.2-15.3-4.1-23.3
			c-3.9-4.3-10.4-5.9-19.4-4.8l-2.1,0.3l-1.2-1.8c-0.8-1.1-19.4-27.6-53.8-14.7c-17.3,6.5-23.1,18.5-25.1,25.1
			c-2.5,8.6-1.4,17.6,2.9,23.4L1088.5,573.8z"/>
	</g>
	<g>
		<path fill="#1F1E1F" d="M1154.4,547.6c-13.8-11.4-34.6-6.3-34.8-6.3l-1.7-6.8c1-0.3,24.4-6.1,41,7.6L1154.4,547.6z"/>
	</g>
	<g>
		<path fill="#1F1E1F" d="M1143,788.7l-7.8-3.8c-19.6-9.5-33.6-29.5-34.2-30.4l-0.8-1.2l3.4-16.9h-12.9l-0.9-2
			c-9.1-19.5,3.5-37.6,4.1-38.4l5.7,4.1l-2.9-2l2.9,2c-0.1,0.1-9.9,14.3-4.3,29.4h16.9l-4.5,22.3c2.6,3.5,11.1,14.2,22.5,22.1
			l-30.7-83.4l6.6-2.4L1143,788.7z"/>
	</g>
	<g>
		<path fill="#1F1E1F" d="M1148.5,788.7l36.1-98.6l6.6,2.4l-29.8,81.2c11.3-7.9,19.9-18.6,22.5-22.1l-4.5-22.3h16.9
			c5.6-15-4.2-29.2-4.3-29.4l5.7-4.1c0.5,0.8,13.2,18.9,4.1,38.4l-0.9,2H1188l3.4,16.9l-0.9,1.2c-0.6,0.8-14.6,20.9-34.2,30.4
			L1148.5,788.7z"/>
	</g>
	<g>
		<rect x="1142.8" y="693.6" fill="#1F1E1F" width="7" height="68.2"/>
	</g>
</g>
</svg>
