<?xml version="1.0" encoding="UTF-8" standalone="no"?>
<svg
   xmlns:dc="http://purl.org/dc/elements/1.1/"
   xmlns:cc="http://creativecommons.org/ns#"
   xmlns:rdf="http://www.w3.org/1999/02/22-rdf-syntax-ns#"
   xmlns:svg="http://www.w3.org/2000/svg"
   xmlns="http://www.w3.org/2000/svg"
   xml:space="preserve"
   enable-background="new 0 0 1400 980"
   viewBox="0 0 266.52353 240.99498"
   height="240.99498"
   width="266.52353"
   y="0px"
   x="0px"
   id="Layer_1"
   version="1.0"><metadata
   id="metadata269"><rdf:RDF><cc:Work
       rdf:about=""><dc:format>image/svg+xml</dc:format><dc:type
         rdf:resource="http://purl.org/dc/dcmitype/StillImage" /><dc:title></dc:title></cc:Work></rdf:RDF></metadata><defs
   id="defs267">
	
	
	
	
	
	
	
	

	
	
	
	
	
	
	
	
</defs>

<path
   d="m 265.45426,10.06011 c -12.8,6.8 -46.9,25.2 -52.2,32.8 -17.1,-2.2 -57.7,-2.4 -57.7,46.4 -37.4,-21.1 -101.3,-53 -141,-49.4 -4.2,0.4 -6.0999996,5.3 -3.4,8.5 5.6,6.6 15.6,16.1 29.4,20.2 0,0 0.4,21.8 35,29.2 0,0 2.1,14 24.7,20 0,0 7.4,14.7 19.4,17.3 0,0 1.8,0.5 4.9,0.9 -11.9,9.6 -27.8,26.3 -34.9,51.2 -8.3,16.9 -11.9,34.5 -13.5,46.1 -0.8,5.8 5.6,9.8 10.5,6.6 18.7,-12.4 30.6,-29.9 38.2,-46.6 0,0 0,0 0,0 0,0 24.8,-5.7 47.2,-20.2 0,0 0,0 0,0 0.3,-0.2 0.6,-0.4 1,-0.6 0.5,-0.3 1,-0.7 1.5,-1 0.3,-0.2 0.7,-0.5 1,-0.7 0.3,-0.2 0.6,-0.4 0.8,-0.6 0.3,-0.2 0.6,-0.4 0.9,-0.7 0.3,-0.2 0.6,-0.4 0.9,-0.6 0.3,-0.2 0.6,-0.5 0.9,-0.7 0.3,-0.2 0.6,-0.4 0.8,-0.7 0.3,-0.2 0.6,-0.5 0.9,-0.7 0.3,-0.2 0.6,-0.4 0.8,-0.7 0.3,-0.2 0.6,-0.5 0.9,-0.7 0.3,-0.2 0.5,-0.5 0.8,-0.7 0.3,-0.3 0.6,-0.5 0.9,-0.8 0.3,-0.2 0.5,-0.5 0.8,-0.7 0.3,-0.3 0.6,-0.5 0.9,-0.8 0.3,-0.2 0.5,-0.5 0.8,-0.7 0.3,-0.3 0.6,-0.6 0.9,-0.9 0.2,-0.2 0.5,-0.4 0.7,-0.7 0.4,-0.4 0.7,-0.7 1.1,-1.1 0.2,-0.2 0.3,-0.3 0.5,-0.5 0.5,-0.5 1,-1.1 1.5,-1.6 0.2,-0.2 0.3,-0.4 0.5,-0.6 0.3,-0.4 0.6,-0.7 0.9,-1.1 0.2,-0.2 0.4,-0.5 0.6,-0.7 0.3,-0.3 0.6,-0.7 0.8,-1 0.2,-0.3 0.4,-0.5 0.6,-0.8 0.3,-0.3 0.5,-0.7 0.8,-1 0.2,-0.3 0.4,-0.5 0.6,-0.8 0.2,-0.3 0.5,-0.7 0.7,-1 0.2,-0.3 0.4,-0.5 0.6,-0.8 0.2,-0.3 0.5,-0.7 0.7,-1 0.2,-0.3 0.4,-0.5 0.5,-0.8 0.2,-0.4 0.4,-0.7 0.7,-1.1 0.2,-0.3 0.3,-0.5 0.5,-0.8 0.2,-0.4 0.4,-0.8 0.7,-1.2 0.1,-0.3 0.3,-0.5 0.4,-0.8 0.2,-0.5 0.5,-0.9 0.7,-1.4 0.1,-0.2 0.2,-0.4 0.3,-0.6 0.3,-0.7 0.6,-1.4 0.9,-2 0.1,-0.2 0.1,-0.3 0.2,-0.5 0.2,-0.5 0.4,-1.1 0.7,-1.6 0.1,-0.3 0.2,-0.5 0.3,-0.8 0.2,-0.5 0.3,-0.9 0.5,-1.4 0.1,-0.3 0.2,-0.6 0.3,-0.9 0.1,-0.4 0.3,-0.9 0.4,-1.3 0.1,-0.3 0.2,-0.6 0.3,-0.9 0.1,-0.4 0.2,-0.9 0.3,-1.3 0.1,-0.3 0.2,-0.6 0.2,-1 0.1,-0.4 0.2,-0.9 0.3,-1.3 0.1,-0.3 0.1,-0.7 0.2,-1 0.1,-0.5 0.2,-0.9 0.2,-1.4 0,-0.3 0.1,-0.7 0.1,-1 0.1,-0.5 0.1,-1 0.2,-1.5 0,-0.3 0.1,-0.6 0.1,-1 0,-0.5 0.1,-1.1 0.1,-1.7 0,-0.3 0,-0.5 0,-0.8 0,-0.8 0.1,-1.7 0,-2.5 v 0 0 0 0 c -0.1,-39.2 4.9,-56.8 9.3,-66.1 1.4,-0.4 3.3,-1.3 5.4,-3.1 1.3,-1.1 29.7,-24.4 44.4,-37.4 0.5,-0.2 -0.2,-1.0999996 -0.9,-0.8 z"
   id="path18"
   style="fill:#381a04" />
<g
   transform="translate(-81.44574,-582.63989)"
   id="g260">
		<path
   d="m 147.6,806.1 c -0.8,5.8 5.6,9.8 10.5,6.6 47.7,-31.7 51.5,-96.6 51.5,-96.6 -46.3,14.1 -58.7,65.4 -62,90 z"
   id="path246"
   style="fill:#b8560d" />
		<path
   d="m 227.1,664.1 c 0,0 -53.3,46.1 -30.7,102 0,0 82.5,-18.9 82.3,-75.6 -0.2,-53.2 9.1,-66.4 13.5,-73.6 0,0 -66.7,-17.1 -65.1,47.2 z"
   id="path248"
   style="fill:#e86d11" />
		<path
   d="m 336.9,582.7 c -13.7,7.2 -51.3,27.6 -52.8,34.1 -1.9,7.9 0,7.5 0,7.5 0,0 3.5,1.7 9.3,-3.2 1.3,-1.1 29.7,-24.4 44.4,-37.4 0.5,-0.4 -0.2,-1.3 -0.9,-1 z"
   id="path250"
   style="fill:#2c2c2c" />
		<path
   d="m 270.7,688.1 c -19.5,0 -35.3,15.8 -35.3,35.3 0,8.6 3,16.4 8.1,22.5 18.4,-11.9 35.2,-29.8 35.1,-55.5 0,-0.5 0,-1 0,-1.4 -2.5,-0.6 -5.1,-0.9 -7.9,-0.9 z"
   id="path252"
   style="fill:#c95f0f" />
		<path
   d="m 160.1,763.7 c 0,0 59,-23.8 50.7,-64.9 0,0 -39.9,19.7 -50.7,64.9 z"
   id="path254"
   style="fill:#e87f31" />
		<path
   d="M 247.4,673.8 C 219,656.6 134.5,608.2 86.1,612.6 c -4.2,0.4 -6.1,5.3 -3.4,8.5 5.6,6.6 15.6,16.1 29.4,20.2 0,0 0.4,21.8 35,29.2 0,0 2.1,14 24.7,20 0,0 7.4,14.7 19.4,17.3 0,0 38.4,9.9 59.4,-17.1 4.1,-5.4 2.6,-13.3 -3.2,-16.9 z"
   id="path256"
   style="fill:#90512c" />
		<circle
   cx="265.20001"
   cy="624.40002"
   r="5.5999999"
   id="circle258"
   style="fill:#381a04" />
	</g>
</svg>