<?xml version="1.0" encoding="UTF-8" standalone="no"?>
<!-- Generator: Adobe Illustrator 19.2.0, SVG Export Plug-In . SVG Version: 6.00 Build 0)  -->

<svg
   xmlns:dc="http://purl.org/dc/elements/1.1/"
   xmlns:cc="http://creativecommons.org/ns#"
   xmlns:rdf="http://www.w3.org/1999/02/22-rdf-syntax-ns#"
   xmlns:svg="http://www.w3.org/2000/svg"
   xmlns="http://www.w3.org/2000/svg"
   xmlns:sodipodi="http://sodipodi.sourceforge.net/DTD/sodipodi-0.dtd"
   xmlns:inkscape="http://www.inkscape.org/namespaces/inkscape"
   version="1.0"
   id="Layer_1"
   x="0px"
   y="0px"
   width="216.85896"
   height="210.08981"
   viewBox="0 0 216.85896 210.08981"
   enable-background="new 0 0 1400 980"
   xml:space="preserve"
   sodipodi:docname="bird9.svg"
   inkscape:version="0.92.4 (5da689c313, 2019-01-14)"><metadata
   id="metadata239"><rdf:RDF><cc:Work
       rdf:about=""><dc:format>image/svg+xml</dc:format><dc:type
         rdf:resource="http://purl.org/dc/dcmitype/StillImage" /><dc:title></dc:title></cc:Work></rdf:RDF></metadata><defs
   id="defs237">
	
	
	
	
	
	
	
	

	
	
	
	
	
	
	
	
</defs><sodipodi:namedview
   pagecolor="#ffffff"
   bordercolor="#666666"
   borderopacity="1"
   objecttolerance="10"
   gridtolerance="10"
   guidetolerance="10"
   inkscape:pageopacity="0"
   inkscape:pageshadow="2"
   inkscape:window-width="1920"
   inkscape:window-height="1017"
   id="namedview235"
   showgrid="false"
   inkscape:zoom="0.57982756"
   inkscape:cx="-329.44145"
   inkscape:cy="79.072341"
   inkscape:window-x="-8"
   inkscape:window-y="-8"
   inkscape:window-maximized="1"
   inkscape:current-layer="Layer_1"
   fit-margin-top="0"
   fit-margin-left="0"
   fit-margin-right="0"
   fit-margin-bottom="0" />

<path
   style="fill:#362720"
   inkscape:connector-curvature="0"
   id="path8"
   d="m 26.95897,206.1 c 8.2,-15.2 27,-37 44.6,-55.8 5.8,10.2 15.7,14.5 22.7,16.2 1.1,0.3 2.1,0.5 3,0.6 1.3,0.2 2.5,0.4 3.3,0.5 1,0.1 1.5,0.1 1.5,0.1 1.5,0.2 3,0.3 4.5,0.5 0.3,0 0.6,0.1 0.8,0.1 1.4,0.1 2.9,0.3 4.3,0.4 0.2,0 0.5,0 0.7,0 1.4,0.1 2.8,0.2 4.2,0.2 0,0 0.1,0 0.1,0 1.4,0.1 2.8,0.1 4.2,0.1 0.2,0 0.4,0 0.6,0 0.2,0 0.3,0 0.5,0 0.9,1.2 1.9,2.5 3,3.8 4.9,5.6 2.4,6.9 1.4,7.7 -1,0.8 -8,0.9 -10.9,1.8 -2.9,0.9 -4.2,4.9 -3.4,5.5 0.8,0.6 7.2,-1.7 11.2,-2.1 4,-0.4 14.6,3.6 16.7,3.6 2.1,0 15,-3.8 19.1,-1.7 4.2,2.1 6.3,0 6.3,0 -0.4,-0.9 -1,-1.7 -1.7,-2.4 4.7,-1 11.1,-2.1 13.9,-0.7 4.2,2.1 6.3,0 6.3,0 -3.6,-8 -18.4,-5 -23.2,-6.5 -3,-1 -7.6,-7 -10.6,-11.3 74.3,-15.5 45.2,-101.9 45.2,-101.9 0,-1.1 0.2,-2.1 0.8,-3 0.1,-0.2 0.2,-0.4 0.4,-0.5 0,0 0,-0.1 0.1,-0.1 0.1,-0.2 0.3,-0.3 0.4,-0.5 0,0 0.1,-0.1 0.1,-0.1 0.1,-0.2 0.3,-0.3 0.5,-0.4 0,0 0.1,-0.1 0.1,-0.1 0.2,-0.1 0.3,-0.3 0.5,-0.4 0,0 0,0 0.1,0 1.2,-0.9 2.8,-1.7 4.5,-2.3 0,0 0,0 0,0 0.3,-0.1 0.6,-0.2 0.8,-0.3 0,0 0,0 0,0 2.3,-0.7 4.8,-1.2 7,-1.5 0,0 0,0 0.1,0 0.3,0 0.5,-0.1 0.8,-0.1 0,0 0,0 0.1,0 0.3,0 0.5,-0.1 0.7,-0.1 0,0 0,0 0,0 1.2,-0.1 2.3,-0.2 3.1,-0.3 0,0 0.1,0 0.1,0 0.1,0 0.2,0 0.3,0 0.1,0 0.1,0 0.1,0 0.1,0 0.2,0 0.3,0 0,0 0.1,0 0.1,0 0.1,0 0.1,0 0.2,0 0,0 0.1,0 0.1,0 0,0 0.1,0 0.1,0 0.1,0 0.1,0 0.1,0 0,0 0,0 0,0 0,0 0.1,0 0.1,0 -0.6,-0.9 -1.2,-1.8 -1.7,-2.6 -0.2,-0.3 -0.4,-0.6 -0.6,-0.9 -0.4,-0.5 -0.8,-1.1 -1.2,-1.6 -0.2,-0.3 -0.5,-0.6 -0.7,-1 -0.4,-0.5 -0.7,-0.9 -1.1,-1.3 -0.3,-0.3 -0.5,-0.6 -0.8,-1 -0.3,-0.4 -0.7,-0.8 -1,-1.2 -0.3,-0.3 -0.6,-0.6 -0.9,-0.9 -0.3,-0.4 -0.7,-0.7 -1,-1 -0.3,-0.3 -0.6,-0.6 -0.9,-0.9 -0.3,-0.3 -0.6,-0.6 -1,-0.9 -0.1,-0.1 -0.2,-0.2 -0.3,-0.3 -0.2,-0.2 -0.4,-0.3 -0.6,-0.5 -0.3,-0.3 -0.6,-0.6 -1,-0.8 -0.3,-0.3 -0.6,-0.5 -0.9,-0.8 -0.2,-0.1 -0.3,-0.3 -0.5,-0.4 0,0 0,0 0,0 -0.3,-0.2 -0.6,-0.5 -0.9,-0.7 -2.7,-2 -5.5,-3.6 -8.2,-4.9 -2,-6.3 -7.5,-19.8 -19.6,-23.3 0,0 0.9,6.4 -2.7,7.6 -2.8,0.9 -15.2,8.2 -22.6,14.2 -0.7,0.2 -1.4,0.5 -2.1,0.7 -0.1,0 -0.3,0.1 -0.4,0.2 -0.4,0.1 -0.8,0.3 -1.2,0.4 -0.2,0.1 -0.3,0.1 -0.5,0.2 -0.4,0.2 -0.8,0.3 -1.2,0.5 -0.2,0.1 -0.3,0.1 -0.5,0.2 -1.1,0.5 -2.3,0.9 -3.5,1.5 -0.1,0.1 -0.3,0.1 -0.4,0.2 -0.5,0.2 -0.9,0.4 -1.4,0.6 -0.2,0.1 -0.4,0.2 -0.6,0.3 -0.4,0.2 -0.9,0.4 -1.4,0.6 -0.2,0.1 -0.3,0.2 -0.5,0.2 -0.6,0.3 -1.2,0.6 -1.8,0.9 0,0 0,0 0,0 v 0 c -1.8,0.9 -3.7,1.9 -5.6,3 0,0 0,0 0,0 -0.6,0.4 -1.3,0.7 -1.9,1.1 0,0 -0.1,0.1 -0.1,0.1 -0.6,0.4 -1.3,0.7 -1.9,1.1 0,0 -0.1,0 -0.1,0 -2.7,1.6 -5.3,3.3 -8,5.2 0,0 -0.1,0 -0.1,0.1 -0.6,0.4 -1.3,0.9 -1.9,1.3 -0.1,0 -0.1,0.1 -0.2,0.1 -0.6,0.4 -1.2,0.9 -1.9,1.4 0,0 -0.1,0.1 -0.1,0.1 -2.7,2 -5.3,4.2 -7.9,6.5 0,0 0,0 -0.1,0.1 -0.6,0.5 -1.2,1.1 -1.8,1.7 -0.1,0 -0.1,0.1 -0.2,0.1 -0.6,0.5 -1.2,1.1 -1.8,1.7 0,0 -0.1,0.1 -0.1,0.1 -2.6,2.4 -5,5 -7.4,7.7 0,0 0,0 0,0 -0.6,0.7 -1.1,1.3 -1.7,2 0,0.1 -0.1,0.1 -0.1,0.2 -0.5,0.6 -1.1,1.3 -1.6,2 0,0 -0.1,0.1 -0.1,0.1 -2.3,2.8 -4.4,5.8 -6.4,8.9 -33.9,8.8 -44.9,40.9 -48.4,59.6 -1,5.4 4.7,9.6 9.6,6.9 2.2,-1.2 4.6,-2.5 7.3,-3.9 l -32.6,34 c -10.7000004,9.2 -8.2000004,19.5 -3.7,26.9 2.5,4.9 9.8,4.8 12.6,-0.4 z m 116.2,-36.3 c 4.8,5.7 2.4,6.9 1.4,7.7 -0.6,0.5 -3.5,0.7 -6.4,1 -2.7,-2.7 -5.5,-6.6 -7.5,-9.5 1,0 1.9,-0.1 2.8,-0.1 0.1,0 0.2,0 0.4,0 1.3,-0.1 2.5,-0.2 3.7,-0.3 0,0 0,0 0,0 v 0 c 1.4,-0.1 2.8,-0.3 4.1,-0.4 0.6,0.5 1,1 1.5,1.6 z m -76.1,-32.5 c -0.8,0.3 -1.5,0.7 -2.2,1 0.6,-0.3 1.4,-0.7 2.2,-1 z m -12.6,6 c -0.6,0.3 -1.2,0.6 -1.7,0.9 0.5,-0.3 1.1,-0.6 1.7,-0.9 z m 9.8,-4.8 c -0.7,0.3 -1.4,0.7 -2.1,1 0.7,-0.3 1.4,-0.6 2.1,-1 z m -2.6,1.3 c -0.7,0.3 -1.3,0.6 -2,0.9 0.7,-0.3 1.4,-0.6 2,-0.9 z m -2.5,1.2 c -0.6,0.3 -1.3,0.6 -1.9,0.9 0.6,-0.3 1.3,-0.6 1.9,-0.9 z m -2.4,1.1 c -0.6,0.3 -1.2,0.6 -1.8,0.9 0.6,-0.3 1.2,-0.6 1.8,-0.9 z m -4.5,2.3 c -0.7,0.3 -1.3,0.7 -1.9,1 0.6,-0.3 1.2,-0.7 1.9,-1 z" />
<g
   id="g92"
   transform="translate(-736.04103,-293.4)">
		<path
   style="fill:#5c3f22"
   inkscape:connector-curvature="0"
   id="path68"
   d="m 886.4,461.5 c -4.8,-1.5 -13.6,-15.9 -13.6,-15.9 h -10 c 0,0 1.6,1.9 6.4,7.6 4.8,5.7 2.4,6.9 1.4,7.7 -1,0.8 -8,0.9 -10.9,1.8 -2.8,0.9 -4.2,4.9 -3.4,5.5 0.8,0.6 7.2,-1.7 11.2,-2.1 4,-0.4 14.6,3.6 16.7,3.6 2.1,0 15,-3.8 19.1,-1.7 4.2,2.1 6.3,0 6.3,0 -3.6,-7.9 -18.4,-4.9 -23.2,-6.5 z" />
		<path
   style="fill:#d94822"
   inkscape:connector-curvature="0"
   id="path70"
   d="m 899.7,293.4 c 0,0 0.9,6.4 -2.7,7.6 -3.6,1.1 -23.3,13.1 -27.5,18.9 0,0 43.6,-7.6 50.6,0 0.1,0 -4.5,-21.9 -20.4,-26.5 z" />
		<path
   style="fill:#fc5427"
   inkscape:connector-curvature="0"
   id="path72"
   d="m 942.7,338.5 c -18.9,-30.1 -44.5,-27 -57.6,-25.8 -18.1,1.7 -76.8,28.3 -89.9,82.8 -13.2,54.5 32.8,55.6 32.8,55.6 132.8,15.7 92.9,-102.8 92.9,-102.8 -0.3,-9.4 21.8,-9.8 21.8,-9.8 z" />
		<path
   style="fill:#fc8f71"
   inkscape:connector-curvature="0"
   id="path74"
   d="m 874,324.8 c -2.3,-3 -6.3,-4.5 -11.1,-5.1 -19.7,9.1 -45.2,26.8 -59.5,53.9 23.5,2.2 81.6,-17 81.6,-17 -24.2,-9.3 -11,-31.8 -11,-31.8 z" />
		<path
   style="fill:#d14620"
   inkscape:connector-curvature="0"
   id="path76"
   d="m 818.7,398.7 c -3.8,-16 -9.8,-22.1 -16.7,-22.2 -2.9,5.9 -5.2,12.2 -6.8,19 -13.2,54.5 32.8,55.6 32.8,55.6 13.7,1.6 25.5,1.8 35.7,0.8 -15.8,-3.5 -36.2,-15.8 -45,-53.2 z" />
		<path
   inkscape:connector-curvature="0"
   id="path78"
   d="m 885.1,312.7 c -5.6,0.5 -15.2,3.5 -26.2,9 4.3,5.1 12.9,11 26.8,12.1 6,0.5 17,3.2 22.4,9.4 3.2,3.7 9.1,6.2 13.6,7.4 -0.4,-1.5 -0.7,-2.3 -0.7,-2.3 -0.4,-9.5 21.7,-9.9 21.7,-9.9 -19,-30 -44.5,-26.9 -57.6,-25.7 z" />
		<path
   style="fill:#403635"
   inkscape:connector-curvature="0"
   id="path80"
   d="m 928.4,322.3 c -0.4,1.3 -0.9,2.6 -1.6,3.7 -2.4,3.6 -5.9,13.1 -5.1,19.3 3.8,-6.5 21,-6.8 21,-6.8 -4.5,-7.1 -9.3,-12.3 -14.3,-16.2 z" />
		<circle
   style="fill:#403635"
   id="circle82"
   r="4.4000001"
   cy="330.10001"
   cx="906.5" />
		<circle
   style="fill:#211c1b"
   id="circle84"
   r="2.8"
   cy="330.10001"
   cx="906.5" />
		<path
   style="fill:#6d4b28"
   inkscape:connector-curvature="0"
   id="path86"
   d="m 868,464.7 c -4.8,-1.5 -13.6,-15.9 -13.6,-15.9 0,0 -1.2,-0.2 -5.1,-2.5 -3.2,-1.8 -7.1,-5 -7.1,-5 0,0 2.2,7.7 8.7,15 4.9,5.6 2.4,6.9 1.4,7.7 -1,0.8 -8,0.9 -10.9,1.8 -2.9,0.9 -4.2,4.9 -3.4,5.5 0.8,0.6 7.2,-1.7 11.2,-2.1 4,-0.4 14.6,3.6 16.7,3.6 2.1,0 15,-3.8 19.1,-1.7 4.2,2.1 6.3,0 6.3,0 -3.7,-7.9 -18.5,-4.9 -23.3,-6.4 z" />
		<path
   style="fill:#403635"
   inkscape:connector-curvature="0"
   id="path88"
   d="m 819.4,364.2 c -43.2,3.8 -56.2,40.9 -60.1,61.6 -1,5.4 4.7,9.6 9.6,6.9 17.1,-9.5 51.6,-26 94.1,-36.3 58,-14 41.3,-40.5 41.3,-40.5 -9.5,-11.4 -24.7,3 -84.9,8.3 z" />
		<path
   style="fill:#211c1b"
   inkscape:connector-curvature="0"
   id="path90"
   d="m 743.6,462.9 c -10.7,9.2 -8.2,19.5 -3.7,26.9 3,5 10.3,4.9 13.1,-0.2 12.2,-22.8 48.7,-60.7 68.4,-80.5 -18.6,6.8 -34.1,14 -45.2,19.8 z" />
	</g>
</svg>