<?xml version="1.0" encoding="UTF-8" standalone="no"?>
<!-- Generator: Adobe Illustrator 19.2.0, SVG Export Plug-In . SVG Version: 6.00 Build 0)  -->

<svg
   xmlns:dc="http://purl.org/dc/elements/1.1/"
   xmlns:cc="http://creativecommons.org/ns#"
   xmlns:rdf="http://www.w3.org/1999/02/22-rdf-syntax-ns#"
   xmlns:svg="http://www.w3.org/2000/svg"
   xmlns="http://www.w3.org/2000/svg"
   xmlns:sodipodi="http://sodipodi.sourceforge.net/DTD/sodipodi-0.dtd"
   xmlns:inkscape="http://www.inkscape.org/namespaces/inkscape"
   version="1.0"
   id="Layer_1"
   x="0px"
   y="0px"
   width="267.22974"
   height="288.77802"
   viewBox="0 0 267.22974 288.77802"
   enable-background="new 0 0 1400 980"
   xml:space="preserve"
   sodipodi:docname="bird5.svg"
   inkscape:version="0.92.4 (5da689c313, 2019-01-14)"><metadata
   id="metadata239"><rdf:RDF><cc:Work
       rdf:about=""><dc:format>image/svg+xml</dc:format><dc:type
         rdf:resource="http://purl.org/dc/dcmitype/StillImage" /><dc:title></dc:title></cc:Work></rdf:RDF></metadata><defs
   id="defs237">
	
	
	
	
	
	
	
	

	
	
	
	
	
	
	
	
</defs><sodipodi:namedview
   pagecolor="#ffffff"
   bordercolor="#666666"
   borderopacity="1"
   objecttolerance="10"
   gridtolerance="10"
   guidetolerance="10"
   inkscape:pageopacity="0"
   inkscape:pageshadow="2"
   inkscape:window-width="1920"
   inkscape:window-height="1017"
   id="namedview235"
   showgrid="false"
   inkscape:zoom="0.57982756"
   inkscape:cx="256.99972"
   inkscape:cy="79.187773"
   inkscape:window-x="-8"
   inkscape:window-y="-8"
   inkscape:window-maximized="1"
   inkscape:current-layer="Layer_1"
   fit-margin-top="0"
   fit-margin-left="0"
   fit-margin-right="0"
   fit-margin-bottom="0" />

<path
   style="fill:#362720"
   inkscape:connector-curvature="0"
   id="path10"
   d="m 250.82859,23.372766 v 0 c -0.6,-0.6 -1.2,-1.1 -1.7,-1.6 -0.2,-0.2 -0.3,-0.3 -0.5,-0.5 -0.4,-0.4 -0.8,-0.7 -1.2,-1.1 -0.2,-0.2 -0.4,-0.3 -0.5,-0.5 -0.5,-0.4 -0.9,-0.8 -1.4,-1.1 -0.1,-0.1 -0.2,-0.2 -0.3,-0.2 -0.6,-0.4 -1.1,-0.8 -1.6,-1.2 -0.1,-0.1 -0.3,-0.2 -0.4,-0.3 -0.4,-0.3 -0.8,-0.6 -1.2,-0.8 -0.2,-0.1 -0.3,-0.2 -0.5,-0.3 -0.4,-0.3 -0.8,-0.5 -1.2,-0.7 -0.1,-0.1 -0.3,-0.2 -0.4,-0.3 -0.5,-0.3 -1,-0.6 -1.5,-0.9 -0.1,0 -0.2,-0.1 -0.3,-0.1 -0.4,-0.2 -0.8,-0.4 -1.3,-0.6 -0.2,-0.1 -0.3,-0.1 -0.5,-0.2 -0.4,-0.2 -0.7,-0.3 -1.1,-0.5 -0.1,-0.1 -0.3,-0.1 -0.4,-0.2 -0.5,-0.2 -0.9,-0.4 -1.4,-0.6 0,0 0,0 0,0 -0.5,-0.2 -1,-0.3 -1.4,-0.5 -0.1,0 -0.3,-0.1 -0.4,-0.1 -0.3,-0.1 -0.7,-0.2 -1,-0.3 -0.1,0 -0.3,-0.1 -0.4,-0.1 -0.4,-0.1 -0.7,-0.2 -1.1,-0.2 -0.1,0 -0.2,0 -0.3,0 -0.4,-0.1 -0.9,-0.1 -1.3,-0.2 -0.1,0 -0.2,0 -0.3,0 -0.3,0 -0.7,-0.1 -1,-0.1 -0.1,0 -0.3,0 -0.4,0 -0.3,0 -0.6,0 -0.9,0 -0.1,0 -0.2,0 -0.3,0 -0.4,0 -0.8,0 -1.2,0.1 -0.1,0 -0.1,0 -0.2,0 -0.3,0 -0.7,0.1 -1,0.1 -0.1,0 -0.2,0 -0.4,0.1 -0.3,0 -0.6,0.1 -0.9,0.2 -0.1,0 -0.2,0 -0.3,0.1 -0.4,0.1 -0.7,0.2 -1.1,0.3 0,0 0,0 0,0 -0.4,0.1 -0.7,0.2 -1.1,0.4 -0.1,0 -0.2,0.1 -0.3,0.1 -0.3,0.1 -0.5,0.2 -0.8,0.3 -0.1,0 -0.2,0.1 -0.3,0.1 -0.3,0.1 -0.6,0.3 -0.9,0.4 -0.1,0 -0.1,0.1 -0.2,0.1 -0.3,0.2 -0.7,0.4 -1,0.6 -0.1,0 -0.1,0.1 -0.2,0.1 -0.3,0.2 -0.5,0.3 -0.8,0.5 -0.1,0.1 -0.2,0.1 -0.3,0.2 -0.2,0.2 -0.5,0.3 -0.7,0.5 -0.1,0.1 -0.2,0.1 -0.2,0.2 -0.3,0.2 -0.6,0.5 -0.9,0.7 0,0 -0.1,0.1 -0.1,0.1 -0.3,0.2 -0.5,0.4 -0.8,0.7 -0.1,0.1 -0.2,0.2 -0.3,0.2 -0.2,0.2 -0.4,0.4 -0.6,0.6 -0.1,0.1 -0.2,0.2 -0.3,0.2 -0.3,0.2 -0.5,0.5 -0.8,0.8 0,0 0,0 -0.1,0.1 -0.3,0.3 -0.5,0.6 -0.8,0.9 -0.1,0.1 -0.1,0.2 -0.2,0.2 -0.2,0.2 -0.4,0.4 -0.6,0.7 -0.1,0.1 -0.2,0.2 -0.2,0.3 -0.2,0.2 -0.4,0.5 -0.6,0.7 -0.1,0.1 -0.1,0.1 -0.2,0.2 -0.2,0.3 -0.5,0.6 -0.7,0.9 -0.1,0.1 -0.1,0.2 -0.2,0.2 -0.2,0.2 -0.4,0.5 -0.5,0.7 -0.1,0.1 -0.1,0.2 -0.2,0.3 -0.2,0.2 -0.3,0.5 -0.5,0.7 -0.1,0.1 -0.1,0.2 -0.2,0.3 -0.2,0.3 -0.4,0.6 -0.6,1 0,0 -0.1,0.1 -0.1,0.1 -0.2,0.3 -0.4,0.6 -0.5,0.9 -0.1,0.1 -0.1,0.2 -0.2,0.3 -0.1,0.2 -0.3,0.5 -0.4,0.7 -0.1,0.1 -0.1,0.2 -0.2,0.3 -0.2,0.3 -0.3,0.6 -0.5,0.8 0,0 -0.1,0.1 -0.1,0.1 -0.2,0.3 -0.4,0.7 -0.5,1 -0.1,0.1 -0.1,0.2 -0.2,0.3 -0.1,0.2 -0.2,0.5 -0.4,0.7 -0.1,0.1 -0.1,0.2 -0.2,0.3 -0.1,0.2 -0.2,0.5 -0.4,0.7 0,0.1 -0.1,0.2 -0.1,0.3 -0.2,0.3 -0.3,0.6 -0.5,0.9 0,0.1 -0.1,0.2 -0.1,0.3 -0.1,0.2 -0.2,0.5 -0.3,0.7 -0.1,0.1 -0.1,0.2 -0.2,0.3 -0.1,0.2 -0.2,0.4 -0.3,0.6 0,0.1 -0.1,0.2 -0.1,0.3 -0.1,0.3 -0.3,0.6 -0.4,0.9 0,0.1 -0.1,0.1 -0.1,0.2 -0.1,0.2 -0.2,0.5 -0.3,0.7 0,0.1 -0.1,0.2 -0.1,0.3 -0.1,0.2 -0.1,0.4 -0.2,0.5 0,0.1 -0.1,0.2 -0.1,0.3 0,0 0,0.1 0,0.1 0,0 0,0 0,0 -1.8,4.6 -2.6,7.9 -2.6,7.9 -2.4,21.2 -7.9,45.4 -13,62.600004 -3.8,1.2 -7.2,2.4 -10.2,3.6 -6.4,2.5 -12.1,6.7 -16.5,12 -11,13.4 -29.6,25.8 -50,36.5 -2.6,1.4 -5.300004,2.7 -7.900004,4 0,0 -0.1,0 -0.1,0 -2.6,1.3 -5.3,2.6 -8,3.8 -7.2,3.4 -14.4,6.5 -21.4,9.4 -1.5,0.6 -2.9,1.2 -4.4,1.8 -0.1,0 -0.2,0.1 -0.3,0.1 -1.4,0.6 -2.8,1.1 -4.2,1.7 -0.1,0.1 -0.3,0.1 -0.4,0.2 -1.3,0.5 -2.7,1.1 -4,1.6 -0.1,0.1 -0.3,0.1 -0.4,0.2 -1.3,0.5 -2.6,1 -3.9,1.5 -7,2.7 -13.6,5 -19.4,7 -7.1,2.5 -6.6,12.7 0.7,14.5 14.2,3.4 27.6,6 40.4,7.8 -22.5,13.1 -43.8,23.9 -58.6,31 -4.0999999,2 -2.4,8.2 2.1,7.8 17.4,-1.5 42.1,-3.9 68.3,-7.2 v 0 c 0.9,-0.1 1.9,-0.2 2.8,-0.4 0.4,0 0.8,-0.1 1.1,-0.1 0.8,-0.1 1.5,-0.2 2.3,-0.3 0.4,0 0.7,-0.1 1.1,-0.1 1,-0.1 2,-0.3 3,-0.4 0.4,0 0.7,-0.1 1.1,-0.1 0.8,-0.1 1.6,-0.2 2.4,-0.3 0.3,0 0.7,-0.1 1,-0.1 1,-0.1 2.1,-0.3 3.100004,-0.4 0.3,0 0.7,-0.1 1,-0.1 0.8,-0.1 1.6,-0.2 2.4,-0.3 0.3,0 0.7,-0.1 1,-0.1 1,-0.1 2.1,-0.3 3.1,-0.4 0.3,0 0.7,-0.1 1,-0.1 0.8,-0.1 1.6,-0.2 2.4,-0.4 0.3,0 0.7,-0.1 1,-0.1 1,-0.2 2.1,-0.3 3.1,-0.5 0.3,0 0.6,-0.1 1,-0.1 0.8,-0.1 1.7,-0.2 2.5,-0.4 0.3,0 0.6,-0.1 1,-0.1 1.1,-0.2 2.1,-0.3 3.2,-0.5 0.3,0 0.5,-0.1 0.8,-0.1 0.9,-0.1 1.7,-0.3 2.6,-0.4 0.3,-0.1 0.6,-0.1 1,-0.2 1,-0.2 2.1,-0.3 3.1,-0.5 0.3,0 0.5,-0.1 0.8,-0.1 0.9,-0.1 1.7,-0.3 2.6,-0.4 0.3,0 0.6,-0.1 0.9,-0.1 0.2,0 0.4,-0.1 0.5,-0.1 8.2,12.3 20.9,31 20.9,31 0.1,0.1 0.2,0.2 0.3,0.3 1.3,2.3 3.3,5.8 2.5,7.8 -1.1,2.9 -12.3,2.3 -16.4,2.5 -4.2,0.2 -5.5,5.9 -5.5,5.9 2.5,2.2 13.4,1.5 16.5,0 1.5,-0.7 3.4,-1 5.1,-1.1 -0.2,0.7 -0.4,1.1 -0.4,1.1 1.4,1.2 5.2,1.5 9,1.3 1.2,0.5 2.8,0.9 4.7,1.3 3.8,0.8 12.2,0.3 19,-0.5 0.7,0.2 1.5,0.4 2.3,0.5 6.4,1.2 25.3,-0.9 28.8,-2.2 3.5,-1.3 11.8,0.7 11.4,-2.4 -0.4,-3.1 -7,-5.2 -10.1,-5.5 -2.2,-0.2 -12,0.3 -18.5,0.5 -1.1,-0.3 -2.1,-0.5 -2.8,-0.5 -0.7,-0.1 -2.2,-0.1 -4.2,0 -2.1,-1.4 -4.9,-4.7 -6.4,-7.6 -1.1,-2 -2.7,-4.1 -3.9,-5.5 0.1,-2.1 -0.6,-4.1 -0.6,-4.1 3.2,-3.9 16.1,-31.6 20.7,-41.5 0.2,-0.1 0.4,-0.2 0.7,-0.3 0.1,-0.1 0.2,-0.1 0.4,-0.2 0.5,-0.3 0.9,-0.5 1.4,-0.8 0,0 0,0 0,0 0.4,-0.3 0.8,-0.5 1.2,-0.8 0.1,-0.1 0.2,-0.1 0.3,-0.2 0.4,-0.3 0.8,-0.5 1.2,-0.8 0.8,-0.6 1.5,-1.1 2.3,-1.7 0.1,-0.1 0.2,-0.2 0.4,-0.3 0.7,-0.5 1.5,-1.1 2.2,-1.6 0.1,-0.1 0.3,-0.2 0.4,-0.3 0.7,-0.6 1.5,-1.1 2.2,-1.7 0.1,-0.1 0.2,-0.1 0.3,-0.2 0.7,-0.6 1.5,-1.1 2.2,-1.7 0.1,0 0.1,-0.1 0.2,-0.1 0.7,-0.6 1.5,-1.2 2.2,-1.8 0.1,-0.1 0.2,-0.2 0.4,-0.3 0.7,-0.6 1.4,-1.2 2.1,-1.8 0.1,-0.1 0.2,-0.2 0.3,-0.3 0.7,-0.6 1.4,-1.3 2.1,-1.9 0,0 0,0 0.1,-0.1 0.7,-0.6 1.4,-1.3 2.1,-2 0.1,-0.1 0.2,-0.2 0.3,-0.2 0.7,-0.6 1.3,-1.3 2,-2 0.1,-0.1 0.2,-0.2 0.3,-0.3 0.7,-0.7 1.3,-1.3 1.9,-2 0.1,-0.1 0.2,-0.2 0.2,-0.2 0.6,-0.7 1.3,-1.4 1.9,-2.1 0,0 0,0 0,0 0.6,-0.7 1.2,-1.4 1.9,-2.2 0.1,-0.1 0.2,-0.2 0.3,-0.3 0.6,-0.7 1.2,-1.4 1.7,-2.2 0.1,-0.1 0.2,-0.2 0.3,-0.3 0.6,-0.8 1.1,-1.5 1.7,-2.3 0,0 0.1,-0.1 0.1,-0.1 0.5,-0.8 1.1,-1.5 1.6,-2.3 0,-0.1 0.1,-0.1 0.1,-0.2 0.5,-0.8 1,-1.6 1.5,-2.4 0.1,-0.1 0.2,-0.2 0.2,-0.4 0.5,-0.8 0.9,-1.6 1.4,-2.4 0.1,-0.1 0.1,-0.2 0.2,-0.3 0.9,-1.7 1.8,-3.4 2.6,-5.2 0,-0.1 0.1,-0.2 0.1,-0.3 0.4,-0.9 0.7,-1.7 1.1,-2.6 0.1,-0.1 0.1,-0.3 0.2,-0.4 0.3,-0.9 0.7,-1.8 1,-2.7 0,-0.1 0,-0.1 0.1,-0.2 0.3,-0.9 0.6,-1.9 0.9,-2.8 0,0 0,-0.1 0,-0.1 0.3,-0.9 0.5,-1.9 0.8,-2.9 0,-0.1 0.1,-0.3 0.1,-0.4 0.2,-1 0.4,-1.9 0.6,-2.9 0,-0.1 0,-0.3 0.1,-0.4 0.2,-1 0.4,-2 0.5,-3.1 0,0 0,0 0,0 0.1,-1 0.3,-2.1 0.4,-3.2 0,-0.1 0,-0.2 0,-0.3 0.1,-1 0.2,-2.1 0.2,-3.1 0,-0.2 0,-0.3 0,-0.5 0,-1.1 0.1,-2.1 0.1,-3.2 0,-0.1 0,-0.2 0,-0.3 0,-1.1 0,-2.3 -0.1,-3.4 0,0 0,0 0,0 -0.1,-1.1 -0.1,-2.3 -0.3,-3.5 0,-0.2 0,-0.3 0,-0.5 -0.1,-1.1 -0.2,-2.3 -0.4,-3.4 0,-0.2 0,-0.3 -0.1,-0.5 -0.2,-1.2 -0.4,-2.4 -0.6,-3.6 0,0 0,0 0,0 0,0 0,0 0,0 -1.3,-6.9 -3.4,-14.2 -6.5,-21.9 -7.2,-18.100004 -10.7,-30.900004 -12.1,-40.100004 -0.1,-0.5 -0.2,-1 -0.2,-1.5 0,0 0,-0.1 0,-0.1 -0.1,-0.5 -0.1,-1 -0.2,-1.5 0,-0.1 0,-0.2 0,-0.3 0,-0.4 -0.1,-0.8 -0.1,-1.2 0,-0.1 0,-0.2 0,-0.3 -0.1,-0.9 -0.1,-1.8 -0.2,-2.6 0,-0.1 0,-0.2 0,-0.3 0,-0.3 0,-0.7 0,-1 0,-0.1 0,-0.2 0,-0.3 0,-0.4 0,-0.8 0,-1.1 0,0 0,0 0,0 0,-0.3 0,-0.7 0,-1 0,-0.1 0,-0.2 0,-0.3 0,-0.3 0,-0.5 0,-0.8 0,-0.1 0,-0.1 0,-0.2 0,-0.3 0.1,-0.6 0.1,-0.9 0,0 0,-0.1 0,-0.1 0,-0.3 0.1,-0.5 0.1,-0.7 0,-0.1 0,-0.1 0,-0.2 0,-0.2 0.1,-0.5 0.1,-0.7 0,0 0,-0.1 0,-0.1 0,-0.3 0.1,-0.5 0.1,-0.7 0,0 0,-0.1 0,-0.1 0,-0.2 0.1,-0.4 0.1,-0.6 0,-0.1 0,-0.1 0,-0.2 0.1,-0.2 0.1,-0.4 0.2,-0.6 0,0 0,0 0,0 0.1,-0.2 0.1,-0.4 0.2,-0.6 0,0 0,-0.1 0,-0.1 0.1,-0.1 0.1,-0.3 0.2,-0.4 0,0 0,-0.1 0,-0.1 0.1,-0.3 0.3,-0.6 0.4,-0.9 0,0 0,-0.1 0,-0.1 0.1,-0.1 0.1,-0.2 0.2,-0.3 0,0 0,-0.1 0,-0.1 0.1,-0.1 0.1,-0.2 0.2,-0.3 0,0 0,0 0,0 0.1,-0.1 0.1,-0.2 0.2,-0.3 0,0 0,0 0,-0.1 0.1,-0.1 0.1,-0.1 0.2,-0.2 0,0 0,0 0,0 0.1,-0.1 0.1,-0.1 0.2,-0.2 0,0 0,0 0,0 0,-0.1 0.1,-0.1 0.1,-0.1 0,0 0,0 0,0 0,0 0.1,-0.1 0.1,-0.1 0,0 0,0 0,0 0,0 0.1,-0.1 0.1,-0.1 0,0 0,0 0,0 0,0 0.1,-0.1 0.1,-0.1 0,0 0,0 0,0 0,0 0.1,0 0.1,-0.1 0,0 0,0 0,0 0,0 0.1,0 0.1,0 0,0 0,0 0,0 0,0 0,0 0,0 0,0 0,0 0,0 0,0 0,0 0,0 1,-0.7 1.9,-1.4 2.7,-2.2 0.3,-0.3 0.6,-0.6 0.9,-1 0,0 0,0 0,0 1.6,0.5 18.7,0.4 21.6,-2.2 2.9,-3.5 -16.1,-16.6 -16.1,-16.6 z m -72.5,255.300004 c -2,-0.3 -5.9,-4.6 -7.8,-8.3 -1.1,-2 -2.7,-4.1 -3.9,-5.5 0.1,-2.1 -0.6,-4.1 -0.6,-4.1 0.6,-0.8 1.7,-2.5 2.9,-4.9 4.9,7.3 8.8,13.1 8.8,13.1 0.1,0.1 0.2,0.2 0.3,0.3 1.3,2.3 3.3,5.8 2.5,7.8 -0.3,0.6 -1,1.1 -2,1.5 -0.1,0.1 -0.2,0.1 -0.2,0.1 z" />
<g
   id="g122"
   transform="translate(-413.47141,-214.82723)">
		<path
   style="fill:#a17d50"
   inkscape:connector-curvature="0"
   id="path94"
   d="m 627.2,482.9 c -3.2,-0.3 -22,0.9 -24.1,0.6 -2,-0.3 -5.9,-4.6 -7.8,-8.3 -1.9,-3.6 -5.6,-7.3 -5.6,-7.3 -4,-1.8 -9,2.8 -9.1,4.1 -0.1,1.3 4.5,7.1 3.4,10 -1.1,2.9 -12.3,2.3 -16.4,2.5 -4.2,0.2 -5.5,5.9 -5.5,5.9 2.5,2.2 13.4,1.5 16.5,0 3.2,-1.5 8,-1.2 8.9,-1 0.9,0.2 3.2,2.4 9.5,3.6 6.4,1.2 25.3,-0.9 28.8,-2.2 3.5,-1.3 11.8,0.7 11.4,-2.4 -0.3,-3.1 -6.8,-5.2 -10,-5.5 z" />
		<path
   style="fill:#57677a"
   inkscape:connector-curvature="0"
   id="path96"
   d="m 553.9,433 c 3.2,5.5 27.3,40.9 27.3,40.9 3.1,4.1 9.4,0.6 10.1,-3 0.4,-2.4 -0.5,-5.2 -0.5,-5.2 3.9,-4.8 22.3,-45 22.3,-45 -13,-2.9 -62.3,6.8 -59.2,12.3 z" />
		<path
   style="fill:#b58d5a"
   inkscape:connector-curvature="0"
   id="path98"
   d="m 605.9,482.9 c -3.2,-0.3 -22,0.9 -24.1,0.6 -2,-0.3 -5.9,-4.6 -7.8,-8.3 -1.9,-3.6 -5.6,-7.3 -5.6,-7.3 -4,-1.8 -9,2.8 -9.1,4.1 -0.1,1.3 4.5,7.1 3.4,10 -1.1,2.9 -12.3,2.3 -16.4,2.5 -4.1,0.2 -5.5,5.9 -5.5,5.9 2.5,2.2 13.4,1.5 16.5,0 3.2,-1.5 8,-1.2 8.9,-1 0.9,0.2 3.2,2.4 9.5,3.6 6.4,1.2 25.3,-0.9 28.8,-2.2 3.5,-1.3 11.8,0.7 11.4,-2.4 -0.3,-3.1 -6.8,-5.2 -10,-5.5 z" />
		<path
   style="fill:#62748a"
   inkscape:connector-curvature="0"
   id="path100"
   d="m 532.6,433 c 3.2,5.5 27.3,40.9 27.3,40.9 3.1,4.1 9.4,0.6 10.1,-3 0.4,-2.4 -0.5,-5.2 -0.5,-5.2 3.9,-4.8 22.3,-45 22.3,-45 -13,-2.9 -62.4,6.8 -59.2,12.3 z" />
		<path
   style="fill:#524f64"
   inkscape:connector-curvature="0"
   id="path102"
   d="m 645.1,249.3 c 10.5,-7.2 9.2,-21.1 9.2,-21.1 -41.6,-39.9 -56.9,22.2 -56.9,22.2 -2.7,24.5 -9.8,53.1 -15.3,70.2 -17.3,53 -121.5,107.8 -166.3,129.3 -4.1,2 -2.4,8.2 2.1,7.8 52.6,-4.5 172.3,-17.7 198.7,-36.5 31.8,-22.7 60,-54.1 37.8,-110 -22.2,-55.9 -9.3,-61.9 -9.3,-61.9 z" />
		<path
   style="fill:#4b5063"
   inkscape:connector-curvature="0"
   id="path104"
   d="m 654.3,228.2 c 0,0 -13.9,9.6 -10.8,11.1 3.1,1.5 5.2,6.9 5.2,6.9 1.6,0.5 18.7,0.4 21.6,-2.2 3,-2.7 -16,-15.8 -16,-15.8 z" />
		<path
   style="fill:#d0cdde"
   inkscape:connector-curvature="0"
   id="path106"
   d="m 600,242.5 c 3.6,16.8 18.6,29.3 36.4,29.3 2,0 4,-0.2 5.9,-0.5 -3.1,-19.3 2.8,-22 2.8,-22 10.5,-7.2 9.2,-21.1 9.2,-21.1 -32,-30.7 -48.5,-1 -54.3,14.3 z" />
		<path
   style="fill:#6f839c"
   inkscape:connector-curvature="0"
   id="path108"
   d="m 632,351.6 c 0,0 -112.6,38.2 -117.7,58.2 -3.2,12.5 -17.7,29.6 -28.1,40.7 53.2,-6.6 112.7,-16.7 130.3,-29.3 27.4,-19.6 52.1,-45.5 44.3,-88.1 -12.9,4 -28.8,18.5 -28.8,18.5 z" />
		<path
   style="fill:#c0bfd1"
   inkscape:connector-curvature="0"
   id="path110"
   d="m 574.1,316.6 c -6.4,2.5 -12.1,6.7 -16.5,12 -24.9,30.4 -89,55.7 -124.4,67.9 -7.1,2.5 -6.6,12.7 0.7,14.5 147.6,35.4 219.2,-16.5 213.1,-71.6 -4.7,-44.1 -50.9,-31.5 -72.9,-22.8 z" />
		<path
   style="fill:#524f64"
   inkscape:connector-curvature="0"
   id="path112"
   d="m 507.7,365.2 c -5.3,2.8 -10.7,5.5 -16.2,8 10,12.2 36.4,34.8 96.7,39.9 6.4,-2.2 12.3,-4.7 17.7,-7.5 -22.5,-2.5 -76.2,-11.1 -98.2,-40.4 z" />
		<path
   style="fill:#524f64"
   inkscape:connector-curvature="0"
   id="path114"
   d="m 470.3,382.5 c -6.2,2.6 -12.2,4.9 -17.9,7.1 14,11 38.4,27 67.6,33 15.2,0.2 29.1,-0.9 41.6,-3 -17.6,-2.4 -68.3,-11.4 -91.3,-37.1 z" />
		<circle
   style="fill:#ffffff"
   id="circle116"
   r="5.5999999"
   cy="229.7"
   cx="634.70001" />
		<circle
   style="fill:#b0271d"
   id="circle118"
   r="4.0999999"
   cy="229.7"
   cx="634.70001" />
		<circle
   style="fill:#111317"
   id="circle120"
   r="2.5"
   cy="229.7"
   cx="634.70001" />
	</g>
</svg>