<?xml version="1.0" encoding="UTF-8" standalone="no"?>
<!-- Created with Inkscape (http://www.inkscape.org/) -->

<svg
   xmlns:dc="http://purl.org/dc/elements/1.1/"
   xmlns:cc="http://creativecommons.org/ns#"
   xmlns:rdf="http://www.w3.org/1999/02/22-rdf-syntax-ns#"
   xmlns:svg="http://www.w3.org/2000/svg"
   xmlns="http://www.w3.org/2000/svg"
   xmlns:sodipodi="http://sodipodi.sourceforge.net/DTD/sodipodi-0.dtd"
   xmlns:inkscape="http://www.inkscape.org/namespaces/inkscape"
   width="48.245583mm"
   height="49.90028mm"
   viewBox="0 0 48.245583 49.900279"
   version="1.1"
   id="svg543"
   inkscape:version="0.92.4 (5da689c313, 2019-01-14)"
   sodipodi:docname="bird7.svg">
  <defs
     id="defs537">
    <clipPath
       clipPathUnits="userSpaceOnUse"
       id="clipPath488">
      <g
         id="use490"
         inkscape:label="Clip">
        <g
           id="g687">
          <path
             d="m 112.7,378 c 9.8,1.2 19.2,2 28.2,2.5 -8.2,5.1 -18.4,10.5 -24.6,13.5 -3.3,1.6 -21.5,9.9 1.2,14.5 20.2,4.1 52.9,-15.4 68.6,-25.9 2.4,1.2 5.2,2.3 8.2,3.4 0,0 22.5,7 49,4.1 0,0.1 0,0.2 -0.1,0.3 0,0.2 -0.1,0.4 -0.1,0.6 0,0.2 -0.1,0.4 -0.1,0.5 0,0.2 -0.1,0.4 -0.1,0.6 0,0.2 0,0.3 0,0.5 0,0.2 0,0.4 -0.1,0.6 0,0.2 0,0.3 0,0.5 0,0.2 0,0.4 0,0.6 0,0.1 0,0.3 0,0.4 0,0.2 0,0.4 0,0.6 0,0.1 0,0.2 0,0.4 0,0.2 0,0.4 0,0.7 0,0.1 0,0.2 0,0.3 0,0.2 0,0.5 0.1,0.7 v 0 0 c 0.4,4.6 2.1,8.4 3.8,10.9 l -6.1,2.4 c -1.5,0.6 -2.2,2.3 -1.6,3.7 0.4,1.1 1.5,1.8 2.7,1.8 0.4,0 0.7,-0.1 1.1,-0.2 l 10.9,-4.3 17.4,8.9 c 0.4,0.2 0.9,0.3 1.3,0.3 1,0 2.1,-0.6 2.6,-1.6 0.7,-1.4 0.2,-3.2 -1.2,-3.9 l -7.9,-4 10.9,-0.4 c 1.6,-0.1 2.8,-1.4 2.8,-3 -0.1,-1.6 -1.4,-2.8 -3,-2.8 l -19.9,0.7 c -0.2,-0.2 -0.5,-0.4 -0.8,-0.5 -0.2,-0.6 -0.5,-1.2 -1,-1.8 0,0 -2,-2.3 -2.7,-6.2 v 0 c -0.2,-1 -0.3,-2.1 -0.2,-3.3 0,-0.1 0,-0.1 0,-0.2 0,-0.2 0,-0.3 0,-0.5 0,-0.1 0,-0.2 0,-0.3 0,-0.2 0,-0.3 0.1,-0.5 0,-0.1 0,-0.2 0.1,-0.4 0,-0.2 0.1,-0.3 0.1,-0.5 0,-0.1 0.1,-0.3 0.1,-0.4 0,-0.2 0.1,-0.3 0.1,-0.5 0,-0.1 0.1,-0.3 0.1,-0.4 0,-0.1 0.1,-0.3 0.1,-0.4 0,-0.2 0.1,-0.3 0.1,-0.5 0,-0.1 0.1,-0.3 0.1,-0.4 0.1,-0.2 0.1,-0.3 0.2,-0.5 0,-0.1 0.1,-0.2 0.1,-0.3 3.1,-0.6 6.2,-1.4 9.3,-2.4 0,0 0,0 0,0.1 0,0.1 0,0.2 0,0.3 0,0.2 0,0.4 0,0.6 0,0.1 0,0.2 0,0.2 0.3,4.5 1.9,8.2 3.5,10.6 l -5.5,2.2 c -1.3,0.5 -2,2.1 -1.5,3.4 0.4,1 1.4,1.7 2.4,1.7 0.3,0 0.6,-0.1 1,-0.2 l 9.9,-3.9 15.9,8.1 c 0.4,0.2 0.8,0.3 1.2,0.3 1,0 1.9,-0.5 2.3,-1.4 0.7,-1.3 0.2,-2.9 -1.1,-3.5 l -7.2,-3.7 9.9,-0.4 c 1.4,-0.1 2.6,-1.3 2.5,-2.7 -0.1,-1.4 -1.2,-2.6 -2.7,-2.5 l -18.1,0.7 c -0.2,-0.2 -0.5,-0.4 -0.7,-0.5 -0.2,-0.6 -0.5,-1.1 -0.9,-1.6 0,0 -1.8,-2.1 -2.4,-5.6 v 0 c -0.2,-0.9 -0.2,-1.9 -0.2,-3 0,-0.1 0,-0.1 0,-0.2 0,-0.2 0,-0.3 0,-0.5 0,-0.1 0,-0.2 0,-0.3 0,-0.1 0,-0.3 0.1,-0.4 0,-0.1 0,-0.2 0,-0.3 0,-0.1 0,-0.3 0.1,-0.4 0,-0.1 0,-0.1 0,-0.2 22.2,-9.5 42.9,-29.5 51.9,-69.2 0.7,-2.9 1.2,-5.8 1.5,-8.9 v 0 c 0,0 0,0 0,0 0,-0.3 0.1,-0.6 0.1,-1 0,-0.1 0,-0.2 0,-0.2 0,-0.3 0.1,-0.6 0.1,-1 0,-0.1 0,-0.1 0,-0.2 0.1,-1 0.1,-2 0.1,-3.1 0,-0.1 0,-0.2 0,-0.4 0,-0.3 0,-0.6 0,-0.9 0,-0.2 0,-0.3 0,-0.5 0,-0.3 0,-0.6 0,-0.9 0,-0.2 0,-0.3 0,-0.5 0,-0.6 0,-1.2 -0.1,-1.8 0,-0.2 0,-0.3 0,-0.5 0,-0.3 0,-0.6 -0.1,-0.9 0,-0.2 0,-0.4 -0.1,-0.7 0,-0.3 -0.1,-0.6 -0.1,-0.9 0,-0.2 0,-0.5 -0.1,-0.7 0,-0.3 -0.1,-0.6 -0.1,-0.9 0,-0.3 -0.1,-0.6 -0.1,-0.9 -0.1,-0.4 -0.1,-0.9 -0.2,-1.3 0,-0.3 -0.1,-0.7 -0.1,-1 0,-0.3 -0.1,-0.5 -0.1,-0.8 -0.1,-0.3 -0.1,-0.6 -0.2,-0.9 0,-0.3 -0.1,-0.6 -0.2,-0.8 -0.1,-0.3 -0.1,-0.7 -0.2,-1 -0.1,-0.3 -0.1,-0.5 -0.2,-0.8 -0.1,-0.6 -0.2,-1.2 -0.4,-1.8 0,-0.2 -0.1,-0.4 -0.1,-0.6 -0.1,-0.4 -0.2,-0.9 -0.3,-1.3 -0.1,-0.3 -0.1,-0.6 -0.2,-0.8 -0.1,-0.4 -0.2,-0.8 -0.3,-1.2 -0.1,-0.3 -0.1,-0.6 -0.2,-0.8 -0.1,-0.5 -0.3,-1 -0.4,-1.5 -0.1,-0.2 -0.1,-0.4 -0.2,-0.7 -0.2,-0.7 -0.4,-1.4 -0.6,-2.2 -0.1,-0.2 -0.1,-0.4 -0.2,-0.7 -0.2,-0.5 -0.3,-1.1 -0.5,-1.7 -0.1,-0.3 -0.2,-0.6 -0.3,-0.9 -0.2,-0.5 -0.3,-1.1 -0.5,-1.6 -0.1,-0.3 -0.2,-0.6 -0.3,-0.8 -0.2,-0.7 -0.4,-1.4 -0.7,-2 -0.1,-0.2 -0.1,-0.3 -0.2,-0.5 -0.3,-0.8 -0.6,-1.7 -0.9,-2.6 -0.1,-0.3 -0.2,-0.5 -0.3,-0.8 -0.2,-0.6 -0.5,-1.3 -0.7,-2 -0.1,-0.3 -0.2,-0.6 -0.3,-0.9 -0.2,-0.6 -0.5,-1.3 -0.7,-2 -0.1,-0.3 -0.2,-0.6 -0.3,-0.9 -0.4,-1 -0.7,-1.9 -1.1,-2.9 -0.3,-0.7 -0.5,-1.5 -0.7,-2.5 -0.1,-0.3 -0.1,-0.6 -0.1,-0.9 0,-0.3 -0.1,-0.6 -0.1,-1 0,-0.1 0,-0.2 0,-0.3 0,-0.1 0,-0.3 0,-0.4 0,-0.1 0,-0.2 0,-0.3 0,-0.1 0,-0.3 0,-0.4 0,-0.1 0,-0.2 0,-0.4 0,-0.1 0,-0.3 0,-0.4 0,-0.1 0,-0.3 0,-0.4 0,-0.1 0,-0.2 0,-0.4 0,-0.2 0,-0.3 0.1,-0.5 0,-0.1 0,-0.3 0.1,-0.4 0,-0.2 0.1,-0.4 0.1,-0.5 0,-0.1 0,-0.2 0.1,-0.3 0,-0.1 0.1,-0.3 0.1,-0.4 0,-0.1 0.1,-0.2 0.1,-0.3 0,-0.1 0.1,-0.3 0.1,-0.4 0,-0.1 0.1,-0.2 0.1,-0.3 0.1,-0.1 0.1,-0.3 0.2,-0.4 0,-0.1 0.1,-0.2 0.1,-0.3 0.1,-0.2 0.2,-0.4 0.3,-0.5 0,0 0,-0.1 0.1,-0.1 0,0 0,0 0,0 0.1,-0.2 0.3,-0.4 0.4,-0.6 0,0 0.1,-0.1 0.1,-0.1 0.1,-0.2 0.3,-0.3 0.4,-0.5 0.1,-0.1 0.1,-0.1 0.2,-0.2 0.1,-0.1 0.3,-0.3 0.4,-0.4 0.1,-0.1 0.1,-0.1 0.2,-0.2 0.2,-0.1 0.3,-0.3 0.5,-0.4 0.1,0 0.1,-0.1 0.2,-0.1 0,0 0,0 0,0 0.2,-0.2 0.4,-0.3 0.7,-0.4 0,0 0,0 0,0 0,0 0.1,0 0.1,-0.1 0.2,-0.1 0.5,-0.2 0.7,-0.3 0.1,0 0.1,0 0.2,-0.1 0,0 0,0 0,0 0.2,-0.1 0.4,-0.2 0.7,-0.3 0.1,0 0.2,-0.1 0.3,-0.1 0,0 0.1,0 0.1,0 0.2,-0.1 0.4,-0.1 0.6,-0.2 0.1,0 0.2,-0.1 0.3,-0.1 0.1,0 0.1,0 0.2,0 0.2,0 0.4,-0.1 0.6,-0.1 0.1,0 0.2,0 0.4,-0.1 0.1,0 0.2,0 0.3,0 0.2,0 0.4,0 0.6,-0.1 0.1,0 0.2,0 0.3,0 0.2,0 0.3,0 0.5,0 0.3,0 0.5,0 0.8,0 0.1,0 0.1,0 0.2,0 0.2,0 0.3,0 0.5,0 0.2,0 0.4,0 0.7,0 0.2,0 0.3,0 0.5,0 0.1,0 0.3,0 0.4,0 0.2,0 0.4,0 0.6,0.1 0.2,0 0.4,0 0.6,0.1 0.2,0 0.4,0.1 0.6,0.1 0.1,0 0.3,0 0.4,0.1 0.2,0 0.4,0.1 0.6,0.1 0.3,0.1 0.6,0.1 0.9,0.2 0.1,0 0.2,0 0.3,0.1 0.2,0 0.4,0.1 0.6,0.1 0.6,0.1 1.2,0.3 1.8,0.5 0,0 0,-0.1 0,-0.4 0,-0.1 0,-0.1 0,-0.2 0,-0.1 0,-0.3 0,-0.4 0,-0.3 -0.1,-0.6 -0.2,-1 -0.1,-0.5 -0.3,-1.1 -0.6,-1.7 -0.1,-0.1 -0.1,-0.2 -0.2,-0.4 -0.4,-0.8 -1,-1.8 -1.8,-2.8 -0.5,-0.7 -1.1,-1.4 -1.8,-2.1 -0.3,-0.4 -0.7,-0.7 -1.1,-1.1 -1.3,-1.3 -2.9,-2.7 -5,-4.2 0,0 0,0 0,-0.1 0,0 0,0 0,0 0,-0.1 0,-0.1 -0.1,-0.2 0,0 0,0 0,0 v 0 c -0.1,-0.4 -0.4,-1.1 -0.8,-2.1 -0.1,-0.2 -0.2,-0.4 -0.2,-0.6 -0.2,-0.5 -0.5,-1 -0.7,-1.6 -0.1,-0.2 -0.2,-0.4 -0.3,-0.6 -0.2,-0.4 -0.4,-0.8 -0.6,-1.2 -0.2,-0.5 -0.5,-0.9 -0.8,-1.4 -0.1,-0.2 -0.3,-0.4 -0.4,-0.7 -0.3,-0.5 -0.6,-0.9 -0.9,-1.4 -0.2,-0.3 -0.3,-0.5 -0.5,-0.8 -0.3,-0.4 -0.5,-0.7 -0.8,-1.1 -0.2,-0.2 -0.4,-0.5 -0.5,-0.7 -0.4,-0.5 -0.8,-0.9 -1.2,-1.4 -1.2,-1.3 -2.6,-2.6 -4.1,-3.6 -0.3,-0.2 -0.7,-0.5 -1.1,-0.7 -0.3,-0.2 -0.7,-0.4 -1,-0.6 -0.2,-0.1 -0.4,-0.2 -0.6,-0.3 -1.3,-0.6 -2.7,-1.1 -4.3,-1.4 -0.6,-0.1 -1.3,-0.2 -2,-0.2 -0.3,0 -0.7,0 -1,0 -3.2,0 -6.7,0.9 -10.7,2.9 -0.4,0.2 -0.9,0.5 -1.3,0.7 -2.7,1.6 -5.6,3.7 -8.6,6.5 -2,1.9 -4.2,4 -6.4,6.5 -0.7,0.7 -1.2,1.5 -1.8,2.2 -0.3,0.5 -0.7,1 -0.9,1.5 -0.7,1.3 -1.2,2.6 -1.7,4 -0.2,0.6 -0.3,1.2 -0.4,1.8 -0.1,0.3 -0.1,0.6 -0.2,1 -0.1,0.7 -0.2,1.3 -0.3,2.1 -0.3,2.2 -0.4,4.6 -0.6,7.6 -0.2,5.4 -0.4,12.4 -1.1,21.9 0,0 0,0 0,0 0,0 0,0 0,0 0,0 0,0.1 0,0.1 0,0 0,0 0,0.1 0,0 0,0.1 0,0.1 0,0 0,0.1 0,0.1 0,0 0,0.1 0,0.1 -0.1,0.2 -0.1,0.5 -0.3,0.9 0,0 0,0 0,0 0,0.1 -0.1,0.2 -0.1,0.4 0,0 0,0 0,0.1 -0.1,0.1 -0.1,0.3 -0.2,0.4 0,0 0,0 0,0 0,0.1 -0.1,0.2 -0.1,0.2 -0.4,0.8 -0.9,1.6 -1.3,2.4 0,0.1 -0.1,0.2 -0.1,0.2 -0.4,0.7 -0.9,1.4 -1.3,2.1 -0.1,0.1 -0.1,0.2 -0.2,0.3 -0.4,0.7 -0.9,1.3 -1.4,1.9 -0.1,0.1 -0.1,0.2 -0.2,0.3 -0.5,0.6 -0.9,1.2 -1.4,1.7 -0.1,0.1 -0.1,0.1 -0.2,0.2 0,0 0,0 0,0 -2.2,2.4 -5.1,4.9 -8.8,7.5 0,0 -0.1,0.1 -0.1,0.1 -0.4,0.3 -0.9,0.6 -1.3,0.9 -0.1,0 -0.1,0.1 -0.2,0.1 -0.5,0.3 -0.9,0.6 -1.4,0.9 -0.8,0.5 -1.6,0.9 -2.4,1.4 -7.4,3 -14.1,6 -20.2,9.1 -3.7,1.8 -7.3,3.8 -10.8,5.9 -35.1,20.5 -42.1,39.6 -42.1,39.6 v 0 C 73.4,371.3 112.7,378 112.7,378 Z"
             id="path623"
             inkscape:connector-curvature="0"
             style="fill:#381a04" />
          <g
             id="g685">
            <g
               id="g629">
              <g
                 id="g627">
                <path
                   d="m 284.3,388 -20,0.7 c -1.2,0 -2.2,0.9 -2.5,2.1 -0.3,1.2 0.3,2.4 1.4,2.9 l 16.1,8.3 c 0.4,0.2 0.8,0.3 1.2,0.3 1,0 1.9,-0.5 2.3,-1.4 0.7,-1.3 0.2,-2.9 -1.1,-3.5 l -7.2,-3.7 9.9,-0.4 c 1.4,-0.1 2.6,-1.3 2.5,-2.7 0.1,-1.5 -1.1,-2.6 -2.6,-2.6 z"
                   id="path625"
                   inkscape:connector-curvature="0"
                   style="fill:#de8976" />
              </g>
            </g>
            <g
               id="g635">
              <g
                 id="g633">
                <path
                   d="m 263.5,388.2 -11.9,4.7 c -1.3,0.5 -2,2.1 -1.5,3.4 0.4,1 1.4,1.7 2.4,1.7 0.3,0 0.6,-0.1 1,-0.2 l 11.9,-4.7 c 1.3,-0.5 2,-2.1 1.5,-3.4 -0.5,-1.4 -2,-2 -3.4,-1.5 z"
                   id="path631"
                   inkscape:connector-curvature="0"
                   style="fill:#de8976" />
              </g>
            </g>
            <g
               id="g639">
              <path
                 d="m 263.7,363.1 c -2,-1.2 -4.6,-0.6 -5.8,1.3 -8,12.8 -3.2,23.8 0.4,27.8 0.8,0.9 2,1.4 3.1,1.4 1,0 2,-0.4 2.8,-1.1 1.7,-1.6 1.9,-4.2 0.3,-5.9 -0.1,-0.1 -6.2,-7.1 0.4,-17.8 1.3,-1.9 0.7,-4.5 -1.2,-5.7 z"
                 id="path637"
                 inkscape:connector-curvature="0"
                 style="fill:#de8976" />
            </g>
            <path
               d="m 263.7,363.1 c -2,-1.2 -4.6,-0.6 -5.8,1.3 -3.7,6 -4.7,11.7 -4.2,16.4 2.3,0.8 5.2,1.2 8.5,0.2 -0.5,-3 -0.2,-7.2 2.9,-12.1 1.1,-2 0.5,-4.6 -1.4,-5.8 z"
               id="path641"
               inkscape:connector-curvature="0"
               style="fill:#429699" />
            <g
               id="g647">
              <g
                 id="g645">
                <path
                   d="m 267.7,398.1 -21.9,0.8 c -1.3,0 -2.4,1 -2.7,2.3 -0.3,1.3 0.3,2.6 1.5,3.2 l 17.7,9.1 c 0.4,0.2 0.9,0.3 1.3,0.3 1,0 2.1,-0.6 2.6,-1.6 0.7,-1.4 0.2,-3.2 -1.2,-3.9 l -7.9,-4 10.9,-0.4 c 1.6,-0.1 2.8,-1.4 2.8,-3 -0.2,-1.6 -1.5,-2.8 -3.1,-2.8 z"
                   id="path643"
                   inkscape:connector-curvature="0"
                   style="fill:#ed917d" />
              </g>
            </g>
            <g
               id="g653">
              <g
                 id="g651">
                <path
                   d="m 244.8,398.3 -13,5.1 c -1.5,0.6 -2.2,2.3 -1.6,3.7 0.4,1.1 1.5,1.8 2.7,1.8 0.4,0 0.7,-0.1 1.1,-0.2 l 13,-5.1 c 1.5,-0.6 2.2,-2.3 1.6,-3.7 -0.7,-1.4 -2.3,-2.2 -3.8,-1.6 z"
                   id="path649"
                   inkscape:connector-curvature="0"
                   style="fill:#ed917d" />
              </g>
            </g>
            <path
               d="m 312.9,214.9 c 0,0 -13.6,-43.6 -48.9,-4.1 -7.1,7.9 -5,14.3 -6.9,42 0,0 -2.7,16.3 -32.4,27.8 -29.7,11.4 -58,37.6 -63,51.9 0,0 -19,31.5 23.6,46.2 0,0 105.2,32.6 128.8,-72.2 3.1,-13.8 3.8,-27.7 -9.5,-62.4 -2.1,-5.5 -2.8,-20.8 18.8,-14.9 0,0 1.2,-5.7 -10.5,-14.3 z"
               id="path655"
               inkscape:connector-curvature="0"
               style="fill:#5b4d55" />
            <path
               d="m 140.3,367.3 c -7.7,6.2 -24.4,15.2 -33.1,19.3 -3.3,1.6 -21.5,9.9 1.2,14.5 27.4,5.7 77.6,-32.1 77.6,-32.1 -4.5,-5.5 -37.9,-7.9 -45.7,-1.7 z"
               id="path657"
               inkscape:connector-curvature="0"
               style="fill:#6e5f68" />
            <path
               d="m 312.9,214.9 c 0,0 -13.6,-43.6 -48.9,-4.1 -7.1,7.9 -5,14.3 -6.9,42 0,0 -1.9,11 -18.9,21.3 0.5,18.6 7,37.4 27.6,47.7 32.8,16.4 45.2,-6.4 49.8,-24.2 1.3,-11.6 -0.5,-26.1 -11.1,-53.5 -2.1,-5.5 -2.8,-20.8 18.8,-14.9 0.1,0 1.3,-5.7 -10.4,-14.3 z"
               id="path659"
               inkscape:connector-curvature="0"
               style="fill:#429699" />
            <path
               d="m 256.2,255.4 c -8,15.6 -20.4,20 -20.4,20 -63.2,27.7 -73.1,54.6 -73.1,54.6 -98.3,33.9 -59,40.6 -59,40.6 70.8,8.6 120.5,-1.9 146.9,-15 26.5,-13.1 26.5,-31 16.7,-53.4 -9.7,-22.4 -11.1,-46.8 -11.1,-46.8 z"
               id="path661"
               inkscape:connector-curvature="0"
               style="fill:#b8969c" />
            <path
               d="m 312.9,214.9 c 0,0 -13.6,-43.6 -48.9,-4.1 -0.2,0.2 -0.4,0.4 -0.6,0.7 3.5,10.5 13.4,28.3 40.3,29.3 -0.9,-6.6 1.5,-16.6 19.6,-11.6 0.1,0 1.3,-5.7 -10.4,-14.3 z"
               id="path663"
               inkscape:connector-curvature="0"
               style="fill:#54bec2" />
            <path
               d="m 312.9,214.9 c 0,0 0,-0.1 -0.1,-0.3 -3.6,2.5 -10.4,8.5 -7.7,17.7 2.3,-3.8 7.5,-6.1 18.3,-3.1 0,0 1.2,-5.7 -10.5,-14.3 z"
               id="path665"
               inkscape:connector-curvature="0"
               style="fill:#6a6d7d" />
            <circle
               transform="matrix(0.9969,-0.07818318,0.07818318,0.9969,-15.934,23.4597)"
               cx="291.60001"
               cy="215.2"
               id="circle667"
               r="4.5"
               style="fill:#ffffff" />
            <circle
               transform="matrix(0.9969,-0.07819314,0.07819314,0.9969,-15.936,23.4628)"
               cx="291.60001"
               cy="215.2"
               id="circle669"
               r="2.7"
               style="fill:#6a6d7d" />
            <path
               d="m 256.2,255.4 c -8,15.6 -20.4,20 -20.4,20 -62.4,25 -73.1,54.6 -73.1,54.6 -1,0.3 19.1,33 80.9,28.8 2.5,-1 4.8,-2.1 7,-3.2 26.5,-13.1 26.5,-31 16.7,-53.4 -9.7,-22.4 -11.1,-46.8 -11.1,-46.8 z"
               id="path671"
               inkscape:connector-curvature="0"
               style="fill:#b6b2a2" />
            <path
               d="m 256.2,255.4 c -3.7,7.2 -8.3,12 -12.2,15.1 1.6,8.6 4.1,19.3 8.8,29.6 24,52.7 -39.5,57.1 -46.3,56.5 10.2,2.2 22.5,3.3 37.1,2.3 2.5,-1 4.8,-2.1 7,-3.2 26.5,-13.1 26.5,-31 16.7,-53.4 -9.7,-22.5 -11.1,-46.9 -11.1,-46.9 z"
               id="path673"
               inkscape:connector-curvature="0"
               style="fill:#a6a394" />
            <path
               d="m 234.3,319 c -4.3,-3.2 -6.6,-7.7 -5.9,-11.2 0,0 0,0 0,0 0,0 0,0 0,0 -3.1,1.6 -8.1,0.8 -12.4,-2.4 -4.3,-3.2 -6.6,-7.7 -5.9,-11.2 -0.7,0.4 -1.3,0.9 -1.8,1.5 -2.5,3.4 -0.3,9.4 5,13.3 4.3,3.2 9.3,4 12.4,2.4 -0.7,3.4 1.6,8 5.9,11.2 5.3,3.9 11.6,4.3 14.2,0.9 0.5,-0.6 0.8,-1.4 0.9,-2.1 -3.1,1.6 -8.1,0.7 -12.4,-2.4 z"
               id="path675"
               inkscape:connector-curvature="0"
               style="fill:#838075" />
            <path
               d="m 227.8,342.4 c -4,-3.2 -6.1,-7.7 -5.4,-11 0,0 0,-0.1 0,-0.1 0,0 0,0 0,0 0,0 0,0 0,0 0,0 -0.1,0 -0.1,0 -3.1,1.4 -7.8,0.4 -11.9,-2.8 -4.1,-3.3 -6.1,-7.7 -5.4,-11.1 0,0 0,0 0,0 0,0 0,0 0,0 -3.1,1.5 -7.9,0.5 -12,-2.8 -4.1,-3.3 -6.1,-7.7 -5.4,-11.1 -0.7,0.3 -1.3,0.8 -1.8,1.4 -2.6,3.2 -0.6,9.1 4.4,13.1 4.1,3.3 8.9,4.3 12,2.7 -0.8,3.3 1.3,7.8 5.4,11.1 4.1,3.2 8.9,4.2 12,2.8 -0.8,3.3 1.3,7.8 5.4,11 5,4 11.2,4.6 13.8,1.3 0.5,-0.6 0.8,-1.3 1,-2 -3.1,1.8 -7.9,0.8 -12,-2.5 z"
               id="path677"
               inkscape:connector-curvature="0"
               style="fill:#838075" />
            <g
               id="g681">
              <path
                 d="m 244.9,370.7 c -2.2,-1.3 -5,-0.7 -6.4,1.5 -8.7,14.1 -3.5,26.2 0.5,30.6 0.9,1 2.2,1.5 3.4,1.5 1.1,0 2.2,-0.4 3.1,-1.2 1.9,-1.7 2,-4.6 0.3,-6.5 -0.1,-0.1 -6.8,-7.8 0.5,-19.6 1.5,-2.1 0.8,-5 -1.4,-6.3 z"
                 id="path679"
                 inkscape:connector-curvature="0"
                 style="fill:#ed917d" />
            </g>
            <path
               d="m 244.9,370.7 c -2.2,-1.3 -5,-0.7 -6.4,1.5 -4.1,6.6 -5.1,12.8 -4.6,18 2.5,0.9 5.8,1.3 9.3,0.2 -0.6,-3.4 -0.2,-7.9 3.2,-13.3 1.4,-2.2 0.7,-5.1 -1.5,-6.4 z"
               id="path683"
               inkscape:connector-curvature="0"
               style="fill:#429699" />
          </g>
        </g>
      </g>
    </clipPath>
  </defs>
  <sodipodi:namedview
     id="base"
     pagecolor="#ffffff"
     bordercolor="#666666"
     borderopacity="1.0"
     inkscape:pageopacity="0.0"
     inkscape:pageshadow="2"
     inkscape:zoom="0.35"
     inkscape:cx="127.82788"
     inkscape:cy="281.59355"
     inkscape:document-units="mm"
     inkscape:current-layer="layer1"
     showgrid="false"
     inkscape:window-width="1920"
     inkscape:window-height="1017"
     inkscape:window-x="-8"
     inkscape:window-y="-8"
     inkscape:window-maximized="1"
     fit-margin-top="0"
     fit-margin-left="0"
     fit-margin-right="0"
     fit-margin-bottom="0" />
  <metadata
     id="metadata540">
    <rdf:RDF>
      <cc:Work
         rdf:about="">
        <dc:format>image/svg+xml</dc:format>
        <dc:type
           rdf:resource="http://purl.org/dc/dcmitype/StillImage" />
        <dc:title></dc:title>
      </cc:Work>
    </rdf:RDF>
  </metadata>
  <g
     inkscape:label="Layer 1"
     inkscape:groupmode="layer"
     id="layer1"
     transform="translate(43.648502,-112.96182)">
    <path
       style="fill:#381a04;stroke-width:0.26458332"
       inkscape:connector-curvature="0"
       id="path14"
       d="m 4.2001867,119.94682 c -0.105833,-0.0794 -0.211667,-0.15875 -0.343958,-0.23812 -0.07937,-0.0529 -0.15875,-0.13229 -0.264584,-0.18521 -0.15875,-0.10583 -0.3175,-0.21167 -0.47625,-0.3175 -0.05292,-0.0265 -0.105833,-0.0794 -0.15875,-0.10583 -0.185208,-0.10584 -0.370416,-0.23813 -0.555625,-0.34396 -0.02646,-0.0265 -0.05292,-0.0265 -0.07937,-0.0529 -0.211666,-0.13229 -0.423333,-0.23813 -0.635,-0.37042 -0.02646,0 -0.02646,-0.0265 -0.05292,-0.0265 -0.211667,-0.13229 -0.449792,-0.23812 -0.66145903,-0.37041 0,0 -0.02646,0 -0.02646,-0.0265 -0.238125,-0.10584 -0.449792,-0.23813 -0.687917,-0.34396 0,0 -0.02646,0 -0.02646,-0.0265 -0.238125,-0.10583 -0.449792,-0.21167 -0.687917,-0.3175 0,0 -0.02646,0 -0.02646,-0.0265 0,0 0,0 0,0 -2.16958297,-0.97896 -4.52437497,-1.61396 -6.72041697,-1.61396 -8.1491657,0 -11.6945817,8.04333 -15.0547867,15.79563 -3.67772,8.54604 -7.48772,17.40958 -17.30375,17.40958 -0.68792,0 -1.27,0.47625 -1.42875,1.13771 -0.15875,0.66146 0.18521,1.34937 0.82021,1.64041 4.86833,2.24896 9.55146,3.81 13.86417,4.65667 v 4.31271 c -1.03188,0.37042 -1.66688,1.11125 -1.7198,1.16417 -0.23812,0.29104 -0.21166,0.71437 0.0794,0.97895 0.29104,0.23813 0.71437,0.21167 0.97896,-0.0529 0,0 0.76729,-0.87313 1.79916,-0.89959 0.66146,-0.0264 1.29646,0.29105 1.93146,0.92605 0.13229,0.13229 0.3175,0.21166 0.47625,0.21166 0.15875,0 0.34396,-0.0794 0.47625,-0.21166 0.26459,-0.26459 0.26459,-0.71438 0,-0.97896 -0.0529,-0.0529 -0.10583,-0.10584 -0.15875,-0.15875 0.0794,-0.0265 0.15875,-0.10584 0.21167,-0.15875 0,0 0.76729,-0.87313 1.79917,-0.89959 0.66145,-0.0265 1.29645,0.29105 1.93145,0.92605 0.132292,0.13229 0.3175,0.21166 0.47625,0.21166 0.15875,0 0.343958,-0.0794 0.47625,-0.21166 0.264583,-0.26459 0.264583,-0.71438 0,-0.97896 -0.529167,-0.52917 -1.084792,-0.89959 -1.66688,-1.11125 v -2.32834 c 0.23813,0 0.476255,0 0.71438,-0.0264 0.105833,0 0.185208,0 0.291042,-0.0265 0.238125,0 0.47625,-0.0265 0.714375,-0.0529 0.105833,0 0.211666,-0.0265 0.317499,-0.0265 0.238125,-0.0265 0.47625,-0.0529 0.687916,-0.0794 0.105834,0 0.185209,-0.0265 0.291042,-0.0265 0.3175,-0.0529 0.608542,-0.10583 0.926042,-0.15875 0,0 0,0 0,0 0.291041,-0.0529 0.582083,-0.13229 0.873125,-0.18521 0.105833,-0.0265 0.185208,-0.0529 0.291041,-0.0794 0.185209,-0.0529 0.370417,-0.10584 0.555625,-0.15875 0.105834,-0.0265 0.211667,-0.0794 0.3175,-0.10584 0.185209,-0.0529 0.343959,-0.10583 0.502709,-0.18521 0.105833,-0.0264 0.211666,-0.0794 0.3175,-0.10583 0.211666,-0.0794 0.396875,-0.15875 0.582083,-0.23812 0.105833,-0.0529 0.238125,-0.10584 0.343958,-0.15875 0.185209,-0.0794 0.370417,-0.15875 0.529167,-0.26459 0.105833,-0.0529 0.211667,-0.10583 0.3175,-0.18521 0.132292,-0.0794 0.264583,-0.13229 0.370417,-0.21166 0.105833,-0.0529 0.211666,-0.13229 0.3174997,-0.21167 0.105833,-0.0794 0.238125,-0.15875 0.343958,-0.23812 0.105833,-0.0794 0.211667,-0.1323 0.3175,-0.21167 0.132292,-0.10583 0.264583,-0.18521 0.370417,-0.29104 0.132291,-0.10584 0.264583,-0.21167 0.396875,-0.34396 0.105833,-0.10583 0.211666,-0.18521 0.3175,-0.29104 0,0 0,0 0,0 0,0 0,0 0,0 0.02646,-0.0265 0.02646,-0.0265 0.05292,-0.0529 0.07937,-0.0794 0.15875,-0.13229 0.211667,-0.21167 0.02646,-0.0264 0.07937,-0.0794 0.105833,-0.10583 0.02646,-0.0265 0.02646,-0.0265 0.05292,-0.0529 0.05292,-0.0529 0.105833,-0.10583 0.15875,-0.15875 0.07937,-0.0794 0.15875,-0.1852 0.238125,-0.26458 0.105833,-0.13229 0.211667,-0.23812 0.3175,-0.37042 0.05292,-0.0794 0.105833,-0.13229 0.185208,-0.21166 0.05292,-0.0529 0.07937,-0.10584 0.105834,-0.15875 0.105833,-0.15875 0.238125,-0.3175 0.343958,-0.47625 0,0 0,0 0,0 3.598333,-5.42396 4.048125,-12.46188 4.445,-18.65313 0.238125,-3.70416 0.449792,-7.06437 1.32291697,-9.18104 0.02646,-0.0529 0.05292,-0.10583 0.05292,-0.15875 0.02646,-0.0794 0.05292,-0.13229 0.105834,-0.21167 0.02646,-0.0529 0.05292,-0.10583 0.07937,-0.15875 0,-0.0265 0.02646,-0.0265 0.02646,-0.0529 0.02646,-0.0529 0.05292,-0.10583 0.105833,-0.15875 0.02646,-0.0265 0.02646,-0.0529 0.05292,-0.0794 0.02646,-0.0529 0.05292,-0.10583 0.07937,-0.13229 0.02646,-0.0265 0.02646,-0.0529 0.05292,-0.0794 0.05292,-0.0794 0.105833,-0.13229 0.15875,-0.21166 0,0 0.02646,-0.0265 0.02646,-0.0265 0.05292,-0.0794 0.132292,-0.1323 0.185208,-0.21167 0.05292,-0.0529 0.07937,-0.0794 0.132292,-0.13229 0.05292,-0.0265 0.07937,-0.0794 0.132292,-0.10584 0.02646,-0.0265 0.05292,-0.0529 0.07937,-0.0529 0,0 0.02646,0 0.02646,-0.0265 0.07937,-0.0794 0.185208,-0.13229 0.291042,-0.1852 0.02646,-0.0265 0.05292,-0.0265 0.10583303,-0.0529 0,0 0.02646,0 0.02646,-0.0265 0.05292,-0.0265 0.105834,-0.0529 0.15875,-0.0794 0.07937,-0.0265 0.132292,-0.0529 0.211667,-0.0794 0.02646,0 0.05292,-0.0265 0.07937,-0.0265 0,0 0,0 0,0 0.608542,-0.15875 2.487083,-0.66146 3.095625,-0.66146 -0.02646,-0.0529 -0.211667,-0.21167 -0.396875,-0.34396 z m -27.4372937,40.50771 c -0.0794,0.10584 -0.13229,0.23813 -0.15875,0.34396 -0.18521,-0.10583 -0.34396,-0.18521 -0.52916,-0.23812 v -3.91584 c 0.8202,0.10584 1.61395,0.18521 2.38125,0.23813 v 2.40771 c -1.00542,0.37041 -1.66688,1.11125 -1.69334,1.16416 z" />
    <g
       transform="matrix(0.26458333,0,0,0.26458333,-254.64169,-55.101511)"
       id="g224">
      <path
         style="fill:#c27241"
         inkscape:connector-curvature="0"
         id="path200"
         d="m 880.1,800.3 v -16.9 c 0,-3 -1.5,-5.5 -4.5,-5.5 -3,0 -4.5,2.5 -4.5,5.5 v 16.9 c -3.9,1.4 -6.3,4.2 -6.5,4.4 -0.9,1.1 -0.8,2.7 0.3,3.7 1.1,0.9 2.7,0.8 3.7,-0.2 0,0 2.9,-3.3 6.8,-3.4 2.5,-0.1 4.9,1.1 7.3,3.5 0.5,0.5 1.2,0.8 1.8,0.8 0.6,0 1.3,-0.3 1.8,-0.8 1,-1 1,-2.7 0,-3.7 -1.9,-2.1 -4,-3.5 -6.2,-4.3 z" />
      <path
         style="fill:#e2854c"
         inkscape:connector-curvature="0"
         id="path202"
         d="m 862,805.1 v -16.9 c 0,-3 -1.5,-5.5 -4.5,-5.5 -3,0 -4.5,2.5 -4.5,5.5 v 16.9 c -3.9,1.4 -6.3,4.2 -6.5,4.4 -0.9,1.1 -0.8,2.7 0.3,3.7 1.1,0.9 2.7,0.8 3.7,-0.2 0,0 2.9,-3.3 6.8,-3.4 2.5,-0.1 4.9,1.1 7.3,3.5 0.5,0.5 1.2,0.8 1.8,0.8 0.6,0 1.3,-0.3 1.8,-0.8 1,-1 1,-2.7 0,-3.7 -1.9,-2.1 -4,-3.5 -6.2,-4.3 z" />
      <path
         style="fill:#356178"
         inkscape:connector-curvature="0"
         id="path204"
         d="m 868.4,694.9 c -13.9,32.3 -28.3,65.8 -65.4,65.8 -2.6,0 -4.8,1.8 -5.4,4.3 -0.6,2.5 0.7,5.1 3.1,6.2 28.8,13.3 55.9,20.3 78.2,20.3 23,0 40.2,-7.7 49.9,-22.3 13.6,-20.5 15.3,-47.1 16.8,-70.5 1.4,-21.5 2.6,-40.1 13,-42.9 2.2,-0.6 9.5,-2.5 11.7,-2.5 -11.3,-9 -29.3,-18.1 -45.1,-18.1 -30.8,0 -44.2,30.3 -56.8,59.7 z" />
      <path
         style="fill:#4681a0"
         inkscape:connector-curvature="0"
         id="path206"
         d="m 942.4,694.8 c -4.5,-1.5 -9.2,-2.3 -14,-2.3 -22.7,0 -43.5,16.6 -50.5,40.3 -5.5,18.6 -2.3,38 8.8,53.1 0.3,0.4 0.6,0.7 0.9,1 l 4.3,3.5 c 16.5,-2.4 29.2,-9.6 36.9,-21.3 13.6,-20.5 15.3,-47.1 16.8,-70.5 0,-0.5 0.1,-1 0.1,-1.5 l -1.1,-1.1 c -0.6,-0.5 -1.3,-0.9 -2.2,-1.2 z" />
      <path
         style="fill:#90b3c6"
         inkscape:connector-curvature="0"
         id="path208"
         d="m 942.4,694.8 c -4.5,-1.5 -9.2,-2.3 -14,-2.3 -22.7,0 -43.5,16.6 -50.5,40.3 -5.5,18.6 -2.3,38 8.8,53.1 0.3,0.4 0.6,0.7 0.9,1 l 1.9,1.6 c -8.4,-14.3 -10.5,-31.5 -5.6,-48.2 7,-23.7 27.8,-40.3 50.5,-40.3 3.8,0 7.4,0.6 11,1.5 0.1,-0.9 0.1,-1.9 0.2,-2.9 0,-0.5 0.1,-1 0.1,-1.5 l -1.1,-1.1 c -0.6,-0.5 -1.3,-0.9 -2.2,-1.2 z" />
      <path
         style="fill:#86a6b8"
         inkscape:connector-curvature="0"
         id="path210"
         d="m 879.1,771.9 c 1.9,4.9 4.4,9.7 7.6,14 0.3,0.4 0.6,0.7 0.9,1 l 1.9,1.6 c -3.4,-5.7 -5.7,-11.9 -7,-18.4 -1.1,0.7 -2.3,1.3 -3.4,1.8 z" />
      <path
         style="fill:#86a6b8"
         inkscape:connector-curvature="0"
         id="path212"
         d="m 942.4,694.8 c -3.7,-1.2 -7.6,-1.9 -11.5,-2.2 -0.9,2.6 -1.8,5.2 -2.8,7.9 2.1,-0.3 4.1,-0.5 6.2,-0.5 3.8,0 7.4,0.6 11,1.5 0.1,-0.9 0.1,-1.9 0.2,-2.9 0,-0.5 0.1,-1 0.1,-1.5 l -1.1,-1.1 c -0.5,-0.5 -1.2,-0.9 -2.1,-1.2 z" />
      <path
         style="fill:#f5f5f5"
         inkscape:connector-curvature="0"
         id="path214"
         d="m 924.2,650.4 c -6.1,0 -11,4.9 -11,11 0,6.1 4.9,11 11,11 6.1,0 11,-4.9 11,-11 0,-6 -4.9,-11 -11,-11 z" />
      <circle
         style="fill:#242424"
         id="circle216"
         r="5.5"
         cy="661.5"
         cx="924.20001" />
      <path
         style="fill:#e78244"
         inkscape:connector-curvature="0"
         id="path218"
         d="m 947.8,653.2 c 0,4.1 0.9,8 2.6,11.5 1.8,-4.7 4.4,-7.9 8.3,-8.9 2.2,-0.6 9.5,-2.5 11.7,-2.5 -5.4,-4.3 -12.3,-8.6 -19.8,-11.9 -1.8,3.5 -2.8,7.5 -2.8,11.8 z" />
      <path
         style="fill:#d97a40"
         inkscape:connector-curvature="0"
         id="path220"
         d="m 950.4,664.7 c 0,0 0,-0.1 0,0 0.3,-0.7 0.5,-1.2 0.8,-1.8 0.1,-0.3 0.3,-0.6 0.4,-0.8 0.2,-0.3 0.4,-0.7 0.6,-1 0.2,-0.2 0.3,-0.5 0.5,-0.7 0.3,-0.4 0.5,-0.7 0.8,-1.1 0.1,-0.1 0.2,-0.3 0.3,-0.4 0.4,-0.4 0.8,-0.8 1.3,-1.2 0.1,-0.1 0.3,-0.2 0.5,-0.3 0.3,-0.3 0.7,-0.5 1.1,-0.7 0.2,-0.1 0.3,-0.2 0.5,-0.3 0.5,-0.3 1.1,-0.5 1.7,-0.6 0.2,0 0.3,-0.1 0.5,-0.2 -4.1,-0.1 -7.5,1.3 -10.6,3.8 0.2,1.8 0.8,3.6 1.6,5.3 z" />
      <path
         style="opacity:0.1;fill:#14252e"
         inkscape:connector-curvature="0"
         id="path222"
         d="m 926.9,704.1 c -0.3,0.7 -0.5,1.5 -0.8,2.2 0,0.1 -0.1,0.1 -0.1,0.2 -0.3,0.9 -0.6,1.7 -0.9,2.6 0,0 0,0.1 0,0.1 -9,24.5 -21,50.8 -46,62.7 0,0 0,0 0,0 -18.5,8.9 -44.2,9.9 -81.1,-3.5 0.5,1.2 1.4,2.2 2.7,2.7 28.8,13.3 55.9,20.3 78.2,20.3 18.4,0 33.1,-4.9 43.2,-14.4 0,0 0,0 0,0 0,0 0,0 0,0 0.5,-0.5 0.9,-0.9 1.4,-1.4 0.2,-0.2 0.3,-0.3 0.5,-0.5 1.2,-1.2 2.3,-2.5 3.3,-3.9 0.5,-0.7 1,-1.3 1.5,-2 0,0 0,0 0,0 13.6,-20.5 15.3,-47.1 16.8,-70.5 1.4,-21.5 2.6,-40.1 13,-42.9 0.2,0 0.3,-0.1 0.5,-0.2 -16.3,-0.4 -22.9,22.4 -32.2,48.5 z" />
    </g>
  </g>
</svg>
