<?xml version="1.0" encoding="UTF-8" standalone="no"?>
<!-- Created with Inkscape (http://www.inkscape.org/) -->

<svg
   xmlns:dc="http://purl.org/dc/elements/1.1/"
   xmlns:cc="http://creativecommons.org/ns#"
   xmlns:rdf="http://www.w3.org/1999/02/22-rdf-syntax-ns#"
   xmlns:svg="http://www.w3.org/2000/svg"
   xmlns="http://www.w3.org/2000/svg"
   xmlns:sodipodi="http://sodipodi.sourceforge.net/DTD/sodipodi-0.dtd"
   xmlns:inkscape="http://www.inkscape.org/namespaces/inkscape"
   width="65.91481mm"
   height="56.171032mm"
   viewBox="0 0 65.91481 56.171031"
   version="1.1"
   id="svg543"
   inkscape:version="0.92.4 (5da689c313, 2019-01-14)"
   sodipodi:docname="bird4.svg">
  <defs
     id="defs537">
    <clipPath
       clipPathUnits="userSpaceOnUse"
       id="clipPath488">
      <g
         id="use490"
         inkscape:label="Clip">
        <g
           id="g687">
          <path
             d="m 112.7,378 c 9.8,1.2 19.2,2 28.2,2.5 -8.2,5.1 -18.4,10.5 -24.6,13.5 -3.3,1.6 -21.5,9.9 1.2,14.5 20.2,4.1 52.9,-15.4 68.6,-25.9 2.4,1.2 5.2,2.3 8.2,3.4 0,0 22.5,7 49,4.1 0,0.1 0,0.2 -0.1,0.3 0,0.2 -0.1,0.4 -0.1,0.6 0,0.2 -0.1,0.4 -0.1,0.5 0,0.2 -0.1,0.4 -0.1,0.6 0,0.2 0,0.3 0,0.5 0,0.2 0,0.4 -0.1,0.6 0,0.2 0,0.3 0,0.5 0,0.2 0,0.4 0,0.6 0,0.1 0,0.3 0,0.4 0,0.2 0,0.4 0,0.6 0,0.1 0,0.2 0,0.4 0,0.2 0,0.4 0,0.7 0,0.1 0,0.2 0,0.3 0,0.2 0,0.5 0.1,0.7 v 0 0 c 0.4,4.6 2.1,8.4 3.8,10.9 l -6.1,2.4 c -1.5,0.6 -2.2,2.3 -1.6,3.7 0.4,1.1 1.5,1.8 2.7,1.8 0.4,0 0.7,-0.1 1.1,-0.2 l 10.9,-4.3 17.4,8.9 c 0.4,0.2 0.9,0.3 1.3,0.3 1,0 2.1,-0.6 2.6,-1.6 0.7,-1.4 0.2,-3.2 -1.2,-3.9 l -7.9,-4 10.9,-0.4 c 1.6,-0.1 2.8,-1.4 2.8,-3 -0.1,-1.6 -1.4,-2.8 -3,-2.8 l -19.9,0.7 c -0.2,-0.2 -0.5,-0.4 -0.8,-0.5 -0.2,-0.6 -0.5,-1.2 -1,-1.8 0,0 -2,-2.3 -2.7,-6.2 v 0 c -0.2,-1 -0.3,-2.1 -0.2,-3.3 0,-0.1 0,-0.1 0,-0.2 0,-0.2 0,-0.3 0,-0.5 0,-0.1 0,-0.2 0,-0.3 0,-0.2 0,-0.3 0.1,-0.5 0,-0.1 0,-0.2 0.1,-0.4 0,-0.2 0.1,-0.3 0.1,-0.5 0,-0.1 0.1,-0.3 0.1,-0.4 0,-0.2 0.1,-0.3 0.1,-0.5 0,-0.1 0.1,-0.3 0.1,-0.4 0,-0.1 0.1,-0.3 0.1,-0.4 0,-0.2 0.1,-0.3 0.1,-0.5 0,-0.1 0.1,-0.3 0.1,-0.4 0.1,-0.2 0.1,-0.3 0.2,-0.5 0,-0.1 0.1,-0.2 0.1,-0.3 3.1,-0.6 6.2,-1.4 9.3,-2.4 0,0 0,0 0,0.1 0,0.1 0,0.2 0,0.3 0,0.2 0,0.4 0,0.6 0,0.1 0,0.2 0,0.2 0.3,4.5 1.9,8.2 3.5,10.6 l -5.5,2.2 c -1.3,0.5 -2,2.1 -1.5,3.4 0.4,1 1.4,1.7 2.4,1.7 0.3,0 0.6,-0.1 1,-0.2 l 9.9,-3.9 15.9,8.1 c 0.4,0.2 0.8,0.3 1.2,0.3 1,0 1.9,-0.5 2.3,-1.4 0.7,-1.3 0.2,-2.9 -1.1,-3.5 l -7.2,-3.7 9.9,-0.4 c 1.4,-0.1 2.6,-1.3 2.5,-2.7 -0.1,-1.4 -1.2,-2.6 -2.7,-2.5 l -18.1,0.7 c -0.2,-0.2 -0.5,-0.4 -0.7,-0.5 -0.2,-0.6 -0.5,-1.1 -0.9,-1.6 0,0 -1.8,-2.1 -2.4,-5.6 v 0 c -0.2,-0.9 -0.2,-1.9 -0.2,-3 0,-0.1 0,-0.1 0,-0.2 0,-0.2 0,-0.3 0,-0.5 0,-0.1 0,-0.2 0,-0.3 0,-0.1 0,-0.3 0.1,-0.4 0,-0.1 0,-0.2 0,-0.3 0,-0.1 0,-0.3 0.1,-0.4 0,-0.1 0,-0.1 0,-0.2 22.2,-9.5 42.9,-29.5 51.9,-69.2 0.7,-2.9 1.2,-5.8 1.5,-8.9 v 0 c 0,0 0,0 0,0 0,-0.3 0.1,-0.6 0.1,-1 0,-0.1 0,-0.2 0,-0.2 0,-0.3 0.1,-0.6 0.1,-1 0,-0.1 0,-0.1 0,-0.2 0.1,-1 0.1,-2 0.1,-3.1 0,-0.1 0,-0.2 0,-0.4 0,-0.3 0,-0.6 0,-0.9 0,-0.2 0,-0.3 0,-0.5 0,-0.3 0,-0.6 0,-0.9 0,-0.2 0,-0.3 0,-0.5 0,-0.6 0,-1.2 -0.1,-1.8 0,-0.2 0,-0.3 0,-0.5 0,-0.3 0,-0.6 -0.1,-0.9 0,-0.2 0,-0.4 -0.1,-0.7 0,-0.3 -0.1,-0.6 -0.1,-0.9 0,-0.2 0,-0.5 -0.1,-0.7 0,-0.3 -0.1,-0.6 -0.1,-0.9 0,-0.3 -0.1,-0.6 -0.1,-0.9 -0.1,-0.4 -0.1,-0.9 -0.2,-1.3 0,-0.3 -0.1,-0.7 -0.1,-1 0,-0.3 -0.1,-0.5 -0.1,-0.8 -0.1,-0.3 -0.1,-0.6 -0.2,-0.9 0,-0.3 -0.1,-0.6 -0.2,-0.8 -0.1,-0.3 -0.1,-0.7 -0.2,-1 -0.1,-0.3 -0.1,-0.5 -0.2,-0.8 -0.1,-0.6 -0.2,-1.2 -0.4,-1.8 0,-0.2 -0.1,-0.4 -0.1,-0.6 -0.1,-0.4 -0.2,-0.9 -0.3,-1.3 -0.1,-0.3 -0.1,-0.6 -0.2,-0.8 -0.1,-0.4 -0.2,-0.8 -0.3,-1.2 -0.1,-0.3 -0.1,-0.6 -0.2,-0.8 -0.1,-0.5 -0.3,-1 -0.4,-1.5 -0.1,-0.2 -0.1,-0.4 -0.2,-0.7 -0.2,-0.7 -0.4,-1.4 -0.6,-2.2 -0.1,-0.2 -0.1,-0.4 -0.2,-0.7 -0.2,-0.5 -0.3,-1.1 -0.5,-1.7 -0.1,-0.3 -0.2,-0.6 -0.3,-0.9 -0.2,-0.5 -0.3,-1.1 -0.5,-1.6 -0.1,-0.3 -0.2,-0.6 -0.3,-0.8 -0.2,-0.7 -0.4,-1.4 -0.7,-2 -0.1,-0.2 -0.1,-0.3 -0.2,-0.5 -0.3,-0.8 -0.6,-1.7 -0.9,-2.6 -0.1,-0.3 -0.2,-0.5 -0.3,-0.8 -0.2,-0.6 -0.5,-1.3 -0.7,-2 -0.1,-0.3 -0.2,-0.6 -0.3,-0.9 -0.2,-0.6 -0.5,-1.3 -0.7,-2 -0.1,-0.3 -0.2,-0.6 -0.3,-0.9 -0.4,-1 -0.7,-1.9 -1.1,-2.9 -0.3,-0.7 -0.5,-1.5 -0.7,-2.5 -0.1,-0.3 -0.1,-0.6 -0.1,-0.9 0,-0.3 -0.1,-0.6 -0.1,-1 0,-0.1 0,-0.2 0,-0.3 0,-0.1 0,-0.3 0,-0.4 0,-0.1 0,-0.2 0,-0.3 0,-0.1 0,-0.3 0,-0.4 0,-0.1 0,-0.2 0,-0.4 0,-0.1 0,-0.3 0,-0.4 0,-0.1 0,-0.3 0,-0.4 0,-0.1 0,-0.2 0,-0.4 0,-0.2 0,-0.3 0.1,-0.5 0,-0.1 0,-0.3 0.1,-0.4 0,-0.2 0.1,-0.4 0.1,-0.5 0,-0.1 0,-0.2 0.1,-0.3 0,-0.1 0.1,-0.3 0.1,-0.4 0,-0.1 0.1,-0.2 0.1,-0.3 0,-0.1 0.1,-0.3 0.1,-0.4 0,-0.1 0.1,-0.2 0.1,-0.3 0.1,-0.1 0.1,-0.3 0.2,-0.4 0,-0.1 0.1,-0.2 0.1,-0.3 0.1,-0.2 0.2,-0.4 0.3,-0.5 0,0 0,-0.1 0.1,-0.1 0,0 0,0 0,0 0.1,-0.2 0.3,-0.4 0.4,-0.6 0,0 0.1,-0.1 0.1,-0.1 0.1,-0.2 0.3,-0.3 0.4,-0.5 0.1,-0.1 0.1,-0.1 0.2,-0.2 0.1,-0.1 0.3,-0.3 0.4,-0.4 0.1,-0.1 0.1,-0.1 0.2,-0.2 0.2,-0.1 0.3,-0.3 0.5,-0.4 0.1,0 0.1,-0.1 0.2,-0.1 0,0 0,0 0,0 0.2,-0.2 0.4,-0.3 0.7,-0.4 0,0 0,0 0,0 0,0 0.1,0 0.1,-0.1 0.2,-0.1 0.5,-0.2 0.7,-0.3 0.1,0 0.1,0 0.2,-0.1 0,0 0,0 0,0 0.2,-0.1 0.4,-0.2 0.7,-0.3 0.1,0 0.2,-0.1 0.3,-0.1 0,0 0.1,0 0.1,0 0.2,-0.1 0.4,-0.1 0.6,-0.2 0.1,0 0.2,-0.1 0.3,-0.1 0.1,0 0.1,0 0.2,0 0.2,0 0.4,-0.1 0.6,-0.1 0.1,0 0.2,0 0.4,-0.1 0.1,0 0.2,0 0.3,0 0.2,0 0.4,0 0.6,-0.1 0.1,0 0.2,0 0.3,0 0.2,0 0.3,0 0.5,0 0.3,0 0.5,0 0.8,0 0.1,0 0.1,0 0.2,0 0.2,0 0.3,0 0.5,0 0.2,0 0.4,0 0.7,0 0.2,0 0.3,0 0.5,0 0.1,0 0.3,0 0.4,0 0.2,0 0.4,0 0.6,0.1 0.2,0 0.4,0 0.6,0.1 0.2,0 0.4,0.1 0.6,0.1 0.1,0 0.3,0 0.4,0.1 0.2,0 0.4,0.1 0.6,0.1 0.3,0.1 0.6,0.1 0.9,0.2 0.1,0 0.2,0 0.3,0.1 0.2,0 0.4,0.1 0.6,0.1 0.6,0.1 1.2,0.3 1.8,0.5 0,0 0,-0.1 0,-0.4 0,-0.1 0,-0.1 0,-0.2 0,-0.1 0,-0.3 0,-0.4 0,-0.3 -0.1,-0.6 -0.2,-1 -0.1,-0.5 -0.3,-1.1 -0.6,-1.7 -0.1,-0.1 -0.1,-0.2 -0.2,-0.4 -0.4,-0.8 -1,-1.8 -1.8,-2.8 -0.5,-0.7 -1.1,-1.4 -1.8,-2.1 -0.3,-0.4 -0.7,-0.7 -1.1,-1.1 -1.3,-1.3 -2.9,-2.7 -5,-4.2 0,0 0,0 0,-0.1 0,0 0,0 0,0 0,-0.1 0,-0.1 -0.1,-0.2 0,0 0,0 0,0 v 0 c -0.1,-0.4 -0.4,-1.1 -0.8,-2.1 -0.1,-0.2 -0.2,-0.4 -0.2,-0.6 -0.2,-0.5 -0.5,-1 -0.7,-1.6 -0.1,-0.2 -0.2,-0.4 -0.3,-0.6 -0.2,-0.4 -0.4,-0.8 -0.6,-1.2 -0.2,-0.5 -0.5,-0.9 -0.8,-1.4 -0.1,-0.2 -0.3,-0.4 -0.4,-0.7 -0.3,-0.5 -0.6,-0.9 -0.9,-1.4 -0.2,-0.3 -0.3,-0.5 -0.5,-0.8 -0.3,-0.4 -0.5,-0.7 -0.8,-1.1 -0.2,-0.2 -0.4,-0.5 -0.5,-0.7 -0.4,-0.5 -0.8,-0.9 -1.2,-1.4 -1.2,-1.3 -2.6,-2.6 -4.1,-3.6 -0.3,-0.2 -0.7,-0.5 -1.1,-0.7 -0.3,-0.2 -0.7,-0.4 -1,-0.6 -0.2,-0.1 -0.4,-0.2 -0.6,-0.3 -1.3,-0.6 -2.7,-1.1 -4.3,-1.4 -0.6,-0.1 -1.3,-0.2 -2,-0.2 -0.3,0 -0.7,0 -1,0 -3.2,0 -6.7,0.9 -10.7,2.9 -0.4,0.2 -0.9,0.5 -1.3,0.7 -2.7,1.6 -5.6,3.7 -8.6,6.5 -2,1.9 -4.2,4 -6.4,6.5 -0.7,0.7 -1.2,1.5 -1.8,2.2 -0.3,0.5 -0.7,1 -0.9,1.5 -0.7,1.3 -1.2,2.6 -1.7,4 -0.2,0.6 -0.3,1.2 -0.4,1.8 -0.1,0.3 -0.1,0.6 -0.2,1 -0.1,0.7 -0.2,1.3 -0.3,2.1 -0.3,2.2 -0.4,4.6 -0.6,7.6 -0.2,5.4 -0.4,12.4 -1.1,21.9 0,0 0,0 0,0 0,0 0,0 0,0 0,0 0,0.1 0,0.1 0,0 0,0 0,0.1 0,0 0,0.1 0,0.1 0,0 0,0.1 0,0.1 0,0 0,0.1 0,0.1 -0.1,0.2 -0.1,0.5 -0.3,0.9 0,0 0,0 0,0 0,0.1 -0.1,0.2 -0.1,0.4 0,0 0,0 0,0.1 -0.1,0.1 -0.1,0.3 -0.2,0.4 0,0 0,0 0,0 0,0.1 -0.1,0.2 -0.1,0.2 -0.4,0.8 -0.9,1.6 -1.3,2.4 0,0.1 -0.1,0.2 -0.1,0.2 -0.4,0.7 -0.9,1.4 -1.3,2.1 -0.1,0.1 -0.1,0.2 -0.2,0.3 -0.4,0.7 -0.9,1.3 -1.4,1.9 -0.1,0.1 -0.1,0.2 -0.2,0.3 -0.5,0.6 -0.9,1.2 -1.4,1.7 -0.1,0.1 -0.1,0.1 -0.2,0.2 0,0 0,0 0,0 -2.2,2.4 -5.1,4.9 -8.8,7.5 0,0 -0.1,0.1 -0.1,0.1 -0.4,0.3 -0.9,0.6 -1.3,0.9 -0.1,0 -0.1,0.1 -0.2,0.1 -0.5,0.3 -0.9,0.6 -1.4,0.9 -0.8,0.5 -1.6,0.9 -2.4,1.4 -7.4,3 -14.1,6 -20.2,9.1 -3.7,1.8 -7.3,3.8 -10.8,5.9 -35.1,20.5 -42.1,39.6 -42.1,39.6 v 0 C 73.4,371.3 112.7,378 112.7,378 Z"
             id="path623"
             inkscape:connector-curvature="0"
             style="fill:#381a04" />
          <g
             id="g685">
            <g
               id="g629">
              <g
                 id="g627">
                <path
                   d="m 284.3,388 -20,0.7 c -1.2,0 -2.2,0.9 -2.5,2.1 -0.3,1.2 0.3,2.4 1.4,2.9 l 16.1,8.3 c 0.4,0.2 0.8,0.3 1.2,0.3 1,0 1.9,-0.5 2.3,-1.4 0.7,-1.3 0.2,-2.9 -1.1,-3.5 l -7.2,-3.7 9.9,-0.4 c 1.4,-0.1 2.6,-1.3 2.5,-2.7 0.1,-1.5 -1.1,-2.6 -2.6,-2.6 z"
                   id="path625"
                   inkscape:connector-curvature="0"
                   style="fill:#de8976" />
              </g>
            </g>
            <g
               id="g635">
              <g
                 id="g633">
                <path
                   d="m 263.5,388.2 -11.9,4.7 c -1.3,0.5 -2,2.1 -1.5,3.4 0.4,1 1.4,1.7 2.4,1.7 0.3,0 0.6,-0.1 1,-0.2 l 11.9,-4.7 c 1.3,-0.5 2,-2.1 1.5,-3.4 -0.5,-1.4 -2,-2 -3.4,-1.5 z"
                   id="path631"
                   inkscape:connector-curvature="0"
                   style="fill:#de8976" />
              </g>
            </g>
            <g
               id="g639">
              <path
                 d="m 263.7,363.1 c -2,-1.2 -4.6,-0.6 -5.8,1.3 -8,12.8 -3.2,23.8 0.4,27.8 0.8,0.9 2,1.4 3.1,1.4 1,0 2,-0.4 2.8,-1.1 1.7,-1.6 1.9,-4.2 0.3,-5.9 -0.1,-0.1 -6.2,-7.1 0.4,-17.8 1.3,-1.9 0.7,-4.5 -1.2,-5.7 z"
                 id="path637"
                 inkscape:connector-curvature="0"
                 style="fill:#de8976" />
            </g>
            <path
               d="m 263.7,363.1 c -2,-1.2 -4.6,-0.6 -5.8,1.3 -3.7,6 -4.7,11.7 -4.2,16.4 2.3,0.8 5.2,1.2 8.5,0.2 -0.5,-3 -0.2,-7.2 2.9,-12.1 1.1,-2 0.5,-4.6 -1.4,-5.8 z"
               id="path641"
               inkscape:connector-curvature="0"
               style="fill:#429699" />
            <g
               id="g647">
              <g
                 id="g645">
                <path
                   d="m 267.7,398.1 -21.9,0.8 c -1.3,0 -2.4,1 -2.7,2.3 -0.3,1.3 0.3,2.6 1.5,3.2 l 17.7,9.1 c 0.4,0.2 0.9,0.3 1.3,0.3 1,0 2.1,-0.6 2.6,-1.6 0.7,-1.4 0.2,-3.2 -1.2,-3.9 l -7.9,-4 10.9,-0.4 c 1.6,-0.1 2.8,-1.4 2.8,-3 -0.2,-1.6 -1.5,-2.8 -3.1,-2.8 z"
                   id="path643"
                   inkscape:connector-curvature="0"
                   style="fill:#ed917d" />
              </g>
            </g>
            <g
               id="g653">
              <g
                 id="g651">
                <path
                   d="m 244.8,398.3 -13,5.1 c -1.5,0.6 -2.2,2.3 -1.6,3.7 0.4,1.1 1.5,1.8 2.7,1.8 0.4,0 0.7,-0.1 1.1,-0.2 l 13,-5.1 c 1.5,-0.6 2.2,-2.3 1.6,-3.7 -0.7,-1.4 -2.3,-2.2 -3.8,-1.6 z"
                   id="path649"
                   inkscape:connector-curvature="0"
                   style="fill:#ed917d" />
              </g>
            </g>
            <path
               d="m 312.9,214.9 c 0,0 -13.6,-43.6 -48.9,-4.1 -7.1,7.9 -5,14.3 -6.9,42 0,0 -2.7,16.3 -32.4,27.8 -29.7,11.4 -58,37.6 -63,51.9 0,0 -19,31.5 23.6,46.2 0,0 105.2,32.6 128.8,-72.2 3.1,-13.8 3.8,-27.7 -9.5,-62.4 -2.1,-5.5 -2.8,-20.8 18.8,-14.9 0,0 1.2,-5.7 -10.5,-14.3 z"
               id="path655"
               inkscape:connector-curvature="0"
               style="fill:#5b4d55" />
            <path
               d="m 140.3,367.3 c -7.7,6.2 -24.4,15.2 -33.1,19.3 -3.3,1.6 -21.5,9.9 1.2,14.5 27.4,5.7 77.6,-32.1 77.6,-32.1 -4.5,-5.5 -37.9,-7.9 -45.7,-1.7 z"
               id="path657"
               inkscape:connector-curvature="0"
               style="fill:#6e5f68" />
            <path
               d="m 312.9,214.9 c 0,0 -13.6,-43.6 -48.9,-4.1 -7.1,7.9 -5,14.3 -6.9,42 0,0 -1.9,11 -18.9,21.3 0.5,18.6 7,37.4 27.6,47.7 32.8,16.4 45.2,-6.4 49.8,-24.2 1.3,-11.6 -0.5,-26.1 -11.1,-53.5 -2.1,-5.5 -2.8,-20.8 18.8,-14.9 0.1,0 1.3,-5.7 -10.4,-14.3 z"
               id="path659"
               inkscape:connector-curvature="0"
               style="fill:#429699" />
            <path
               d="m 256.2,255.4 c -8,15.6 -20.4,20 -20.4,20 -63.2,27.7 -73.1,54.6 -73.1,54.6 -98.3,33.9 -59,40.6 -59,40.6 70.8,8.6 120.5,-1.9 146.9,-15 26.5,-13.1 26.5,-31 16.7,-53.4 -9.7,-22.4 -11.1,-46.8 -11.1,-46.8 z"
               id="path661"
               inkscape:connector-curvature="0"
               style="fill:#b8969c" />
            <path
               d="m 312.9,214.9 c 0,0 -13.6,-43.6 -48.9,-4.1 -0.2,0.2 -0.4,0.4 -0.6,0.7 3.5,10.5 13.4,28.3 40.3,29.3 -0.9,-6.6 1.5,-16.6 19.6,-11.6 0.1,0 1.3,-5.7 -10.4,-14.3 z"
               id="path663"
               inkscape:connector-curvature="0"
               style="fill:#54bec2" />
            <path
               d="m 312.9,214.9 c 0,0 0,-0.1 -0.1,-0.3 -3.6,2.5 -10.4,8.5 -7.7,17.7 2.3,-3.8 7.5,-6.1 18.3,-3.1 0,0 1.2,-5.7 -10.5,-14.3 z"
               id="path665"
               inkscape:connector-curvature="0"
               style="fill:#6a6d7d" />
            <circle
               transform="matrix(0.9969,-0.07818318,0.07818318,0.9969,-15.934,23.4597)"
               cx="291.60001"
               cy="215.2"
               id="circle667"
               r="4.5"
               style="fill:#ffffff" />
            <circle
               transform="matrix(0.9969,-0.07819314,0.07819314,0.9969,-15.936,23.4628)"
               cx="291.60001"
               cy="215.2"
               id="circle669"
               r="2.7"
               style="fill:#6a6d7d" />
            <path
               d="m 256.2,255.4 c -8,15.6 -20.4,20 -20.4,20 -62.4,25 -73.1,54.6 -73.1,54.6 -1,0.3 19.1,33 80.9,28.8 2.5,-1 4.8,-2.1 7,-3.2 26.5,-13.1 26.5,-31 16.7,-53.4 -9.7,-22.4 -11.1,-46.8 -11.1,-46.8 z"
               id="path671"
               inkscape:connector-curvature="0"
               style="fill:#b6b2a2" />
            <path
               d="m 256.2,255.4 c -3.7,7.2 -8.3,12 -12.2,15.1 1.6,8.6 4.1,19.3 8.8,29.6 24,52.7 -39.5,57.1 -46.3,56.5 10.2,2.2 22.5,3.3 37.1,2.3 2.5,-1 4.8,-2.1 7,-3.2 26.5,-13.1 26.5,-31 16.7,-53.4 -9.7,-22.5 -11.1,-46.9 -11.1,-46.9 z"
               id="path673"
               inkscape:connector-curvature="0"
               style="fill:#a6a394" />
            <path
               d="m 234.3,319 c -4.3,-3.2 -6.6,-7.7 -5.9,-11.2 0,0 0,0 0,0 0,0 0,0 0,0 -3.1,1.6 -8.1,0.8 -12.4,-2.4 -4.3,-3.2 -6.6,-7.7 -5.9,-11.2 -0.7,0.4 -1.3,0.9 -1.8,1.5 -2.5,3.4 -0.3,9.4 5,13.3 4.3,3.2 9.3,4 12.4,2.4 -0.7,3.4 1.6,8 5.9,11.2 5.3,3.9 11.6,4.3 14.2,0.9 0.5,-0.6 0.8,-1.4 0.9,-2.1 -3.1,1.6 -8.1,0.7 -12.4,-2.4 z"
               id="path675"
               inkscape:connector-curvature="0"
               style="fill:#838075" />
            <path
               d="m 227.8,342.4 c -4,-3.2 -6.1,-7.7 -5.4,-11 0,0 0,-0.1 0,-0.1 0,0 0,0 0,0 0,0 0,0 0,0 0,0 -0.1,0 -0.1,0 -3.1,1.4 -7.8,0.4 -11.9,-2.8 -4.1,-3.3 -6.1,-7.7 -5.4,-11.1 0,0 0,0 0,0 0,0 0,0 0,0 -3.1,1.5 -7.9,0.5 -12,-2.8 -4.1,-3.3 -6.1,-7.7 -5.4,-11.1 -0.7,0.3 -1.3,0.8 -1.8,1.4 -2.6,3.2 -0.6,9.1 4.4,13.1 4.1,3.3 8.9,4.3 12,2.7 -0.8,3.3 1.3,7.8 5.4,11.1 4.1,3.2 8.9,4.2 12,2.8 -0.8,3.3 1.3,7.8 5.4,11 5,4 11.2,4.6 13.8,1.3 0.5,-0.6 0.8,-1.3 1,-2 -3.1,1.8 -7.9,0.8 -12,-2.5 z"
               id="path677"
               inkscape:connector-curvature="0"
               style="fill:#838075" />
            <g
               id="g681">
              <path
                 d="m 244.9,370.7 c -2.2,-1.3 -5,-0.7 -6.4,1.5 -8.7,14.1 -3.5,26.2 0.5,30.6 0.9,1 2.2,1.5 3.4,1.5 1.1,0 2.2,-0.4 3.1,-1.2 1.9,-1.7 2,-4.6 0.3,-6.5 -0.1,-0.1 -6.8,-7.8 0.5,-19.6 1.5,-2.1 0.8,-5 -1.4,-6.3 z"
                 id="path679"
                 inkscape:connector-curvature="0"
                 style="fill:#ed917d" />
            </g>
            <path
               d="m 244.9,370.7 c -2.2,-1.3 -5,-0.7 -6.4,1.5 -4.1,6.6 -5.1,12.8 -4.6,18 2.5,0.9 5.8,1.3 9.3,0.2 -0.6,-3.4 -0.2,-7.9 3.2,-13.3 1.4,-2.2 0.7,-5.1 -1.5,-6.4 z"
               id="path683"
               inkscape:connector-curvature="0"
               style="fill:#429699" />
          </g>
        </g>
      </g>
    </clipPath>
  </defs>
  <sodipodi:namedview
     id="base"
     pagecolor="#ffffff"
     bordercolor="#666666"
     borderopacity="1.0"
     inkscape:pageopacity="0.0"
     inkscape:pageshadow="2"
     inkscape:zoom="0.35"
     inkscape:cx="154.66515"
     inkscape:cy="-252.43322"
     inkscape:document-units="mm"
     inkscape:current-layer="layer1"
     showgrid="false"
     inkscape:window-width="1920"
     inkscape:window-height="1017"
     inkscape:window-x="-8"
     inkscape:window-y="-8"
     inkscape:window-maximized="1"
     fit-margin-top="0"
     fit-margin-left="0"
     fit-margin-right="0"
     fit-margin-bottom="0" />
  <metadata
     id="metadata540">
    <rdf:RDF>
      <cc:Work
         rdf:about="">
        <dc:format>image/svg+xml</dc:format>
        <dc:type
           rdf:resource="http://purl.org/dc/dcmitype/StillImage" />
        <dc:title></dc:title>
      </cc:Work>
    </rdf:RDF>
  </metadata>
  <g
     inkscape:label="Layer 1"
     inkscape:groupmode="layer"
     id="layer1"
     transform="translate(50.749205,34.603512)">
    <path
       style="fill:#381a04;stroke-width:0.26458332"
       inkscape:connector-curvature="0"
       id="path4"
       d="M 14.761624,-19.38997 3.3580839,-23.49101 c 0,-4.68312 -3.78353998,-8.49312 -8.46667,-8.49312 -0.29104,0 -28.0193699,3.57187 -28.0193699,3.57187 -0.79375,0.18521 -1.5875,0.42333 -2.32833,0.71438 0,0 0,0 0,0 0,0 0,0 0,0 -0.0529,0.0264 -0.10584,0.0264 -0.1323,0.0529 -0.1852,0.0794 -0.39687,0.15875 -0.58208,0.23813 -0.0794,0.0265 -0.18521,0.0794 -0.26458,0.10583 -0.15875,0.0529 -0.29104,0.13229 -0.44979,0.18521 -0.10584,0.0529 -0.18521,0.10583 -0.29105,0.13229 -0.13229,0.0529 -0.26458,0.13229 -0.39687,0.21167 -0.10583,0.0529 -0.18521,0.10583 -0.29104,0.15875 -0.13229,0.0794 -0.26459,0.13229 -0.37042,0.21166 -0.10583,0.0529 -0.18521,0.10584 -0.29104,0.15875 -0.13229,0.0794 -0.23813,0.15875 -0.37042,0.21167 -0.10583,0.0529 -0.18521,0.13229 -0.29104,0.18521 -0.13229,0.0794 -0.23812,0.15875 -0.37042,0.23812 -0.10583,0.0529 -0.1852,0.1323 -0.26458,0.18521 -0.13229,0.0794 -0.23812,0.15875 -0.34396,0.26459 -0.0794,0.0529 -0.18521,0.13229 -0.26458,0.1852 -0.13229,0.10584 -0.23813,0.18521 -0.37042,0.29105 -0.0794,0.0529 -0.15875,0.13229 -0.23812,0.1852 -0.13229,0.10584 -0.26459,0.23813 -0.39688,0.34396 -0.0529,0.0529 -0.10583,0.10584 -0.15875,0.15875 -0.18521,0.15875 -0.37041,0.34396 -0.55562,0.50271 -0.0529,0.0529 -0.10584,0.10583 -0.15875,0.15875 -0.13229,0.13229 -0.26459,0.26458 -0.37042,0.39688 -0.0794,0.0794 -0.13229,0.15875 -0.21167,0.21166 -0.10583,0.10584 -0.21166,0.23813 -0.3175,0.34396 -0.0794,0.0794 -0.13229,0.15875 -0.21166,0.23813 -0.10584,0.10583 -0.18521,0.21166 -0.29104,0.34395 -0.0794,0.0794 -0.1323,0.18521 -0.21167,0.26459 -0.0794,0.10583 -0.18521,0.23812 -0.26458,0.34396 -0.0794,0.0794 -0.1323,0.1852 -0.21167,0.26458 -0.0794,0.10583 -0.15875,0.23812 -0.23813,0.34396 -0.0529,0.0794 -0.13229,0.18521 -0.1852,0.29104 -0.0794,0.13229 -0.15875,0.23812 -0.23813,0.37042 -0.0529,0.10583 -0.10583,0.1852 -0.18521,0.29104 -0.0794,0.13229 -0.15875,0.26458 -0.23812,0.39687 -0.0529,0.0794 -0.10584,0.18521 -0.15875,0.26459 -0.0794,0.13229 -0.15875,0.29104 -0.23813,0.42333 -0.0529,0.0794 -0.0794,0.15875 -0.13229,0.23812 -0.10583,0.18521 -0.18521,0.37042 -0.26458,0.55563 -0.0265,0.0529 -0.0529,0.0794 -0.0529,0.13229 -0.10583,0.23813 -0.21167,0.47625 -0.3175,0.71438 -0.0265,0.0794 -0.0529,0.15875 -0.0794,0.21166 -0.0529,0.15875 -0.1323,0.34396 -0.18521,0.50271 -0.0265,0.10583 -0.0529,0.18521 -0.10584,0.29104 -0.0529,0.15875 -0.10583,0.29104 -0.15875,0.44979 -0.0265,0.10584 -0.0529,0.21167 -0.10583,0.3175 -0.0529,0.15875 -0.0794,0.29105 -0.13229,0.4498 -0.0265,0.10583 -0.0529,0.21166 -0.0794,0.3175 -0.0265,0.15875 -0.0794,0.29104 -0.10583,0.44979 -0.0265,0.10583 -0.0529,0.21166 -0.0794,0.34396 -0.0265,0.15875 -0.0529,0.29104 -0.0794,0.44979 -0.0265,0.10583 -0.0529,0.21166 -0.0529,0.34396 -0.0264,0.15875 -0.0529,0.3175 -0.0794,0.44979 -0.0265,0.10583 -0.0265,0.21166 -0.0529,0.34396 -0.0265,0.15875 -0.0265,0.3175 -0.0529,0.47625 0,0.10583 -0.0265,0.21166 -0.0265,0.3175 -0.0265,0.1852 -0.0265,0.37041 -0.0265,0.52916 0,0.0794 0,0.18521 -0.0265,0.26459 0,0.26458 -0.0265,0.5556197 -0.0265,0.8201997 0,2.6723 0.52917,5.2123 1.53459,7.54063 0.23812,0.58208 0.52916,1.13771005 0.8202,1.69333005 0.15875,0.26459 0.3175,0.55563 0.47625,0.82021 0.74084,1.24353995 1.64042,2.38124995 2.64584,3.41312995 l -1.13771,3.14854 c -0.0265,0.0529 -0.0265,0.13229 -0.0265,0.18521 0,0.21166 0.10583,0.44979 0.29104,0.55562 l 1.37584,0.79375 -1.11125,2.2225003 c -1.11125,2.19604 -0.42334,4.86833 1.5875,6.27062 l 5.21229,3.6248 c 0.79375,0.55562 1.77271,0.87312 2.75166,0.87312 h 8.46667 1.56104 8.46667 c 0.66146,0 1.05833,-0.74083 0.68792,-1.29646 l -0.29105,-0.42333 c -0.87312,-1.27 -2.32833,-2.03729 -3.88937,-2.03729 h -5.50333 c -0.3175,0 -0.60855,-0.10583 -0.84667,-0.29104 l -5.00063,-3.62479 c -0.60854,-0.42334 -0.76729,-1.24355 -0.42333,-1.905 l 1.24354,-2.2489603 c 0.18521,0 0.34396,0 0.52917,0 v 0 0 c 0.21167,0 0.44979,0 0.66146,0 0.21166,0 0.42333,-0.0265 0.635,-0.0265 0,0 0,0 0,0 v 0 c 7.43479,-0.50271 13.70541,-5.18583 16.48354,-11.72104 L -2.7805061,-15.42127 c 0,0 2.54000002,-0.68791 4.36562,-2.88396 h 3.09563 v 0 h 9.9218701 c 0.635,0.10584 0.79375,-0.84666 0.15875,-1.08479 z m -47.99541,36.5125 1.08479,0.76729 h -0.55563 c -0.3175,0 -0.60854,-0.10583 -0.84666,-0.29104 l -5.00063,-3.62479 c -0.60854,-0.42333 -0.76729,-1.24354 -0.42333,-1.905 l 0.66146,-1.21708 0.76729,0.44979 c 0.26458,0.15875 0.60854,0.0794 0.79375,-0.15875 l 1.74625,-2.3283303 c 0.34396,0.13229 0.71437,0.23812 1.05833,0.31749 l -0.87312,1.6933403 c -1.0848,2.19604 -0.42334,4.89479 1.5875,6.29708 z" />
    <g
       transform="matrix(0.26458333,0,0,0.26458333,-336.36691,-90.50997)"
       id="g58">
      <path
         style="fill:#d1aea3"
         inkscape:connector-curvature="0"
         id="path22"
         d="m 1205.3,407.3 c -3.3,-4.8 -8.8,-7.7 -14.7,-7.7 h -20.8 c -1.2,0 -2.3,-0.4 -3.2,-1.1 l -18.9,-13.7 c -2.3,-1.6 -2.9,-4.7 -1.6,-7.2 l 15.5,-28.2 -15.8,-8.2 -16,31.7 c -4.2,8.3 -1.6,18.4 6,23.7 l 19.7,13.7 c 3,2.1 6.7,3.3 10.4,3.3 h 38 c 2.5,0 4,-2.8 2.6,-4.9 z" />
      <path
         style="fill:#405766"
         inkscape:connector-curvature="0"
         id="path24"
         d="m 1241.9,211.3 c -1.1,0 -105.9,13.5 -105.9,13.5 -32.4,7.5 -56.5,36.6 -56.5,71.3 0,40.4 32.8,73.2 73.2,73.2 30.2,0 56.1,-18.3 67.3,-44.4 l 30.7,-50.7 c 0,0 23.3,-6.2 23.3,-30.9 -0.1,-17.7 -14.4,-32 -32.1,-32 z" />
      <path
         style="fill:#2f3f4a"
         inkscape:connector-curvature="0"
         id="path26"
         d="m 1089.6,293.3 c 0,-28 15.1,-52.5 37.6,-65.8 -27.9,10.3 -47.7,37.2 -47.7,68.6 0,40.4 32.8,73.2 73.2,73.2 1.7,0 3.3,-0.1 4.9,-0.2 -38.2,-4.1 -68,-36.5 -68,-75.8 z" />
      <circle
         style="fill:#2f3f4a"
         r="3.8"
         id="ellipse28"
         cy="232"
         cx="1249.6" />
      <path
         style="fill:#e8c1b5"
         inkscape:connector-curvature="0"
         id="path30"
         d="M 1317.1,258.8 1274,243.3 c 0,0 -10.5,-3.4 -14.5,7 -4,10.4 7.5,13 7.5,13 h 49.3 c 2.6,0 3.2,-3.6 0.8,-4.5 z" />
      <path
         style="fill:#cca396"
         inkscape:connector-curvature="0"
         id="path32"
         d="m 1271.3,250.3 c 1.2,-3.2 3.1,-5 5,-6.1 l -2.3,-0.8 c 0,0 -10.5,-3.4 -14.5,7 -4,10.4 7.5,13 7.5,13 h 11.8 c 0,-0.1 -11.6,-2.7 -7.5,-13.1 z" />
      <path
         style="fill:#e8c1b5"
         inkscape:connector-curvature="0"
         id="path34"
         d="m 1173.2,407.3 c -3.3,-4.8 -8.8,-7.7 -14.7,-7.7 h -20.8 c -1.2,0 -2.3,-0.4 -3.2,-1.1 l -18.9,-13.7 c -2.3,-1.6 -2.9,-4.7 -1.6,-7.2 l 15.5,-28.2 -15.8,-8.2 -16,31.7 c -4.2,8.3 -1.6,18.4 6,23.7 l 19.7,13.7 c 3,2.1 6.7,3.3 10.4,3.3 h 38 c 2.5,0 4,-2.8 2.6,-4.9 z" />
      <path
         style="fill:#334452"
         inkscape:connector-curvature="0"
         id="path36"
         d="m 1126.4,324.4 -13.1,-7.1 c -1.1,-0.6 -2.4,-0.1 -2.8,1.1 l -14.6,40.5 c -0.4,1.1 0,2.2 1,2.8 l 22.7,13.1 c 1,0.6 2.3,0.3 3,-0.6 l 11.5,-15.3 c 8.3,-11.5 4.8,-27.8 -7.7,-34.5 z" />
      <path
         style="fill:#2f3f4a"
         inkscape:connector-curvature="0"
         id="path38"
         d="m 1114.5,318 -1.3,-0.7 c -1.1,-0.6 -2.4,-0.1 -2.8,1.1 l -14.6,40.5 c -0.4,1.1 0,2.2 1,2.8 l 6.7,3.9 14.7,-37.5 c 1.5,-3.8 -0.1,-8.2 -3.7,-10.1 z" />
      <path
         style="fill:#2f3f4a"
         inkscape:connector-curvature="0"
         id="path40"
         d="m 1176.1,233 -20.9,3.5 c -2.1,0.3 -3.4,2.3 -3.1,4.3 0.3,1.8 1.9,3.2 3.7,3.2 0.2,0 0.4,0 0.6,-0.1 l 20.9,-3.5 c 2.1,-0.3 3.4,-2.3 3.1,-4.3 -0.3,-2.1 -2.2,-3.4 -4.3,-3.1 z" />
      <path
         style="fill:#2f3f4a"
         inkscape:connector-curvature="0"
         id="path42"
         d="m 1145.1,250.8 -20.3,6.1 c -2,0.6 -3.1,2.7 -2.5,4.7 0.5,1.6 2,2.7 3.6,2.7 0.4,0 0.7,-0.1 1.1,-0.2 l 20.3,-6.1 c 2,-0.6 3.1,-2.7 2.5,-4.7 -0.6,-2 -2.7,-3.1 -4.7,-2.5 z" />
      <path
         style="fill:#2f3f4a"
         inkscape:connector-curvature="0"
         id="path44"
         d="m 1222.3,293.7 c -1.6,-1.3 -4,-1 -5.3,0.6 l -13.1,16.7 c -1.3,1.6 -1,4 0.6,5.3 0.7,0.5 1.5,0.8 2.3,0.8 1.1,0 2.2,-0.5 3,-1.4 L 1223,299 c 1.3,-1.6 1,-4 -0.7,-5.3 z" />
      <path
         style="fill:#2f3f4a"
         inkscape:connector-curvature="0"
         id="path46"
         d="m 1182.2,250.3 -19.9,7.2 c -2,0.7 -3,2.9 -2.3,4.8 0.6,1.5 2,2.5 3.6,2.5 0.4,0 0.9,-0.1 1.3,-0.2 l 19.9,-7.2 c 2,-0.7 3,-2.9 2.3,-4.8 -0.7,-2 -2.9,-3 -4.9,-2.3 z" />
      <path
         style="fill:#2f3f4a"
         inkscape:connector-curvature="0"
         id="path48"
         d="m 1154.1,273.9 -18.6,10.1 c -1.8,1 -2.5,3.3 -1.5,5.1 0.7,1.3 2,2 3.3,2 0.6,0 1.2,-0.1 1.8,-0.5 l 18.6,-10.1 c 1.8,-1 2.5,-3.3 1.5,-5.1 -1,-1.8 -3.3,-2.5 -5.1,-1.5 z" />
      <path
         style="fill:#2f3f4a"
         inkscape:connector-curvature="0"
         id="path50"
         d="m 1168.6,294.9 -15.2,14.7 c -1.5,1.4 -1.5,3.8 -0.1,5.3 0.7,0.8 1.7,1.2 2.7,1.2 0.9,0 1.9,-0.4 2.6,-1.1 l 15.2,-14.7 c 1.5,-1.4 1.5,-3.8 0.1,-5.3 -1.4,-1.5 -3.8,-1.5 -5.3,-0.1 z" />
      <path
         style="fill:#2f3f4a"
         inkscape:connector-curvature="0"
         id="path52"
         d="m 1193.1,313.1 c -1.7,-1.2 -4.1,-0.8 -5.3,0.9 l -12.1,17.4 c -1.2,1.7 -0.8,4.1 0.9,5.3 0.7,0.5 1.4,0.7 2.2,0.7 1.2,0 2.4,-0.6 3.1,-1.6 l 12.1,-17.4 c 1.3,-1.7 0.8,-4.1 -0.9,-5.3 z" />
      <path
         style="fill:#2f3f4a"
         inkscape:connector-curvature="0"
         id="path54"
         d="m 1202.6,280.2 -15.3,14.7 c -1.5,1.4 -1.6,3.8 -0.1,5.3 0.7,0.8 1.7,1.2 2.7,1.2 0.9,0 1.9,-0.3 2.6,-1.1 l 15.3,-14.7 c 1.5,-1.4 1.6,-3.8 0.1,-5.3 -1.4,-1.5 -3.8,-1.5 -5.3,-0.1 z" />
      <path
         style="fill:#2f3f4a"
         inkscape:connector-curvature="0"
         id="path56"
         d="m 1191.8,264.8 -17.8,11.4 c -1.8,1.1 -2.3,3.5 -1.1,5.2 0.7,1.1 1.9,1.7 3.2,1.7 0.7,0 1.4,-0.2 2,-0.6 l 17.8,-11.4 c 1.8,-1.1 2.3,-3.5 1.1,-5.2 -1.1,-1.7 -3.4,-2.2 -5.2,-1.1 z" />
    </g>
  </g>
</svg>
