<?xml version="1.0" encoding="UTF-8" standalone="no"?>
<svg
   xmlns:dc="http://purl.org/dc/elements/1.1/"
   xmlns:cc="http://creativecommons.org/ns#"
   xmlns:rdf="http://www.w3.org/1999/02/22-rdf-syntax-ns#"
   xmlns:svg="http://www.w3.org/2000/svg"
   xmlns="http://www.w3.org/2000/svg"
   xml:space="preserve"
   enable-background="new 0 0 1400 980"
   viewBox="0 0 246.02715 312.74622"
   height="312.74622"
   width="246.02715"
   y="0px"
   x="0px"
   id="Layer_1"
   version="1.0"><metadata
   id="metadata269"><rdf:RDF><cc:Work
       rdf:about=""><dc:format>image/svg+xml</dc:format><dc:type
         rdf:resource="http://purl.org/dc/dcmitype/StillImage" /><dc:title></dc:title></cc:Work></rdf:RDF></metadata><defs
   id="defs267">
	
	
	
	
	
	
	
	

	
	
	
	
	
	
	
	
</defs>

<path
   d="m 202.225,56.446221 c -0.1,-1.7 -0.4,-3.5 -0.9,-5.4 -8.2,-32.9 -35.3,-48.5000004 -54.7,-37.6 -19.4,10.9 -24.1,45 -13.8,69.7 10.3,24.699999 14,28.399999 7.4,54.099999 0,0 -100.9,-24.1 -125.9,94.4 -6.7,31.8 -3.9,60.5 -2.8,56.7 19.1,-8.3 35.3,-17.9 49.2,-28.2 0.1,0 0.2,0 0.3,-0.1 0.1,0 0.2,0 0.3,0 0.3,0 0.5,-0.1 0.8,-0.1 0.1,0 0.2,0 0.3,0 0.7,-0.1 1.5,-0.3 2.3,-0.4 0.1,0 0.1,0 0.2,0 0.3,-0.1 0.7,-0.1 1,-0.2 0.1,0 0.2,0 0.3,-0.1 0.4,-0.1 0.7,-0.2 1.1,-0.2 0.1,0 0.1,0 0.2,0 0.9,-0.2 1.8,-0.4 2.8,-0.6 0.1,0 0.1,0 0.2,0 0.4,-0.1 0.8,-0.2 1.3,-0.3 0.1,0 0.2,0 0.2,-0.1 0.5,-0.1 0.9,-0.2 1.4,-0.3 0,0 0,0 0.1,0 0.8,-0.2 1.6,-0.4 2.4,-0.6 l -1.2,44.5 -7.4,1.9 c -1.6,0.4 -2.5,2 -2.1,3.6 0.4,1.6 2,2.5 3.6,2.1 l 9.5,-2.4 c 0,0 0,0 0,0 0,0 0,0 0,0 l 22.5,5.8 c 0.2,0.1 0.5,0.1 0.7,0.1 1.3,0 2.5,-0.9 2.8,-2.2 0.4,-1.6 -0.5,-3.2 -2.1,-3.6 l -6.8,-1.8 2.8,-0.7 c 0,0 0,0 0,0 0,0 0,0 0,0 l 22.5,5.8 c 0.2,0.1 0.5,0.1 0.7,0.1 1.3,0 2.5,-0.9 2.8,-2.2 0.4,-1.6 -0.5,-3.2 -2.1,-3.6 l -20.4,-5.2 1.4,-51.8 c 0,-0.1 0,-0.2 0,-0.3 1.1,-0.5 2.3,-1.1 3.4,-1.6 0,0 0,0 0,0 15.2,-7.6 30.9,-18.8 42.8,-35.2 0,0 0,0 0,0 0.5,-0.7 1,-1.4 1.5,-2.1 0,0 0,0 0,0 1.5,-2.2 2.9,-4.4 4.3,-6.8 0,0 0,-0.1 0.1,-0.1 0.4,-0.8 0.9,-1.5 1.3,-2.3 0,0 0,0 0,0 v 0 c 14,-25.9 19.1,-62.5 3.9,-113.999999 0,0 0.1,0 0.3,0 9.5,18.599999 32.6,50.699999 83.7,69.199999 0,0 0,0 0.1,0 0,0 0,0 0,0 0.2,0.1 0.4,0.2 0.6,0.2 0,0 10.7,0 -41.6,-95.999999 -0.6,-1.1 -0.9,-1.6 -1.3,-2.1 z m -120.6,244.799999 1.3,-46.6 c 0.2,-0.1 0.4,-0.1 0.5,-0.2 0,0 0.1,0 0.1,0 0.6,-0.2 1.1,-0.4 1.7,-0.5 0,0 0.1,0 0.1,0 1.8,-0.6 3.6,-1.2 5.5,-1.9 0,0 0,0 0.1,0 0.6,-0.2 1.2,-0.5 1.8,-0.7 0,0 0,0 0,0 1,-0.4 2.1,-0.8 3.2,-1.3 l -1.3,48.9 -7.4,1.9 c -0.8,0.2 -1.5,0.8 -1.9,1.5 z"
   id="path16"
   style="fill:#381a04" />
<g
   transform="translate(-465.975,-511.45378)"
   id="g244">
		<path
   d="m 577.9,805.6 -20.4,-5.2 1.4,-51.8 c 0.1,-1.9 -1.5,-3.6 -3.4,-3.6 -1.9,-0.1 -3.6,1.5 -3.6,3.4 l -1.4,51.9 -7.4,1.9 c -1.6,0.4 -2.5,2 -2.1,3.6 0.4,1.6 2,2.5 3.6,2.1 l 9.5,-2.4 c 0,0 0,0 0,0 0,0 0,0 0,0 l 22.5,5.8 c 0.2,0.1 0.5,0.1 0.7,0.1 1.3,0 2.5,-0.9 2.8,-2.2 0.3,-1.6 -0.6,-3.2 -2.2,-3.6 z"
   id="path226"
   style="fill:#ab954d" />
		<path
   d="m 602.7,514.9 c -19.4,10.9 -24.1,45 -13.8,69.7 10.3,24.7 14,28.4 7.4,54.1 0,0 -106.1,5.6 -87.6,124 0,0 155.9,-13.1 107.6,-176.6 0,0 49.4,-0.6 41.2,-33.5 -8.4,-33 -35.4,-48.6 -54.8,-37.7 z"
   id="path228"
   style="fill:#e6e7e9" />
		<path
   d="m 534.3,711.3 c -15.8,14.5 -24.2,33.5 -24.3,51.2 10.2,-1.2 74.3,-10.6 102.3,-62.5 -21.1,-14.9 -54.1,-10.7 -78,11.3 z"
   id="path230"
   style="fill:#c4c5c7" />
		<path
   d="m 470.3,733.1 c -6.7,31.8 -3.9,60.5 -2.8,56.7 116.5,-50.7 128.7,-151.1 128.7,-151.1 0,0 -100.9,-24.1 -125.9,94.4 z"
   id="path232"
   style="fill:#d6d7d9" />
		<path
   d="m 646.6,554.2 c -4.3,1.2 -9.1,3.8 -12.1,9.1 -2.2,3.9 -6.4,6.2 -10.9,5.7 -5.9,-0.7 -12.8,-0.8 -13.1,2.7 0,0 14.7,56.8 90.3,83.8 0,0 10.7,0 -41.6,-96 -2.4,-4.5 -7.6,-6.7 -12.6,-5.3 z"
   id="path234"
   style="fill:#d9bd62" />
		<path
   d="m 634.6,563.3 c -2.2,3.9 -6.4,6.2 -10.9,5.7 -5.9,-0.7 -12.8,-0.8 -13.1,2.7 0,0 14.6,56.4 89.7,83.6 -16.4,-22.1 -48,-70.6 -63.7,-94.8 -0.7,0.8 -1.4,1.7 -2,2.8 z"
   id="path236"
   style="fill:#8c7a3f" />
		<circle
   cx="636.09998"
   cy="545.40002"
   r="6.5"
   id="circle238"
   style="fill:#d9bd62" />
		<circle
   cx="636.09998"
   cy="545.40002"
   r="3.8"
   id="circle240" />
		<path
   d="M 558,808 537.6,802.8 539,751 c 0.1,-1.9 -1.5,-3.6 -3.4,-3.6 -1.9,0 -3.6,1.5 -3.6,3.4 l -1.4,51.9 -7.4,1.9 c -1.6,0.4 -2.5,2 -2.1,3.6 0.4,1.6 2,2.5 3.6,2.1 l 9.5,-2.4 c 0,0 0,0 0,0 0,0 0,0 0,0 l 22.5,5.8 c 0.2,0.1 0.5,0.1 0.7,0.1 1.3,0 2.5,-0.9 2.8,-2.2 0.3,-1.6 -0.7,-3.2 -2.2,-3.6 z"
   id="path242"
   style="fill:#d9bd62" />
	</g>
</svg>