<?xml version="1.0" encoding="UTF-8" standalone="no"?>
<!-- Created with Inkscape (http://www.inkscape.org/) -->

<svg
   xmlns:dc="http://purl.org/dc/elements/1.1/"
   xmlns:cc="http://creativecommons.org/ns#"
   xmlns:rdf="http://www.w3.org/1999/02/22-rdf-syntax-ns#"
   xmlns:svg="http://www.w3.org/2000/svg"
   xmlns="http://www.w3.org/2000/svg"
   xmlns:sodipodi="http://sodipodi.sourceforge.net/DTD/sodipodi-0.dtd"
   xmlns:inkscape="http://www.inkscape.org/namespaces/inkscape"
   width="60.69548mm"
   height="49.1362mm"
   viewBox="0 0 60.695481 49.136199"
   version="1.1"
   id="svg543"
   inkscape:version="0.92.4 (5da689c313, 2019-01-14)"
   sodipodi:docname="bird8.svg">
  <defs
     id="defs537">
    <clipPath
       clipPathUnits="userSpaceOnUse"
       id="clipPath488">
      <g
         id="use490"
         inkscape:label="Clip">
        <g
           id="g687">
          <path
             d="m 112.7,378 c 9.8,1.2 19.2,2 28.2,2.5 -8.2,5.1 -18.4,10.5 -24.6,13.5 -3.3,1.6 -21.5,9.9 1.2,14.5 20.2,4.1 52.9,-15.4 68.6,-25.9 2.4,1.2 5.2,2.3 8.2,3.4 0,0 22.5,7 49,4.1 0,0.1 0,0.2 -0.1,0.3 0,0.2 -0.1,0.4 -0.1,0.6 0,0.2 -0.1,0.4 -0.1,0.5 0,0.2 -0.1,0.4 -0.1,0.6 0,0.2 0,0.3 0,0.5 0,0.2 0,0.4 -0.1,0.6 0,0.2 0,0.3 0,0.5 0,0.2 0,0.4 0,0.6 0,0.1 0,0.3 0,0.4 0,0.2 0,0.4 0,0.6 0,0.1 0,0.2 0,0.4 0,0.2 0,0.4 0,0.7 0,0.1 0,0.2 0,0.3 0,0.2 0,0.5 0.1,0.7 v 0 0 c 0.4,4.6 2.1,8.4 3.8,10.9 l -6.1,2.4 c -1.5,0.6 -2.2,2.3 -1.6,3.7 0.4,1.1 1.5,1.8 2.7,1.8 0.4,0 0.7,-0.1 1.1,-0.2 l 10.9,-4.3 17.4,8.9 c 0.4,0.2 0.9,0.3 1.3,0.3 1,0 2.1,-0.6 2.6,-1.6 0.7,-1.4 0.2,-3.2 -1.2,-3.9 l -7.9,-4 10.9,-0.4 c 1.6,-0.1 2.8,-1.4 2.8,-3 -0.1,-1.6 -1.4,-2.8 -3,-2.8 l -19.9,0.7 c -0.2,-0.2 -0.5,-0.4 -0.8,-0.5 -0.2,-0.6 -0.5,-1.2 -1,-1.8 0,0 -2,-2.3 -2.7,-6.2 v 0 c -0.2,-1 -0.3,-2.1 -0.2,-3.3 0,-0.1 0,-0.1 0,-0.2 0,-0.2 0,-0.3 0,-0.5 0,-0.1 0,-0.2 0,-0.3 0,-0.2 0,-0.3 0.1,-0.5 0,-0.1 0,-0.2 0.1,-0.4 0,-0.2 0.1,-0.3 0.1,-0.5 0,-0.1 0.1,-0.3 0.1,-0.4 0,-0.2 0.1,-0.3 0.1,-0.5 0,-0.1 0.1,-0.3 0.1,-0.4 0,-0.1 0.1,-0.3 0.1,-0.4 0,-0.2 0.1,-0.3 0.1,-0.5 0,-0.1 0.1,-0.3 0.1,-0.4 0.1,-0.2 0.1,-0.3 0.2,-0.5 0,-0.1 0.1,-0.2 0.1,-0.3 3.1,-0.6 6.2,-1.4 9.3,-2.4 0,0 0,0 0,0.1 0,0.1 0,0.2 0,0.3 0,0.2 0,0.4 0,0.6 0,0.1 0,0.2 0,0.2 0.3,4.5 1.9,8.2 3.5,10.6 l -5.5,2.2 c -1.3,0.5 -2,2.1 -1.5,3.4 0.4,1 1.4,1.7 2.4,1.7 0.3,0 0.6,-0.1 1,-0.2 l 9.9,-3.9 15.9,8.1 c 0.4,0.2 0.8,0.3 1.2,0.3 1,0 1.9,-0.5 2.3,-1.4 0.7,-1.3 0.2,-2.9 -1.1,-3.5 l -7.2,-3.7 9.9,-0.4 c 1.4,-0.1 2.6,-1.3 2.5,-2.7 -0.1,-1.4 -1.2,-2.6 -2.7,-2.5 l -18.1,0.7 c -0.2,-0.2 -0.5,-0.4 -0.7,-0.5 -0.2,-0.6 -0.5,-1.1 -0.9,-1.6 0,0 -1.8,-2.1 -2.4,-5.6 v 0 c -0.2,-0.9 -0.2,-1.9 -0.2,-3 0,-0.1 0,-0.1 0,-0.2 0,-0.2 0,-0.3 0,-0.5 0,-0.1 0,-0.2 0,-0.3 0,-0.1 0,-0.3 0.1,-0.4 0,-0.1 0,-0.2 0,-0.3 0,-0.1 0,-0.3 0.1,-0.4 0,-0.1 0,-0.1 0,-0.2 22.2,-9.5 42.9,-29.5 51.9,-69.2 0.7,-2.9 1.2,-5.8 1.5,-8.9 v 0 c 0,0 0,0 0,0 0,-0.3 0.1,-0.6 0.1,-1 0,-0.1 0,-0.2 0,-0.2 0,-0.3 0.1,-0.6 0.1,-1 0,-0.1 0,-0.1 0,-0.2 0.1,-1 0.1,-2 0.1,-3.1 0,-0.1 0,-0.2 0,-0.4 0,-0.3 0,-0.6 0,-0.9 0,-0.2 0,-0.3 0,-0.5 0,-0.3 0,-0.6 0,-0.9 0,-0.2 0,-0.3 0,-0.5 0,-0.6 0,-1.2 -0.1,-1.8 0,-0.2 0,-0.3 0,-0.5 0,-0.3 0,-0.6 -0.1,-0.9 0,-0.2 0,-0.4 -0.1,-0.7 0,-0.3 -0.1,-0.6 -0.1,-0.9 0,-0.2 0,-0.5 -0.1,-0.7 0,-0.3 -0.1,-0.6 -0.1,-0.9 0,-0.3 -0.1,-0.6 -0.1,-0.9 -0.1,-0.4 -0.1,-0.9 -0.2,-1.3 0,-0.3 -0.1,-0.7 -0.1,-1 0,-0.3 -0.1,-0.5 -0.1,-0.8 -0.1,-0.3 -0.1,-0.6 -0.2,-0.9 0,-0.3 -0.1,-0.6 -0.2,-0.8 -0.1,-0.3 -0.1,-0.7 -0.2,-1 -0.1,-0.3 -0.1,-0.5 -0.2,-0.8 -0.1,-0.6 -0.2,-1.2 -0.4,-1.8 0,-0.2 -0.1,-0.4 -0.1,-0.6 -0.1,-0.4 -0.2,-0.9 -0.3,-1.3 -0.1,-0.3 -0.1,-0.6 -0.2,-0.8 -0.1,-0.4 -0.2,-0.8 -0.3,-1.2 -0.1,-0.3 -0.1,-0.6 -0.2,-0.8 -0.1,-0.5 -0.3,-1 -0.4,-1.5 -0.1,-0.2 -0.1,-0.4 -0.2,-0.7 -0.2,-0.7 -0.4,-1.4 -0.6,-2.2 -0.1,-0.2 -0.1,-0.4 -0.2,-0.7 -0.2,-0.5 -0.3,-1.1 -0.5,-1.7 -0.1,-0.3 -0.2,-0.6 -0.3,-0.9 -0.2,-0.5 -0.3,-1.1 -0.5,-1.6 -0.1,-0.3 -0.2,-0.6 -0.3,-0.8 -0.2,-0.7 -0.4,-1.4 -0.7,-2 -0.1,-0.2 -0.1,-0.3 -0.2,-0.5 -0.3,-0.8 -0.6,-1.7 -0.9,-2.6 -0.1,-0.3 -0.2,-0.5 -0.3,-0.8 -0.2,-0.6 -0.5,-1.3 -0.7,-2 -0.1,-0.3 -0.2,-0.6 -0.3,-0.9 -0.2,-0.6 -0.5,-1.3 -0.7,-2 -0.1,-0.3 -0.2,-0.6 -0.3,-0.9 -0.4,-1 -0.7,-1.9 -1.1,-2.9 -0.3,-0.7 -0.5,-1.5 -0.7,-2.5 -0.1,-0.3 -0.1,-0.6 -0.1,-0.9 0,-0.3 -0.1,-0.6 -0.1,-1 0,-0.1 0,-0.2 0,-0.3 0,-0.1 0,-0.3 0,-0.4 0,-0.1 0,-0.2 0,-0.3 0,-0.1 0,-0.3 0,-0.4 0,-0.1 0,-0.2 0,-0.4 0,-0.1 0,-0.3 0,-0.4 0,-0.1 0,-0.3 0,-0.4 0,-0.1 0,-0.2 0,-0.4 0,-0.2 0,-0.3 0.1,-0.5 0,-0.1 0,-0.3 0.1,-0.4 0,-0.2 0.1,-0.4 0.1,-0.5 0,-0.1 0,-0.2 0.1,-0.3 0,-0.1 0.1,-0.3 0.1,-0.4 0,-0.1 0.1,-0.2 0.1,-0.3 0,-0.1 0.1,-0.3 0.1,-0.4 0,-0.1 0.1,-0.2 0.1,-0.3 0.1,-0.1 0.1,-0.3 0.2,-0.4 0,-0.1 0.1,-0.2 0.1,-0.3 0.1,-0.2 0.2,-0.4 0.3,-0.5 0,0 0,-0.1 0.1,-0.1 0,0 0,0 0,0 0.1,-0.2 0.3,-0.4 0.4,-0.6 0,0 0.1,-0.1 0.1,-0.1 0.1,-0.2 0.3,-0.3 0.4,-0.5 0.1,-0.1 0.1,-0.1 0.2,-0.2 0.1,-0.1 0.3,-0.3 0.4,-0.4 0.1,-0.1 0.1,-0.1 0.2,-0.2 0.2,-0.1 0.3,-0.3 0.5,-0.4 0.1,0 0.1,-0.1 0.2,-0.1 0,0 0,0 0,0 0.2,-0.2 0.4,-0.3 0.7,-0.4 0,0 0,0 0,0 0,0 0.1,0 0.1,-0.1 0.2,-0.1 0.5,-0.2 0.7,-0.3 0.1,0 0.1,0 0.2,-0.1 0,0 0,0 0,0 0.2,-0.1 0.4,-0.2 0.7,-0.3 0.1,0 0.2,-0.1 0.3,-0.1 0,0 0.1,0 0.1,0 0.2,-0.1 0.4,-0.1 0.6,-0.2 0.1,0 0.2,-0.1 0.3,-0.1 0.1,0 0.1,0 0.2,0 0.2,0 0.4,-0.1 0.6,-0.1 0.1,0 0.2,0 0.4,-0.1 0.1,0 0.2,0 0.3,0 0.2,0 0.4,0 0.6,-0.1 0.1,0 0.2,0 0.3,0 0.2,0 0.3,0 0.5,0 0.3,0 0.5,0 0.8,0 0.1,0 0.1,0 0.2,0 0.2,0 0.3,0 0.5,0 0.2,0 0.4,0 0.7,0 0.2,0 0.3,0 0.5,0 0.1,0 0.3,0 0.4,0 0.2,0 0.4,0 0.6,0.1 0.2,0 0.4,0 0.6,0.1 0.2,0 0.4,0.1 0.6,0.1 0.1,0 0.3,0 0.4,0.1 0.2,0 0.4,0.1 0.6,0.1 0.3,0.1 0.6,0.1 0.9,0.2 0.1,0 0.2,0 0.3,0.1 0.2,0 0.4,0.1 0.6,0.1 0.6,0.1 1.2,0.3 1.8,0.5 0,0 0,-0.1 0,-0.4 0,-0.1 0,-0.1 0,-0.2 0,-0.1 0,-0.3 0,-0.4 0,-0.3 -0.1,-0.6 -0.2,-1 -0.1,-0.5 -0.3,-1.1 -0.6,-1.7 -0.1,-0.1 -0.1,-0.2 -0.2,-0.4 -0.4,-0.8 -1,-1.8 -1.8,-2.8 -0.5,-0.7 -1.1,-1.4 -1.8,-2.1 -0.3,-0.4 -0.7,-0.7 -1.1,-1.1 -1.3,-1.3 -2.9,-2.7 -5,-4.2 0,0 0,0 0,-0.1 0,0 0,0 0,0 0,-0.1 0,-0.1 -0.1,-0.2 0,0 0,0 0,0 v 0 c -0.1,-0.4 -0.4,-1.1 -0.8,-2.1 -0.1,-0.2 -0.2,-0.4 -0.2,-0.6 -0.2,-0.5 -0.5,-1 -0.7,-1.6 -0.1,-0.2 -0.2,-0.4 -0.3,-0.6 -0.2,-0.4 -0.4,-0.8 -0.6,-1.2 -0.2,-0.5 -0.5,-0.9 -0.8,-1.4 -0.1,-0.2 -0.3,-0.4 -0.4,-0.7 -0.3,-0.5 -0.6,-0.9 -0.9,-1.4 -0.2,-0.3 -0.3,-0.5 -0.5,-0.8 -0.3,-0.4 -0.5,-0.7 -0.8,-1.1 -0.2,-0.2 -0.4,-0.5 -0.5,-0.7 -0.4,-0.5 -0.8,-0.9 -1.2,-1.4 -1.2,-1.3 -2.6,-2.6 -4.1,-3.6 -0.3,-0.2 -0.7,-0.5 -1.1,-0.7 -0.3,-0.2 -0.7,-0.4 -1,-0.6 -0.2,-0.1 -0.4,-0.2 -0.6,-0.3 -1.3,-0.6 -2.7,-1.1 -4.3,-1.4 -0.6,-0.1 -1.3,-0.2 -2,-0.2 -0.3,0 -0.7,0 -1,0 -3.2,0 -6.7,0.9 -10.7,2.9 -0.4,0.2 -0.9,0.5 -1.3,0.7 -2.7,1.6 -5.6,3.7 -8.6,6.5 -2,1.9 -4.2,4 -6.4,6.5 -0.7,0.7 -1.2,1.5 -1.8,2.2 -0.3,0.5 -0.7,1 -0.9,1.5 -0.7,1.3 -1.2,2.6 -1.7,4 -0.2,0.6 -0.3,1.2 -0.4,1.8 -0.1,0.3 -0.1,0.6 -0.2,1 -0.1,0.7 -0.2,1.3 -0.3,2.1 -0.3,2.2 -0.4,4.6 -0.6,7.6 -0.2,5.4 -0.4,12.4 -1.1,21.9 0,0 0,0 0,0 0,0 0,0 0,0 0,0 0,0.1 0,0.1 0,0 0,0 0,0.1 0,0 0,0.1 0,0.1 0,0 0,0.1 0,0.1 0,0 0,0.1 0,0.1 -0.1,0.2 -0.1,0.5 -0.3,0.9 0,0 0,0 0,0 0,0.1 -0.1,0.2 -0.1,0.4 0,0 0,0 0,0.1 -0.1,0.1 -0.1,0.3 -0.2,0.4 0,0 0,0 0,0 0,0.1 -0.1,0.2 -0.1,0.2 -0.4,0.8 -0.9,1.6 -1.3,2.4 0,0.1 -0.1,0.2 -0.1,0.2 -0.4,0.7 -0.9,1.4 -1.3,2.1 -0.1,0.1 -0.1,0.2 -0.2,0.3 -0.4,0.7 -0.9,1.3 -1.4,1.9 -0.1,0.1 -0.1,0.2 -0.2,0.3 -0.5,0.6 -0.9,1.2 -1.4,1.7 -0.1,0.1 -0.1,0.1 -0.2,0.2 0,0 0,0 0,0 -2.2,2.4 -5.1,4.9 -8.8,7.5 0,0 -0.1,0.1 -0.1,0.1 -0.4,0.3 -0.9,0.6 -1.3,0.9 -0.1,0 -0.1,0.1 -0.2,0.1 -0.5,0.3 -0.9,0.6 -1.4,0.9 -0.8,0.5 -1.6,0.9 -2.4,1.4 -7.4,3 -14.1,6 -20.2,9.1 -3.7,1.8 -7.3,3.8 -10.8,5.9 -35.1,20.5 -42.1,39.6 -42.1,39.6 v 0 C 73.4,371.3 112.7,378 112.7,378 Z"
             id="path623"
             inkscape:connector-curvature="0"
             style="fill:#381a04" />
          <g
             id="g685">
            <g
               id="g629">
              <g
                 id="g627">
                <path
                   d="m 284.3,388 -20,0.7 c -1.2,0 -2.2,0.9 -2.5,2.1 -0.3,1.2 0.3,2.4 1.4,2.9 l 16.1,8.3 c 0.4,0.2 0.8,0.3 1.2,0.3 1,0 1.9,-0.5 2.3,-1.4 0.7,-1.3 0.2,-2.9 -1.1,-3.5 l -7.2,-3.7 9.9,-0.4 c 1.4,-0.1 2.6,-1.3 2.5,-2.7 0.1,-1.5 -1.1,-2.6 -2.6,-2.6 z"
                   id="path625"
                   inkscape:connector-curvature="0"
                   style="fill:#de8976" />
              </g>
            </g>
            <g
               id="g635">
              <g
                 id="g633">
                <path
                   d="m 263.5,388.2 -11.9,4.7 c -1.3,0.5 -2,2.1 -1.5,3.4 0.4,1 1.4,1.7 2.4,1.7 0.3,0 0.6,-0.1 1,-0.2 l 11.9,-4.7 c 1.3,-0.5 2,-2.1 1.5,-3.4 -0.5,-1.4 -2,-2 -3.4,-1.5 z"
                   id="path631"
                   inkscape:connector-curvature="0"
                   style="fill:#de8976" />
              </g>
            </g>
            <g
               id="g639">
              <path
                 d="m 263.7,363.1 c -2,-1.2 -4.6,-0.6 -5.8,1.3 -8,12.8 -3.2,23.8 0.4,27.8 0.8,0.9 2,1.4 3.1,1.4 1,0 2,-0.4 2.8,-1.1 1.7,-1.6 1.9,-4.2 0.3,-5.9 -0.1,-0.1 -6.2,-7.1 0.4,-17.8 1.3,-1.9 0.7,-4.5 -1.2,-5.7 z"
                 id="path637"
                 inkscape:connector-curvature="0"
                 style="fill:#de8976" />
            </g>
            <path
               d="m 263.7,363.1 c -2,-1.2 -4.6,-0.6 -5.8,1.3 -3.7,6 -4.7,11.7 -4.2,16.4 2.3,0.8 5.2,1.2 8.5,0.2 -0.5,-3 -0.2,-7.2 2.9,-12.1 1.1,-2 0.5,-4.6 -1.4,-5.8 z"
               id="path641"
               inkscape:connector-curvature="0"
               style="fill:#429699" />
            <g
               id="g647">
              <g
                 id="g645">
                <path
                   d="m 267.7,398.1 -21.9,0.8 c -1.3,0 -2.4,1 -2.7,2.3 -0.3,1.3 0.3,2.6 1.5,3.2 l 17.7,9.1 c 0.4,0.2 0.9,0.3 1.3,0.3 1,0 2.1,-0.6 2.6,-1.6 0.7,-1.4 0.2,-3.2 -1.2,-3.9 l -7.9,-4 10.9,-0.4 c 1.6,-0.1 2.8,-1.4 2.8,-3 -0.2,-1.6 -1.5,-2.8 -3.1,-2.8 z"
                   id="path643"
                   inkscape:connector-curvature="0"
                   style="fill:#ed917d" />
              </g>
            </g>
            <g
               id="g653">
              <g
                 id="g651">
                <path
                   d="m 244.8,398.3 -13,5.1 c -1.5,0.6 -2.2,2.3 -1.6,3.7 0.4,1.1 1.5,1.8 2.7,1.8 0.4,0 0.7,-0.1 1.1,-0.2 l 13,-5.1 c 1.5,-0.6 2.2,-2.3 1.6,-3.7 -0.7,-1.4 -2.3,-2.2 -3.8,-1.6 z"
                   id="path649"
                   inkscape:connector-curvature="0"
                   style="fill:#ed917d" />
              </g>
            </g>
            <path
               d="m 312.9,214.9 c 0,0 -13.6,-43.6 -48.9,-4.1 -7.1,7.9 -5,14.3 -6.9,42 0,0 -2.7,16.3 -32.4,27.8 -29.7,11.4 -58,37.6 -63,51.9 0,0 -19,31.5 23.6,46.2 0,0 105.2,32.6 128.8,-72.2 3.1,-13.8 3.8,-27.7 -9.5,-62.4 -2.1,-5.5 -2.8,-20.8 18.8,-14.9 0,0 1.2,-5.7 -10.5,-14.3 z"
               id="path655"
               inkscape:connector-curvature="0"
               style="fill:#5b4d55" />
            <path
               d="m 140.3,367.3 c -7.7,6.2 -24.4,15.2 -33.1,19.3 -3.3,1.6 -21.5,9.9 1.2,14.5 27.4,5.7 77.6,-32.1 77.6,-32.1 -4.5,-5.5 -37.9,-7.9 -45.7,-1.7 z"
               id="path657"
               inkscape:connector-curvature="0"
               style="fill:#6e5f68" />
            <path
               d="m 312.9,214.9 c 0,0 -13.6,-43.6 -48.9,-4.1 -7.1,7.9 -5,14.3 -6.9,42 0,0 -1.9,11 -18.9,21.3 0.5,18.6 7,37.4 27.6,47.7 32.8,16.4 45.2,-6.4 49.8,-24.2 1.3,-11.6 -0.5,-26.1 -11.1,-53.5 -2.1,-5.5 -2.8,-20.8 18.8,-14.9 0.1,0 1.3,-5.7 -10.4,-14.3 z"
               id="path659"
               inkscape:connector-curvature="0"
               style="fill:#429699" />
            <path
               d="m 256.2,255.4 c -8,15.6 -20.4,20 -20.4,20 -63.2,27.7 -73.1,54.6 -73.1,54.6 -98.3,33.9 -59,40.6 -59,40.6 70.8,8.6 120.5,-1.9 146.9,-15 26.5,-13.1 26.5,-31 16.7,-53.4 -9.7,-22.4 -11.1,-46.8 -11.1,-46.8 z"
               id="path661"
               inkscape:connector-curvature="0"
               style="fill:#b8969c" />
            <path
               d="m 312.9,214.9 c 0,0 -13.6,-43.6 -48.9,-4.1 -0.2,0.2 -0.4,0.4 -0.6,0.7 3.5,10.5 13.4,28.3 40.3,29.3 -0.9,-6.6 1.5,-16.6 19.6,-11.6 0.1,0 1.3,-5.7 -10.4,-14.3 z"
               id="path663"
               inkscape:connector-curvature="0"
               style="fill:#54bec2" />
            <path
               d="m 312.9,214.9 c 0,0 0,-0.1 -0.1,-0.3 -3.6,2.5 -10.4,8.5 -7.7,17.7 2.3,-3.8 7.5,-6.1 18.3,-3.1 0,0 1.2,-5.7 -10.5,-14.3 z"
               id="path665"
               inkscape:connector-curvature="0"
               style="fill:#6a6d7d" />
            <circle
               transform="matrix(0.9969,-0.07818318,0.07818318,0.9969,-15.934,23.4597)"
               cx="291.60001"
               cy="215.2"
               id="circle667"
               r="4.5"
               style="fill:#ffffff" />
            <circle
               transform="matrix(0.9969,-0.07819314,0.07819314,0.9969,-15.936,23.4628)"
               cx="291.60001"
               cy="215.2"
               id="circle669"
               r="2.7"
               style="fill:#6a6d7d" />
            <path
               d="m 256.2,255.4 c -8,15.6 -20.4,20 -20.4,20 -62.4,25 -73.1,54.6 -73.1,54.6 -1,0.3 19.1,33 80.9,28.8 2.5,-1 4.8,-2.1 7,-3.2 26.5,-13.1 26.5,-31 16.7,-53.4 -9.7,-22.4 -11.1,-46.8 -11.1,-46.8 z"
               id="path671"
               inkscape:connector-curvature="0"
               style="fill:#b6b2a2" />
            <path
               d="m 256.2,255.4 c -3.7,7.2 -8.3,12 -12.2,15.1 1.6,8.6 4.1,19.3 8.8,29.6 24,52.7 -39.5,57.1 -46.3,56.5 10.2,2.2 22.5,3.3 37.1,2.3 2.5,-1 4.8,-2.1 7,-3.2 26.5,-13.1 26.5,-31 16.7,-53.4 -9.7,-22.5 -11.1,-46.9 -11.1,-46.9 z"
               id="path673"
               inkscape:connector-curvature="0"
               style="fill:#a6a394" />
            <path
               d="m 234.3,319 c -4.3,-3.2 -6.6,-7.7 -5.9,-11.2 0,0 0,0 0,0 0,0 0,0 0,0 -3.1,1.6 -8.1,0.8 -12.4,-2.4 -4.3,-3.2 -6.6,-7.7 -5.9,-11.2 -0.7,0.4 -1.3,0.9 -1.8,1.5 -2.5,3.4 -0.3,9.4 5,13.3 4.3,3.2 9.3,4 12.4,2.4 -0.7,3.4 1.6,8 5.9,11.2 5.3,3.9 11.6,4.3 14.2,0.9 0.5,-0.6 0.8,-1.4 0.9,-2.1 -3.1,1.6 -8.1,0.7 -12.4,-2.4 z"
               id="path675"
               inkscape:connector-curvature="0"
               style="fill:#838075" />
            <path
               d="m 227.8,342.4 c -4,-3.2 -6.1,-7.7 -5.4,-11 0,0 0,-0.1 0,-0.1 0,0 0,0 0,0 0,0 0,0 0,0 0,0 -0.1,0 -0.1,0 -3.1,1.4 -7.8,0.4 -11.9,-2.8 -4.1,-3.3 -6.1,-7.7 -5.4,-11.1 0,0 0,0 0,0 0,0 0,0 0,0 -3.1,1.5 -7.9,0.5 -12,-2.8 -4.1,-3.3 -6.1,-7.7 -5.4,-11.1 -0.7,0.3 -1.3,0.8 -1.8,1.4 -2.6,3.2 -0.6,9.1 4.4,13.1 4.1,3.3 8.9,4.3 12,2.7 -0.8,3.3 1.3,7.8 5.4,11.1 4.1,3.2 8.9,4.2 12,2.8 -0.8,3.3 1.3,7.8 5.4,11 5,4 11.2,4.6 13.8,1.3 0.5,-0.6 0.8,-1.3 1,-2 -3.1,1.8 -7.9,0.8 -12,-2.5 z"
               id="path677"
               inkscape:connector-curvature="0"
               style="fill:#838075" />
            <g
               id="g681">
              <path
                 d="m 244.9,370.7 c -2.2,-1.3 -5,-0.7 -6.4,1.5 -8.7,14.1 -3.5,26.2 0.5,30.6 0.9,1 2.2,1.5 3.4,1.5 1.1,0 2.2,-0.4 3.1,-1.2 1.9,-1.7 2,-4.6 0.3,-6.5 -0.1,-0.1 -6.8,-7.8 0.5,-19.6 1.5,-2.1 0.8,-5 -1.4,-6.3 z"
                 id="path679"
                 inkscape:connector-curvature="0"
                 style="fill:#ed917d" />
            </g>
            <path
               d="m 244.9,370.7 c -2.2,-1.3 -5,-0.7 -6.4,1.5 -4.1,6.6 -5.1,12.8 -4.6,18 2.5,0.9 5.8,1.3 9.3,0.2 -0.6,-3.4 -0.2,-7.9 3.2,-13.3 1.4,-2.2 0.7,-5.1 -1.5,-6.4 z"
               id="path683"
               inkscape:connector-curvature="0"
               style="fill:#429699" />
          </g>
        </g>
      </g>
    </clipPath>
  </defs>
  <sodipodi:namedview
     id="base"
     pagecolor="#ffffff"
     bordercolor="#666666"
     borderopacity="1.0"
     inkscape:pageopacity="0.0"
     inkscape:pageshadow="2"
     inkscape:zoom="0.35"
     inkscape:cx="602.52784"
     inkscape:cy="288.73507"
     inkscape:document-units="mm"
     inkscape:current-layer="layer1"
     showgrid="false"
     inkscape:window-width="1920"
     inkscape:window-height="1017"
     inkscape:window-x="-8"
     inkscape:window-y="-8"
     inkscape:window-maximized="1"
     fit-margin-top="0"
     fit-margin-left="0"
     fit-margin-right="0"
     fit-margin-bottom="0" />
  <metadata
     id="metadata540">
    <rdf:RDF>
      <cc:Work
         rdf:about="">
        <dc:format>image/svg+xml</dc:format>
        <dc:type
           rdf:resource="http://purl.org/dc/dcmitype/StillImage" />
        <dc:title></dc:title>
      </cc:Work>
    </rdf:RDF>
  </metadata>
  <g
     inkscape:label="Layer 1"
     inkscape:groupmode="layer"
     id="layer1"
     transform="translate(169.2462,-115.61543)">
    <path
       style="fill:#381a04;stroke-width:0.26458332"
       inkscape:connector-curvature="0"
       id="path8"
       d="m -114.1864,125.21796 c -0.50271,-2.24895 -1.905,-4.25979 -3.91584,-5.55625 -0.39687,-0.23812 -0.79375,-0.44979 -1.21708,-0.635 -2.83104,-1.21708 -5.90021,-0.87312 -8.28146,0.60855 -0.58208,0.37041 -2.54,2.32833 -4.92125,4.97416 -0.10583,0.10584 -0.66146,0.74084 -1.64042,1.74625 0,0 0,0 0,0 -0.0794,0.0794 -0.15875,0.15875 -0.23812,0.23813 0,0 0,0 0,0 -0.0794,0.0794 -0.15875,0.15875 -0.26458,0.26458 0,0 0,0 -0.0265,0.0265 -0.0794,0.0794 -0.18521,0.18521 -0.26459,0.26458 0,0 -0.0265,0.0265 -0.0265,0.0265 -0.0794,0.0794 -0.18521,0.18521 -0.26459,0.26458 0,0 -0.0264,0.0265 -0.0264,0.0265 -0.0794,0.0794 -0.18521,0.18521 -0.26459,0.26459 -0.0265,0.0264 -0.0265,0.0264 -0.0529,0.0529 -0.10584,0.0794 -0.18521,0.18521 -0.29105,0.29104 -0.0265,0.0265 -0.0265,0.0265 -0.0529,0.0529 -0.10583,0.10583 -0.21166,0.18521 -0.29104,0.29104 -0.0265,0.0265 -0.0265,0.0265 -0.0529,0.0529 -0.10583,0.10583 -0.21166,0.21167 -0.3175,0.3175 -0.0265,0.0265 -0.0265,0.0265 -0.0529,0.0529 -0.10583,0.10583 -0.23812,0.23812 -0.37042,0.34395 0,0 -0.0265,0.0265 -0.0265,0.0265 -0.66145,0.635 -1.40229,1.29646 -2.19604,2.01084 -0.0265,0.0264 -0.0529,0.0264 -0.0529,0.0529 -0.13229,0.13229 -0.29104,0.23813 -0.42333,0.37042 -0.0265,0.0265 -0.0529,0.0529 -0.10583,0.0794 -0.1323,0.10584 -0.26459,0.23813 -0.39688,0.34396 -0.0529,0.0265 -0.0794,0.0794 -0.13229,0.10584 -0.13229,0.10583 -0.26458,0.21166 -0.39688,0.34395 -0.0529,0.0529 -0.10583,0.0794 -0.15875,0.1323 -0.13229,0.10583 -0.23812,0.21166 -0.37041,0.3175 -0.0529,0.0529 -0.10584,0.0794 -0.15875,0.13229 -0.13229,0.10583 -0.26459,0.21166 -0.39688,0.3175 -0.0529,0.0529 -0.10583,0.10583 -0.15875,0.13229 -0.13229,0.10583 -0.26458,0.21167 -0.39687,0.3175 -0.0265,0.0265 -0.0794,0.0529 -0.10584,0.0794 -0.3175,0.26459 -0.66145,0.55563 -1.00541,0.84667 -0.0265,0.0265 -0.0529,0.0265 -0.0794,0.0529 -0.34396,0.29104 -0.71438,0.58208 -1.08479,0.87312 -0.0265,0 -0.0265,0.0265 -0.0529,0.0265 -0.37042,0.29104 -0.7673,0.60854 -1.13771,0.89958 0,0 0,0 0,0 -0.79375,0.635 -1.61396,1.24355 -2.48709,1.905 0,0 -0.0265,0.0265 -0.0265,0.0265 -0.39687,0.29104 -0.8202,0.60854 -1.24354,0.92604 -0.0265,0.0265 -0.0794,0.0529 -0.10583,0.0794 -0.39688,0.29104 -0.82021,0.58208 -1.24354,0.87312 -0.0529,0.0265 -0.10584,0.0794 -0.15875,0.10584 -0.39688,0.29104 -0.82021,0.58208 -1.24354,0.87312 -0.0529,0.0529 -0.1323,0.0794 -0.18521,0.13229 -0.42334,0.29105 -0.82021,0.55563 -1.24354,0.84667 -0.0794,0.0529 -0.15875,0.10583 -0.23813,0.15875 -0.42333,0.29104 -0.84667,0.55563 -1.27,0.82021 -0.0794,0.0529 -0.15875,0.10583 -0.23812,0.15875 -0.42334,0.26458 -0.87313,0.55562 -1.29646,0.82021 -0.0265,0 -0.0265,0.0265 -0.0529,0.0265 -0.0794,0.0529 -0.13229,0.0794 -0.21167,0.13229 -0.44979,0.26458 -0.87312,0.55562 -1.34937,0.82021 -0.0794,0.0529 -0.18521,0.10583 -0.26459,0.15875 -0.44979,0.26458 -0.92604,0.55562 -1.37583,0.8202 -0.0794,0.0529 -0.15875,0.10584 -0.26458,0.1323 -0.47625,0.26458 -0.9525,0.55562 -1.42875,0.8202 -0.0794,0.0529 -0.15875,0.0794 -0.21167,0.1323 -0.50271,0.29104 -1.00542,0.55562 -1.50813,0.8202 -0.0529,0.0265 -0.10583,0.0529 -0.15875,0.0794 -0.52916,0.29104 -1.05833,0.55562 -1.5875,0.84667 -0.0265,0 -0.0265,0.0264 -0.0529,0.0264 l -0.42333,0.21167 -0.87313,0.42333 9.31334,0.3175 v 0 l 0.60854,0.0265 0.50271,0.0265 c 0.50271,0.0265 0.97896,0.0529 1.45521,0.0794 2.51354,0.15875 5.02708,0.55562 7.46125,1.1377 2.46062,0.58209 4.86833,1.37584 7.19666,2.32834 v 0 0 c 0.10584,0.0529 0.23813,0.0794 0.34396,0.13229 0.47625,0.18521 0.92604,0.3175 1.40229,0.44979 v 8.28146 c 0,0.0529 0,0.0794 0,0.13229 -0.55562,0.15875 -1.03187,0.42333 -1.37583,0.66146 -0.3175,0.23812 -0.39688,0.68792 -0.18521,1.03187 0.23813,0.34396 0.68792,0.42334 1.03188,0.18521 0.0794,-0.0529 1.56104,-1.05833 2.69875,-0.3175 0,0 0,0 0,0.0265 0.0794,0.13229 0.21166,0.21167 0.34395,0.26458 0.1323,0.10584 0.29105,0.15875 0.4498,0.15875 0.1852,0 0.37041,-0.0794 0.52916,-0.21166 0.0794,-0.0794 0.15875,-0.18521 0.18521,-0.3175 0.60854,-0.29104 1.69333,-0.60854 2.51354,0.18521 0.13229,0.13229 0.34396,0.21166 0.52917,0.21166 0.18521,0 0.37042,-0.0794 0.52917,-0.21166 0.29104,-0.29105 0.29104,-0.74084 0,-1.03188 -0.4498,-0.44979 -0.9525,-0.71437 -1.45521,-0.84667 0,0 0,-0.0264 0,-0.0264 v -7.83167 c 1.08479,-0.15875 2.16958,-0.44979 3.20146,-0.84667 0,0 0,0 0,0 0.0794,-0.0265 0.13229,-0.0529 0.21166,-0.0794 0.10584,-0.0529 0.23813,-0.10584 0.34396,-0.15875 0.10583,-0.0529 0.21167,-0.10584 0.29104,-0.13229 0.10584,-0.0529 0.21167,-0.10584 0.3175,-0.15875 0.10584,-0.0529 0.21167,-0.10584 0.29104,-0.15875 0.10584,-0.0529 0.21167,-0.10584 0.29105,-0.15875 0.10583,-0.0529 0.21166,-0.10584 0.29104,-0.18521 0.10583,-0.0529 0.18521,-0.10584 0.29104,-0.18521 0.10583,-0.0529 0.21167,-0.13229 0.29104,-0.18521 0.10583,-0.0529 0.18521,-0.13229 0.26458,-0.18521 0.10584,-0.0794 0.18521,-0.13229 0.29105,-0.21166 0.0794,-0.0794 0.1852,-0.1323 0.26458,-0.21167 0.10583,-0.0794 0.18521,-0.15875 0.29104,-0.23813 0.0794,-0.0794 0.18521,-0.13229 0.26458,-0.21166 0.0794,-0.0794 0.18521,-0.15875 0.26459,-0.23813 0.0794,-0.0794 0.15875,-0.15875 0.23812,-0.23812 0.0794,-0.0794 0.15875,-0.15875 0.26459,-0.23813 0.0794,-0.0794 0.15875,-0.15875 0.23812,-0.26458 0.0794,-0.0794 0.15875,-0.15875 0.23813,-0.26458 0.0794,-0.0794 0.15875,-0.18521 0.23812,-0.26459 0.0794,-0.0794 0.15875,-0.18521 0.21167,-0.26458 0.0794,-0.10583 0.15875,-0.18521 0.23812,-0.29104 0.0794,-0.0794 0.13229,-0.18521 0.21167,-0.26459 0.0794,-0.10583 0.15875,-0.21166 0.23812,-0.3175 0.0529,-0.0794 0.1323,-0.1852 0.18521,-0.26458 0.0794,-0.10583 0.15875,-0.23812 0.21167,-0.37042 0.0529,-0.0794 0.10583,-0.15875 0.15875,-0.26458 0.0794,-0.13229 0.15875,-0.26458 0.23812,-0.39687 0.0529,-0.0794 0.0794,-0.15875 0.1323,-0.23813 0.0794,-0.15875 0.15875,-0.34396 0.23812,-0.50271 0.0265,-0.0529 0.0529,-0.10583 0.0794,-0.15875 0.10583,-0.23812 0.21166,-0.44979 0.29104,-0.68791 0.0529,-0.10584 0.0794,-0.21167 0.13229,-0.3175 0.0265,-0.0794 0.0529,-0.1323 0.0794,-0.21167 0.0265,-0.0794 0.0529,-0.15875 0.0794,-0.23813 0.0265,-0.10583 0.0794,-0.21166 0.10583,-0.3175 0.0265,-0.0794 0.0529,-0.13229 0.0529,-0.21166 0.0265,-0.10584 0.0794,-0.21167 0.10583,-0.34396 0.0265,-0.0794 0.0265,-0.13229 0.0529,-0.21167 0.0265,-0.10583 0.0529,-0.23812 0.0794,-0.34396 0.0265,-0.0794 0.0265,-0.13229 0.0529,-0.21166 0.0265,-0.10584 0.0529,-0.23813 0.0794,-0.34396 0,-0.0794 0.0265,-0.13229 0.0265,-0.21167 0.0265,-0.10583 0.0265,-0.21166 0.0529,-0.34396 0,-0.0794 0.0265,-0.15875 0.0265,-0.21166 0.0265,-0.10584 0.0265,-0.21167 0.0265,-0.3175 0,-0.0794 0.0265,-0.15875 0.0265,-0.23813 0,-0.10583 0.0264,-0.21166 0.0264,-0.3175 0,-0.0794 0,-0.15875 0,-0.23812 0,-0.10584 0,-0.21167 0,-0.3175 0,-0.0794 0,-0.15875 0,-0.23813 0,-0.10583 0,-0.18521 0,-0.29104 0,-0.0794 0,-0.15875 0,-0.26458 0,-0.10584 0,-0.18521 0,-0.29104 0,-0.0794 0,-0.18521 -0.0264,-0.26459 0,-0.0794 0,-0.18521 -0.0265,-0.26458 0,-0.0794 -0.0265,-0.18521 -0.0265,-0.26458 0,-0.0794 -0.0265,-0.18521 -0.0265,-0.26459 0,-0.0794 -0.0265,-0.18521 -0.0265,-0.26458 0,-0.0794 -0.0265,-0.18521 -0.0265,-0.26458 -0.0265,-0.0794 -0.0265,-0.18521 -0.0529,-0.26459 -0.0265,-0.0794 -0.0265,-0.15875 -0.0529,-0.26458 -0.0265,-0.0794 -0.0265,-0.18521 -0.0529,-0.26458 0,-0.0529 -0.0265,-0.0794 -0.0265,-0.1323 0,0 0,0 0,0 -0.0265,-0.0794 -0.0265,-0.1852 -0.0529,-0.26458 0.97896,-0.82021 3.78354,-3.14854 4.28625,-3.67771 0.3175,-0.3175 0.60854,-0.68791 0.87313,-1.05833 0,0.0265 0.0265,0.0794 0.0265,0.10583 l 7.06438,-2.40771 -5.60917,-4.92125 z m -20.37292,37.43855 c -0.3175,0.10583 -0.60854,0.21166 -0.87313,0.34395 -0.26458,-0.15875 -0.52916,-0.26458 -0.8202,-0.34395 0,0 0,-0.0265 0,-0.0265 v -7.88459 c 0.55562,0.0529 1.11125,0.10584 1.66687,0.10584 v 7.67291 c 0,0.0529 0,0.0794 0.0265,0.1323 z" />
    <g
       transform="matrix(0.26458333,0,0,0.26458333,-457.45682,-53.190577)"
       id="g116">
      <path
         style="fill:#f7a14c"
         inkscape:connector-curvature="0"
         id="path84"
         d="m 1214.2,768.6 c -2.1,0 -3.9,1.7 -3.9,3.9 v 32.8 c 0,2.1 1.7,3.9 3.9,3.9 2.1,0 3.9,-1.7 3.9,-3.9 v -32.8 c 0,-2.2 -1.8,-3.9 -3.9,-3.9 z" />
      <path
         style="fill:#fbc447"
         inkscape:connector-curvature="0"
         id="path86"
         d="m 1272.6,643.3 c -1.5,-0.9 -3,-1.7 -4.6,-2.4 -10.7,-4.6 -22.3,-3.3 -31.3,2.3 -2.2,1.4 -9.6,8.8 -18.6,18.8 -1,1.1 -14.4,16 -37.5,35.4 -21.2,17.8 -50.7,39.5 -86.4,57.7 l -4.9,2.4 37.5,1.3 1.9,0.1 c 1.9,0.1 3.7,0.2 5.5,0.3 19.1,1.3 37.7,5.8 55.4,13.1 0.4,0.2 0.9,0.3 1.3,0.5 27.7,10.6 58.4,-3 69.4,-30.5 4.4,-10.9 4.9,-22.4 2.2,-33 3.7,-3.1 14.3,-11.9 16.2,-13.9 4,-4.1 7,-9.2 8.5,-15.2 3.7,-14.4 -2.4,-29.2 -14.6,-36.9 z" />
      <path
         style="fill:#e3ab39"
         inkscape:connector-curvature="0"
         id="path88"
         d="m 1236.7,643.1 c -2.2,1.4 -9.6,8.8 -18.6,18.8 -1,1.1 -14.4,16 -37.5,35.4 17.4,5.9 34,5.2 41.9,-12.9 20.4,-46.3 50.1,-41.2 50.1,-41.2 -1.5,-0.9 -3,-1.7 -4.6,-2.4 -10.7,-4.6 -22.3,-3.3 -31.3,2.3 z" />
      <path
         style="fill:#eab03b"
         inkscape:connector-curvature="0"
         id="path90"
         d="m 1227.7,757.3 c 0,5.3 0.8,10.4 2.4,15.2 13.3,-5.3 24.4,-15.8 30.2,-30.2 4.2,-10.6 4.8,-21.7 2.5,-32.1 -20.3,6.1 -35.1,24.9 -35.1,47.1 z" />
      <path
         style="fill:#8a6c27"
         inkscape:connector-curvature="0"
         id="path92"
         d="m 1286.9,665 c -5.8,7.6 -7.6,17.5 -4.8,26.7 l 26.7,-9.1 -21.2,-18.6 z" />
      <path
         style="fill:#705820"
         inkscape:connector-curvature="0"
         id="path94"
         d="m 1281.4,688.6 c 0.2,1 0.4,2.1 0.8,3.1 l 26.7,-9.1 -2.7,-2.4 z" />
      <path
         style="fill:#fbc447"
         inkscape:connector-curvature="0"
         id="path96"
         d="m 1218.1,661.9 c -2,2.2 -49.4,55 -123.9,93.2 l -4.9,2.4 15.9,-0.3 c 33.1,-0.7 65.6,-7.7 95.9,-20.5 0.1,0 0.2,-0.1 0.3,-0.1 16.9,-7.2 26.4,-25.4 22.8,-43.4 z" />
      <path
         style="fill:#e3ab39"
         inkscape:connector-curvature="0"
         id="path98"
         d="m 1183.5,743.3 v 0 c -18.3,6.2 -37.2,10.4 -56.5,12.4 l -2.6,2.9 2.3,0.1 1.9,0.1 c 1.9,0.1 3.7,0.2 5.5,0.3 19.1,1.3 37.7,5.8 55.4,13.1 -16.3,-16.4 -6,-28.9 -6,-28.9 z" />
      <path
         style="fill:#eab03b"
         inkscape:connector-curvature="0"
         id="path100"
         d="m 1094.2,755.1 -4.9,2.4 37.5,1.3 c 4.4,-1.3 9.2,-2.9 14.2,-4.8 44.7,-16.8 68.7,-45.5 81.5,-69.4 l -4.4,-22.6 c -2,2.1 -49.4,54.9 -123.9,93.1 z" />
      <circle
         style="fill:#a67c52"
         id="circle102"
         r="6.5"
         cy="667.59998"
         cx="1258.3" />
      <path
         style="fill:#966c48"
         inkscape:connector-curvature="0"
         id="path104"
         d="m 1259.9,661.3 c -0.5,-0.1 -1.1,-0.2 -1.6,-0.2 -3.6,0 -6.5,2.9 -6.5,6.5 0,3.6 2.9,6.5 6.5,6.5 0.6,0 1.1,-0.1 1.6,-0.2 -2.8,-0.7 -4.9,-3.3 -4.9,-6.3 0,-3.1 2.1,-5.6 4.9,-6.3 z" />
      <g
         id="g108">
        <path
           style="fill:#f7a14c"
           inkscape:connector-curvature="0"
           id="path106"
           d="m 1205.2,808.3 c -1.2,0.9 -1.5,2.6 -0.7,3.9 0.9,1.3 2.6,1.6 3.9,0.7 0.3,-0.2 6.9,-4.7 11.3,-0.3 0.5,0.5 1.3,0.8 2,0.8 0.7,0 1.4,-0.3 2,-0.8 1.1,-1.1 1.1,-2.8 0,-3.9 -6.3,-6.3 -14.9,-3 -18.5,-0.4 z" />
      </g>
      <path
         style="fill:#f7a14c"
         inkscape:connector-curvature="0"
         id="path110"
         d="m 1200.1,769.1 c -2.1,0 -3.9,1.7 -3.9,3.9 v 32.8 c 0,2.1 1.7,3.9 3.9,3.9 2.1,0 3.9,-1.7 3.9,-3.9 V 773 c 0,-2.2 -1.8,-3.9 -3.9,-3.9 z" />
      <g
         id="g114">
        <path
           style="fill:#f7a14c"
           inkscape:connector-curvature="0"
           id="path112"
           d="m 1191.1,808.7 c -1.2,0.9 -1.5,2.6 -0.7,3.9 0.9,1.3 2.6,1.6 3.9,0.7 0.3,-0.2 6.9,-4.7 11.3,-0.3 0.5,0.5 1.3,0.8 2,0.8 0.7,0 1.4,-0.3 2,-0.8 1.1,-1.1 1.1,-2.8 0,-3.9 -6.3,-6.3 -14.9,-3 -18.5,-0.4 z" />
      </g>
    </g>
  </g>
</svg>
