<?xml version="1.0" encoding="UTF-8" standalone="no"?>
<svg
   xmlns:dc="http://purl.org/dc/elements/1.1/"
   xmlns:cc="http://creativecommons.org/ns#"
   xmlns:rdf="http://www.w3.org/1999/02/22-rdf-syntax-ns#"
   xmlns:svg="http://www.w3.org/2000/svg"
   xmlns="http://www.w3.org/2000/svg"
   xml:space="preserve"
   enable-background="new 0 0 1400 980"
   viewBox="0 0 182.34543 188.60001"
   height="188.60001"
   width="182.34543"
   y="0px"
   x="0px"
   id="Layer_1"
   version="1.0"><metadata
   id="metadata269"><rdf:RDF><cc:Work
       rdf:about=""><dc:format>image/svg+xml</dc:format><dc:type
         rdf:resource="http://purl.org/dc/dcmitype/StillImage" /><dc:title></dc:title></cc:Work></rdf:RDF></metadata><defs
   id="defs267">
	
	
	
	
	
	
	
	

	
	
	
	
	
	
	
	
</defs>

<path
   d="m 180.84542,26.4 c -0.4,-0.3 -0.8,-0.6 -1.3,-0.9 -0.3,-0.2 -0.6,-0.5 -1,-0.7 -0.6,-0.4 -1.2,-0.8 -1.8,-1.2 -0.2,-0.1 -0.4,-0.3 -0.6,-0.4 -0.7,-0.4 -1.4,-0.9 -2.1,-1.3 -0.1,-0.1 -0.2,-0.1 -0.3,-0.2 -0.8,-0.5 -1.6,-0.9 -2.4,-1.4 -0.1,0 -0.1,-0.1 -0.2,-0.1 -0.8,-0.5 -1.7,-0.9 -2.5,-1.4 0,0 -0.1,0 -0.1,-0.1 -0.9,-0.4 -1.7,-0.9 -2.6,-1.3 0,0 -0.1,0 -0.1,-0.1 -0.9,-0.4 -1.7,-0.8 -2.6,-1.2 0,0 -0.1,0 -0.1,-0.1 0,0 0,0 0,0 -8.2,-3.7 -17.1,-6.1 -25.4,-6.1 -30.8,0 -44.199997,30.4 -56.899997,59.7 -13.9,32.3 -28.3,65.8 -65.4,65.8 -2.6,0 -4.8,1.8 -5.4,4.3 -0.6000002,2.5 0.7,5.1 3.1,6.2 18.4,8.5 36.1,14.4 52.4,17.6 v 16.3 c -3.9,1.4 -6.3,4.2 -6.5,4.4 -0.9,1.1 -0.8,2.7 0.3,3.7 1.1,0.9 2.7,0.8 3.7,-0.2 0,0 2.9,-3.3 6.8,-3.4 2.5,-0.1 4.9,1.1 7.3,3.5 0.5,0.5 1.2,0.8 1.8,0.8 0.6,0 1.3,-0.3 1.8,-0.8 1,-1 1,-2.7 0,-3.7 -0.2,-0.2 -0.4,-0.4 -0.6,-0.6 0.3,-0.1 0.6,-0.4 0.8,-0.6 0,0 2.9,-3.3 6.8,-3.4 2.5,-0.1 4.9,1.1 7.3,3.5 0.5,0.5 1.2,0.8 1.8,0.8 0.6,0 1.3,-0.3 1.8,-0.8 1,-1 1,-2.7 0,-3.7 -2,-2 -4.1,-3.4 -6.3,-4.2 v -8.8 c 0.9,0 1.8,0 2.7,-0.1 0.4,0 0.7,0 1.1,-0.1 0.9,0 1.8,-0.1 2.7,-0.2 0.4,0 0.8,-0.1 1.199997,-0.1 0.9,-0.1 1.8,-0.2 2.6,-0.3 0.4,0 0.7,-0.1 1.1,-0.1 1.2,-0.2 2.3,-0.4 3.5,-0.6 0,0 0,0 0,0 1.1,-0.2 2.2,-0.5 3.3,-0.7 0.4,-0.1 0.7,-0.2 1.1,-0.3 0.7,-0.2 1.4,-0.4 2.1,-0.6 0.4,-0.1 0.8,-0.3 1.2,-0.4 0.7,-0.2 1.3,-0.4 1.9,-0.7 0.4,-0.1 0.8,-0.3 1.2,-0.4 0.8,-0.3 1.5,-0.6 2.2,-0.9 0.4,-0.2 0.9,-0.4 1.3,-0.6 0.7,-0.3 1.4,-0.6 2,-1 0.4,-0.2 0.8,-0.4 1.2,-0.7 0.5,-0.3 1,-0.5 1.4,-0.8 0.4,-0.2 0.8,-0.5 1.2,-0.8 0.4,-0.3 0.9,-0.6 1.3,-0.9 0.4,-0.3 0.8,-0.5 1.2,-0.8 0.5,-0.4 1,-0.7 1.4,-1.1 0.5,-0.4 1,-0.8 1.5,-1.3 0.4,-0.4 0.8,-0.7 1.2,-1.1 0,0 0,0 0,0 0,0 0,0 0,0 0.1,-0.1 0.1,-0.1 0.2,-0.2 0.3,-0.3 0.6,-0.5 0.8,-0.8 0.1,-0.1 0.3,-0.3 0.4,-0.4 0.1,-0.1 0.1,-0.1 0.2,-0.2 0.2,-0.2 0.4,-0.4 0.6,-0.6 0.3,-0.3 0.6,-0.7 0.9,-1 0.4,-0.5 0.8,-0.9 1.2,-1.4 0.2,-0.3 0.4,-0.5 0.7,-0.8 0.2,-0.2 0.3,-0.4 0.4,-0.6 0.4,-0.6 0.9,-1.2 1.3,-1.8 0,0 0,0 0,0 13.6,-20.5 15.3,-47.1 16.8,-70.5 0.9,-14 1.7,-26.7 5,-34.7 0.1,-0.2 0.2,-0.4 0.2,-0.6 0.1,-0.3 0.2,-0.5 0.4,-0.8 0.1,-0.2 0.2,-0.4 0.3,-0.6 0,-0.1 0.1,-0.1 0.1,-0.2 0.1,-0.2 0.2,-0.4 0.4,-0.6 0.1,-0.1 0.1,-0.2 0.2,-0.3 0.1,-0.2 0.2,-0.4 0.3,-0.5 0.1,-0.1 0.1,-0.2 0.2,-0.3 0.2,-0.3 0.4,-0.5 0.6,-0.8 0,0 0.1,-0.1 0.1,-0.1 0.2,-0.3 0.5,-0.5 0.7,-0.8 0.2,-0.2 0.3,-0.3 0.5,-0.5 0.2,-0.1 0.3,-0.3 0.5,-0.4 0.1,-0.1 0.2,-0.2 0.3,-0.2 0,0 0.1,0 0.1,-0.1 0.3,-0.3 0.7,-0.5 1.1,-0.7 0.1,-0.1 0.2,-0.1 0.4,-0.2 0,0 0.1,0 0.1,-0.1 0.2,-0.1 0.4,-0.2 0.6,-0.3 0.3,-0.1 0.5,-0.2 0.8,-0.3 0.1,0 0.2,-0.1 0.3,-0.1 0,0 0,0 0,0 2.3,-0.6 9.4,-2.5 11.7,-2.5 -0.1,-0.2 -0.8,-0.8 -1.5,-1.3 z M 77.145423,179.5 c -0.3,0.4 -0.5,0.9 -0.6,1.3 -0.7,-0.4 -1.3,-0.7 -2,-0.9 v -14.8 c 3.1,0.4 6.1,0.7 9,0.9 v 9.1 c -3.8,1.4 -6.3,4.2 -6.4,4.4 z"
   id="path14"
   style="fill:#381a04" />
<g
   transform="translate(-797.45458,-635.2)"
   id="g224">
		<path
   d="m 880.1,800.3 v -16.9 c 0,-3 -1.5,-5.5 -4.5,-5.5 -3,0 -4.5,2.5 -4.5,5.5 v 16.9 c -3.9,1.4 -6.3,4.2 -6.5,4.4 -0.9,1.1 -0.8,2.7 0.3,3.7 1.1,0.9 2.7,0.8 3.7,-0.2 0,0 2.9,-3.3 6.8,-3.4 2.5,-0.1 4.9,1.1 7.3,3.5 0.5,0.5 1.2,0.8 1.8,0.8 0.6,0 1.3,-0.3 1.8,-0.8 1,-1 1,-2.7 0,-3.7 -1.9,-2.1 -4,-3.5 -6.2,-4.3 z"
   id="path200"
   style="fill:#c27241" />
		<path
   d="m 862,805.1 v -16.9 c 0,-3 -1.5,-5.5 -4.5,-5.5 -3,0 -4.5,2.5 -4.5,5.5 v 16.9 c -3.9,1.4 -6.3,4.2 -6.5,4.4 -0.9,1.1 -0.8,2.7 0.3,3.7 1.1,0.9 2.7,0.8 3.7,-0.2 0,0 2.9,-3.3 6.8,-3.4 2.5,-0.1 4.9,1.1 7.3,3.5 0.5,0.5 1.2,0.8 1.8,0.8 0.6,0 1.3,-0.3 1.8,-0.8 1,-1 1,-2.7 0,-3.7 -1.9,-2.1 -4,-3.5 -6.2,-4.3 z"
   id="path202"
   style="fill:#e2854c" />
		<path
   d="m 868.4,694.9 c -13.9,32.3 -28.3,65.8 -65.4,65.8 -2.6,0 -4.8,1.8 -5.4,4.3 -0.6,2.5 0.7,5.1 3.1,6.2 28.8,13.3 55.9,20.3 78.2,20.3 23,0 40.2,-7.7 49.9,-22.3 13.6,-20.5 15.3,-47.1 16.8,-70.5 1.4,-21.5 2.6,-40.1 13,-42.9 2.2,-0.6 9.5,-2.5 11.7,-2.5 -11.3,-9 -29.3,-18.1 -45.1,-18.1 -30.8,0 -44.2,30.3 -56.8,59.7 z"
   id="path204"
   style="fill:#356178" />
		<path
   d="m 942.4,694.8 c -4.5,-1.5 -9.2,-2.3 -14,-2.3 -22.7,0 -43.5,16.6 -50.5,40.3 -5.5,18.6 -2.3,38 8.8,53.1 0.3,0.4 0.6,0.7 0.9,1 l 4.3,3.5 c 16.5,-2.4 29.2,-9.6 36.9,-21.3 13.6,-20.5 15.3,-47.1 16.8,-70.5 0,-0.5 0.1,-1 0.1,-1.5 l -1.1,-1.1 c -0.6,-0.5 -1.3,-0.9 -2.2,-1.2 z"
   id="path206"
   style="fill:#4681a0" />
		<path
   d="m 942.4,694.8 c -4.5,-1.5 -9.2,-2.3 -14,-2.3 -22.7,0 -43.5,16.6 -50.5,40.3 -5.5,18.6 -2.3,38 8.8,53.1 0.3,0.4 0.6,0.7 0.9,1 l 1.9,1.6 c -8.4,-14.3 -10.5,-31.5 -5.6,-48.2 7,-23.7 27.8,-40.3 50.5,-40.3 3.8,0 7.4,0.6 11,1.5 0.1,-0.9 0.1,-1.9 0.2,-2.9 0,-0.5 0.1,-1 0.1,-1.5 l -1.1,-1.1 c -0.6,-0.5 -1.3,-0.9 -2.2,-1.2 z"
   id="path208"
   style="fill:#90b3c6" />
		<path
   d="m 879.1,771.9 c 1.9,4.9 4.4,9.7 7.6,14 0.3,0.4 0.6,0.7 0.9,1 l 1.9,1.6 c -3.4,-5.7 -5.7,-11.9 -7,-18.4 -1.1,0.7 -2.3,1.3 -3.4,1.8 z"
   id="path210"
   style="fill:#86a6b8" />
		<path
   d="m 942.4,694.8 c -3.7,-1.2 -7.6,-1.9 -11.5,-2.2 -0.9,2.6 -1.8,5.2 -2.8,7.9 2.1,-0.3 4.1,-0.5 6.2,-0.5 3.8,0 7.4,0.6 11,1.5 0.1,-0.9 0.1,-1.9 0.2,-2.9 0,-0.5 0.1,-1 0.1,-1.5 l -1.1,-1.1 c -0.5,-0.5 -1.2,-0.9 -2.1,-1.2 z"
   id="path212"
   style="fill:#86a6b8" />
		<path
   d="m 924.2,650.4 c -6.1,0 -11,4.9 -11,11 0,6.1 4.9,11 11,11 6.1,0 11,-4.9 11,-11 0,-6 -4.9,-11 -11,-11 z"
   id="path214"
   style="fill:#f5f5f5" />
		<circle
   cx="924.20001"
   cy="661.5"
   r="5.5"
   id="circle216"
   style="fill:#242424" />
		<path
   d="m 947.8,653.2 c 0,4.1 0.9,8 2.6,11.5 1.8,-4.7 4.4,-7.9 8.3,-8.9 2.2,-0.6 9.5,-2.5 11.7,-2.5 -5.4,-4.3 -12.3,-8.6 -19.8,-11.9 -1.8,3.5 -2.8,7.5 -2.8,11.8 z"
   id="path218"
   style="fill:#e78244" />
		<path
   d="m 950.4,664.7 c 0,0 0,-0.1 0,0 0.3,-0.7 0.5,-1.2 0.8,-1.8 0.1,-0.3 0.3,-0.6 0.4,-0.8 0.2,-0.3 0.4,-0.7 0.6,-1 0.2,-0.2 0.3,-0.5 0.5,-0.7 0.3,-0.4 0.5,-0.7 0.8,-1.1 0.1,-0.1 0.2,-0.3 0.3,-0.4 0.4,-0.4 0.8,-0.8 1.3,-1.2 0.1,-0.1 0.3,-0.2 0.5,-0.3 0.3,-0.3 0.7,-0.5 1.1,-0.7 0.2,-0.1 0.3,-0.2 0.5,-0.3 0.5,-0.3 1.1,-0.5 1.7,-0.6 0.2,0 0.3,-0.1 0.5,-0.2 -4.1,-0.1 -7.5,1.3 -10.6,3.8 0.2,1.8 0.8,3.6 1.6,5.3 z"
   id="path220"
   style="fill:#d97a40" />
		<path
   d="m 926.9,704.1 c -0.3,0.7 -0.5,1.5 -0.8,2.2 0,0.1 -0.1,0.1 -0.1,0.2 -0.3,0.9 -0.6,1.7 -0.9,2.6 0,0 0,0.1 0,0.1 -9,24.5 -21,50.8 -46,62.7 0,0 0,0 0,0 -18.5,8.9 -44.2,9.9 -81.1,-3.5 0.5,1.2 1.4,2.2 2.7,2.7 28.8,13.3 55.9,20.3 78.2,20.3 18.4,0 33.1,-4.9 43.2,-14.4 0,0 0,0 0,0 0,0 0,0 0,0 0.5,-0.5 0.9,-0.9 1.4,-1.4 0.2,-0.2 0.3,-0.3 0.5,-0.5 1.2,-1.2 2.3,-2.5 3.3,-3.9 0.5,-0.7 1,-1.3 1.5,-2 0,0 0,0 0,0 13.6,-20.5 15.3,-47.1 16.8,-70.5 1.4,-21.5 2.6,-40.1 13,-42.9 0.2,0 0.3,-0.1 0.5,-0.2 -16.3,-0.4 -22.9,22.4 -32.2,48.5 z"
   id="path222"
   style="opacity:0.1;fill:#14252e" />
	</g>
</svg>