<?xml version="1.0" encoding="UTF-8" standalone="no"?>
<!-- Generator: Adobe Illustrator 19.2.0, SVG Export Plug-In . SVG Version: 6.00 Build 0)  -->

<svg
   xmlns:dc="http://purl.org/dc/elements/1.1/"
   xmlns:cc="http://creativecommons.org/ns#"
   xmlns:rdf="http://www.w3.org/1999/02/22-rdf-syntax-ns#"
   xmlns:svg="http://www.w3.org/2000/svg"
   xmlns="http://www.w3.org/2000/svg"
   xmlns:sodipodi="http://sodipodi.sourceforge.net/DTD/sodipodi-0.dtd"
   xmlns:inkscape="http://www.inkscape.org/namespaces/inkscape"
   version="1.0"
   id="Layer_1"
   x="0px"
   y="0px"
   width="319.32755"
   height="377.29999"
   viewBox="0 0 319.32755 377.29999"
   enable-background="new 0 0 1400 980"
   xml:space="preserve"
   sodipodi:docname="bird6.svg"
   inkscape:version="0.92.4 (5da689c313, 2019-01-14)"><metadata
   id="metadata239"><rdf:RDF><cc:Work
       rdf:about=""><dc:format>image/svg+xml</dc:format><dc:type
         rdf:resource="http://purl.org/dc/dcmitype/StillImage" /><dc:title></dc:title></cc:Work></rdf:RDF></metadata><defs
   id="defs237" /><sodipodi:namedview
   pagecolor="#ffffff"
   bordercolor="#666666"
   borderopacity="1"
   objecttolerance="10"
   gridtolerance="10"
   guidetolerance="10"
   inkscape:pageopacity="0"
   inkscape:pageshadow="2"
   inkscape:window-width="1920"
   inkscape:window-height="1017"
   id="namedview235"
   showgrid="false"
   inkscape:zoom="0.57982756"
   inkscape:cx="-610.10042"
   inkscape:cy="78.98252"
   inkscape:window-x="-8"
   inkscape:window-y="-8"
   inkscape:window-maximized="1"
   inkscape:current-layer="Layer_1"
   fit-margin-top="0"
   fit-margin-left="0"
   fit-margin-right="0"
   fit-margin-bottom="0" />

<path
   style="fill:#362720"
   inkscape:connector-curvature="0"
   id="path16"
   d="m 319.1,85.8 c 0,-0.8 0,-1.6 -0.1,-2.4 0,-0.3 0,-0.5 0,-0.8 0,-0.5 -0.1,-1 -0.1,-1.6 0,-0.3 -0.1,-0.6 -0.1,-0.9 0,-0.5 -0.1,-0.9 -0.1,-1.4 0,-0.3 -0.1,-0.6 -0.1,-1 -0.1,-0.4 -0.1,-0.9 -0.2,-1.3 0,-0.3 -0.1,-0.6 -0.1,-1 -0.1,-0.4 -0.1,-0.8 -0.2,-1.2 -0.1,-0.3 -0.1,-0.6 -0.2,-0.9 -0.1,-0.4 -0.2,-0.8 -0.3,-1.3 -0.1,-0.5 -0.2,-0.9 -0.3,-1.4 -0.1,-0.5 -0.2,-1 -0.4,-1.5 -0.1,-0.4 -0.2,-0.7 -0.3,-1.1 -0.1,-0.3 -0.2,-0.6 -0.2,-0.9 -0.1,-0.4 -0.2,-0.8 -0.4,-1.2 -0.1,-0.3 -0.2,-0.5 -0.3,-0.8 -0.1,-0.4 -0.3,-0.8 -0.4,-1.2 -0.1,-0.2 -0.2,-0.5 -0.3,-0.7 -0.1,-0.4 -0.3,-0.8 -0.5,-1.2 -0.1,-0.2 -0.2,-0.4 -0.2,-0.6 -0.2,-0.4 -0.3,-0.8 -0.5,-1.3 0,-0.1 -0.1,-0.2 -0.1,-0.3 C 298.9,25.7 258.2,16.4 258.2,16.4 v 0 c 0,0 0,0 0,0 -4.6,-4.2 -10.8,-6.7 -17.6,-6.7 H 211 c 0,0 -53.7,5.7 -45.4,49.8 10.2,54.3 89.4,68.1 95.6,92.6 18.8,31.8 -6.9,68.4 -44.4,16.7 -20.7,-28.5 -33.4,-35.8 -55.7,-39.3 v 0 c 0,0 0,0 0,0 -3.4,-0.5 -6.9,-1 -10.8,-1.4 -0.2,0 -0.4,0 -0.7,-0.1 -0.6,-0.1 -1.2,-0.1 -1.8,-0.2 -0.4,0 -0.8,-0.1 -1.3,-0.1 -0.5,0 -0.9,-0.1 -1.4,-0.1 -0.9,-0.1 -1.9,-0.2 -2.8,-0.3 -0.8,-0.1 -1.6,-0.2 -2.5,-0.2 -0.3,0 -0.6,0 -0.8,-0.1 -0.6,0 -1.1,-0.1 -1.7,-0.1 -0.3,0 -0.7,0 -1,-0.1 -0.5,0 -1,-0.1 -1.5,-0.1 -0.4,0 -0.7,0 -1.1,0 -0.5,0 -1,0 -1.5,0 -0.4,0 -0.8,0 -1.1,0 -0.5,0 -1,0 -1.4,0 -0.4,0 -0.8,0 -1.2,0 -0.5,0 -0.9,0 -1.4,0 -0.4,0 -0.8,0 -1.2,0 -0.5,0 -0.9,0 -1.4,0 -0.4,0 -0.8,0 -1.2,0 -0.5,0 -0.9,0 -1.4,0.1 -0.4,0 -0.8,0 -1.2,0.1 -0.5,0 -0.9,0.1 -1.4,0.1 -0.4,0 -0.8,0.1 -1.2,0.1 -0.5,0 -1,0.1 -1.4,0.1 -0.4,0 -0.9,0.1 -1.3,0.1 -0.8,0.1 -1.7,0.2 -2.5,0.3 -0.5,0.1 -0.9,0.1 -1.4,0.2 -0.4,0.1 -0.8,0.1 -1.2,0.2 -0.5,0.1 -1,0.1 -1.5,0.2 -0.4,0.1 -0.8,0.1 -1.2,0.2 -0.5,0.1 -1,0.2 -1.5,0.2 -0.4,0.1 -0.8,0.1 -1.1,0.2 -0.5,0.1 -1,0.2 -1.5,0.3 -0.4,0.1 -0.7,0.1 -1.1,0.2 -0.5,0.1 -1.1,0.2 -1.6,0.3 -0.4,0.1 -0.7,0.1 -1.1,0.2 -0.5,0.1 -1.1,0.2 -1.6,0.4 -0.3,0.1 -0.7,0.2 -1,0.2 -0.6,0.1 -1.1,0.3 -1.7,0.4 -0.3,0.1 -0.6,0.2 -0.9,0.2 -0.6,0.2 -1.2,0.3 -1.8,0.5 -0.2,0.1 -0.5,0.1 -0.7,0.2 -0.6,0.2 -1.3,0.4 -1.9,0.6 -0.1,0 -0.2,0.1 -0.3,0.1 -3.3,1 -6.5,2.1 -9.7,3.3 0,0 0,0 -0.1,0 -0.7,0.3 -1.5,0.6 -2.2,0.9 -0.1,0.1 -0.2,0.1 -0.4,0.1 -0.7,0.3 -1.4,0.6 -2.1,0.9 -0.2,0.1 -0.3,0.1 -0.5,0.2 -0.7,0.3 -1.3,0.6 -2,0.9 -0.2,0.1 -0.3,0.1 -0.5,0.2 -0.7,0.3 -1.3,0.6 -2,1 -0.1,0.1 -0.3,0.1 -0.4,0.2 -0.7,0.3 -1.4,0.7 -2.1,1.1 -0.1,0.1 -0.2,0.1 -0.3,0.2 -0.7,0.4 -1.4,0.8 -2.2,1.2 0,0 -0.1,0 -0.1,0 -6.3,3.5 -12.2,7.6 -17.8,12.4 0,0 0,0 0,0 -0.7,0.6 -1.4,1.2 -2.1,1.8 0,0 0,0 0,0 -15.7,14.3 -27.9,34.4 -33.1,61.4 0,0 0,0 0,0.1 -0.2,1.2 -0.4,2.3 -0.6,3.5 0,0 0,0 0,0 v 0 c -1.2,7.4 -1.9,15.2 -2.1,23.6 0,5 5.5,8 9.7,5.3 l 17.1,-11.1 c 0,0 21.3,0 61.1,0 l -49.5,49.5 c -3.4,3.4 -1,9.3 3.8,9.3 h 72.5 v 73.5 c 0,3 2.4,5.4 5.4,5.4 3,0 5.4,-2.4 5.4,-5.4 v -73.3 h 27.9 c 3,0 5.4,-2.4 5.4,-5.4 v 0 c 0,-3 -2.4,-5.4 -5.4,-5.4 h -27.6 v -47.9 c 0.8,0 1.7,0 2.5,0 65.5,0 68.7,-41.5 68.7,-41.5 36.9,39.2 72.4,9.3 72.4,9.3 C 330.3,156 248.9,106 236.6,101 224.3,95.9 196.7,73.3 193.5,65.5 c -3.3,-7.9 8.7,-3 8.7,-3 h 38.6 c 6.4,0 12.2,-2.3 16.8,-6.1 0,0 0,0 0,0 10.1,2.7 21.6,8.6 32.9,17.2 1.1,0.9 2.3,1.7 3.4,2.6 0.2,0.1 0.3,0.3 0.5,0.4 0.9,0.8 1.9,1.5 2.8,2.3 0.3,0.2 0.5,0.4 0.8,0.7 0.9,0.8 1.7,1.5 2.6,2.3 0.3,0.3 0.6,0.5 0.8,0.8 1.1,1 2.2,2 3.3,3.1 17.6,17.3 14.4,0 14.4,0 z m -194.7,202 H 78.1 c -4.8,0 -7.3,-5.8 -3.8,-9.3 l 36.8,-36.8 c 0.6,-0.6 1,-1.2 1.2,-1.9 3.9,0 8,0 12.2,0 v 48 z M 258.6,55.4 c 0,0 0,0 0,0 0,0 0,0 0,0 z m 0.9,-0.9 c 0,0 0.1,-0.1 0.1,-0.1 0,0 -0.1,0.1 -0.1,0.1 z M 267,36.6 c 0,0 0,0 0,0 z m -6.6,16.9 c 0,0 0.1,-0.1 0.1,-0.1 0,0 0,0.1 -0.1,0.1 z m 0.9,-1.1 c 0,0 0.1,-0.1 0.1,-0.1 0,0.1 0,0.1 -0.1,0.1 z m 0.9,-1.1 c 0,0 0,0 0,0 0,0 0,0 0,0 z m 2.1,-3.6 c 0,0 0,-0.1 0,-0.1 0.1,0 0,0.1 0,0.1 z m 0.6,-1.2 c 0,-0.1 0.1,-0.2 0.1,-0.3 0,0.1 -0.1,0.2 -0.1,0.3 z m 0.5,-1.3 c 0.1,-0.1 0.1,-0.3 0.1,-0.4 0,0.2 -0.1,0.3 -0.1,0.4 z m 0.4,-1.2 c 0,-0.2 0.1,-0.3 0.1,-0.5 0,0.1 0,0.3 -0.1,0.5 z m 0.4,-1.4 c 0,-0.2 0.1,-0.3 0.1,-0.5 0,0.2 -0.1,0.4 -0.1,0.5 z m 0.3,-1.3 c 0,-0.2 0.1,-0.4 0.1,-0.5 -0.1,0.1 -0.1,0.3 -0.1,0.5 z m 0.2,-1.4 c 0,-0.2 0.1,-0.3 0.1,-0.5 0,0.2 -0.1,0.3 -0.1,0.5 z m 0.2,-1.4 c 0,-0.2 0,-0.3 0,-0.5 0,0.1 0,0.3 0,0.5 z M 267,36.6 Z M 263.4,23 c 0,0.1 0.1,0.1 0.1,0.2 0,-0.1 0,-0.1 -0.1,-0.2 z m 0.7,1.2 c 0,0.1 0.1,0.2 0.1,0.3 0,-0.2 -0.1,-0.2 -0.1,-0.3 z m 0.6,1.2 c 0.1,0.1 0.1,0.2 0.2,0.4 -0.1,-0.2 -0.2,-0.3 -0.2,-0.4 z m 0.5,1.2 c 0.1,0.1 0.1,0.3 0.2,0.4 -0.1,-0.1 -0.2,-0.3 -0.2,-0.4 z m 0.4,1.3 c 0.1,0.2 0.1,0.3 0.1,0.5 0,-0.2 0,-0.4 -0.1,-0.5 z m 0.4,1.3 c 0,0.2 0.1,0.3 0.1,0.5 0,-0.2 0,-0.4 -0.1,-0.5 z m 0.4,1.3 c 0,0.2 0.1,0.3 0.1,0.5 -0.1,-0.2 -0.1,-0.3 -0.1,-0.5 z m 0.2,1.3 c 0,0.2 0.1,0.4 0.1,0.5 0,-0.1 -0.1,-0.3 -0.1,-0.5 z m 0.2,1.4 c 0,0.2 0,0.3 0.1,0.5 0,-0.1 -0.1,-0.3 -0.1,-0.5 z m 0.1,1.5 c 0,0.2 0,0.3 0,0.5 0.1,-0.2 0,-0.3 0,-0.5 z" />
<g
   id="g200"
   transform="translate(-1016.7,-126.1)">
		<g
   id="g182">
			<path
   style="fill:#d9bd62"
   inkscape:connector-curvature="0"
   id="path180"
   d="m 1136.6,350.2 c -3,0 -5.4,2.4 -5.4,5.4 V 488 c 0,3 2.4,5.4 5.4,5.4 3,0 5.4,-2.4 5.4,-5.4 V 355.6 c 0,-3 -2.4,-5.4 -5.4,-5.4 z" />
		</g>
		<g
   id="g186">
			<path
   style="fill:#f6d76f"
   inkscape:connector-curvature="0"
   id="path184"
   d="m 1169.9,403.9 h -85 c -4.8,0 -7.3,-5.8 -3.8,-9.3 l 36.8,-36.8 c 2.1,-2.1 2.1,-5.6 0,-7.7 -2.1,-2.1 -5.6,-2.1 -7.7,0 l -55.3,55.3 c -3.4,3.4 -1,9.3 3.8,9.3 h 111.2 c 3,0 5.4,-2.4 5.4,-5.4 v 0 c 0,-2.9 -2.4,-5.4 -5.4,-5.4 z" />
		</g>
		<path
   style="fill:#fb5c7b"
   inkscape:connector-curvature="0"
   id="path188"
   d="m 1243.3,217.1 c -12.3,-5.1 -39.9,-27.7 -43.1,-35.5 -3.3,-7.9 8.7,-3 8.7,-3 h 38.6 c 14.3,0 26,-11.5 26.3,-25.8 v 0 c 0.2,-14.7 -11.6,-26.7 -26.3,-26.7 h -29.6 c 0,0 -53.7,5.7 -45.4,49.8 10.2,54.3 89.4,68.1 95.6,92.6 18.8,31.8 -6.9,68.4 -44.4,16.7 -25.8,-35.6 -39.2,-38.1 -74.3,-41.5 -54.8,-5.4 -131.2,22.2 -132.7,118.1 0,5 5.5,8 9.7,5.3 l 17.1,-11.1 c 0,0 35.8,0 101.3,0 65.5,0 68.7,-41.5 68.7,-41.5 36.9,39.2 72.4,9.3 72.4,9.3 51.1,-51.7 -30.3,-101.7 -42.6,-106.7 z" />
		<path
   style="fill:#f6d76f"
   inkscape:connector-curvature="0"
   id="path190"
   d="m 1265,132.8 v 0 c 5.4,4.9 8.8,12 8.7,19.9 v 0 c -0.1,8 -3.8,15 -9.4,19.8 14.5,3.9 31.6,14.3 47.1,29.4 17.7,17.4 14.5,0 14.5,0 -0.8,-55.4 -60.9,-69.1 -60.9,-69.1 z" />
		<path
   style="fill:#293441"
   inkscape:connector-curvature="0"
   id="path192"
   d="m 1318.2,171.6 c -1.7,7.6 -6.9,15.9 -21.1,18 4.8,3.6 9.6,7.7 14.2,12.3 17.7,17.4 14.5,0 14.5,0 -0.2,-12 -3.1,-22 -7.6,-30.3 z" />
		<circle
   style="fill:#ed858f"
   id="circle194"
   r="7.9000001"
   cy="141.10001"
   cx="1251.4" />
		<circle
   style="fill:#293441"
   id="circle196"
   r="4.5999999"
   cy="141.10001"
   cx="1251.4" />
		<path
   style="fill:#ed858f"
   inkscape:connector-curvature="0"
   id="path198"
   d="m 1149.1,243.7 c -50,-4.9 -118,17.7 -130.6,94.5 15.5,-9.4 44.6,-7.7 44.6,-7.7 h 96.3 c 36.3,-11.4 20.1,-59.1 8.4,-84.6 -5.5,-0.9 -11.7,-1.6 -18.7,-2.2 z" />
	</g>
</svg>