<?xml version="1.0" encoding="UTF-8" standalone="no"?>
<!-- Created with Inkscape (http://www.inkscape.org/) -->

<svg
   xmlns:dc="http://purl.org/dc/elements/1.1/"
   xmlns:cc="http://creativecommons.org/ns#"
   xmlns:rdf="http://www.w3.org/1999/02/22-rdf-syntax-ns#"
   xmlns:svg="http://www.w3.org/2000/svg"
   xmlns="http://www.w3.org/2000/svg"
   xmlns:sodipodi="http://sodipodi.sourceforge.net/DTD/sodipodi-0.dtd"
   xmlns:inkscape="http://www.inkscape.org/namespaces/inkscape"
   width="58.689384mm"
   height="68.154312mm"
   viewBox="0 0 58.689384 68.154311"
   version="1.1"
   id="svg543"
   inkscape:version="0.92.4 (5da689c313, 2019-01-14)"
   sodipodi:docname="bird3.svg">
  <defs
     id="defs537">
    <clipPath
       clipPathUnits="userSpaceOnUse"
       id="clipPath488">
      <g
         id="use490"
         inkscape:label="Clip">
        <g
           id="g687">
          <path
             d="m 112.7,378 c 9.8,1.2 19.2,2 28.2,2.5 -8.2,5.1 -18.4,10.5 -24.6,13.5 -3.3,1.6 -21.5,9.9 1.2,14.5 20.2,4.1 52.9,-15.4 68.6,-25.9 2.4,1.2 5.2,2.3 8.2,3.4 0,0 22.5,7 49,4.1 0,0.1 0,0.2 -0.1,0.3 0,0.2 -0.1,0.4 -0.1,0.6 0,0.2 -0.1,0.4 -0.1,0.5 0,0.2 -0.1,0.4 -0.1,0.6 0,0.2 0,0.3 0,0.5 0,0.2 0,0.4 -0.1,0.6 0,0.2 0,0.3 0,0.5 0,0.2 0,0.4 0,0.6 0,0.1 0,0.3 0,0.4 0,0.2 0,0.4 0,0.6 0,0.1 0,0.2 0,0.4 0,0.2 0,0.4 0,0.7 0,0.1 0,0.2 0,0.3 0,0.2 0,0.5 0.1,0.7 v 0 0 c 0.4,4.6 2.1,8.4 3.8,10.9 l -6.1,2.4 c -1.5,0.6 -2.2,2.3 -1.6,3.7 0.4,1.1 1.5,1.8 2.7,1.8 0.4,0 0.7,-0.1 1.1,-0.2 l 10.9,-4.3 17.4,8.9 c 0.4,0.2 0.9,0.3 1.3,0.3 1,0 2.1,-0.6 2.6,-1.6 0.7,-1.4 0.2,-3.2 -1.2,-3.9 l -7.9,-4 10.9,-0.4 c 1.6,-0.1 2.8,-1.4 2.8,-3 -0.1,-1.6 -1.4,-2.8 -3,-2.8 l -19.9,0.7 c -0.2,-0.2 -0.5,-0.4 -0.8,-0.5 -0.2,-0.6 -0.5,-1.2 -1,-1.8 0,0 -2,-2.3 -2.7,-6.2 v 0 c -0.2,-1 -0.3,-2.1 -0.2,-3.3 0,-0.1 0,-0.1 0,-0.2 0,-0.2 0,-0.3 0,-0.5 0,-0.1 0,-0.2 0,-0.3 0,-0.2 0,-0.3 0.1,-0.5 0,-0.1 0,-0.2 0.1,-0.4 0,-0.2 0.1,-0.3 0.1,-0.5 0,-0.1 0.1,-0.3 0.1,-0.4 0,-0.2 0.1,-0.3 0.1,-0.5 0,-0.1 0.1,-0.3 0.1,-0.4 0,-0.1 0.1,-0.3 0.1,-0.4 0,-0.2 0.1,-0.3 0.1,-0.5 0,-0.1 0.1,-0.3 0.1,-0.4 0.1,-0.2 0.1,-0.3 0.2,-0.5 0,-0.1 0.1,-0.2 0.1,-0.3 3.1,-0.6 6.2,-1.4 9.3,-2.4 0,0 0,0 0,0.1 0,0.1 0,0.2 0,0.3 0,0.2 0,0.4 0,0.6 0,0.1 0,0.2 0,0.2 0.3,4.5 1.9,8.2 3.5,10.6 l -5.5,2.2 c -1.3,0.5 -2,2.1 -1.5,3.4 0.4,1 1.4,1.7 2.4,1.7 0.3,0 0.6,-0.1 1,-0.2 l 9.9,-3.9 15.9,8.1 c 0.4,0.2 0.8,0.3 1.2,0.3 1,0 1.9,-0.5 2.3,-1.4 0.7,-1.3 0.2,-2.9 -1.1,-3.5 l -7.2,-3.7 9.9,-0.4 c 1.4,-0.1 2.6,-1.3 2.5,-2.7 -0.1,-1.4 -1.2,-2.6 -2.7,-2.5 l -18.1,0.7 c -0.2,-0.2 -0.5,-0.4 -0.7,-0.5 -0.2,-0.6 -0.5,-1.1 -0.9,-1.6 0,0 -1.8,-2.1 -2.4,-5.6 v 0 c -0.2,-0.9 -0.2,-1.9 -0.2,-3 0,-0.1 0,-0.1 0,-0.2 0,-0.2 0,-0.3 0,-0.5 0,-0.1 0,-0.2 0,-0.3 0,-0.1 0,-0.3 0.1,-0.4 0,-0.1 0,-0.2 0,-0.3 0,-0.1 0,-0.3 0.1,-0.4 0,-0.1 0,-0.1 0,-0.2 22.2,-9.5 42.9,-29.5 51.9,-69.2 0.7,-2.9 1.2,-5.8 1.5,-8.9 v 0 c 0,0 0,0 0,0 0,-0.3 0.1,-0.6 0.1,-1 0,-0.1 0,-0.2 0,-0.2 0,-0.3 0.1,-0.6 0.1,-1 0,-0.1 0,-0.1 0,-0.2 0.1,-1 0.1,-2 0.1,-3.1 0,-0.1 0,-0.2 0,-0.4 0,-0.3 0,-0.6 0,-0.9 0,-0.2 0,-0.3 0,-0.5 0,-0.3 0,-0.6 0,-0.9 0,-0.2 0,-0.3 0,-0.5 0,-0.6 0,-1.2 -0.1,-1.8 0,-0.2 0,-0.3 0,-0.5 0,-0.3 0,-0.6 -0.1,-0.9 0,-0.2 0,-0.4 -0.1,-0.7 0,-0.3 -0.1,-0.6 -0.1,-0.9 0,-0.2 0,-0.5 -0.1,-0.7 0,-0.3 -0.1,-0.6 -0.1,-0.9 0,-0.3 -0.1,-0.6 -0.1,-0.9 -0.1,-0.4 -0.1,-0.9 -0.2,-1.3 0,-0.3 -0.1,-0.7 -0.1,-1 0,-0.3 -0.1,-0.5 -0.1,-0.8 -0.1,-0.3 -0.1,-0.6 -0.2,-0.9 0,-0.3 -0.1,-0.6 -0.2,-0.8 -0.1,-0.3 -0.1,-0.7 -0.2,-1 -0.1,-0.3 -0.1,-0.5 -0.2,-0.8 -0.1,-0.6 -0.2,-1.2 -0.4,-1.8 0,-0.2 -0.1,-0.4 -0.1,-0.6 -0.1,-0.4 -0.2,-0.9 -0.3,-1.3 -0.1,-0.3 -0.1,-0.6 -0.2,-0.8 -0.1,-0.4 -0.2,-0.8 -0.3,-1.2 -0.1,-0.3 -0.1,-0.6 -0.2,-0.8 -0.1,-0.5 -0.3,-1 -0.4,-1.5 -0.1,-0.2 -0.1,-0.4 -0.2,-0.7 -0.2,-0.7 -0.4,-1.4 -0.6,-2.2 -0.1,-0.2 -0.1,-0.4 -0.2,-0.7 -0.2,-0.5 -0.3,-1.1 -0.5,-1.7 -0.1,-0.3 -0.2,-0.6 -0.3,-0.9 -0.2,-0.5 -0.3,-1.1 -0.5,-1.6 -0.1,-0.3 -0.2,-0.6 -0.3,-0.8 -0.2,-0.7 -0.4,-1.4 -0.7,-2 -0.1,-0.2 -0.1,-0.3 -0.2,-0.5 -0.3,-0.8 -0.6,-1.7 -0.9,-2.6 -0.1,-0.3 -0.2,-0.5 -0.3,-0.8 -0.2,-0.6 -0.5,-1.3 -0.7,-2 -0.1,-0.3 -0.2,-0.6 -0.3,-0.9 -0.2,-0.6 -0.5,-1.3 -0.7,-2 -0.1,-0.3 -0.2,-0.6 -0.3,-0.9 -0.4,-1 -0.7,-1.9 -1.1,-2.9 -0.3,-0.7 -0.5,-1.5 -0.7,-2.5 -0.1,-0.3 -0.1,-0.6 -0.1,-0.9 0,-0.3 -0.1,-0.6 -0.1,-1 0,-0.1 0,-0.2 0,-0.3 0,-0.1 0,-0.3 0,-0.4 0,-0.1 0,-0.2 0,-0.3 0,-0.1 0,-0.3 0,-0.4 0,-0.1 0,-0.2 0,-0.4 0,-0.1 0,-0.3 0,-0.4 0,-0.1 0,-0.3 0,-0.4 0,-0.1 0,-0.2 0,-0.4 0,-0.2 0,-0.3 0.1,-0.5 0,-0.1 0,-0.3 0.1,-0.4 0,-0.2 0.1,-0.4 0.1,-0.5 0,-0.1 0,-0.2 0.1,-0.3 0,-0.1 0.1,-0.3 0.1,-0.4 0,-0.1 0.1,-0.2 0.1,-0.3 0,-0.1 0.1,-0.3 0.1,-0.4 0,-0.1 0.1,-0.2 0.1,-0.3 0.1,-0.1 0.1,-0.3 0.2,-0.4 0,-0.1 0.1,-0.2 0.1,-0.3 0.1,-0.2 0.2,-0.4 0.3,-0.5 0,0 0,-0.1 0.1,-0.1 0,0 0,0 0,0 0.1,-0.2 0.3,-0.4 0.4,-0.6 0,0 0.1,-0.1 0.1,-0.1 0.1,-0.2 0.3,-0.3 0.4,-0.5 0.1,-0.1 0.1,-0.1 0.2,-0.2 0.1,-0.1 0.3,-0.3 0.4,-0.4 0.1,-0.1 0.1,-0.1 0.2,-0.2 0.2,-0.1 0.3,-0.3 0.5,-0.4 0.1,0 0.1,-0.1 0.2,-0.1 0,0 0,0 0,0 0.2,-0.2 0.4,-0.3 0.7,-0.4 0,0 0,0 0,0 0,0 0.1,0 0.1,-0.1 0.2,-0.1 0.5,-0.2 0.7,-0.3 0.1,0 0.1,0 0.2,-0.1 0,0 0,0 0,0 0.2,-0.1 0.4,-0.2 0.7,-0.3 0.1,0 0.2,-0.1 0.3,-0.1 0,0 0.1,0 0.1,0 0.2,-0.1 0.4,-0.1 0.6,-0.2 0.1,0 0.2,-0.1 0.3,-0.1 0.1,0 0.1,0 0.2,0 0.2,0 0.4,-0.1 0.6,-0.1 0.1,0 0.2,0 0.4,-0.1 0.1,0 0.2,0 0.3,0 0.2,0 0.4,0 0.6,-0.1 0.1,0 0.2,0 0.3,0 0.2,0 0.3,0 0.5,0 0.3,0 0.5,0 0.8,0 0.1,0 0.1,0 0.2,0 0.2,0 0.3,0 0.5,0 0.2,0 0.4,0 0.7,0 0.2,0 0.3,0 0.5,0 0.1,0 0.3,0 0.4,0 0.2,0 0.4,0 0.6,0.1 0.2,0 0.4,0 0.6,0.1 0.2,0 0.4,0.1 0.6,0.1 0.1,0 0.3,0 0.4,0.1 0.2,0 0.4,0.1 0.6,0.1 0.3,0.1 0.6,0.1 0.9,0.2 0.1,0 0.2,0 0.3,0.1 0.2,0 0.4,0.1 0.6,0.1 0.6,0.1 1.2,0.3 1.8,0.5 0,0 0,-0.1 0,-0.4 0,-0.1 0,-0.1 0,-0.2 0,-0.1 0,-0.3 0,-0.4 0,-0.3 -0.1,-0.6 -0.2,-1 -0.1,-0.5 -0.3,-1.1 -0.6,-1.7 -0.1,-0.1 -0.1,-0.2 -0.2,-0.4 -0.4,-0.8 -1,-1.8 -1.8,-2.8 -0.5,-0.7 -1.1,-1.4 -1.8,-2.1 -0.3,-0.4 -0.7,-0.7 -1.1,-1.1 -1.3,-1.3 -2.9,-2.7 -5,-4.2 0,0 0,0 0,-0.1 0,0 0,0 0,0 0,-0.1 0,-0.1 -0.1,-0.2 0,0 0,0 0,0 v 0 c -0.1,-0.4 -0.4,-1.1 -0.8,-2.1 -0.1,-0.2 -0.2,-0.4 -0.2,-0.6 -0.2,-0.5 -0.5,-1 -0.7,-1.6 -0.1,-0.2 -0.2,-0.4 -0.3,-0.6 -0.2,-0.4 -0.4,-0.8 -0.6,-1.2 -0.2,-0.5 -0.5,-0.9 -0.8,-1.4 -0.1,-0.2 -0.3,-0.4 -0.4,-0.7 -0.3,-0.5 -0.6,-0.9 -0.9,-1.4 -0.2,-0.3 -0.3,-0.5 -0.5,-0.8 -0.3,-0.4 -0.5,-0.7 -0.8,-1.1 -0.2,-0.2 -0.4,-0.5 -0.5,-0.7 -0.4,-0.5 -0.8,-0.9 -1.2,-1.4 -1.2,-1.3 -2.6,-2.6 -4.1,-3.6 -0.3,-0.2 -0.7,-0.5 -1.1,-0.7 -0.3,-0.2 -0.7,-0.4 -1,-0.6 -0.2,-0.1 -0.4,-0.2 -0.6,-0.3 -1.3,-0.6 -2.7,-1.1 -4.3,-1.4 -0.6,-0.1 -1.3,-0.2 -2,-0.2 -0.3,0 -0.7,0 -1,0 -3.2,0 -6.7,0.9 -10.7,2.9 -0.4,0.2 -0.9,0.5 -1.3,0.7 -2.7,1.6 -5.6,3.7 -8.6,6.5 -2,1.9 -4.2,4 -6.4,6.5 -0.7,0.7 -1.2,1.5 -1.8,2.2 -0.3,0.5 -0.7,1 -0.9,1.5 -0.7,1.3 -1.2,2.6 -1.7,4 -0.2,0.6 -0.3,1.2 -0.4,1.8 -0.1,0.3 -0.1,0.6 -0.2,1 -0.1,0.7 -0.2,1.3 -0.3,2.1 -0.3,2.2 -0.4,4.6 -0.6,7.6 -0.2,5.4 -0.4,12.4 -1.1,21.9 0,0 0,0 0,0 0,0 0,0 0,0 0,0 0,0.1 0,0.1 0,0 0,0 0,0.1 0,0 0,0.1 0,0.1 0,0 0,0.1 0,0.1 0,0 0,0.1 0,0.1 -0.1,0.2 -0.1,0.5 -0.3,0.9 0,0 0,0 0,0 0,0.1 -0.1,0.2 -0.1,0.4 0,0 0,0 0,0.1 -0.1,0.1 -0.1,0.3 -0.2,0.4 0,0 0,0 0,0 0,0.1 -0.1,0.2 -0.1,0.2 -0.4,0.8 -0.9,1.6 -1.3,2.4 0,0.1 -0.1,0.2 -0.1,0.2 -0.4,0.7 -0.9,1.4 -1.3,2.1 -0.1,0.1 -0.1,0.2 -0.2,0.3 -0.4,0.7 -0.9,1.3 -1.4,1.9 -0.1,0.1 -0.1,0.2 -0.2,0.3 -0.5,0.6 -0.9,1.2 -1.4,1.7 -0.1,0.1 -0.1,0.1 -0.2,0.2 0,0 0,0 0,0 -2.2,2.4 -5.1,4.9 -8.8,7.5 0,0 -0.1,0.1 -0.1,0.1 -0.4,0.3 -0.9,0.6 -1.3,0.9 -0.1,0 -0.1,0.1 -0.2,0.1 -0.5,0.3 -0.9,0.6 -1.4,0.9 -0.8,0.5 -1.6,0.9 -2.4,1.4 -7.4,3 -14.1,6 -20.2,9.1 -3.7,1.8 -7.3,3.8 -10.8,5.9 -35.1,20.5 -42.1,39.6 -42.1,39.6 v 0 C 73.4,371.3 112.7,378 112.7,378 Z"
             id="path623"
             inkscape:connector-curvature="0"
             style="fill:#381a04" />
          <g
             id="g685">
            <g
               id="g629">
              <g
                 id="g627">
                <path
                   d="m 284.3,388 -20,0.7 c -1.2,0 -2.2,0.9 -2.5,2.1 -0.3,1.2 0.3,2.4 1.4,2.9 l 16.1,8.3 c 0.4,0.2 0.8,0.3 1.2,0.3 1,0 1.9,-0.5 2.3,-1.4 0.7,-1.3 0.2,-2.9 -1.1,-3.5 l -7.2,-3.7 9.9,-0.4 c 1.4,-0.1 2.6,-1.3 2.5,-2.7 0.1,-1.5 -1.1,-2.6 -2.6,-2.6 z"
                   id="path625"
                   inkscape:connector-curvature="0"
                   style="fill:#de8976" />
              </g>
            </g>
            <g
               id="g635">
              <g
                 id="g633">
                <path
                   d="m 263.5,388.2 -11.9,4.7 c -1.3,0.5 -2,2.1 -1.5,3.4 0.4,1 1.4,1.7 2.4,1.7 0.3,0 0.6,-0.1 1,-0.2 l 11.9,-4.7 c 1.3,-0.5 2,-2.1 1.5,-3.4 -0.5,-1.4 -2,-2 -3.4,-1.5 z"
                   id="path631"
                   inkscape:connector-curvature="0"
                   style="fill:#de8976" />
              </g>
            </g>
            <g
               id="g639">
              <path
                 d="m 263.7,363.1 c -2,-1.2 -4.6,-0.6 -5.8,1.3 -8,12.8 -3.2,23.8 0.4,27.8 0.8,0.9 2,1.4 3.1,1.4 1,0 2,-0.4 2.8,-1.1 1.7,-1.6 1.9,-4.2 0.3,-5.9 -0.1,-0.1 -6.2,-7.1 0.4,-17.8 1.3,-1.9 0.7,-4.5 -1.2,-5.7 z"
                 id="path637"
                 inkscape:connector-curvature="0"
                 style="fill:#de8976" />
            </g>
            <path
               d="m 263.7,363.1 c -2,-1.2 -4.6,-0.6 -5.8,1.3 -3.7,6 -4.7,11.7 -4.2,16.4 2.3,0.8 5.2,1.2 8.5,0.2 -0.5,-3 -0.2,-7.2 2.9,-12.1 1.1,-2 0.5,-4.6 -1.4,-5.8 z"
               id="path641"
               inkscape:connector-curvature="0"
               style="fill:#429699" />
            <g
               id="g647">
              <g
                 id="g645">
                <path
                   d="m 267.7,398.1 -21.9,0.8 c -1.3,0 -2.4,1 -2.7,2.3 -0.3,1.3 0.3,2.6 1.5,3.2 l 17.7,9.1 c 0.4,0.2 0.9,0.3 1.3,0.3 1,0 2.1,-0.6 2.6,-1.6 0.7,-1.4 0.2,-3.2 -1.2,-3.9 l -7.9,-4 10.9,-0.4 c 1.6,-0.1 2.8,-1.4 2.8,-3 -0.2,-1.6 -1.5,-2.8 -3.1,-2.8 z"
                   id="path643"
                   inkscape:connector-curvature="0"
                   style="fill:#ed917d" />
              </g>
            </g>
            <g
               id="g653">
              <g
                 id="g651">
                <path
                   d="m 244.8,398.3 -13,5.1 c -1.5,0.6 -2.2,2.3 -1.6,3.7 0.4,1.1 1.5,1.8 2.7,1.8 0.4,0 0.7,-0.1 1.1,-0.2 l 13,-5.1 c 1.5,-0.6 2.2,-2.3 1.6,-3.7 -0.7,-1.4 -2.3,-2.2 -3.8,-1.6 z"
                   id="path649"
                   inkscape:connector-curvature="0"
                   style="fill:#ed917d" />
              </g>
            </g>
            <path
               d="m 312.9,214.9 c 0,0 -13.6,-43.6 -48.9,-4.1 -7.1,7.9 -5,14.3 -6.9,42 0,0 -2.7,16.3 -32.4,27.8 -29.7,11.4 -58,37.6 -63,51.9 0,0 -19,31.5 23.6,46.2 0,0 105.2,32.6 128.8,-72.2 3.1,-13.8 3.8,-27.7 -9.5,-62.4 -2.1,-5.5 -2.8,-20.8 18.8,-14.9 0,0 1.2,-5.7 -10.5,-14.3 z"
               id="path655"
               inkscape:connector-curvature="0"
               style="fill:#5b4d55" />
            <path
               d="m 140.3,367.3 c -7.7,6.2 -24.4,15.2 -33.1,19.3 -3.3,1.6 -21.5,9.9 1.2,14.5 27.4,5.7 77.6,-32.1 77.6,-32.1 -4.5,-5.5 -37.9,-7.9 -45.7,-1.7 z"
               id="path657"
               inkscape:connector-curvature="0"
               style="fill:#6e5f68" />
            <path
               d="m 312.9,214.9 c 0,0 -13.6,-43.6 -48.9,-4.1 -7.1,7.9 -5,14.3 -6.9,42 0,0 -1.9,11 -18.9,21.3 0.5,18.6 7,37.4 27.6,47.7 32.8,16.4 45.2,-6.4 49.8,-24.2 1.3,-11.6 -0.5,-26.1 -11.1,-53.5 -2.1,-5.5 -2.8,-20.8 18.8,-14.9 0.1,0 1.3,-5.7 -10.4,-14.3 z"
               id="path659"
               inkscape:connector-curvature="0"
               style="fill:#429699" />
            <path
               d="m 256.2,255.4 c -8,15.6 -20.4,20 -20.4,20 -63.2,27.7 -73.1,54.6 -73.1,54.6 -98.3,33.9 -59,40.6 -59,40.6 70.8,8.6 120.5,-1.9 146.9,-15 26.5,-13.1 26.5,-31 16.7,-53.4 -9.7,-22.4 -11.1,-46.8 -11.1,-46.8 z"
               id="path661"
               inkscape:connector-curvature="0"
               style="fill:#b8969c" />
            <path
               d="m 312.9,214.9 c 0,0 -13.6,-43.6 -48.9,-4.1 -0.2,0.2 -0.4,0.4 -0.6,0.7 3.5,10.5 13.4,28.3 40.3,29.3 -0.9,-6.6 1.5,-16.6 19.6,-11.6 0.1,0 1.3,-5.7 -10.4,-14.3 z"
               id="path663"
               inkscape:connector-curvature="0"
               style="fill:#54bec2" />
            <path
               d="m 312.9,214.9 c 0,0 0,-0.1 -0.1,-0.3 -3.6,2.5 -10.4,8.5 -7.7,17.7 2.3,-3.8 7.5,-6.1 18.3,-3.1 0,0 1.2,-5.7 -10.5,-14.3 z"
               id="path665"
               inkscape:connector-curvature="0"
               style="fill:#6a6d7d" />
            <circle
               transform="matrix(0.9969,-0.07818318,0.07818318,0.9969,-15.934,23.4597)"
               cx="291.60001"
               cy="215.2"
               id="circle667"
               r="4.5"
               style="fill:#ffffff" />
            <circle
               transform="matrix(0.9969,-0.07819314,0.07819314,0.9969,-15.936,23.4628)"
               cx="291.60001"
               cy="215.2"
               id="circle669"
               r="2.7"
               style="fill:#6a6d7d" />
            <path
               d="m 256.2,255.4 c -8,15.6 -20.4,20 -20.4,20 -62.4,25 -73.1,54.6 -73.1,54.6 -1,0.3 19.1,33 80.9,28.8 2.5,-1 4.8,-2.1 7,-3.2 26.5,-13.1 26.5,-31 16.7,-53.4 -9.7,-22.4 -11.1,-46.8 -11.1,-46.8 z"
               id="path671"
               inkscape:connector-curvature="0"
               style="fill:#b6b2a2" />
            <path
               d="m 256.2,255.4 c -3.7,7.2 -8.3,12 -12.2,15.1 1.6,8.6 4.1,19.3 8.8,29.6 24,52.7 -39.5,57.1 -46.3,56.5 10.2,2.2 22.5,3.3 37.1,2.3 2.5,-1 4.8,-2.1 7,-3.2 26.5,-13.1 26.5,-31 16.7,-53.4 -9.7,-22.5 -11.1,-46.9 -11.1,-46.9 z"
               id="path673"
               inkscape:connector-curvature="0"
               style="fill:#a6a394" />
            <path
               d="m 234.3,319 c -4.3,-3.2 -6.6,-7.7 -5.9,-11.2 0,0 0,0 0,0 0,0 0,0 0,0 -3.1,1.6 -8.1,0.8 -12.4,-2.4 -4.3,-3.2 -6.6,-7.7 -5.9,-11.2 -0.7,0.4 -1.3,0.9 -1.8,1.5 -2.5,3.4 -0.3,9.4 5,13.3 4.3,3.2 9.3,4 12.4,2.4 -0.7,3.4 1.6,8 5.9,11.2 5.3,3.9 11.6,4.3 14.2,0.9 0.5,-0.6 0.8,-1.4 0.9,-2.1 -3.1,1.6 -8.1,0.7 -12.4,-2.4 z"
               id="path675"
               inkscape:connector-curvature="0"
               style="fill:#838075" />
            <path
               d="m 227.8,342.4 c -4,-3.2 -6.1,-7.7 -5.4,-11 0,0 0,-0.1 0,-0.1 0,0 0,0 0,0 0,0 0,0 0,0 0,0 -0.1,0 -0.1,0 -3.1,1.4 -7.8,0.4 -11.9,-2.8 -4.1,-3.3 -6.1,-7.7 -5.4,-11.1 0,0 0,0 0,0 0,0 0,0 0,0 -3.1,1.5 -7.9,0.5 -12,-2.8 -4.1,-3.3 -6.1,-7.7 -5.4,-11.1 -0.7,0.3 -1.3,0.8 -1.8,1.4 -2.6,3.2 -0.6,9.1 4.4,13.1 4.1,3.3 8.9,4.3 12,2.7 -0.8,3.3 1.3,7.8 5.4,11.1 4.1,3.2 8.9,4.2 12,2.8 -0.8,3.3 1.3,7.8 5.4,11 5,4 11.2,4.6 13.8,1.3 0.5,-0.6 0.8,-1.3 1,-2 -3.1,1.8 -7.9,0.8 -12,-2.5 z"
               id="path677"
               inkscape:connector-curvature="0"
               style="fill:#838075" />
            <g
               id="g681">
              <path
                 d="m 244.9,370.7 c -2.2,-1.3 -5,-0.7 -6.4,1.5 -8.7,14.1 -3.5,26.2 0.5,30.6 0.9,1 2.2,1.5 3.4,1.5 1.1,0 2.2,-0.4 3.1,-1.2 1.9,-1.7 2,-4.6 0.3,-6.5 -0.1,-0.1 -6.8,-7.8 0.5,-19.6 1.5,-2.1 0.8,-5 -1.4,-6.3 z"
                 id="path679"
                 inkscape:connector-curvature="0"
                 style="fill:#ed917d" />
            </g>
            <path
               d="m 244.9,370.7 c -2.2,-1.3 -5,-0.7 -6.4,1.5 -4.1,6.6 -5.1,12.8 -4.6,18 2.5,0.9 5.8,1.3 9.3,0.2 -0.6,-3.4 -0.2,-7.9 3.2,-13.3 1.4,-2.2 0.7,-5.1 -1.5,-6.4 z"
               id="path683"
               inkscape:connector-curvature="0"
               style="fill:#429699" />
          </g>
        </g>
      </g>
    </clipPath>
  </defs>
  <sodipodi:namedview
     id="base"
     pagecolor="#ffffff"
     bordercolor="#666666"
     borderopacity="1.0"
     inkscape:pageopacity="0.0"
     inkscape:pageshadow="2"
     inkscape:zoom="0.35"
     inkscape:cx="-872.7554"
     inkscape:cy="635.70251"
     inkscape:document-units="mm"
     inkscape:current-layer="layer1"
     showgrid="false"
     inkscape:window-width="1920"
     inkscape:window-height="1017"
     inkscape:window-x="-8"
     inkscape:window-y="-8"
     inkscape:window-maximized="1"
     fit-margin-top="0"
     fit-margin-left="0"
     fit-margin-right="0"
     fit-margin-bottom="0" />
  <metadata
     id="metadata540">
    <rdf:RDF>
      <cc:Work
         rdf:about="">
        <dc:format>image/svg+xml</dc:format>
        <dc:type
           rdf:resource="http://purl.org/dc/dcmitype/StillImage" />
        <dc:title></dc:title>
      </cc:Work>
    </rdf:RDF>
  </metadata>
  <g
     inkscape:label="Layer 1"
     inkscape:groupmode="layer"
     id="layer1"
     transform="translate(-221.08915,-188.39912)">
    <path
       style="fill:#381a04;stroke-width:0.26458332"
       inkscape:connector-curvature="0"
       id="path6"
       d="m 279.31239,198.37156 -3.4925,-1.08479 c -0.9525,-2.88396 -2.43416,-5.05355 -4.52437,-5.8473 -5.715,-2.2225 -14.605,6.0325 -20.66396,14.07584 -0.0794,0.10583 -0.84667,1.08479 -1.905,2.64583 -1.03187,1.53458 -1.95792,3.01625 -2.67229,4.39208 -0.635,1.13771 -1.85208,3.36021 -3.25438,5.90021 0,0 0,0 0,0 l -6.82625,12.22375 -11.87979,21.11375 c -0.74083,1.69334 -0.3175,3.59834 1.11125,4.39209 0.44979,0.26458 0.9525,0.37041 1.45521,0.37041 1.03188,0 1.74625,-0.55562 2.59292,-1.50812 l 1.13771,-1.34938 c 0.26458,0.52917 0.66145,0.97896 1.21708,1.29646 0.44979,0.26458 0.9525,0.37042 1.45521,0.37042 1.03187,0 1.77271,-0.58209 2.59291,-1.50813 l 15.875,-18.86479 c 0.0265,0.0265 0.0529,0.0265 0.0794,0.0529 0.0529,0.0265 0.10584,0.0529 0.18521,0.10583 0.18521,0.10584 0.37042,0.21167 0.55563,0.3175 0.0265,0 0.0529,0.0265 0.0794,0.0265 0.21166,0.10584 0.42333,0.21167 0.635,0.3175 0.0529,0.0265 0.13229,0.0529 0.18521,0.0794 0.21166,0.10584 0.42333,0.18521 0.635,0.26459 0,0 0.0265,0 0.0265,0 1.29645,0.50271 2.59291,0.82021 3.88937,0.97896 -0.50271,0.29104 -0.97896,0.68791 -1.45521,1.1377 -0.39687,0.39688 -0.39687,1.03188 0,1.42875 0.39688,0.39688 1.03188,0.39688 1.42875,0 0.89959,-0.89958 1.79917,-1.32291 2.69875,-1.29645 1.45521,0.0529 2.51354,1.24354 2.54,1.24354 0.21167,0.23812 0.47625,0.34396 0.76729,0.34396 0.23813,0 0.47625,-0.0794 0.66146,-0.23813 0.42334,-0.37042 0.44979,-1.00542 0.10584,-1.42875 -0.0529,-0.0529 -0.71438,-0.82021 -1.82563,-1.37583 0.9525,-0.18521 1.905,-0.44979 2.80458,-0.79375 4.07459,-1.56104 7.51417,-4.78896 9.23396,-9.2075 0,-0.0265 0.0265,-0.0529 0.0265,-0.0529 0.0529,-0.13229 0.10583,-0.26459 0.15875,-0.39688 0.0265,-0.0529 0.0529,-0.13229 0.0529,-0.18521 0.0265,-0.10583 0.0794,-0.21166 0.10584,-0.3175 0.0265,-0.0794 0.0529,-0.13229 0.0794,-0.21166 0.0265,-0.10584 0.0794,-0.21167 0.10583,-0.34396 0.0265,-0.0529 0.0529,-0.13229 0.0529,-0.18521 0.0529,-0.18521 0.10583,-0.34396 0.15875,-0.52917 0.0265,-0.0529 0.0265,-0.13229 0.0529,-0.1852 0.0265,-0.1323 0.0794,-0.26459 0.10583,-0.39688 0.0265,-0.0794 0.0529,-0.15875 0.0529,-0.23812 0.0265,-0.1323 0.0529,-0.23813 0.0794,-0.37042 0.0265,-0.0794 0.0529,-0.15875 0.0529,-0.26458 0.0265,-0.1323 0.0529,-0.26459 0.10584,-0.42334 0.0265,-0.0794 0.0265,-0.13229 0.0529,-0.21166 0.0529,-0.21167 0.0794,-0.42334 0.13229,-0.635 0.0265,-0.0794 0.0265,-0.15875 0.0529,-0.23813 0.0265,-0.13229 0.0529,-0.29104 0.0794,-0.42333 0.0265,-0.10584 0.0265,-0.18521 0.0529,-0.29104 0.0265,-0.1323 0.0529,-0.29105 0.0794,-0.42334 0.0265,-0.10583 0.0265,-0.18521 0.0529,-0.29104 0.0265,-0.18521 0.0529,-0.34396 0.0794,-0.52917 0,-0.0794 0.0265,-0.15875 0.0265,-0.23812 0.0265,-0.21167 0.0529,-0.42333 0.10583,-0.635 0.0265,-0.10583 0.0265,-0.18521 0.0529,-0.29104 0.0265,-0.15875 0.0529,-0.3175 0.0529,-0.47625 0.0265,-0.10584 0.0265,-0.21167 0.0529,-0.3175 0.0265,-0.15875 0.0529,-0.3175 0.0529,-0.47625 0,-0.10584 0.0265,-0.18521 0.0265,-0.29104 0.0265,-0.23813 0.0529,-0.50271 0.0794,-0.74084 0,-0.0529 0,-0.13229 0.0265,-0.18521 0.0265,-0.1852 0.0529,-0.39687 0.0529,-0.58208 0,-0.10583 0.0265,-0.21167 0.0265,-0.29104 0.0265,-0.15875 0.0265,-0.34396 0.0529,-0.50271 0,-0.10583 0.0265,-0.21167 0.0265,-0.29104 0.0265,-0.18521 0.0265,-0.37042 0.0529,-0.55563 0,-0.0794 0,-0.15875 0.0265,-0.23812 0.0265,-0.26458 0.0265,-0.52917 0.0529,-0.79375 0,-0.0794 0,-0.15875 0,-0.23813 0,-0.1852 0.0265,-0.39687 0.0265,-0.58208 0,-0.10583 0,-0.18521 0,-0.29104 0,-0.18521 0.0265,-0.37042 0.0265,-0.55563 0,-0.10583 0,-0.1852 0,-0.29104 0,-0.23812 0,-0.44979 0.0265,-0.68791 0,-0.0529 0,-0.0794 0,-0.1323 0,-0.26458 0,-0.52916 0,-0.8202 0,-0.0794 0,-0.15875 0,-0.23813 0,-0.18521 0,-0.39687 0,-0.58208 0,-0.0794 0,-0.18521 0,-0.26459 0,-0.1852 0,-0.39687 0,-0.58208 0,-0.0794 0,-0.15875 0,-0.23812 0,-0.26459 -0.0265,-0.52917 -0.0265,-0.82021 0,-0.0265 0,-0.0265 0,-0.0529 0,-0.26458 -0.0265,-0.50271 -0.0265,-0.76729 0,-0.0794 0,-0.15875 -0.0265,-0.23813 0,-0.18521 -0.0265,-0.37041 -0.0265,-0.55562 0,-0.0794 0,-0.15875 -0.0265,-0.26459 -0.0265,-0.21166 -0.0265,-0.39687 -0.0529,-0.60854 0,-0.0529 0,-0.13229 -0.0265,-0.18521 -0.0265,-0.26458 -0.0529,-0.52916 -0.0794,-0.76729 0,-0.0529 0,-0.0794 -0.0265,-0.13229 -0.0265,-0.21167 -0.0529,-0.42333 -0.0794,-0.635 0,-0.0794 -0.0265,-0.15875 -0.0265,-0.23812 -0.0265,-0.10584 -0.0265,-0.21167 -0.0529,-0.3175 l 2.67229,-2.40771 c 0.15875,-0.15875 0.23813,-0.37042 0.18521,-0.58209 -0.0794,-0.21166 -0.23812,-0.39687 -0.44979,-0.44979 z" />
    <g
       transform="matrix(0.26458333,0,0,0.26458333,15.231772,144.42302)"
       id="g82">
      <path
         style="fill:#927955"
         inkscape:connector-curvature="0"
         id="path60"
         d="m 897.7,248 c -5.4,-3 -12.3,-1.1 -15.3,4.3 l -78.8,140.2 c -3,5.4 -1.1,12.3 4.3,15.3 1.7,1 3.6,1.4 5.5,1.4 3.9,0 6.7,-2.2 9.8,-5.7 L 925.4,282 c 3.1,-5.4 -22.2,-31 -27.7,-34 z" />
      <path
         style="fill:#a58c65"
         inkscape:connector-curvature="0"
         id="path62"
         d="m 873.5,252.5 c -5.4,-3 -20.4,11.8 -23.5,17.2 l -25.7,46.3 -44.9,79.8 c -2.8,6.4 -1.2,13.6 4.2,16.6 1.7,1 3.6,1.4 5.5,1.4 3.9,0 6.6,-2.1 9.8,-5.7 L 901.1,286.6 c 3.2,-5.5 -22.1,-31 -27.6,-34.1 z" />
      <path
         style="fill:#3e3d42"
         inkscape:connector-curvature="0"
         id="path64"
         d="m 988.1,193.9 -17.4,-5.4 c -0.8,-0.3 -1.7,-0.1 -2.3,0.5 -0.6,0.6 -0.9,1.4 -0.7,2.2 l 3.9,17.7 c 0.2,0.8 0.8,1.5 1.6,1.7 0.4,0.1 0.8,0.1 1.2,0.1 0.4,-0.1 0.8,-0.3 1.1,-0.6 l 13.6,-12.2 c 0.6,-0.6 0.9,-1.4 0.7,-2.2 -0.3,-0.9 -0.9,-1.6 -1.7,-1.8 z" />
      <path
         style="fill:#af9b7b"
         inkscape:connector-curvature="0"
         id="path66"
         d="m 957.7,167.6 c -31.3,-12.2 -88.1,59 -100.3,90.3 -12.2,31.3 3.4,66.5 34.7,78.7 31.3,12.2 66.5,-3.4 78.7,-34.7 C 983,270.6 989,179.8 957.7,167.6 Z" />
      <path
         style="fill:#9e835c"
         inkscape:connector-curvature="0"
         id="path68"
         d="m 957.7,293.7 c -17,31.5 -56.3,43.2 -87.8,26.2 -1.1,-0.6 -2.1,-1.2 -3.1,-1.8 6.5,8 15.1,14.5 25.4,18.5 31.3,12.2 66.5,-3.4 78.7,-34.7 7.7,-19.9 13,-63.8 7.8,-96.3 -1.5,32.7 -11.5,70.4 -21,88.1 z" />
      <path
         style="fill:#927955"
         inkscape:connector-curvature="0"
         id="path70"
         d="m 900.7,213.1 c -8,0 -15.4,2.9 -21,7.7 0,0 -7.7,9.8 -15.5,23.4 0,0 -28,50.7 -39.8,71.8 -4.3,7.6 -0.6,11.4 -0.6,11.4 2.4,2.7 6.8,2.8 8.3,2.7 13.7,-0.8 24.4,-9.7 31.1,-17.2 5,-5.7 7.8,-10.6 7.8,-10.6 61.8,5.9 61.7,-49.4 61.7,-49.4 0,0 2.5,-39.8 -32,-39.8 z" />
      <path
         style="fill:#7d6949"
         inkscape:connector-curvature="0"
         id="path72"
         d="m 925.9,243.2 c 0,0 0,39.1 -36.7,48 l 5,-18.2 c 0,0 0.9,-3.2 -1.3,-3.9 -1.8,-0.5 -3.1,1.8 -3.1,1.8 l -19,31.3 c 3.9,0.4 7.6,0.5 11,0.4 v 0 c 0.2,0 0.4,0 0.6,0 0.1,0 0.3,0 0.4,0 49.7,-1.9 49.7,-49.8 49.7,-49.8 0,0 1.4,-20.4 -10.6,-32 4.8,10.7 4,22.4 4,22.4 z" />
      <path
         style="fill:#7d6949"
         inkscape:connector-curvature="0"
         id="path74"
         d="m 877.1,258.7 c -1.8,-1.1 -4.1,-0.5 -5.2,1.2 L 845,303.5 c -1.1,1.8 -0.5,4.1 1.2,5.2 0.6,0.4 1.3,0.6 2,0.6 1.3,0 2.5,-0.6 3.2,-1.8 L 878.2,264 c 1.2,-1.8 0.7,-4.2 -1.1,-5.3 z" />
      <path
         style="fill:#806749"
         inkscape:connector-curvature="0"
         id="path76"
         d="m 917.2,337.5 c -5.6,-0.2 -11,2.2 -15.9,7.1 -1.5,1.5 -1.5,3.9 0,5.4 1.5,1.5 3.9,1.5 5.4,0 3.4,-3.4 6.8,-5 10.2,-4.9 5.5,0.2 9.5,4.7 9.6,4.7 0.8,0.9 1.8,1.3 2.9,1.3 0.9,0 1.8,-0.3 2.5,-0.9 1.6,-1.4 1.7,-3.8 0.4,-5.4 -0.3,-0.2 -6.3,-7 -15.1,-7.3 z" />
      <circle
         style="fill:#8a765f"
         id="circle78"
         r="8.6999998"
         cy="190.89999"
         cx="949.40002" />
      <circle
         style="fill:#3e3d42"
         id="circle80"
         r="5"
         cy="190.89999"
         cx="949.40002" />
    </g>
  </g>
</svg>
