<?xml version="1.0" encoding="UTF-8" standalone="no"?>
<!-- Created with Inkscape (http://www.inkscape.org/) -->

<svg
   xmlns:dc="http://purl.org/dc/elements/1.1/"
   xmlns:cc="http://creativecommons.org/ns#"
   xmlns:rdf="http://www.w3.org/1999/02/22-rdf-syntax-ns#"
   xmlns:svg="http://www.w3.org/2000/svg"
   xmlns="http://www.w3.org/2000/svg"
   xmlns:sodipodi="http://sodipodi.sourceforge.net/DTD/sodipodi-0.dtd"
   xmlns:inkscape="http://www.inkscape.org/namespaces/inkscape"
   width="75.167969mm"
   height="66.150864mm"
   viewBox="0 0 75.167968 66.150863"
   version="1.1"
   id="svg543"
   inkscape:version="0.92.4 (5da689c313, 2019-01-14)"
   sodipodi:docname="bird2.svg">
  <defs
     id="defs537">
    <clipPath
       clipPathUnits="userSpaceOnUse"
       id="clipPath488">
      <g
         id="use490"
         inkscape:label="Clip">
        <g
           id="g687">
          <path
             d="m 112.7,378 c 9.8,1.2 19.2,2 28.2,2.5 -8.2,5.1 -18.4,10.5 -24.6,13.5 -3.3,1.6 -21.5,9.9 1.2,14.5 20.2,4.1 52.9,-15.4 68.6,-25.9 2.4,1.2 5.2,2.3 8.2,3.4 0,0 22.5,7 49,4.1 0,0.1 0,0.2 -0.1,0.3 0,0.2 -0.1,0.4 -0.1,0.6 0,0.2 -0.1,0.4 -0.1,0.5 0,0.2 -0.1,0.4 -0.1,0.6 0,0.2 0,0.3 0,0.5 0,0.2 0,0.4 -0.1,0.6 0,0.2 0,0.3 0,0.5 0,0.2 0,0.4 0,0.6 0,0.1 0,0.3 0,0.4 0,0.2 0,0.4 0,0.6 0,0.1 0,0.2 0,0.4 0,0.2 0,0.4 0,0.7 0,0.1 0,0.2 0,0.3 0,0.2 0,0.5 0.1,0.7 v 0 0 c 0.4,4.6 2.1,8.4 3.8,10.9 l -6.1,2.4 c -1.5,0.6 -2.2,2.3 -1.6,3.7 0.4,1.1 1.5,1.8 2.7,1.8 0.4,0 0.7,-0.1 1.1,-0.2 l 10.9,-4.3 17.4,8.9 c 0.4,0.2 0.9,0.3 1.3,0.3 1,0 2.1,-0.6 2.6,-1.6 0.7,-1.4 0.2,-3.2 -1.2,-3.9 l -7.9,-4 10.9,-0.4 c 1.6,-0.1 2.8,-1.4 2.8,-3 -0.1,-1.6 -1.4,-2.8 -3,-2.8 l -19.9,0.7 c -0.2,-0.2 -0.5,-0.4 -0.8,-0.5 -0.2,-0.6 -0.5,-1.2 -1,-1.8 0,0 -2,-2.3 -2.7,-6.2 v 0 c -0.2,-1 -0.3,-2.1 -0.2,-3.3 0,-0.1 0,-0.1 0,-0.2 0,-0.2 0,-0.3 0,-0.5 0,-0.1 0,-0.2 0,-0.3 0,-0.2 0,-0.3 0.1,-0.5 0,-0.1 0,-0.2 0.1,-0.4 0,-0.2 0.1,-0.3 0.1,-0.5 0,-0.1 0.1,-0.3 0.1,-0.4 0,-0.2 0.1,-0.3 0.1,-0.5 0,-0.1 0.1,-0.3 0.1,-0.4 0,-0.1 0.1,-0.3 0.1,-0.4 0,-0.2 0.1,-0.3 0.1,-0.5 0,-0.1 0.1,-0.3 0.1,-0.4 0.1,-0.2 0.1,-0.3 0.2,-0.5 0,-0.1 0.1,-0.2 0.1,-0.3 3.1,-0.6 6.2,-1.4 9.3,-2.4 0,0 0,0 0,0.1 0,0.1 0,0.2 0,0.3 0,0.2 0,0.4 0,0.6 0,0.1 0,0.2 0,0.2 0.3,4.5 1.9,8.2 3.5,10.6 l -5.5,2.2 c -1.3,0.5 -2,2.1 -1.5,3.4 0.4,1 1.4,1.7 2.4,1.7 0.3,0 0.6,-0.1 1,-0.2 l 9.9,-3.9 15.9,8.1 c 0.4,0.2 0.8,0.3 1.2,0.3 1,0 1.9,-0.5 2.3,-1.4 0.7,-1.3 0.2,-2.9 -1.1,-3.5 l -7.2,-3.7 9.9,-0.4 c 1.4,-0.1 2.6,-1.3 2.5,-2.7 -0.1,-1.4 -1.2,-2.6 -2.7,-2.5 l -18.1,0.7 c -0.2,-0.2 -0.5,-0.4 -0.7,-0.5 -0.2,-0.6 -0.5,-1.1 -0.9,-1.6 0,0 -1.8,-2.1 -2.4,-5.6 v 0 c -0.2,-0.9 -0.2,-1.9 -0.2,-3 0,-0.1 0,-0.1 0,-0.2 0,-0.2 0,-0.3 0,-0.5 0,-0.1 0,-0.2 0,-0.3 0,-0.1 0,-0.3 0.1,-0.4 0,-0.1 0,-0.2 0,-0.3 0,-0.1 0,-0.3 0.1,-0.4 0,-0.1 0,-0.1 0,-0.2 22.2,-9.5 42.9,-29.5 51.9,-69.2 0.7,-2.9 1.2,-5.8 1.5,-8.9 v 0 c 0,0 0,0 0,0 0,-0.3 0.1,-0.6 0.1,-1 0,-0.1 0,-0.2 0,-0.2 0,-0.3 0.1,-0.6 0.1,-1 0,-0.1 0,-0.1 0,-0.2 0.1,-1 0.1,-2 0.1,-3.1 0,-0.1 0,-0.2 0,-0.4 0,-0.3 0,-0.6 0,-0.9 0,-0.2 0,-0.3 0,-0.5 0,-0.3 0,-0.6 0,-0.9 0,-0.2 0,-0.3 0,-0.5 0,-0.6 0,-1.2 -0.1,-1.8 0,-0.2 0,-0.3 0,-0.5 0,-0.3 0,-0.6 -0.1,-0.9 0,-0.2 0,-0.4 -0.1,-0.7 0,-0.3 -0.1,-0.6 -0.1,-0.9 0,-0.2 0,-0.5 -0.1,-0.7 0,-0.3 -0.1,-0.6 -0.1,-0.9 0,-0.3 -0.1,-0.6 -0.1,-0.9 -0.1,-0.4 -0.1,-0.9 -0.2,-1.3 0,-0.3 -0.1,-0.7 -0.1,-1 0,-0.3 -0.1,-0.5 -0.1,-0.8 -0.1,-0.3 -0.1,-0.6 -0.2,-0.9 0,-0.3 -0.1,-0.6 -0.2,-0.8 -0.1,-0.3 -0.1,-0.7 -0.2,-1 -0.1,-0.3 -0.1,-0.5 -0.2,-0.8 -0.1,-0.6 -0.2,-1.2 -0.4,-1.8 0,-0.2 -0.1,-0.4 -0.1,-0.6 -0.1,-0.4 -0.2,-0.9 -0.3,-1.3 -0.1,-0.3 -0.1,-0.6 -0.2,-0.8 -0.1,-0.4 -0.2,-0.8 -0.3,-1.2 -0.1,-0.3 -0.1,-0.6 -0.2,-0.8 -0.1,-0.5 -0.3,-1 -0.4,-1.5 -0.1,-0.2 -0.1,-0.4 -0.2,-0.7 -0.2,-0.7 -0.4,-1.4 -0.6,-2.2 -0.1,-0.2 -0.1,-0.4 -0.2,-0.7 -0.2,-0.5 -0.3,-1.1 -0.5,-1.7 -0.1,-0.3 -0.2,-0.6 -0.3,-0.9 -0.2,-0.5 -0.3,-1.1 -0.5,-1.6 -0.1,-0.3 -0.2,-0.6 -0.3,-0.8 -0.2,-0.7 -0.4,-1.4 -0.7,-2 -0.1,-0.2 -0.1,-0.3 -0.2,-0.5 -0.3,-0.8 -0.6,-1.7 -0.9,-2.6 -0.1,-0.3 -0.2,-0.5 -0.3,-0.8 -0.2,-0.6 -0.5,-1.3 -0.7,-2 -0.1,-0.3 -0.2,-0.6 -0.3,-0.9 -0.2,-0.6 -0.5,-1.3 -0.7,-2 -0.1,-0.3 -0.2,-0.6 -0.3,-0.9 -0.4,-1 -0.7,-1.9 -1.1,-2.9 -0.3,-0.7 -0.5,-1.5 -0.7,-2.5 -0.1,-0.3 -0.1,-0.6 -0.1,-0.9 0,-0.3 -0.1,-0.6 -0.1,-1 0,-0.1 0,-0.2 0,-0.3 0,-0.1 0,-0.3 0,-0.4 0,-0.1 0,-0.2 0,-0.3 0,-0.1 0,-0.3 0,-0.4 0,-0.1 0,-0.2 0,-0.4 0,-0.1 0,-0.3 0,-0.4 0,-0.1 0,-0.3 0,-0.4 0,-0.1 0,-0.2 0,-0.4 0,-0.2 0,-0.3 0.1,-0.5 0,-0.1 0,-0.3 0.1,-0.4 0,-0.2 0.1,-0.4 0.1,-0.5 0,-0.1 0,-0.2 0.1,-0.3 0,-0.1 0.1,-0.3 0.1,-0.4 0,-0.1 0.1,-0.2 0.1,-0.3 0,-0.1 0.1,-0.3 0.1,-0.4 0,-0.1 0.1,-0.2 0.1,-0.3 0.1,-0.1 0.1,-0.3 0.2,-0.4 0,-0.1 0.1,-0.2 0.1,-0.3 0.1,-0.2 0.2,-0.4 0.3,-0.5 0,0 0,-0.1 0.1,-0.1 0,0 0,0 0,0 0.1,-0.2 0.3,-0.4 0.4,-0.6 0,0 0.1,-0.1 0.1,-0.1 0.1,-0.2 0.3,-0.3 0.4,-0.5 0.1,-0.1 0.1,-0.1 0.2,-0.2 0.1,-0.1 0.3,-0.3 0.4,-0.4 0.1,-0.1 0.1,-0.1 0.2,-0.2 0.2,-0.1 0.3,-0.3 0.5,-0.4 0.1,0 0.1,-0.1 0.2,-0.1 0,0 0,0 0,0 0.2,-0.2 0.4,-0.3 0.7,-0.4 0,0 0,0 0,0 0,0 0.1,0 0.1,-0.1 0.2,-0.1 0.5,-0.2 0.7,-0.3 0.1,0 0.1,0 0.2,-0.1 0,0 0,0 0,0 0.2,-0.1 0.4,-0.2 0.7,-0.3 0.1,0 0.2,-0.1 0.3,-0.1 0,0 0.1,0 0.1,0 0.2,-0.1 0.4,-0.1 0.6,-0.2 0.1,0 0.2,-0.1 0.3,-0.1 0.1,0 0.1,0 0.2,0 0.2,0 0.4,-0.1 0.6,-0.1 0.1,0 0.2,0 0.4,-0.1 0.1,0 0.2,0 0.3,0 0.2,0 0.4,0 0.6,-0.1 0.1,0 0.2,0 0.3,0 0.2,0 0.3,0 0.5,0 0.3,0 0.5,0 0.8,0 0.1,0 0.1,0 0.2,0 0.2,0 0.3,0 0.5,0 0.2,0 0.4,0 0.7,0 0.2,0 0.3,0 0.5,0 0.1,0 0.3,0 0.4,0 0.2,0 0.4,0 0.6,0.1 0.2,0 0.4,0 0.6,0.1 0.2,0 0.4,0.1 0.6,0.1 0.1,0 0.3,0 0.4,0.1 0.2,0 0.4,0.1 0.6,0.1 0.3,0.1 0.6,0.1 0.9,0.2 0.1,0 0.2,0 0.3,0.1 0.2,0 0.4,0.1 0.6,0.1 0.6,0.1 1.2,0.3 1.8,0.5 0,0 0,-0.1 0,-0.4 0,-0.1 0,-0.1 0,-0.2 0,-0.1 0,-0.3 0,-0.4 0,-0.3 -0.1,-0.6 -0.2,-1 -0.1,-0.5 -0.3,-1.1 -0.6,-1.7 -0.1,-0.1 -0.1,-0.2 -0.2,-0.4 -0.4,-0.8 -1,-1.8 -1.8,-2.8 -0.5,-0.7 -1.1,-1.4 -1.8,-2.1 -0.3,-0.4 -0.7,-0.7 -1.1,-1.1 -1.3,-1.3 -2.9,-2.7 -5,-4.2 0,0 0,0 0,-0.1 0,0 0,0 0,0 0,-0.1 0,-0.1 -0.1,-0.2 0,0 0,0 0,0 v 0 c -0.1,-0.4 -0.4,-1.1 -0.8,-2.1 -0.1,-0.2 -0.2,-0.4 -0.2,-0.6 -0.2,-0.5 -0.5,-1 -0.7,-1.6 -0.1,-0.2 -0.2,-0.4 -0.3,-0.6 -0.2,-0.4 -0.4,-0.8 -0.6,-1.2 -0.2,-0.5 -0.5,-0.9 -0.8,-1.4 -0.1,-0.2 -0.3,-0.4 -0.4,-0.7 -0.3,-0.5 -0.6,-0.9 -0.9,-1.4 -0.2,-0.3 -0.3,-0.5 -0.5,-0.8 -0.3,-0.4 -0.5,-0.7 -0.8,-1.1 -0.2,-0.2 -0.4,-0.5 -0.5,-0.7 -0.4,-0.5 -0.8,-0.9 -1.2,-1.4 -1.2,-1.3 -2.6,-2.6 -4.1,-3.6 -0.3,-0.2 -0.7,-0.5 -1.1,-0.7 -0.3,-0.2 -0.7,-0.4 -1,-0.6 -0.2,-0.1 -0.4,-0.2 -0.6,-0.3 -1.3,-0.6 -2.7,-1.1 -4.3,-1.4 -0.6,-0.1 -1.3,-0.2 -2,-0.2 -0.3,0 -0.7,0 -1,0 -3.2,0 -6.7,0.9 -10.7,2.9 -0.4,0.2 -0.9,0.5 -1.3,0.7 -2.7,1.6 -5.6,3.7 -8.6,6.5 -2,1.9 -4.2,4 -6.4,6.5 -0.7,0.7 -1.2,1.5 -1.8,2.2 -0.3,0.5 -0.7,1 -0.9,1.5 -0.7,1.3 -1.2,2.6 -1.7,4 -0.2,0.6 -0.3,1.2 -0.4,1.8 -0.1,0.3 -0.1,0.6 -0.2,1 -0.1,0.7 -0.2,1.3 -0.3,2.1 -0.3,2.2 -0.4,4.6 -0.6,7.6 -0.2,5.4 -0.4,12.4 -1.1,21.9 0,0 0,0 0,0 0,0 0,0 0,0 0,0 0,0.1 0,0.1 0,0 0,0 0,0.1 0,0 0,0.1 0,0.1 0,0 0,0.1 0,0.1 0,0 0,0.1 0,0.1 -0.1,0.2 -0.1,0.5 -0.3,0.9 0,0 0,0 0,0 0,0.1 -0.1,0.2 -0.1,0.4 0,0 0,0 0,0.1 -0.1,0.1 -0.1,0.3 -0.2,0.4 0,0 0,0 0,0 0,0.1 -0.1,0.2 -0.1,0.2 -0.4,0.8 -0.9,1.6 -1.3,2.4 0,0.1 -0.1,0.2 -0.1,0.2 -0.4,0.7 -0.9,1.4 -1.3,2.1 -0.1,0.1 -0.1,0.2 -0.2,0.3 -0.4,0.7 -0.9,1.3 -1.4,1.9 -0.1,0.1 -0.1,0.2 -0.2,0.3 -0.5,0.6 -0.9,1.2 -1.4,1.7 -0.1,0.1 -0.1,0.1 -0.2,0.2 0,0 0,0 0,0 -2.2,2.4 -5.1,4.9 -8.8,7.5 0,0 -0.1,0.1 -0.1,0.1 -0.4,0.3 -0.9,0.6 -1.3,0.9 -0.1,0 -0.1,0.1 -0.2,0.1 -0.5,0.3 -0.9,0.6 -1.4,0.9 -0.8,0.5 -1.6,0.9 -2.4,1.4 -7.4,3 -14.1,6 -20.2,9.1 -3.7,1.8 -7.3,3.8 -10.8,5.9 -35.1,20.5 -42.1,39.6 -42.1,39.6 v 0 C 73.4,371.3 112.7,378 112.7,378 Z"
             id="path623"
             inkscape:connector-curvature="0"
             style="fill:#381a04" />
          <g
             id="g685">
            <g
               id="g629">
              <g
                 id="g627">
                <path
                   d="m 284.3,388 -20,0.7 c -1.2,0 -2.2,0.9 -2.5,2.1 -0.3,1.2 0.3,2.4 1.4,2.9 l 16.1,8.3 c 0.4,0.2 0.8,0.3 1.2,0.3 1,0 1.9,-0.5 2.3,-1.4 0.7,-1.3 0.2,-2.9 -1.1,-3.5 l -7.2,-3.7 9.9,-0.4 c 1.4,-0.1 2.6,-1.3 2.5,-2.7 0.1,-1.5 -1.1,-2.6 -2.6,-2.6 z"
                   id="path625"
                   inkscape:connector-curvature="0"
                   style="fill:#de8976" />
              </g>
            </g>
            <g
               id="g635">
              <g
                 id="g633">
                <path
                   d="m 263.5,388.2 -11.9,4.7 c -1.3,0.5 -2,2.1 -1.5,3.4 0.4,1 1.4,1.7 2.4,1.7 0.3,0 0.6,-0.1 1,-0.2 l 11.9,-4.7 c 1.3,-0.5 2,-2.1 1.5,-3.4 -0.5,-1.4 -2,-2 -3.4,-1.5 z"
                   id="path631"
                   inkscape:connector-curvature="0"
                   style="fill:#de8976" />
              </g>
            </g>
            <g
               id="g639">
              <path
                 d="m 263.7,363.1 c -2,-1.2 -4.6,-0.6 -5.8,1.3 -8,12.8 -3.2,23.8 0.4,27.8 0.8,0.9 2,1.4 3.1,1.4 1,0 2,-0.4 2.8,-1.1 1.7,-1.6 1.9,-4.2 0.3,-5.9 -0.1,-0.1 -6.2,-7.1 0.4,-17.8 1.3,-1.9 0.7,-4.5 -1.2,-5.7 z"
                 id="path637"
                 inkscape:connector-curvature="0"
                 style="fill:#de8976" />
            </g>
            <path
               d="m 263.7,363.1 c -2,-1.2 -4.6,-0.6 -5.8,1.3 -3.7,6 -4.7,11.7 -4.2,16.4 2.3,0.8 5.2,1.2 8.5,0.2 -0.5,-3 -0.2,-7.2 2.9,-12.1 1.1,-2 0.5,-4.6 -1.4,-5.8 z"
               id="path641"
               inkscape:connector-curvature="0"
               style="fill:#429699" />
            <g
               id="g647">
              <g
                 id="g645">
                <path
                   d="m 267.7,398.1 -21.9,0.8 c -1.3,0 -2.4,1 -2.7,2.3 -0.3,1.3 0.3,2.6 1.5,3.2 l 17.7,9.1 c 0.4,0.2 0.9,0.3 1.3,0.3 1,0 2.1,-0.6 2.6,-1.6 0.7,-1.4 0.2,-3.2 -1.2,-3.9 l -7.9,-4 10.9,-0.4 c 1.6,-0.1 2.8,-1.4 2.8,-3 -0.2,-1.6 -1.5,-2.8 -3.1,-2.8 z"
                   id="path643"
                   inkscape:connector-curvature="0"
                   style="fill:#ed917d" />
              </g>
            </g>
            <g
               id="g653">
              <g
                 id="g651">
                <path
                   d="m 244.8,398.3 -13,5.1 c -1.5,0.6 -2.2,2.3 -1.6,3.7 0.4,1.1 1.5,1.8 2.7,1.8 0.4,0 0.7,-0.1 1.1,-0.2 l 13,-5.1 c 1.5,-0.6 2.2,-2.3 1.6,-3.7 -0.7,-1.4 -2.3,-2.2 -3.8,-1.6 z"
                   id="path649"
                   inkscape:connector-curvature="0"
                   style="fill:#ed917d" />
              </g>
            </g>
            <path
               d="m 312.9,214.9 c 0,0 -13.6,-43.6 -48.9,-4.1 -7.1,7.9 -5,14.3 -6.9,42 0,0 -2.7,16.3 -32.4,27.8 -29.7,11.4 -58,37.6 -63,51.9 0,0 -19,31.5 23.6,46.2 0,0 105.2,32.6 128.8,-72.2 3.1,-13.8 3.8,-27.7 -9.5,-62.4 -2.1,-5.5 -2.8,-20.8 18.8,-14.9 0,0 1.2,-5.7 -10.5,-14.3 z"
               id="path655"
               inkscape:connector-curvature="0"
               style="fill:#5b4d55" />
            <path
               d="m 140.3,367.3 c -7.7,6.2 -24.4,15.2 -33.1,19.3 -3.3,1.6 -21.5,9.9 1.2,14.5 27.4,5.7 77.6,-32.1 77.6,-32.1 -4.5,-5.5 -37.9,-7.9 -45.7,-1.7 z"
               id="path657"
               inkscape:connector-curvature="0"
               style="fill:#6e5f68" />
            <path
               d="m 312.9,214.9 c 0,0 -13.6,-43.6 -48.9,-4.1 -7.1,7.9 -5,14.3 -6.9,42 0,0 -1.9,11 -18.9,21.3 0.5,18.6 7,37.4 27.6,47.7 32.8,16.4 45.2,-6.4 49.8,-24.2 1.3,-11.6 -0.5,-26.1 -11.1,-53.5 -2.1,-5.5 -2.8,-20.8 18.8,-14.9 0.1,0 1.3,-5.7 -10.4,-14.3 z"
               id="path659"
               inkscape:connector-curvature="0"
               style="fill:#429699" />
            <path
               d="m 256.2,255.4 c -8,15.6 -20.4,20 -20.4,20 -63.2,27.7 -73.1,54.6 -73.1,54.6 -98.3,33.9 -59,40.6 -59,40.6 70.8,8.6 120.5,-1.9 146.9,-15 26.5,-13.1 26.5,-31 16.7,-53.4 -9.7,-22.4 -11.1,-46.8 -11.1,-46.8 z"
               id="path661"
               inkscape:connector-curvature="0"
               style="fill:#b8969c" />
            <path
               d="m 312.9,214.9 c 0,0 -13.6,-43.6 -48.9,-4.1 -0.2,0.2 -0.4,0.4 -0.6,0.7 3.5,10.5 13.4,28.3 40.3,29.3 -0.9,-6.6 1.5,-16.6 19.6,-11.6 0.1,0 1.3,-5.7 -10.4,-14.3 z"
               id="path663"
               inkscape:connector-curvature="0"
               style="fill:#54bec2" />
            <path
               d="m 312.9,214.9 c 0,0 0,-0.1 -0.1,-0.3 -3.6,2.5 -10.4,8.5 -7.7,17.7 2.3,-3.8 7.5,-6.1 18.3,-3.1 0,0 1.2,-5.7 -10.5,-14.3 z"
               id="path665"
               inkscape:connector-curvature="0"
               style="fill:#6a6d7d" />
            <circle
               transform="matrix(0.9969,-0.07818318,0.07818318,0.9969,-15.934,23.4597)"
               cx="291.60001"
               cy="215.2"
               id="circle667"
               r="4.5"
               style="fill:#ffffff" />
            <circle
               transform="matrix(0.9969,-0.07819314,0.07819314,0.9969,-15.936,23.4628)"
               cx="291.60001"
               cy="215.2"
               id="circle669"
               r="2.7"
               style="fill:#6a6d7d" />
            <path
               d="m 256.2,255.4 c -8,15.6 -20.4,20 -20.4,20 -62.4,25 -73.1,54.6 -73.1,54.6 -1,0.3 19.1,33 80.9,28.8 2.5,-1 4.8,-2.1 7,-3.2 26.5,-13.1 26.5,-31 16.7,-53.4 -9.7,-22.4 -11.1,-46.8 -11.1,-46.8 z"
               id="path671"
               inkscape:connector-curvature="0"
               style="fill:#b6b2a2" />
            <path
               d="m 256.2,255.4 c -3.7,7.2 -8.3,12 -12.2,15.1 1.6,8.6 4.1,19.3 8.8,29.6 24,52.7 -39.5,57.1 -46.3,56.5 10.2,2.2 22.5,3.3 37.1,2.3 2.5,-1 4.8,-2.1 7,-3.2 26.5,-13.1 26.5,-31 16.7,-53.4 -9.7,-22.5 -11.1,-46.9 -11.1,-46.9 z"
               id="path673"
               inkscape:connector-curvature="0"
               style="fill:#a6a394" />
            <path
               d="m 234.3,319 c -4.3,-3.2 -6.6,-7.7 -5.9,-11.2 0,0 0,0 0,0 0,0 0,0 0,0 -3.1,1.6 -8.1,0.8 -12.4,-2.4 -4.3,-3.2 -6.6,-7.7 -5.9,-11.2 -0.7,0.4 -1.3,0.9 -1.8,1.5 -2.5,3.4 -0.3,9.4 5,13.3 4.3,3.2 9.3,4 12.4,2.4 -0.7,3.4 1.6,8 5.9,11.2 5.3,3.9 11.6,4.3 14.2,0.9 0.5,-0.6 0.8,-1.4 0.9,-2.1 -3.1,1.6 -8.1,0.7 -12.4,-2.4 z"
               id="path675"
               inkscape:connector-curvature="0"
               style="fill:#838075" />
            <path
               d="m 227.8,342.4 c -4,-3.2 -6.1,-7.7 -5.4,-11 0,0 0,-0.1 0,-0.1 0,0 0,0 0,0 0,0 0,0 0,0 0,0 -0.1,0 -0.1,0 -3.1,1.4 -7.8,0.4 -11.9,-2.8 -4.1,-3.3 -6.1,-7.7 -5.4,-11.1 0,0 0,0 0,0 0,0 0,0 0,0 -3.1,1.5 -7.9,0.5 -12,-2.8 -4.1,-3.3 -6.1,-7.7 -5.4,-11.1 -0.7,0.3 -1.3,0.8 -1.8,1.4 -2.6,3.2 -0.6,9.1 4.4,13.1 4.1,3.3 8.9,4.3 12,2.7 -0.8,3.3 1.3,7.8 5.4,11.1 4.1,3.2 8.9,4.2 12,2.8 -0.8,3.3 1.3,7.8 5.4,11 5,4 11.2,4.6 13.8,1.3 0.5,-0.6 0.8,-1.3 1,-2 -3.1,1.8 -7.9,0.8 -12,-2.5 z"
               id="path677"
               inkscape:connector-curvature="0"
               style="fill:#838075" />
            <g
               id="g681">
              <path
                 d="m 244.9,370.7 c -2.2,-1.3 -5,-0.7 -6.4,1.5 -8.7,14.1 -3.5,26.2 0.5,30.6 0.9,1 2.2,1.5 3.4,1.5 1.1,0 2.2,-0.4 3.1,-1.2 1.9,-1.7 2,-4.6 0.3,-6.5 -0.1,-0.1 -6.8,-7.8 0.5,-19.6 1.5,-2.1 0.8,-5 -1.4,-6.3 z"
                 id="path679"
                 inkscape:connector-curvature="0"
                 style="fill:#ed917d" />
            </g>
            <path
               d="m 244.9,370.7 c -2.2,-1.3 -5,-0.7 -6.4,1.5 -4.1,6.6 -5.1,12.8 -4.6,18 2.5,0.9 5.8,1.3 9.3,0.2 -0.6,-3.4 -0.2,-7.9 3.2,-13.3 1.4,-2.2 0.7,-5.1 -1.5,-6.4 z"
               id="path683"
               inkscape:connector-curvature="0"
               style="fill:#429699" />
          </g>
        </g>
      </g>
    </clipPath>
  </defs>
  <sodipodi:namedview
     id="base"
     pagecolor="#ffffff"
     bordercolor="#666666"
     borderopacity="1.0"
     inkscape:pageopacity="0.0"
     inkscape:pageshadow="2"
     inkscape:zoom="0.35"
     inkscape:cx="-155.09307"
     inkscape:cy="29.764096"
     inkscape:document-units="mm"
     inkscape:current-layer="layer1"
     showgrid="false"
     inkscape:window-width="1920"
     inkscape:window-height="1017"
     inkscape:window-x="-8"
     inkscape:window-y="-8"
     inkscape:window-maximized="1"
     fit-margin-top="0"
     fit-margin-left="0"
     fit-margin-right="0"
     fit-margin-bottom="0" />
  <metadata
     id="metadata540">
    <rdf:RDF>
      <cc:Work
         rdf:about="">
        <dc:format>image/svg+xml</dc:format>
        <dc:type
           rdf:resource="http://purl.org/dc/dcmitype/StillImage" />
        <dc:title></dc:title>
      </cc:Work>
    </rdf:RDF>
  </metadata>
  <g
     inkscape:label="Layer 1"
     inkscape:groupmode="layer"
     id="layer1"
     transform="translate(-31.207659,-30.081361)">
    <path
       style="fill:#381a04;stroke-width:0.26458332"
       inkscape:connector-curvature="0"
       id="path12"
       d="m 102.989,37.727821 h -6.508746 c -0.60854,-2.88396 -3.175,-5.02709 -6.21771,-5.02709 v 0 c -3.51896,0 -6.37646,2.8575 -6.37646,6.37646 v 9.76313 c 0,0 0,-0.0265 -0.0265,-0.0265 -1.71979,0.50271 -30.42708,9.33979 -49.50353,29.92437 -1.13771,1.21709 -0.21167,3.22792 1.4552,3.14855 10.71563,-0.39688 22.11917,-0.0265 31.40604,-1.85209 h 3.9423 v 12.80584 c -0.97896,0.47625 -2.54,1.40229 -3.88938,2.24895 -0.55562,0.34396 -0.26458,1.21709 0.39688,1.13771 2.43416,-0.3175 6.19125,-0.55562 10.87437,-0.0794 0.47625,0.0529 0.66146,-0.58208 0.23813,-0.79375 -0.60855,-0.3175 -1.29646,-0.66146 -1.98438,-0.97896 1.56104,0 3.28083,0.0794 5.15938,0.26459 0.47625,0.0529 0.66145,-0.58209 0.23812,-0.79375 -1.69333,-0.87313 -4.07458,-2.03729 -5.60917,-2.54 v -11.21834 h 1.79917 c 0,0 18.25625,-4.04813 18.25625,-18.97063 v -19.94958 h 9.736666 c 0,-1.905 -1.53459,-3.43958 -3.38667,-3.43958 z m -28.469166,53.60458 c -0.39687,0.18521 -0.87312,0.44979 -1.37583,0.74083 v -12.01208 h 1.37583 z" />
    <g
       transform="matrix(0.26458333,0,0,0.26458333,-87.034741,-15.903222)"
       id="g198">
      <path
         style="fill:#d4b364"
         inkscape:connector-curvature="0"
         id="path180"
         d="m 629.5,404.7 c -6.4,-3.3 -15.4,-7.7 -21.2,-9.6 v -52.9 c 0,-2.1 -1.7,-3.8 -3.8,-3.8 -2.1,0 -3.8,1.7 -3.8,3.8 v 53.1 c -3.7,1.8 -9.6,5.3 -14.7,8.5 -2.1,1.3 -1,4.6 1.5,4.3 9.2,-1.2 23.4,-2.1 41.1,-0.3 1.8,0.1 2.5,-2.3 0.9,-3.1 z" />
      <path
         style="fill:#fbd476"
         inkscape:connector-curvature="0"
         id="path182"
         d="m 616.6,410.4 c -6.4,-3.3 -15.4,-7.7 -21.2,-9.6 v -52.9 c 0,-2.1 -1.7,-3.8 -3.8,-3.8 -2.1,0 -3.8,1.7 -3.8,3.8 V 401 c -3.7,1.8 -9.6,5.3 -14.7,8.5 -2.1,1.3 -1,4.6 1.5,4.3 9.2,-1.2 23.4,-2.1 41.1,-0.3 1.8,0.1 2.5,-2.3 0.9,-3.1 z" />
      <path
         style="fill:#fcb344"
         inkscape:connector-curvature="0"
         id="path184"
         d="m 708.2,192.7 h -27 v 12.8 H 721 c 0,-7 -5.8,-12.8 -12.8,-12.8 z" />
      <path
         style="fill:#e6e3e6"
         inkscape:connector-curvature="0"
         id="path186"
         d="m 660,173.8 v 0 c -13.3,0 -24.1,10.8 -24.1,24.1 v 38.3 c 0,0 -113.9,33.2 -162.7,116.5 H 615 c 0,0 69,-15.3 69,-71.7 v -83.1 c 0.1,-13.4 -10.7,-24.1 -24,-24.1 z" />
      <path
         style="fill:#7e7275"
         inkscape:connector-curvature="0"
         id="path188"
         d="m 448.8,347.7 c -4.3,4.6 -0.8,12.2 5.5,11.9 75.6,-2.8 160.1,4.4 184.9,-50.6 16.2,-35.9 5.6,-61.4 -3.3,-74.4 -6.5,1.9 -115.1,35.3 -187.1,113.1 z" />
      <circle
         style="fill:#ffffff"
         id="circle190"
         r="6"
         cy="189.8"
         cx="663.90002" />
      <circle
         id="circle192"
         r="2.9000001"
         cy="189.8"
         cx="663.90002" />
      <path
         style="fill:#695f61"
         inkscape:connector-curvature="0"
         id="path194"
         d="m 574.8,333.4 c -6.4,-1.2 -11.5,-4.3 -12.7,-7.3 0,0 0,0 0,0 0,0 0,0 0,0 -2.3,2.4 -8.1,3.4 -14.5,2.2 -6.4,-1.2 -11.5,-4.3 -12.7,-7.3 0,0 0,0 0,0 0,0 0,0 0,0 -2.3,2.4 -8.1,3.4 -14.5,2.2 -6.4,-1.2 -11.5,-4.3 -12.7,-7.3 -0.5,0.5 -0.8,1.1 -1,1.8 -0.7,3.7 5.1,7.9 12.9,9.4 6.4,1.2 12.2,0.2 14.5,-2.2 1.2,3.1 6.3,6.2 12.7,7.4 6.4,1.2 12.2,0.2 14.5,-2.2 1.2,3.1 6.3,6.2 12.7,7.4 7.8,1.5 14.8,-0.3 15.5,-4 0.1,-0.7 0,-1.4 -0.2,-2.1 -2.2,2.2 -8,3.2 -14.5,2 z" />
      <path
         style="fill:#695f61"
         inkscape:connector-curvature="0"
         id="path196"
         d="m 582.1,299.6 c -6.5,-0.5 -11.9,-2.9 -13.4,-5.9 0,0 0,0 0,0 0,0 0,0 0,0 -2,2.7 -7.6,4.3 -14.2,3.8 -6.5,-0.5 -11.9,-2.9 -13.4,-5.9 -0.4,0.6 -0.7,1.2 -0.8,1.9 -0.3,3.8 5.9,7.3 13.9,7.9 6.5,0.5 12.2,-1.2 14.2,-3.8 1.6,2.9 6.9,5.4 13.5,5.9 8,0.6 14.6,-2 14.9,-5.7 0.1,-0.7 -0.1,-1.4 -0.5,-2 -2,2.6 -7.7,4.2 -14.2,3.8 z" />
    </g>
  </g>
</svg>
