<svg xmlns="http://www.w3.org/2000/svg" viewBox="0 0 90 90"><defs><style>.cls-1{fill:#87613e;}.cls-2{fill:#ffd900;}.cls-3{fill:#ffa400;}.cls-4{fill:#444;}</style></defs><title>yellow-bird</title><g id="yellow-bird"><path class="cls-1" d="M42,77.06h-5V64.95a1.41,1.41,0,1,0-2.83,0V77.89l-.88.88a1.43,1.43,0,0,0,0,2,1.41,1.41,0,0,0,2,0l.93-.94,2.22,2.24a1.41,1.41,0,0,0,2,0,1.43,1.43,0,0,0,0-2l-.17-.17H42a1.42,1.42,0,0,0,0-2.84Z"/><path class="cls-1" d="M55.63,77.06h-5V64.95a1.41,1.41,0,1,0-2.83,0V77.89l-.88.89a1.42,1.42,0,0,0,1,2.43,1.41,1.41,0,0,0,1-.42l.93-.94L52,82.08a1.41,1.41,0,0,0,2,0,1.43,1.43,0,0,0,0-2l-.17-.17h1.75a1.42,1.42,0,0,0,0-2.84Z"/><path class="cls-2" d="M29.63,31.73C40.84-3,80.17,1.82,77.81,32.06,68.86,81,12.39,66.91,7.5,46.52,8.55,44.53,25.77,45.06,29.63,31.73Z"/><path class="cls-3" d="M47.63,39.75l.23.4S26.17,63.29,13.45,29.44C43.35,25.07,47.63,39.75,47.63,39.75Z"/><path class="cls-3" d="M82,19.25s-7.26,4.08-8,5.24a2.33,2.33,0,0,0,.12,3.14c1.79,1.77,8.41,3.71,8.41,3.71l-2.68-5.57Z"/><ellipse class="cls-4" cx="63.55" cy="24.68" rx="2.52" ry="2.53"/></g></svg>