<?xml version="1.0" encoding="UTF-8" standalone="no"?>
<svg
   xmlns:dc="http://purl.org/dc/elements/1.1/"
   xmlns:cc="http://creativecommons.org/ns#"
   xmlns:rdf="http://www.w3.org/1999/02/22-rdf-syntax-ns#"
   xmlns:svg="http://www.w3.org/2000/svg"
   xmlns="http://www.w3.org/2000/svg"
   xml:space="preserve"
   enable-background="new 0 0 1400 980"
   viewBox="0 0 284.09958 250.01918"
   height="250.01918"
   width="284.09958"
   y="0px"
   x="0px"
   id="Layer_1"
   version="1.0"><metadata
   id="metadata269"><rdf:RDF><cc:Work
       rdf:about=""><dc:format>image/svg+xml</dc:format><dc:type
         rdf:resource="http://purl.org/dc/dcmitype/StillImage" /><dc:title></dc:title></cc:Work></rdf:RDF></metadata><defs
   id="defs267">
	
	
	
	
	
	
	
	

	
	
	
	
	
	
	
	
</defs>

<path
   d="m 271.29958,28.9 h -24.6 c -2.3,-10.9 -12,-19 -23.5,-19 v 0 c -13.3,0 -24.1,10.8 -24.1,24.1 v 36.9 c 0,0 0,-0.1 -0.1,-0.1 -6.5,1.9 -114.999996,35.3 -187.099996,113.1 -4.2999998,4.6 -0.8,12.2 5.5,11.9 40.5,-1.5 83.599996,-0.1 118.699996,-7 h 14.9 v 48.4 c -3.7,1.8 -9.6,5.3 -14.7,8.5 -2.1,1.3 -1,4.6 1.5,4.3 9.2,-1.2 23.4,-2.1 41.1,-0.3 1.8,0.2 2.5,-2.2 0.9,-3 -2.3,-1.2 -4.9,-2.5 -7.5,-3.7 5.9,0 12.4,0.3 19.5,1 1.8,0.2 2.5,-2.2 0.9,-3 -6.4,-3.3 -15.4,-7.7 -21.2,-9.6 V 189 h 6.8 c 0,0 69,-15.3 69,-71.7 V 41.9 h 36.8 c 0,-7.2 -5.8,-13 -12.8,-13 z m -107.6,202.6 c -1.5,0.7 -3.3,1.7 -5.2,2.8 v -45.4 h 5.2 z"
   id="path12"
   style="fill:#381a04" />
<g
   transform="translate(-446.90042,-173.8)"
   id="g198">
		<path
   d="m 629.5,404.7 c -6.4,-3.3 -15.4,-7.7 -21.2,-9.6 v -52.9 c 0,-2.1 -1.7,-3.8 -3.8,-3.8 -2.1,0 -3.8,1.7 -3.8,3.8 v 53.1 c -3.7,1.8 -9.6,5.3 -14.7,8.5 -2.1,1.3 -1,4.6 1.5,4.3 9.2,-1.2 23.4,-2.1 41.1,-0.3 1.8,0.1 2.5,-2.3 0.9,-3.1 z"
   id="path180"
   style="fill:#d4b364" />
		<path
   d="m 616.6,410.4 c -6.4,-3.3 -15.4,-7.7 -21.2,-9.6 v -52.9 c 0,-2.1 -1.7,-3.8 -3.8,-3.8 -2.1,0 -3.8,1.7 -3.8,3.8 V 401 c -3.7,1.8 -9.6,5.3 -14.7,8.5 -2.1,1.3 -1,4.6 1.5,4.3 9.2,-1.2 23.4,-2.1 41.1,-0.3 1.8,0.1 2.5,-2.3 0.9,-3.1 z"
   id="path182"
   style="fill:#fbd476" />
		<path
   d="m 708.2,192.7 h -27 v 12.8 H 721 c 0,-7 -5.8,-12.8 -12.8,-12.8 z"
   id="path184"
   style="fill:#fcb344" />
		<path
   d="m 660,173.8 v 0 c -13.3,0 -24.1,10.8 -24.1,24.1 v 38.3 c 0,0 -113.9,33.2 -162.7,116.5 H 615 c 0,0 69,-15.3 69,-71.7 v -83.1 c 0.1,-13.4 -10.7,-24.1 -24,-24.1 z"
   id="path186"
   style="fill:#e6e3e6" />
		<path
   d="m 448.8,347.7 c -4.3,4.6 -0.8,12.2 5.5,11.9 75.6,-2.8 160.1,4.4 184.9,-50.6 16.2,-35.9 5.6,-61.4 -3.3,-74.4 -6.5,1.9 -115.1,35.3 -187.1,113.1 z"
   id="path188"
   style="fill:#7e7275" />
		<circle
   cx="663.90002"
   cy="189.8"
   r="6"
   id="circle190"
   style="fill:#ffffff" />
		<circle
   cx="663.90002"
   cy="189.8"
   r="2.9000001"
   id="circle192" />
		<path
   d="m 574.8,333.4 c -6.4,-1.2 -11.5,-4.3 -12.7,-7.3 0,0 0,0 0,0 0,0 0,0 0,0 -2.3,2.4 -8.1,3.4 -14.5,2.2 -6.4,-1.2 -11.5,-4.3 -12.7,-7.3 0,0 0,0 0,0 0,0 0,0 0,0 -2.3,2.4 -8.1,3.4 -14.5,2.2 -6.4,-1.2 -11.5,-4.3 -12.7,-7.3 -0.5,0.5 -0.8,1.1 -1,1.8 -0.7,3.7 5.1,7.9 12.9,9.4 6.4,1.2 12.2,0.2 14.5,-2.2 1.2,3.1 6.3,6.2 12.7,7.4 6.4,1.2 12.2,0.2 14.5,-2.2 1.2,3.1 6.3,6.2 12.7,7.4 7.8,1.5 14.8,-0.3 15.5,-4 0.1,-0.7 0,-1.4 -0.2,-2.1 -2.2,2.2 -8,3.2 -14.5,2 z"
   id="path194"
   style="fill:#695f61" />
		<path
   d="m 582.1,299.6 c -6.5,-0.5 -11.9,-2.9 -13.4,-5.9 0,0 0,0 0,0 0,0 0,0 0,0 -2,2.7 -7.6,4.3 -14.2,3.8 -6.5,-0.5 -11.9,-2.9 -13.4,-5.9 -0.4,0.6 -0.7,1.2 -0.8,1.9 -0.3,3.8 5.9,7.3 13.9,7.9 6.5,0.5 12.2,-1.2 14.2,-3.8 1.6,2.9 6.9,5.4 13.5,5.9 8,0.6 14.6,-2 14.9,-5.7 0.1,-0.7 -0.1,-1.4 -0.5,-2 -2,2.6 -7.7,4.2 -14.2,3.8 z"
   id="path196"
   style="fill:#695f61" />
	</g>
</svg>