<?xml version="1.0" encoding="UTF-8" standalone="no"?>
<svg
   xmlns:dc="http://purl.org/dc/elements/1.1/"
   xmlns:cc="http://creativecommons.org/ns#"
   xmlns:rdf="http://www.w3.org/1999/02/22-rdf-syntax-ns#"
   xmlns:svg="http://www.w3.org/2000/svg"
   xmlns="http://www.w3.org/2000/svg"
   xml:space="preserve"
   enable-background="new 0 0 1400 980"
   viewBox="0 0 249.12784 212.3"
   height="212.3"
   width="249.12784"
   y="0px"
   x="0px"
   id="Layer_1"
   version="1.0"><metadata
   id="metadata269"><rdf:RDF><cc:Work
       rdf:about=""><dc:format>image/svg+xml</dc:format><dc:type
         rdf:resource="http://purl.org/dc/dcmitype/StillImage" /><dc:title></dc:title></cc:Work></rdf:RDF></metadata><defs
   id="defs267">
	
	
	
	
	
	
	
	

	
	
	
	
	
	
	
	
</defs>

<path
   d="M 247.6,57.5 204.5,42 c 0,-17.7 -14.3,-32.1 -32,-32.1 -1.1,0 -105.9,13.5 -105.9,13.5 -3,0.7 -6,1.6 -8.8,2.7 0,0 0,0 0,0 0,0 0,0 0,0 -0.2,0.1 -0.4,0.1 -0.5,0.2 -0.7,0.3 -1.5,0.6 -2.2,0.9 -0.3,0.1 -0.7,0.3 -1,0.4 -0.6,0.2 -1.1,0.5 -1.7,0.7 -0.4,0.2 -0.7,0.4 -1.1,0.5 -0.5,0.2 -1,0.5 -1.5,0.8 -0.4,0.2 -0.7,0.4 -1.1,0.6 -0.5,0.3 -1,0.5 -1.4,0.8 -0.4,0.2 -0.7,0.4 -1.1,0.6 -0.5,0.3 -0.9,0.6 -1.4,0.8 -0.4,0.2 -0.7,0.5 -1.1,0.7 -0.5,0.3 -0.9,0.6 -1.4,0.9 -0.4,0.2 -0.7,0.5 -1,0.7 -0.5,0.3 -0.9,0.6 -1.3,1 -0.3,0.2 -0.7,0.5 -1,0.7 -0.5,0.4 -0.9,0.7 -1.4,1.1 -0.3,0.2 -0.6,0.5 -0.9,0.7 -0.5,0.4 -1,0.9 -1.5,1.3 -0.2,0.2 -0.4,0.4 -0.6,0.6 -0.7,0.6 -1.4,1.3 -2.1,1.9 -0.2,0.2 -0.4,0.4 -0.6,0.6 -0.5,0.5 -1,1 -1.4,1.5 -0.3,0.3 -0.5,0.6 -0.8,0.8 -0.4,0.4 -0.8,0.9 -1.2,1.3 -0.3,0.3 -0.5,0.6 -0.8,0.9 -0.4,0.4 -0.7,0.8 -1.1,1.3 -0.3,0.3 -0.5,0.7 -0.8,1 -0.3,0.4 -0.7,0.9 -1,1.3 -0.3,0.3 -0.5,0.7 -0.8,1 -0.3,0.4 -0.6,0.9 -0.9,1.3 -0.2,0.3 -0.5,0.7 -0.7,1.1 -0.3,0.5 -0.6,0.9 -0.9,1.4 -0.2,0.4 -0.4,0.7 -0.7,1.1 -0.3,0.5 -0.6,1 -0.9,1.5 -0.2,0.3 -0.4,0.7 -0.6,1 -0.3,0.5 -0.6,1.1 -0.9,1.6 -0.2,0.3 -0.3,0.6 -0.5,0.9 -0.4,0.7 -0.7,1.4 -1,2.1 -0.1,0.2 -0.2,0.3 -0.2,0.5 -0.4,0.9 -0.8,1.8 -1.2,2.7 -0.1,0.3 -0.2,0.6 -0.3,0.8 -0.2,0.6 -0.5,1.3 -0.7,1.9 -0.1,0.4 -0.2,0.7 -0.4,1.1 -0.2,0.6 -0.4,1.1 -0.6,1.7 -0.1,0.4 -0.2,0.8 -0.4,1.2 -0.2,0.6 -0.3,1.1 -0.5,1.7 -0.1,0.4 -0.2,0.8 -0.3,1.2 -0.1,0.6 -0.3,1.1 -0.4,1.7 -0.1,0.4 -0.2,0.8 -0.3,1.3 -0.1,0.6 -0.2,1.1 -0.3,1.7 -0.1,0.4 -0.2,0.8 -0.2,1.3 -0.1,0.6 -0.2,1.2 -0.3,1.7 -0.1,0.4 -0.1,0.8 -0.2,1.3 -0.1,0.6 -0.1,1.2 -0.2,1.8 0,0.4 -0.1,0.8 -0.1,1.2 -0.1,0.7 -0.1,1.4 -0.1,2 0,0.3 0,0.7 -0.1,1 0,1 -0.1,2.1 -0.1,3.1 0,10.1 2,19.7 5.8,28.5 0.9,2.2 2,4.3 3.1,6.4 0.6,1 1.2,2.1 1.8,3.1 2.8,4.7 6.2,9 10,12.9 l -4.3,11.9 c -0.1,0.2 -0.1,0.5 -0.1,0.7 0,0.8 0.4,1.7 1.1,2.1 l 5.2,3 -4.2,8.4 c -4.2,8.3 -1.6,18.4 6,23.7 L 54.1,209 c 3,2.1 6.7,3.3 10.4,3.3 h 32 5.9 32 c 2.5,0 4,-2.8 2.6,-4.9 l -1.1,-1.6 c -3.3,-4.8 -8.8,-7.7 -14.7,-7.7 h -20.8 c -1.2,0 -2.3,-0.4 -3.2,-1.1 L 78.3,183.3 c -2.3,-1.6 -2.9,-4.7 -1.6,-7.2 l 4.7,-8.5 c 0.7,0 1.3,0 2,0 v 0 0 c 0.8,0 1.7,0 2.5,0 0.8,0 1.6,-0.1 2.4,-0.1 0,0 0,0 0,0 v 0 c 28.1,-1.9 51.8,-19.6 62.3,-44.3 l 30.7,-50.7 c 0,0 9.6,-2.6 16.5,-10.9 h 11.7 v 0 H 247 c 2.4,0.4 3,-3.2 0.6,-4.1 z m -181.4,138 4.1,2.9 H 68.2 C 67,198.4 65.9,198 65,197.3 L 46.1,183.6 c -2.3,-1.6 -2.9,-4.7 -1.6,-7.2 l 2.5,-4.6 2.9,1.7 c 1,0.6 2.3,0.3 3,-0.6 l 6.6,-8.8 c 1.3,0.5 2.7,0.9 4,1.2 l -3.3,6.4 c -4.1,8.3 -1.6,18.5 6,23.8 z"
   id="path4"
   style="fill:#381a04" />
<g
   transform="translate(-1079.5,-211.3)"
   id="g58">
		<path
   d="m 1205.3,407.3 c -3.3,-4.8 -8.8,-7.7 -14.7,-7.7 h -20.8 c -1.2,0 -2.3,-0.4 -3.2,-1.1 l -18.9,-13.7 c -2.3,-1.6 -2.9,-4.7 -1.6,-7.2 l 15.5,-28.2 -15.8,-8.2 -16,31.7 c -4.2,8.3 -1.6,18.4 6,23.7 l 19.7,13.7 c 3,2.1 6.7,3.3 10.4,3.3 h 38 c 2.5,0 4,-2.8 2.6,-4.9 z"
   id="path22"
   style="fill:#d1aea3" />
		<path
   d="m 1241.9,211.3 c -1.1,0 -105.9,13.5 -105.9,13.5 -32.4,7.5 -56.5,36.6 -56.5,71.3 0,40.4 32.8,73.2 73.2,73.2 30.2,0 56.1,-18.3 67.3,-44.4 l 30.7,-50.7 c 0,0 23.3,-6.2 23.3,-30.9 -0.1,-17.7 -14.4,-32 -32.1,-32 z"
   id="path24"
   style="fill:#405766" />
		<path
   d="m 1089.6,293.3 c 0,-28 15.1,-52.5 37.6,-65.8 -27.9,10.3 -47.7,37.2 -47.7,68.6 0,40.4 32.8,73.2 73.2,73.2 1.7,0 3.3,-0.1 4.9,-0.2 -38.2,-4.1 -68,-36.5 -68,-75.8 z"
   id="path26"
   style="fill:#2f3f4a" />
		<circle
   cx="1249.6"
   cy="232"
   id="ellipse28"
   r="3.8"
   style="fill:#2f3f4a" />
		<path
   d="M 1317.1,258.8 1274,243.3 c 0,0 -10.5,-3.4 -14.5,7 -4,10.4 7.5,13 7.5,13 h 49.3 c 2.6,0 3.2,-3.6 0.8,-4.5 z"
   id="path30"
   style="fill:#e8c1b5" />
		<path
   d="m 1271.3,250.3 c 1.2,-3.2 3.1,-5 5,-6.1 l -2.3,-0.8 c 0,0 -10.5,-3.4 -14.5,7 -4,10.4 7.5,13 7.5,13 h 11.8 c 0,-0.1 -11.6,-2.7 -7.5,-13.1 z"
   id="path32"
   style="fill:#cca396" />
		<path
   d="m 1173.2,407.3 c -3.3,-4.8 -8.8,-7.7 -14.7,-7.7 h -20.8 c -1.2,0 -2.3,-0.4 -3.2,-1.1 l -18.9,-13.7 c -2.3,-1.6 -2.9,-4.7 -1.6,-7.2 l 15.5,-28.2 -15.8,-8.2 -16,31.7 c -4.2,8.3 -1.6,18.4 6,23.7 l 19.7,13.7 c 3,2.1 6.7,3.3 10.4,3.3 h 38 c 2.5,0 4,-2.8 2.6,-4.9 z"
   id="path34"
   style="fill:#e8c1b5" />
		<path
   d="m 1126.4,324.4 -13.1,-7.1 c -1.1,-0.6 -2.4,-0.1 -2.8,1.1 l -14.6,40.5 c -0.4,1.1 0,2.2 1,2.8 l 22.7,13.1 c 1,0.6 2.3,0.3 3,-0.6 l 11.5,-15.3 c 8.3,-11.5 4.8,-27.8 -7.7,-34.5 z"
   id="path36"
   style="fill:#334452" />
		<path
   d="m 1114.5,318 -1.3,-0.7 c -1.1,-0.6 -2.4,-0.1 -2.8,1.1 l -14.6,40.5 c -0.4,1.1 0,2.2 1,2.8 l 6.7,3.9 14.7,-37.5 c 1.5,-3.8 -0.1,-8.2 -3.7,-10.1 z"
   id="path38"
   style="fill:#2f3f4a" />
		<path
   d="m 1176.1,233 -20.9,3.5 c -2.1,0.3 -3.4,2.3 -3.1,4.3 0.3,1.8 1.9,3.2 3.7,3.2 0.2,0 0.4,0 0.6,-0.1 l 20.9,-3.5 c 2.1,-0.3 3.4,-2.3 3.1,-4.3 -0.3,-2.1 -2.2,-3.4 -4.3,-3.1 z"
   id="path40"
   style="fill:#2f3f4a" />
		<path
   d="m 1145.1,250.8 -20.3,6.1 c -2,0.6 -3.1,2.7 -2.5,4.7 0.5,1.6 2,2.7 3.6,2.7 0.4,0 0.7,-0.1 1.1,-0.2 l 20.3,-6.1 c 2,-0.6 3.1,-2.7 2.5,-4.7 -0.6,-2 -2.7,-3.1 -4.7,-2.5 z"
   id="path42"
   style="fill:#2f3f4a" />
		<path
   d="m 1222.3,293.7 c -1.6,-1.3 -4,-1 -5.3,0.6 l -13.1,16.7 c -1.3,1.6 -1,4 0.6,5.3 0.7,0.5 1.5,0.8 2.3,0.8 1.1,0 2.2,-0.5 3,-1.4 L 1223,299 c 1.3,-1.6 1,-4 -0.7,-5.3 z"
   id="path44"
   style="fill:#2f3f4a" />
		<path
   d="m 1182.2,250.3 -19.9,7.2 c -2,0.7 -3,2.9 -2.3,4.8 0.6,1.5 2,2.5 3.6,2.5 0.4,0 0.9,-0.1 1.3,-0.2 l 19.9,-7.2 c 2,-0.7 3,-2.9 2.3,-4.8 -0.7,-2 -2.9,-3 -4.9,-2.3 z"
   id="path46"
   style="fill:#2f3f4a" />
		<path
   d="m 1154.1,273.9 -18.6,10.1 c -1.8,1 -2.5,3.3 -1.5,5.1 0.7,1.3 2,2 3.3,2 0.6,0 1.2,-0.1 1.8,-0.5 l 18.6,-10.1 c 1.8,-1 2.5,-3.3 1.5,-5.1 -1,-1.8 -3.3,-2.5 -5.1,-1.5 z"
   id="path48"
   style="fill:#2f3f4a" />
		<path
   d="m 1168.6,294.9 -15.2,14.7 c -1.5,1.4 -1.5,3.8 -0.1,5.3 0.7,0.8 1.7,1.2 2.7,1.2 0.9,0 1.9,-0.4 2.6,-1.1 l 15.2,-14.7 c 1.5,-1.4 1.5,-3.8 0.1,-5.3 -1.4,-1.5 -3.8,-1.5 -5.3,-0.1 z"
   id="path50"
   style="fill:#2f3f4a" />
		<path
   d="m 1193.1,313.1 c -1.7,-1.2 -4.1,-0.8 -5.3,0.9 l -12.1,17.4 c -1.2,1.7 -0.8,4.1 0.9,5.3 0.7,0.5 1.4,0.7 2.2,0.7 1.2,0 2.4,-0.6 3.1,-1.6 l 12.1,-17.4 c 1.3,-1.7 0.8,-4.1 -0.9,-5.3 z"
   id="path52"
   style="fill:#2f3f4a" />
		<path
   d="m 1202.6,280.2 -15.3,14.7 c -1.5,1.4 -1.6,3.8 -0.1,5.3 0.7,0.8 1.7,1.2 2.7,1.2 0.9,0 1.9,-0.3 2.6,-1.1 l 15.3,-14.7 c 1.5,-1.4 1.6,-3.8 0.1,-5.3 -1.4,-1.5 -3.8,-1.5 -5.3,-0.1 z"
   id="path54"
   style="fill:#2f3f4a" />
		<path
   d="m 1191.8,264.8 -17.8,11.4 c -1.8,1.1 -2.3,3.5 -1.1,5.2 0.7,1.1 1.9,1.7 3.2,1.7 0.7,0 1.4,-0.2 2,-0.6 l 17.8,-11.4 c 1.8,-1.1 2.3,-3.5 1.1,-5.2 -1.1,-1.7 -3.4,-2.2 -5.2,-1.1 z"
   id="path56"
   style="fill:#2f3f4a" />
	</g>
</svg>