<?xml version="1.0" encoding="UTF-8" standalone="no"?>
<svg
   xmlns:dc="http://purl.org/dc/elements/1.1/"
   xmlns:cc="http://creativecommons.org/ns#"
   xmlns:rdf="http://www.w3.org/1999/02/22-rdf-syntax-ns#"
   xmlns:svg="http://www.w3.org/2000/svg"
   xmlns="http://www.w3.org/2000/svg"
   xml:space="preserve"
   enable-background="new 0 0 1400 980"
   viewBox="0 0 221.81805 257.59113"
   height="257.59113"
   width="221.81805"
   y="0px"
   x="0px"
   id="Layer_1"
   version="1.0"><metadata
   id="metadata269"><rdf:RDF><cc:Work
       rdf:about=""><dc:format>image/svg+xml</dc:format><dc:type
         rdf:resource="http://purl.org/dc/dcmitype/StillImage" /><dc:title></dc:title></cc:Work></rdf:RDF></metadata><defs
   id="defs267">
	
	
	
	
	
	
	
	

	
	
	
	
	
	
	
	
</defs>

<path
   d="m 220.05635,37.691132 -13.2,-4.1 c -3.6,-10.9 -9.2,-19.1 -17.1,-22.1 -21.6,-8.3999997 -55.2,22.8 -78.1,53.2 -0.3,0.4 -3.2,4.1 -7.2,10 -3.9,5.8 -7.400001,11.4 -10.100001,16.6 -2.4,4.3 -7,12.699998 -12.3,22.299998 0,0 0,0 0,0 l -25.8,46.2 -44.9,79.8 c -2.8000001,6.4 -1.2,13.6 4.2,16.6 1.7,1 3.6,1.4 5.5,1.4 3.9,0 6.6,-2.1 9.8,-5.7 l 4.3,-5.1 c 1,2 2.5,3.7 4.6,4.9 1.7,1 3.6,1.4 5.5,1.4 3.9,0 6.7,-2.2 9.8,-5.7 l 60.000001,-71.3 c 0.1,0.1 0.2,0.1 0.3,0.2 0.2,0.1 0.4,0.2 0.7,0.4 0.7,0.4 1.4,0.8 2.1,1.2 0.1,0 0.2,0.1 0.3,0.1 0.8,0.4 1.6,0.8 2.4,1.2 0.2,0.1 0.5,0.2 0.7,0.3 0.8,0.4 1.6,0.7 2.4,1 0,0 0.1,0 0.1,0 4.9,1.9 9.8,3.1 14.7,3.7 -1.9,1.1 -3.7,2.6 -5.5,4.3 -1.5,1.5 -1.5,3.9 0,5.4 1.5,1.5 3.9,1.5 5.4,0 3.4,-3.4 6.8,-5 10.2,-4.9 5.5,0.2 9.5,4.7 9.6,4.7 0.8,0.9 1.8,1.3 2.9,1.3 0.9,0 1.8,-0.3 2.5,-0.9 1.6,-1.4 1.7,-3.8 0.4,-5.4 -0.2,-0.2 -2.7,-3.1 -6.9,-5.2 3.6,-0.7 7.2,-1.7 10.6,-3 15.4,-5.9 28.4,-18.1 34.9,-34.8 0,-0.1 0.1,-0.2 0.1,-0.2 0.2,-0.5 0.4,-1 0.6,-1.5 0.1,-0.2 0.2,-0.5 0.2,-0.7 0.1,-0.4 0.3,-0.8 0.4,-1.2 0.1,-0.3 0.2,-0.5 0.3,-0.8 0.1,-0.4 0.3,-0.8 0.4,-1.3 0.1,-0.2 0.2,-0.5 0.2,-0.7 0.2,-0.7 0.4,-1.3 0.6,-2 0.1,-0.2 0.1,-0.5 0.2,-0.7 0.1,-0.5 0.3,-1 0.4,-1.5 0.1,-0.3 0.2,-0.6 0.2,-0.9 0.1,-0.5 0.2,-0.9 0.3,-1.4 0.1,-0.3 0.2,-0.6 0.2,-1 0.1,-0.5 0.2,-1 0.4,-1.6 0.1,-0.3 0.1,-0.5 0.2,-0.8 0.2,-0.8 0.3,-1.6 0.5,-2.4 0.1,-0.3 0.1,-0.6 0.2,-0.9 0.1,-0.5 0.2,-1.1 0.3,-1.6 0.1,-0.4 0.1,-0.7 0.2,-1.1 0.1,-0.5 0.2,-1.1 0.3,-1.6 0.1,-0.4 0.1,-0.7 0.2,-1.1 0.1,-0.7 0.2,-1.3 0.3,-2 0,-0.3 0.1,-0.6 0.1,-0.9 0.1,-0.8 0.2,-1.6 0.4,-2.4 0.1,-0.4 0.1,-0.7 0.2,-1.1 0.1,-0.6 0.2,-1.2 0.2,-1.8 0.1,-0.4 0.1,-0.8 0.2,-1.2 0.1,-0.6 0.2,-1.2 0.2,-1.8 0,-0.4 0.1,-0.7 0.1,-1.1 0.1,-0.9 0.2,-1.9 0.3,-2.8 0,-0.2 0,-0.5 0.1,-0.7 0.1,-0.7 0.2,-1.5 0.2,-2.2 0,-0.4 0.1,-0.8 0.1,-1.1 0.1,-0.6 0.1,-1.3 0.2,-1.899998 0,-0.4 0.1,-0.8 0.1,-1.1 0.1,-0.7 0.1,-1.4 0.2,-2.1 0,-0.3 0,-0.6 0.1,-0.9 0.1,-1 0.1,-2 0.2,-3 0,-0.3 0,-0.6 0,-0.9 0,-0.7 0.1,-1.5 0.1,-2.2 0,-0.4 0,-0.7 0,-1.1 0,-0.7 0.1,-1.4 0.1,-2.1 0,-0.4 0,-0.7 0,-1.1 0,-0.9 0,-1.7 0.1,-2.6 0,-0.2 0,-0.3 0,-0.5 0,-1 0,-2 0,-3.1 0,-0.3 0,-0.6 0,-0.9 0,-0.7 0,-1.5 0,-2.2 0,-0.3 0,-0.7 0,-1 0,-0.7 0,-1.5 0,-2.2 0,-0.3 0,-0.6 0,-0.9 0,-1 -0.1,-2 -0.1,-3.1 0,-0.1 0,-0.1 0,-0.2 0,-1 -0.1,-1.9 -0.1,-2.9 0,-0.3 0,-0.6 -0.1,-0.9 0,-0.7 -0.1,-1.4 -0.1,-2.1 0,-0.3 0,-0.6 -0.1,-1 -0.1,-0.8 -0.1,-1.5 -0.2,-2.3 0,-0.2 0,-0.5 -0.1,-0.7 -0.1,-1 -0.2,-2 -0.3,-2.9 0,-0.2 0,-0.3 -0.1,-0.5 -0.1,-0.8 -0.2,-1.6 -0.3,-2.4 0,-0.3 -0.1,-0.6 -0.1,-0.9 -0.1,-0.4 -0.1,-0.8 -0.2,-1.2 l 10.1,-9.1 c 0.6,-0.6 0.9,-1.4 0.7,-2.2 -0.3,-0.8 -0.9,-1.5 -1.7,-1.7 z"
   id="path6"
   style="fill:#381a04" />
<g
   transform="translate(-778.04365,-166.20887)"
   id="g82">
		<path
   d="m 897.7,248 c -5.4,-3 -12.3,-1.1 -15.3,4.3 l -78.8,140.2 c -3,5.4 -1.1,12.3 4.3,15.3 1.7,1 3.6,1.4 5.5,1.4 3.9,0 6.7,-2.2 9.8,-5.7 L 925.4,282 c 3.1,-5.4 -22.2,-31 -27.7,-34 z"
   id="path60"
   style="fill:#927955" />
		<path
   d="m 873.5,252.5 c -5.4,-3 -20.4,11.8 -23.5,17.2 l -25.7,46.3 -44.9,79.8 c -2.8,6.4 -1.2,13.6 4.2,16.6 1.7,1 3.6,1.4 5.5,1.4 3.9,0 6.6,-2.1 9.8,-5.7 L 901.1,286.6 c 3.2,-5.5 -22.1,-31 -27.6,-34.1 z"
   id="path62"
   style="fill:#a58c65" />
		<path
   d="m 988.1,193.9 -17.4,-5.4 c -0.8,-0.3 -1.7,-0.1 -2.3,0.5 -0.6,0.6 -0.9,1.4 -0.7,2.2 l 3.9,17.7 c 0.2,0.8 0.8,1.5 1.6,1.7 0.4,0.1 0.8,0.1 1.2,0.1 0.4,-0.1 0.8,-0.3 1.1,-0.6 l 13.6,-12.2 c 0.6,-0.6 0.9,-1.4 0.7,-2.2 -0.3,-0.9 -0.9,-1.6 -1.7,-1.8 z"
   id="path64"
   style="fill:#3e3d42" />
		<path
   d="m 957.7,167.6 c -31.3,-12.2 -88.1,59 -100.3,90.3 -12.2,31.3 3.4,66.5 34.7,78.7 31.3,12.2 66.5,-3.4 78.7,-34.7 C 983,270.6 989,179.8 957.7,167.6 Z"
   id="path66"
   style="fill:#af9b7b" />
		<path
   d="m 957.7,293.7 c -17,31.5 -56.3,43.2 -87.8,26.2 -1.1,-0.6 -2.1,-1.2 -3.1,-1.8 6.5,8 15.1,14.5 25.4,18.5 31.3,12.2 66.5,-3.4 78.7,-34.7 7.7,-19.9 13,-63.8 7.8,-96.3 -1.5,32.7 -11.5,70.4 -21,88.1 z"
   id="path68"
   style="fill:#9e835c" />
		<path
   d="m 900.7,213.1 c -8,0 -15.4,2.9 -21,7.7 0,0 -7.7,9.8 -15.5,23.4 0,0 -28,50.7 -39.8,71.8 -4.3,7.6 -0.6,11.4 -0.6,11.4 2.4,2.7 6.8,2.8 8.3,2.7 13.7,-0.8 24.4,-9.7 31.1,-17.2 5,-5.7 7.8,-10.6 7.8,-10.6 61.8,5.9 61.7,-49.4 61.7,-49.4 0,0 2.5,-39.8 -32,-39.8 z"
   id="path70"
   style="fill:#927955" />
		<path
   d="m 925.9,243.2 c 0,0 0,39.1 -36.7,48 l 5,-18.2 c 0,0 0.9,-3.2 -1.3,-3.9 -1.8,-0.5 -3.1,1.8 -3.1,1.8 l -19,31.3 c 3.9,0.4 7.6,0.5 11,0.4 v 0 c 0.2,0 0.4,0 0.6,0 0.1,0 0.3,0 0.4,0 49.7,-1.9 49.7,-49.8 49.7,-49.8 0,0 1.4,-20.4 -10.6,-32 4.8,10.7 4,22.4 4,22.4 z"
   id="path72"
   style="fill:#7d6949" />
		<path
   d="m 877.1,258.7 c -1.8,-1.1 -4.1,-0.5 -5.2,1.2 L 845,303.5 c -1.1,1.8 -0.5,4.1 1.2,5.2 0.6,0.4 1.3,0.6 2,0.6 1.3,0 2.5,-0.6 3.2,-1.8 L 878.2,264 c 1.2,-1.8 0.7,-4.2 -1.1,-5.3 z"
   id="path74"
   style="fill:#7d6949" />
		<path
   d="m 917.2,337.5 c -5.6,-0.2 -11,2.2 -15.9,7.1 -1.5,1.5 -1.5,3.9 0,5.4 1.5,1.5 3.9,1.5 5.4,0 3.4,-3.4 6.8,-5 10.2,-4.9 5.5,0.2 9.5,4.7 9.6,4.7 0.8,0.9 1.8,1.3 2.9,1.3 0.9,0 1.8,-0.3 2.5,-0.9 1.6,-1.4 1.7,-3.8 0.4,-5.4 -0.3,-0.2 -6.3,-7 -15.1,-7.3 z"
   id="path76"
   style="fill:#806749" />
		<circle
   cx="949.40002"
   cy="190.89999"
   r="8.6999998"
   id="circle78"
   style="fill:#8a765f" />
		<circle
   cx="949.40002"
   cy="190.89999"
   r="5"
   id="circle80"
   style="fill:#3e3d42" />
	</g>
</svg>