<?xml version="1.0" encoding="UTF-8" standalone="no"?>
<svg
   xmlns:dc="http://purl.org/dc/elements/1.1/"
   xmlns:cc="http://creativecommons.org/ns#"
   xmlns:rdf="http://www.w3.org/1999/02/22-rdf-syntax-ns#"
   xmlns:svg="http://www.w3.org/2000/svg"
   xmlns="http://www.w3.org/2000/svg"
   xml:space="preserve"
   enable-background="new 0 0 1400 980"
   viewBox="0 0 229.39999 185.71037"
   height="185.71037"
   width="229.39999"
   y="0px"
   x="0px"
   id="Layer_1"
   version="1.0"><metadata
   id="metadata269"><rdf:RDF><cc:Work
       rdf:about=""><dc:format>image/svg+xml</dc:format><dc:type
         rdf:resource="http://purl.org/dc/dcmitype/StillImage" /><dc:title></dc:title></cc:Work></rdf:RDF></metadata><defs
   id="defs267">
	
	
	
	
	
	
	
	

	
	
	
	
	
	
	
	
</defs>

<path
   d="m 208.1,36.293041 c -1.9,-8.5 -7.2,-16.1 -14.8,-21 -1.5,-0.9 -3,-1.7 -4.6,-2.4 -10.7,-4.6000003 -22.3,-3.3000003 -31.3,2.3 -2.2,1.4 -9.6,8.8 -18.6,18.8 -0.4,0.4 -2.5,2.8 -6.2,6.6 0,0 0,0 0,0 -0.3,0.3 -0.6,0.6 -0.9,0.9 0,0 0,0 0,0 -0.3,0.3 -0.6,0.6 -1,1 0,0 0,0 -0.1,0.1 -0.3,0.3 -0.7,0.7 -1,1 0,0 -0.1,0.1 -0.1,0.1 -0.3,0.3 -0.7,0.7 -1,1 0,0 -0.1,0.1 -0.1,0.1 -0.3,0.3 -0.7,0.7 -1,1 -0.1,0.1 -0.1,0.1 -0.2,0.2 -0.4,0.3 -0.7,0.7 -1.1,1.1 -0.1,0.1 -0.1,0.1 -0.2,0.2 -0.4,0.4 -0.8,0.7 -1.1,1.1 -0.1,0.1 -0.1,0.1 -0.2,0.2 -0.4,0.4 -0.8,0.8 -1.2,1.2 -0.1,0.1 -0.1,0.1 -0.2,0.2 -0.4,0.4 -0.9,0.9 -1.4,1.3 0,0 -0.1,0.1 -0.1,0.1 -2.5,2.4 -5.3,4.9 -8.3,7.6 -0.1,0.1 -0.2,0.1 -0.2,0.2 -0.5,0.5 -1.1,0.9 -1.6,1.4 -0.1,0.1 -0.2,0.2 -0.4,0.3 -0.5,0.4 -1,0.9 -1.5,1.3 -0.2,0.1 -0.3,0.3 -0.5,0.4 -0.5,0.4 -1,0.8 -1.5,1.3 -0.2,0.2 -0.4,0.3 -0.6,0.5 -0.5,0.4 -0.9,0.8 -1.4,1.2 -0.2,0.2 -0.4,0.3 -0.6,0.5 -0.5,0.4 -1,0.8 -1.5,1.2 -0.2,0.2 -0.4,0.4 -0.6,0.5 -0.5,0.4 -1,0.8 -1.5,1.2 -0.1,0.1 -0.3,0.2 -0.4,0.3 -1.2,1 -2.5,2.1 -3.8,3.2 -0.1,0.1 -0.2,0.1 -0.3,0.2 -1.3,1.1 -2.7,2.2 -4.1,3.3 -0.1,0 -0.1,0.1 -0.2,0.1 -1.4,1.1 -2.9,2.3 -4.3,3.4 0,0 0,0 0,0 -3,2.4 -6.1,4.7 -9.4,7.2 0,0 -0.1,0.1 -0.1,0.1 -1.5,1.1 -3.1,2.3 -4.7,3.5 -0.1,0.1 -0.3,0.2 -0.4,0.3 -1.5,1.1 -3.1,2.2 -4.7,3.3 -0.2,0.1 -0.4,0.3 -0.6,0.4 -1.5,1.1 -3.1,2.2 -4.7,3.3 -0.2,0.2 -0.5,0.3 -0.7,0.5 -1.6,1.1 -3.1,2.099999 -4.7,3.199999 -0.3,0.2 -0.6,0.4 -0.9,0.6 -1.6,1.1 -3.2,2.1 -4.8,3.1 -0.3,0.2 -0.6,0.4 -0.9,0.6 -1.6,1 -3.3,2.1 -4.9,3.1 -0.1,0 -0.1,0.1 -0.2,0.1 -0.3,0.2 -0.5,0.3 -0.8,0.5 -1.7,1 -3.3,2.1 -5.1,3.1 -0.3,0.2 -0.7,0.4 -1,0.6 -1.7,1 -3.5,2.1 -5.2,3.1 -0.3,0.2 -0.6,0.4 -1,0.5 -1.8,1 -3.6,2.1 -5.4,3.1 -0.3,0.2 -0.6,0.3 -0.8,0.5 -1.9,1.1 -3.8,2.1 -5.7,3.1 -0.2,0.1 -0.4,0.2 -0.6,0.3 -2,1.1 -4,2.1 -6,3.2 -0.1,0 -0.1,0.1 -0.2,0.1 l -1.6,0.8 -3.3,1.6 35.2,1.2 v 0 l 2.3,0.1 1.9,0.1 c 1.9,0.1 3.7,0.2 5.5,0.3 9.5,0.6 19,2.1 28.2,4.3 9.3,2.2 18.4,5.2 27.2,8.8 v 0 0 c 0.4,0.2 0.9,0.3 1.3,0.5 1.8,0.7 3.5,1.2 5.3,1.7 v 31.3 c 0,0.2 0,0.3 0,0.5 -2.1,0.6 -3.9,1.6 -5.2,2.5 -1.2,0.9 -1.5,2.6 -0.7,3.9 0.9,1.3 2.6,1.6 3.9,0.7 0.3,-0.2 5.9,-4 10.2,-1.2 0,0 0,0 0,0.1 0.3,0.5 0.8,0.8 1.3,1 0.5,0.4 1.1,0.6 1.7,0.6 0.7,0 1.4,-0.3 2,-0.8 0.3,-0.3 0.6,-0.7 0.7,-1.2 2.3,-1.1 6.4,-2.3 9.5,0.7 0.5,0.5 1.3,0.8 2,0.8 0.7,0 1.4,-0.3 2,-0.8 1.1,-1.1 1.1,-2.8 0,-3.9 -1.7,-1.7 -3.6,-2.7 -5.5,-3.2 0,0 0,-0.1 0,-0.1 v -29.6 c 4.1,-0.6 8.2,-1.7 12.1,-3.2 0,0 0,0 0,0 0.3,-0.1 0.5,-0.2 0.8,-0.3 0.4,-0.2 0.9,-0.4 1.3,-0.6 0.4,-0.2 0.8,-0.4 1.1,-0.5 0.4,-0.2 0.8,-0.4 1.2,-0.6 0.4,-0.2 0.8,-0.4 1.1,-0.6 0.4,-0.2 0.8,-0.4 1.1,-0.6 0.4,-0.2 0.8,-0.4 1.1,-0.7 0.4,-0.2 0.7,-0.4 1.1,-0.7 0.4,-0.2 0.8,-0.5 1.1,-0.7 0.4,-0.2 0.7,-0.5 1,-0.7 0.4,-0.3 0.7,-0.5 1.1,-0.8 0.3,-0.3 0.7,-0.5 1,-0.8 0.4,-0.3 0.7,-0.6 1.1,-0.9 0.3,-0.3 0.7,-0.5 1,-0.8 0.3,-0.3 0.7,-0.6 1,-0.9 0.3,-0.3 0.6,-0.6 0.9,-0.9 0.3,-0.3 0.6,-0.6 1,-0.9 0.3,-0.3 0.6,-0.6 0.9,-1 0.3,-0.3 0.6,-0.6 0.9,-1 0.3,-0.3 0.6,-0.7 0.9,-1 0.3,-0.3 0.6,-0.7 0.8,-1 0.3,-0.4 0.6,-0.7 0.9,-1.1 0.3,-0.3 0.5,-0.7 0.8,-1 0.3,-0.4 0.6,-0.8 0.9,-1.2 0.2,-0.3 0.5,-0.7 0.7,-1 0.3,-0.4 0.6,-0.9 0.8,-1.4 0.2,-0.3 0.4,-0.6 0.6,-1 0.3,-0.5 0.6,-1 0.9,-1.5 0.2,-0.3 0.3,-0.6 0.5,-0.9 0.3,-0.6 0.6,-1.3 0.9,-1.9 0.1,-0.2 0.2,-0.4 0.3,-0.6 0.4,-0.9 0.8,-1.7 1.1,-2.6 0.2,-0.4 0.3,-0.8 0.5,-1.2 0.1,-0.3 0.2,-0.5 0.3,-0.8 0.1,-0.3 0.2,-0.6 0.3,-0.9 0.1,-0.4 0.3,-0.8 0.4,-1.2 0.1,-0.3 0.2,-0.5 0.2,-0.8 0.1,-0.4 0.3,-0.8 0.4,-1.3 0.1,-0.3 0.1,-0.5 0.2,-0.8 0.1,-0.4 0.2,-0.9 0.3,-1.3 0.1,-0.3 0.1,-0.5 0.2,-0.8 0.1,-0.4 0.2,-0.9 0.3,-1.3 0,-0.3 0.1,-0.5 0.1,-0.8 0.1,-0.4 0.1,-0.8 0.2,-1.3 0,-0.3 0.1,-0.6 0.1,-0.8 0.1,-0.4 0.1,-0.8 0.1,-1.199999 0,-0.3 0.1,-0.6 0.1,-0.9 0,-0.4 0.1,-0.8 0.1,-1.2 0,-0.3 0,-0.6 0,-0.9 0,-0.4 0,-0.8 0,-1.2 0,-0.3 0,-0.6 0,-0.9 0,-0.4 0,-0.7 0,-1.1 0,-0.3 0,-0.6 0,-1 0,-0.4 0,-0.7 0,-1.1 0,-0.3 0,-0.7 -0.1,-1 0,-0.3 0,-0.7 -0.1,-1 0,-0.3 -0.1,-0.7 -0.1,-1 0,-0.3 -0.1,-0.7 -0.1,-1 0,-0.3 -0.1,-0.7 -0.1,-1 0,-0.3 -0.1,-0.7 -0.1,-1 -0.1,-0.3 -0.1,-0.7 -0.2,-1 -0.1,-0.3 -0.1,-0.6 -0.2,-1 -0.1,-0.3 -0.1,-0.7 -0.2,-1 0,-0.2 -0.1,-0.3 -0.1,-0.5 0,0 0,0 0,0 -0.1,-0.3 -0.1,-0.7 -0.2,-1 3.7,-3.1 14.3,-11.9 16.2,-13.9 1.2,-1.2 2.3,-2.6 3.3,-4 0,0.1 0.1,0.3 0.1,0.4 l 26.7,-9.1 -21.2,-18.6 z m -77,141.499999 c -1.2,0.4 -2.3,0.8 -3.3,1.3 -1,-0.6 -2,-1 -3.1,-1.3 0,0 0,-0.1 0,-0.1 v -29.8 c 2.1,0.2 4.2,0.4 6.3,0.4 v 29 c 0,0.2 0,0.3 0.1,0.5 z"
   id="path8"
   style="fill:#381a04" />
<g
   transform="translate(-1089.3,-638.00696)"
   id="g116">
		<path
   d="m 1214.2,768.6 c -2.1,0 -3.9,1.7 -3.9,3.9 v 32.8 c 0,2.1 1.7,3.9 3.9,3.9 2.1,0 3.9,-1.7 3.9,-3.9 v -32.8 c 0,-2.2 -1.8,-3.9 -3.9,-3.9 z"
   id="path84"
   style="fill:#f7a14c" />
		<path
   d="m 1272.6,643.3 c -1.5,-0.9 -3,-1.7 -4.6,-2.4 -10.7,-4.6 -22.3,-3.3 -31.3,2.3 -2.2,1.4 -9.6,8.8 -18.6,18.8 -1,1.1 -14.4,16 -37.5,35.4 -21.2,17.8 -50.7,39.5 -86.4,57.7 l -4.9,2.4 37.5,1.3 1.9,0.1 c 1.9,0.1 3.7,0.2 5.5,0.3 19.1,1.3 37.7,5.8 55.4,13.1 0.4,0.2 0.9,0.3 1.3,0.5 27.7,10.6 58.4,-3 69.4,-30.5 4.4,-10.9 4.9,-22.4 2.2,-33 3.7,-3.1 14.3,-11.9 16.2,-13.9 4,-4.1 7,-9.2 8.5,-15.2 3.7,-14.4 -2.4,-29.2 -14.6,-36.9 z"
   id="path86"
   style="fill:#fbc447" />
		<path
   d="m 1236.7,643.1 c -2.2,1.4 -9.6,8.8 -18.6,18.8 -1,1.1 -14.4,16 -37.5,35.4 17.4,5.9 34,5.2 41.9,-12.9 20.4,-46.3 50.1,-41.2 50.1,-41.2 -1.5,-0.9 -3,-1.7 -4.6,-2.4 -10.7,-4.6 -22.3,-3.3 -31.3,2.3 z"
   id="path88"
   style="fill:#e3ab39" />
		<path
   d="m 1227.7,757.3 c 0,5.3 0.8,10.4 2.4,15.2 13.3,-5.3 24.4,-15.8 30.2,-30.2 4.2,-10.6 4.8,-21.7 2.5,-32.1 -20.3,6.1 -35.1,24.9 -35.1,47.1 z"
   id="path90"
   style="fill:#eab03b" />
		<path
   d="m 1286.9,665 c -5.8,7.6 -7.6,17.5 -4.8,26.7 l 26.7,-9.1 -21.2,-18.6 z"
   id="path92"
   style="fill:#8a6c27" />
		<path
   d="m 1281.4,688.6 c 0.2,1 0.4,2.1 0.8,3.1 l 26.7,-9.1 -2.7,-2.4 z"
   id="path94"
   style="fill:#705820" />
		<path
   d="m 1218.1,661.9 c -2,2.2 -49.4,55 -123.9,93.2 l -4.9,2.4 15.9,-0.3 c 33.1,-0.7 65.6,-7.7 95.9,-20.5 0.1,0 0.2,-0.1 0.3,-0.1 16.9,-7.2 26.4,-25.4 22.8,-43.4 z"
   id="path96"
   style="fill:#fbc447" />
		<path
   d="m 1183.5,743.3 v 0 c -18.3,6.2 -37.2,10.4 -56.5,12.4 l -2.6,2.9 2.3,0.1 1.9,0.1 c 1.9,0.1 3.7,0.2 5.5,0.3 19.1,1.3 37.7,5.8 55.4,13.1 -16.3,-16.4 -6,-28.9 -6,-28.9 z"
   id="path98"
   style="fill:#e3ab39" />
		<path
   d="m 1094.2,755.1 -4.9,2.4 37.5,1.3 c 4.4,-1.3 9.2,-2.9 14.2,-4.8 44.7,-16.8 68.7,-45.5 81.5,-69.4 l -4.4,-22.6 c -2,2.1 -49.4,54.9 -123.9,93.1 z"
   id="path100"
   style="fill:#eab03b" />
		<circle
   cx="1258.3"
   cy="667.59998"
   r="6.5"
   id="circle102"
   style="fill:#a67c52" />
		<path
   d="m 1259.9,661.3 c -0.5,-0.1 -1.1,-0.2 -1.6,-0.2 -3.6,0 -6.5,2.9 -6.5,6.5 0,3.6 2.9,6.5 6.5,6.5 0.6,0 1.1,-0.1 1.6,-0.2 -2.8,-0.7 -4.9,-3.3 -4.9,-6.3 0,-3.1 2.1,-5.6 4.9,-6.3 z"
   id="path104"
   style="fill:#966c48" />
		<g
   id="g108">
			<path
   d="m 1205.2,808.3 c -1.2,0.9 -1.5,2.6 -0.7,3.9 0.9,1.3 2.6,1.6 3.9,0.7 0.3,-0.2 6.9,-4.7 11.3,-0.3 0.5,0.5 1.3,0.8 2,0.8 0.7,0 1.4,-0.3 2,-0.8 1.1,-1.1 1.1,-2.8 0,-3.9 -6.3,-6.3 -14.9,-3 -18.5,-0.4 z"
   id="path106"
   style="fill:#f7a14c" />
		</g>
		<path
   d="m 1200.1,769.1 c -2.1,0 -3.9,1.7 -3.9,3.9 v 32.8 c 0,2.1 1.7,3.9 3.9,3.9 2.1,0 3.9,-1.7 3.9,-3.9 V 773 c 0,-2.2 -1.8,-3.9 -3.9,-3.9 z"
   id="path110"
   style="fill:#f7a14c" />
		<g
   id="g114">
			<path
   d="m 1191.1,808.7 c -1.2,0.9 -1.5,2.6 -0.7,3.9 0.9,1.3 2.6,1.6 3.9,0.7 0.3,-0.2 6.9,-4.7 11.3,-0.3 0.5,0.5 1.3,0.8 2,0.8 0.7,0 1.4,-0.3 2,-0.8 1.1,-1.1 1.1,-2.8 0,-3.9 -6.3,-6.3 -14.9,-3 -18.5,-0.4 z"
   id="path112"
   style="fill:#f7a14c" />
		</g>
	</g>
</svg>