<?xml version="1.0" encoding="UTF-8" standalone="no"?>
<!-- Created with Inkscape (http://www.inkscape.org/) -->

<svg
   xmlns:dc="http://purl.org/dc/elements/1.1/"
   xmlns:cc="http://creativecommons.org/ns#"
   xmlns:rdf="http://www.w3.org/1999/02/22-rdf-syntax-ns#"
   xmlns:svg="http://www.w3.org/2000/svg"
   xmlns="http://www.w3.org/2000/svg"
   xmlns:xlink="http://www.w3.org/1999/xlink"
   xmlns:sodipodi="http://sodipodi.sourceforge.net/DTD/sodipodi-0.dtd"
   xmlns:inkscape="http://www.inkscape.org/namespaces/inkscape"
   width="62.510082mm"
   height="59.968391mm"
   viewBox="0 0 62.510082 59.968391"
   version="1.1"
   id="svg543"
   inkscape:version="0.92.4 (5da689c313, 2019-01-14)"
   sodipodi:docname="bird1.svg">
  <defs
     id="defs537">
    <clipPath
       clipPathUnits="userSpaceOnUse"
       id="clipPath488">
      <use
         x="0"
         y="0"
         xlink:href="#g484"
         id="use490"
         width="100%"
         height="100%" />
    </clipPath>
  </defs>
  <sodipodi:namedview
     id="base"
     pagecolor="#ffffff"
     bordercolor="#666666"
     borderopacity="1.0"
     inkscape:pageopacity="0.0"
     inkscape:pageshadow="2"
     inkscape:zoom="0.35"
     inkscape:cx="-37.142856"
     inkscape:cy="-106.6739"
     inkscape:document-units="mm"
     inkscape:current-layer="layer1"
     showgrid="false"
     inkscape:window-width="1920"
     inkscape:window-height="1017"
     inkscape:window-x="-8"
     inkscape:window-y="-8"
     inkscape:window-maximized="1"
     fit-margin-top="0"
     fit-margin-left="0"
     fit-margin-right="0"
     fit-margin-bottom="0" />
  <metadata
     id="metadata540">
    <rdf:RDF>
      <cc:Work
         rdf:about="">
        <dc:format>image/svg+xml</dc:format>
        <dc:type
           rdf:resource="http://purl.org/dc/dcmitype/StillImage" />
        <dc:title></dc:title>
      </cc:Work>
    </rdf:RDF>
  </metadata>
  <g
     inkscape:label="Layer 1"
     inkscape:groupmode="layer"
     id="layer1"
     transform="translate(3.544541e-7,-0.16461294)">
    <g
       id="g486"
       clip-path="url(#clipPath488)"
       transform="matrix(0.26458333,0,0,0.26458333,-25.384502,-51.230118)">
      <g
         inkscape:label="Clip"
         id="g484">
        <g
           id="g449">
          <path
             style="fill:#381a04"
             inkscape:connector-curvature="0"
             id="path10"
             d="m 112.7,378 c 9.8,1.2 19.2,2 28.2,2.5 -8.2,5.1 -18.4,10.5 -24.6,13.5 -3.3,1.6 -21.5,9.9 1.2,14.5 20.2,4.1 52.9,-15.4 68.6,-25.9 2.4,1.2 5.2,2.3 8.2,3.4 0,0 22.5,7 49,4.1 0,0.1 0,0.2 -0.1,0.3 0,0.2 -0.1,0.4 -0.1,0.6 0,0.2 -0.1,0.4 -0.1,0.5 0,0.2 -0.1,0.4 -0.1,0.6 0,0.2 0,0.3 0,0.5 0,0.2 0,0.4 -0.1,0.6 0,0.2 0,0.3 0,0.5 0,0.2 0,0.4 0,0.6 0,0.1 0,0.3 0,0.4 0,0.2 0,0.4 0,0.6 0,0.1 0,0.2 0,0.4 0,0.2 0,0.4 0,0.7 0,0.1 0,0.2 0,0.3 0,0.2 0,0.5 0.1,0.7 v 0 0 c 0.4,4.6 2.1,8.4 3.8,10.9 l -6.1,2.4 c -1.5,0.6 -2.2,2.3 -1.6,3.7 0.4,1.1 1.5,1.8 2.7,1.8 0.4,0 0.7,-0.1 1.1,-0.2 l 10.9,-4.3 17.4,8.9 c 0.4,0.2 0.9,0.3 1.3,0.3 1,0 2.1,-0.6 2.6,-1.6 0.7,-1.4 0.2,-3.2 -1.2,-3.9 l -7.9,-4 10.9,-0.4 c 1.6,-0.1 2.8,-1.4 2.8,-3 -0.1,-1.6 -1.4,-2.8 -3,-2.8 l -19.9,0.7 c -0.2,-0.2 -0.5,-0.4 -0.8,-0.5 -0.2,-0.6 -0.5,-1.2 -1,-1.8 0,0 -2,-2.3 -2.7,-6.2 v 0 c -0.2,-1 -0.3,-2.1 -0.2,-3.3 0,-0.1 0,-0.1 0,-0.2 0,-0.2 0,-0.3 0,-0.5 0,-0.1 0,-0.2 0,-0.3 0,-0.2 0,-0.3 0.1,-0.5 0,-0.1 0,-0.2 0.1,-0.4 0,-0.2 0.1,-0.3 0.1,-0.5 0,-0.1 0.1,-0.3 0.1,-0.4 0,-0.2 0.1,-0.3 0.1,-0.5 0,-0.1 0.1,-0.3 0.1,-0.4 0,-0.1 0.1,-0.3 0.1,-0.4 0,-0.2 0.1,-0.3 0.1,-0.5 0,-0.1 0.1,-0.3 0.1,-0.4 0.1,-0.2 0.1,-0.3 0.2,-0.5 0,-0.1 0.1,-0.2 0.1,-0.3 3.1,-0.6 6.2,-1.4 9.3,-2.4 0,0 0,0 0,0.1 0,0.1 0,0.2 0,0.3 0,0.2 0,0.4 0,0.6 0,0.1 0,0.2 0,0.2 0.3,4.5 1.9,8.2 3.5,10.6 l -5.5,2.2 c -1.3,0.5 -2,2.1 -1.5,3.4 0.4,1 1.4,1.7 2.4,1.7 0.3,0 0.6,-0.1 1,-0.2 l 9.9,-3.9 15.9,8.1 c 0.4,0.2 0.8,0.3 1.2,0.3 1,0 1.9,-0.5 2.3,-1.4 0.7,-1.3 0.2,-2.9 -1.1,-3.5 l -7.2,-3.7 9.9,-0.4 c 1.4,-0.1 2.6,-1.3 2.5,-2.7 -0.1,-1.4 -1.2,-2.6 -2.7,-2.5 l -18.1,0.7 c -0.2,-0.2 -0.5,-0.4 -0.7,-0.5 -0.2,-0.6 -0.5,-1.1 -0.9,-1.6 0,0 -1.8,-2.1 -2.4,-5.6 v 0 c -0.2,-0.9 -0.2,-1.9 -0.2,-3 0,-0.1 0,-0.1 0,-0.2 0,-0.2 0,-0.3 0,-0.5 0,-0.1 0,-0.2 0,-0.3 0,-0.1 0,-0.3 0.1,-0.4 0,-0.1 0,-0.2 0,-0.3 0,-0.1 0,-0.3 0.1,-0.4 0,-0.1 0,-0.1 0,-0.2 22.2,-9.5 42.9,-29.5 51.9,-69.2 0.7,-2.9 1.2,-5.8 1.5,-8.9 v 0 c 0,0 0,0 0,0 0,-0.3 0.1,-0.6 0.1,-1 0,-0.1 0,-0.2 0,-0.2 0,-0.3 0.1,-0.6 0.1,-1 0,-0.1 0,-0.1 0,-0.2 0.1,-1 0.1,-2 0.1,-3.1 0,-0.1 0,-0.2 0,-0.4 0,-0.3 0,-0.6 0,-0.9 0,-0.2 0,-0.3 0,-0.5 0,-0.3 0,-0.6 0,-0.9 0,-0.2 0,-0.3 0,-0.5 0,-0.6 0,-1.2 -0.1,-1.8 0,-0.2 0,-0.3 0,-0.5 0,-0.3 0,-0.6 -0.1,-0.9 0,-0.2 0,-0.4 -0.1,-0.7 0,-0.3 -0.1,-0.6 -0.1,-0.9 0,-0.2 0,-0.5 -0.1,-0.7 0,-0.3 -0.1,-0.6 -0.1,-0.9 0,-0.3 -0.1,-0.6 -0.1,-0.9 -0.1,-0.4 -0.1,-0.9 -0.2,-1.3 0,-0.3 -0.1,-0.7 -0.1,-1 0,-0.3 -0.1,-0.5 -0.1,-0.8 -0.1,-0.3 -0.1,-0.6 -0.2,-0.9 0,-0.3 -0.1,-0.6 -0.2,-0.8 -0.1,-0.3 -0.1,-0.7 -0.2,-1 -0.1,-0.3 -0.1,-0.5 -0.2,-0.8 -0.1,-0.6 -0.2,-1.2 -0.4,-1.8 0,-0.2 -0.1,-0.4 -0.1,-0.6 -0.1,-0.4 -0.2,-0.9 -0.3,-1.3 -0.1,-0.3 -0.1,-0.6 -0.2,-0.8 -0.1,-0.4 -0.2,-0.8 -0.3,-1.2 -0.1,-0.3 -0.1,-0.6 -0.2,-0.8 -0.1,-0.5 -0.3,-1 -0.4,-1.5 -0.1,-0.2 -0.1,-0.4 -0.2,-0.7 -0.2,-0.7 -0.4,-1.4 -0.6,-2.2 -0.1,-0.2 -0.1,-0.4 -0.2,-0.7 -0.2,-0.5 -0.3,-1.1 -0.5,-1.7 -0.1,-0.3 -0.2,-0.6 -0.3,-0.9 -0.2,-0.5 -0.3,-1.1 -0.5,-1.6 -0.1,-0.3 -0.2,-0.6 -0.3,-0.8 -0.2,-0.7 -0.4,-1.4 -0.7,-2 -0.1,-0.2 -0.1,-0.3 -0.2,-0.5 -0.3,-0.8 -0.6,-1.7 -0.9,-2.6 -0.1,-0.3 -0.2,-0.5 -0.3,-0.8 -0.2,-0.6 -0.5,-1.3 -0.7,-2 -0.1,-0.3 -0.2,-0.6 -0.3,-0.9 -0.2,-0.6 -0.5,-1.3 -0.7,-2 -0.1,-0.3 -0.2,-0.6 -0.3,-0.9 -0.4,-1 -0.7,-1.9 -1.1,-2.9 -0.3,-0.7 -0.5,-1.5 -0.7,-2.5 -0.1,-0.3 -0.1,-0.6 -0.1,-0.9 0,-0.3 -0.1,-0.6 -0.1,-1 0,-0.1 0,-0.2 0,-0.3 0,-0.1 0,-0.3 0,-0.4 0,-0.1 0,-0.2 0,-0.3 0,-0.1 0,-0.3 0,-0.4 0,-0.1 0,-0.2 0,-0.4 0,-0.1 0,-0.3 0,-0.4 0,-0.1 0,-0.3 0,-0.4 0,-0.1 0,-0.2 0,-0.4 0,-0.2 0,-0.3 0.1,-0.5 0,-0.1 0,-0.3 0.1,-0.4 0,-0.2 0.1,-0.4 0.1,-0.5 0,-0.1 0,-0.2 0.1,-0.3 0,-0.1 0.1,-0.3 0.1,-0.4 0,-0.1 0.1,-0.2 0.1,-0.3 0,-0.1 0.1,-0.3 0.1,-0.4 0,-0.1 0.1,-0.2 0.1,-0.3 0.1,-0.1 0.1,-0.3 0.2,-0.4 0,-0.1 0.1,-0.2 0.1,-0.3 0.1,-0.2 0.2,-0.4 0.3,-0.5 0,0 0,-0.1 0.1,-0.1 0,0 0,0 0,0 0.1,-0.2 0.3,-0.4 0.4,-0.6 0,0 0.1,-0.1 0.1,-0.1 0.1,-0.2 0.3,-0.3 0.4,-0.5 0.1,-0.1 0.1,-0.1 0.2,-0.2 0.1,-0.1 0.3,-0.3 0.4,-0.4 0.1,-0.1 0.1,-0.1 0.2,-0.2 0.2,-0.1 0.3,-0.3 0.5,-0.4 0.1,0 0.1,-0.1 0.2,-0.1 0,0 0,0 0,0 0.2,-0.2 0.4,-0.3 0.7,-0.4 0,0 0,0 0,0 0,0 0.1,0 0.1,-0.1 0.2,-0.1 0.5,-0.2 0.7,-0.3 0.1,0 0.1,0 0.2,-0.1 0,0 0,0 0,0 0.2,-0.1 0.4,-0.2 0.7,-0.3 0.1,0 0.2,-0.1 0.3,-0.1 0,0 0.1,0 0.1,0 0.2,-0.1 0.4,-0.1 0.6,-0.2 0.1,0 0.2,-0.1 0.3,-0.1 0.1,0 0.1,0 0.2,0 0.2,0 0.4,-0.1 0.6,-0.1 0.1,0 0.2,0 0.4,-0.1 0.1,0 0.2,0 0.3,0 0.2,0 0.4,0 0.6,-0.1 0.1,0 0.2,0 0.3,0 0.2,0 0.3,0 0.5,0 0.3,0 0.5,0 0.8,0 0.1,0 0.1,0 0.2,0 0.2,0 0.3,0 0.5,0 0.2,0 0.4,0 0.7,0 0.2,0 0.3,0 0.5,0 0.1,0 0.3,0 0.4,0 0.2,0 0.4,0 0.6,0.1 0.2,0 0.4,0 0.6,0.1 0.2,0 0.4,0.1 0.6,0.1 0.1,0 0.3,0 0.4,0.1 0.2,0 0.4,0.1 0.6,0.1 0.3,0.1 0.6,0.1 0.9,0.2 0.1,0 0.2,0 0.3,0.1 0.2,0 0.4,0.1 0.6,0.1 0.6,0.1 1.2,0.3 1.8,0.5 0,0 0,-0.1 0,-0.4 0,-0.1 0,-0.1 0,-0.2 0,-0.1 0,-0.3 0,-0.4 0,-0.3 -0.1,-0.6 -0.2,-1 -0.1,-0.5 -0.3,-1.1 -0.6,-1.7 -0.1,-0.1 -0.1,-0.2 -0.2,-0.4 -0.4,-0.8 -1,-1.8 -1.8,-2.8 -0.5,-0.7 -1.1,-1.4 -1.8,-2.1 -0.3,-0.4 -0.7,-0.7 -1.1,-1.1 -1.3,-1.3 -2.9,-2.7 -5,-4.2 0,0 0,0 0,-0.1 0,0 0,0 0,0 0,-0.1 0,-0.1 -0.1,-0.2 0,0 0,0 0,0 v 0 c -0.1,-0.4 -0.4,-1.1 -0.8,-2.1 -0.1,-0.2 -0.2,-0.4 -0.2,-0.6 -0.2,-0.5 -0.5,-1 -0.7,-1.6 -0.1,-0.2 -0.2,-0.4 -0.3,-0.6 -0.2,-0.4 -0.4,-0.8 -0.6,-1.2 -0.2,-0.5 -0.5,-0.9 -0.8,-1.4 -0.1,-0.2 -0.3,-0.4 -0.4,-0.7 -0.3,-0.5 -0.6,-0.9 -0.9,-1.4 -0.2,-0.3 -0.3,-0.5 -0.5,-0.8 -0.3,-0.4 -0.5,-0.7 -0.8,-1.1 -0.2,-0.2 -0.4,-0.5 -0.5,-0.7 -0.4,-0.5 -0.8,-0.9 -1.2,-1.4 -1.2,-1.3 -2.6,-2.6 -4.1,-3.6 -0.3,-0.2 -0.7,-0.5 -1.1,-0.7 -0.3,-0.2 -0.7,-0.4 -1,-0.6 -0.2,-0.1 -0.4,-0.2 -0.6,-0.3 -1.3,-0.6 -2.7,-1.1 -4.3,-1.4 -0.6,-0.1 -1.3,-0.2 -2,-0.2 -0.3,0 -0.7,0 -1,0 -3.2,0 -6.7,0.9 -10.7,2.9 -0.4,0.2 -0.9,0.5 -1.3,0.7 -2.7,1.6 -5.6,3.7 -8.6,6.5 -2,1.9 -4.2,4 -6.4,6.5 -0.7,0.7 -1.2,1.5 -1.8,2.2 -0.3,0.5 -0.7,1 -0.9,1.5 -0.7,1.3 -1.2,2.6 -1.7,4 -0.2,0.6 -0.3,1.2 -0.4,1.8 -0.1,0.3 -0.1,0.6 -0.2,1 -0.1,0.7 -0.2,1.3 -0.3,2.1 -0.3,2.2 -0.4,4.6 -0.6,7.6 -0.2,5.4 -0.4,12.4 -1.1,21.9 0,0 0,0 0,0 0,0 0,0 0,0 0,0 0,0.1 0,0.1 0,0 0,0 0,0.1 0,0 0,0.1 0,0.1 0,0 0,0.1 0,0.1 0,0 0,0.1 0,0.1 -0.1,0.2 -0.1,0.5 -0.3,0.9 0,0 0,0 0,0 0,0.1 -0.1,0.2 -0.1,0.4 0,0 0,0 0,0.1 -0.1,0.1 -0.1,0.3 -0.2,0.4 0,0 0,0 0,0 0,0.1 -0.1,0.2 -0.1,0.2 -0.4,0.8 -0.9,1.6 -1.3,2.4 0,0.1 -0.1,0.2 -0.1,0.2 -0.4,0.7 -0.9,1.4 -1.3,2.1 -0.1,0.1 -0.1,0.2 -0.2,0.3 -0.4,0.7 -0.9,1.3 -1.4,1.9 -0.1,0.1 -0.1,0.2 -0.2,0.3 -0.5,0.6 -0.9,1.2 -1.4,1.7 -0.1,0.1 -0.1,0.1 -0.2,0.2 0,0 0,0 0,0 -2.2,2.4 -5.1,4.9 -8.8,7.5 0,0 -0.1,0.1 -0.1,0.1 -0.4,0.3 -0.9,0.6 -1.3,0.9 -0.1,0 -0.1,0.1 -0.2,0.1 -0.5,0.3 -0.9,0.6 -1.4,0.9 -0.8,0.5 -1.6,0.9 -2.4,1.4 -7.4,3 -14.1,6 -20.2,9.1 -3.7,1.8 -7.3,3.8 -10.8,5.9 -35.1,20.5 -42.1,39.6 -42.1,39.6 v 0 C 73.4,371.3 112.7,378 112.7,378 Z" />
          <g
             id="g178">
            <g
               id="g122">
              <g
                 id="g120">
                <path
                   style="fill:#de8976"
                   inkscape:connector-curvature="0"
                   id="path118"
                   d="m 284.3,388 -20,0.7 c -1.2,0 -2.2,0.9 -2.5,2.1 -0.3,1.2 0.3,2.4 1.4,2.9 l 16.1,8.3 c 0.4,0.2 0.8,0.3 1.2,0.3 1,0 1.9,-0.5 2.3,-1.4 0.7,-1.3 0.2,-2.9 -1.1,-3.5 l -7.2,-3.7 9.9,-0.4 c 1.4,-0.1 2.6,-1.3 2.5,-2.7 0.1,-1.5 -1.1,-2.6 -2.6,-2.6 z" />
              </g>
            </g>
            <g
               id="g128">
              <g
                 id="g126">
                <path
                   style="fill:#de8976"
                   inkscape:connector-curvature="0"
                   id="path124"
                   d="m 263.5,388.2 -11.9,4.7 c -1.3,0.5 -2,2.1 -1.5,3.4 0.4,1 1.4,1.7 2.4,1.7 0.3,0 0.6,-0.1 1,-0.2 l 11.9,-4.7 c 1.3,-0.5 2,-2.1 1.5,-3.4 -0.5,-1.4 -2,-2 -3.4,-1.5 z" />
              </g>
            </g>
            <g
               id="g132">
              <path
                 style="fill:#de8976"
                 inkscape:connector-curvature="0"
                 id="path130"
                 d="m 263.7,363.1 c -2,-1.2 -4.6,-0.6 -5.8,1.3 -8,12.8 -3.2,23.8 0.4,27.8 0.8,0.9 2,1.4 3.1,1.4 1,0 2,-0.4 2.8,-1.1 1.7,-1.6 1.9,-4.2 0.3,-5.9 -0.1,-0.1 -6.2,-7.1 0.4,-17.8 1.3,-1.9 0.7,-4.5 -1.2,-5.7 z" />
            </g>
            <path
               style="fill:#429699"
               inkscape:connector-curvature="0"
               id="path134"
               d="m 263.7,363.1 c -2,-1.2 -4.6,-0.6 -5.8,1.3 -3.7,6 -4.7,11.7 -4.2,16.4 2.3,0.8 5.2,1.2 8.5,0.2 -0.5,-3 -0.2,-7.2 2.9,-12.1 1.1,-2 0.5,-4.6 -1.4,-5.8 z" />
            <g
               id="g140">
              <g
                 id="g138">
                <path
                   style="fill:#ed917d"
                   inkscape:connector-curvature="0"
                   id="path136"
                   d="m 267.7,398.1 -21.9,0.8 c -1.3,0 -2.4,1 -2.7,2.3 -0.3,1.3 0.3,2.6 1.5,3.2 l 17.7,9.1 c 0.4,0.2 0.9,0.3 1.3,0.3 1,0 2.1,-0.6 2.6,-1.6 0.7,-1.4 0.2,-3.2 -1.2,-3.9 l -7.9,-4 10.9,-0.4 c 1.6,-0.1 2.8,-1.4 2.8,-3 -0.2,-1.6 -1.5,-2.8 -3.1,-2.8 z" />
              </g>
            </g>
            <g
               id="g146">
              <g
                 id="g144">
                <path
                   style="fill:#ed917d"
                   inkscape:connector-curvature="0"
                   id="path142"
                   d="m 244.8,398.3 -13,5.1 c -1.5,0.6 -2.2,2.3 -1.6,3.7 0.4,1.1 1.5,1.8 2.7,1.8 0.4,0 0.7,-0.1 1.1,-0.2 l 13,-5.1 c 1.5,-0.6 2.2,-2.3 1.6,-3.7 -0.7,-1.4 -2.3,-2.2 -3.8,-1.6 z" />
              </g>
            </g>
            <path
               style="fill:#5b4d55"
               inkscape:connector-curvature="0"
               id="path148"
               d="m 312.9,214.9 c 0,0 -13.6,-43.6 -48.9,-4.1 -7.1,7.9 -5,14.3 -6.9,42 0,0 -2.7,16.3 -32.4,27.8 -29.7,11.4 -58,37.6 -63,51.9 0,0 -19,31.5 23.6,46.2 0,0 105.2,32.6 128.8,-72.2 3.1,-13.8 3.8,-27.7 -9.5,-62.4 -2.1,-5.5 -2.8,-20.8 18.8,-14.9 0,0 1.2,-5.7 -10.5,-14.3 z" />
            <path
               style="fill:#6e5f68"
               inkscape:connector-curvature="0"
               id="path150"
               d="m 140.3,367.3 c -7.7,6.2 -24.4,15.2 -33.1,19.3 -3.3,1.6 -21.5,9.9 1.2,14.5 27.4,5.7 77.6,-32.1 77.6,-32.1 -4.5,-5.5 -37.9,-7.9 -45.7,-1.7 z" />
            <path
               style="fill:#429699"
               inkscape:connector-curvature="0"
               id="path152"
               d="m 312.9,214.9 c 0,0 -13.6,-43.6 -48.9,-4.1 -7.1,7.9 -5,14.3 -6.9,42 0,0 -1.9,11 -18.9,21.3 0.5,18.6 7,37.4 27.6,47.7 32.8,16.4 45.2,-6.4 49.8,-24.2 1.3,-11.6 -0.5,-26.1 -11.1,-53.5 -2.1,-5.5 -2.8,-20.8 18.8,-14.9 0.1,0 1.3,-5.7 -10.4,-14.3 z" />
            <path
               style="fill:#b8969c"
               inkscape:connector-curvature="0"
               id="path154"
               d="m 256.2,255.4 c -8,15.6 -20.4,20 -20.4,20 -63.2,27.7 -73.1,54.6 -73.1,54.6 -98.3,33.9 -59,40.6 -59,40.6 70.8,8.6 120.5,-1.9 146.9,-15 26.5,-13.1 26.5,-31 16.7,-53.4 -9.7,-22.4 -11.1,-46.8 -11.1,-46.8 z" />
            <path
               style="fill:#54bec2"
               inkscape:connector-curvature="0"
               id="path156"
               d="m 312.9,214.9 c 0,0 -13.6,-43.6 -48.9,-4.1 -0.2,0.2 -0.4,0.4 -0.6,0.7 3.5,10.5 13.4,28.3 40.3,29.3 -0.9,-6.6 1.5,-16.6 19.6,-11.6 0.1,0 1.3,-5.7 -10.4,-14.3 z" />
            <path
               style="fill:#6a6d7d"
               inkscape:connector-curvature="0"
               id="path158"
               d="m 312.9,214.9 c 0,0 0,-0.1 -0.1,-0.3 -3.6,2.5 -10.4,8.5 -7.7,17.7 2.3,-3.8 7.5,-6.1 18.3,-3.1 0,0 1.2,-5.7 -10.5,-14.3 z" />
            <circle
               style="fill:#ffffff"
               r="4.5"
               id="ellipse160"
               cy="215.2"
               cx="291.60001"
               transform="matrix(0.9969,-0.07818318,0.07818318,0.9969,-15.934,23.4597)" />
            <circle
               style="fill:#6a6d7d"
               r="2.7"
               id="ellipse162"
               cy="215.2"
               cx="291.60001"
               transform="matrix(0.9969,-0.07819314,0.07819314,0.9969,-15.936,23.4628)" />
            <path
               style="fill:#b6b2a2"
               inkscape:connector-curvature="0"
               id="path164"
               d="m 256.2,255.4 c -8,15.6 -20.4,20 -20.4,20 -62.4,25 -73.1,54.6 -73.1,54.6 -1,0.3 19.1,33 80.9,28.8 2.5,-1 4.8,-2.1 7,-3.2 26.5,-13.1 26.5,-31 16.7,-53.4 -9.7,-22.4 -11.1,-46.8 -11.1,-46.8 z" />
            <path
               style="fill:#a6a394"
               inkscape:connector-curvature="0"
               id="path166"
               d="m 256.2,255.4 c -3.7,7.2 -8.3,12 -12.2,15.1 1.6,8.6 4.1,19.3 8.8,29.6 24,52.7 -39.5,57.1 -46.3,56.5 10.2,2.2 22.5,3.3 37.1,2.3 2.5,-1 4.8,-2.1 7,-3.2 26.5,-13.1 26.5,-31 16.7,-53.4 -9.7,-22.5 -11.1,-46.9 -11.1,-46.9 z" />
            <path
               style="fill:#838075"
               inkscape:connector-curvature="0"
               id="path168"
               d="m 234.3,319 c -4.3,-3.2 -6.6,-7.7 -5.9,-11.2 0,0 0,0 0,0 0,0 0,0 0,0 -3.1,1.6 -8.1,0.8 -12.4,-2.4 -4.3,-3.2 -6.6,-7.7 -5.9,-11.2 -0.7,0.4 -1.3,0.9 -1.8,1.5 -2.5,3.4 -0.3,9.4 5,13.3 4.3,3.2 9.3,4 12.4,2.4 -0.7,3.4 1.6,8 5.9,11.2 5.3,3.9 11.6,4.3 14.2,0.9 0.5,-0.6 0.8,-1.4 0.9,-2.1 -3.1,1.6 -8.1,0.7 -12.4,-2.4 z" />
            <path
               style="fill:#838075"
               inkscape:connector-curvature="0"
               id="path170"
               d="m 227.8,342.4 c -4,-3.2 -6.1,-7.7 -5.4,-11 0,0 0,-0.1 0,-0.1 0,0 0,0 0,0 0,0 0,0 0,0 0,0 -0.1,0 -0.1,0 -3.1,1.4 -7.8,0.4 -11.9,-2.8 -4.1,-3.3 -6.1,-7.7 -5.4,-11.1 0,0 0,0 0,0 0,0 0,0 0,0 -3.1,1.5 -7.9,0.5 -12,-2.8 -4.1,-3.3 -6.1,-7.7 -5.4,-11.1 -0.7,0.3 -1.3,0.8 -1.8,1.4 -2.6,3.2 -0.6,9.1 4.4,13.1 4.1,3.3 8.9,4.3 12,2.7 -0.8,3.3 1.3,7.8 5.4,11.1 4.1,3.2 8.9,4.2 12,2.8 -0.8,3.3 1.3,7.8 5.4,11 5,4 11.2,4.6 13.8,1.3 0.5,-0.6 0.8,-1.3 1,-2 -3.1,1.8 -7.9,0.8 -12,-2.5 z" />
            <g
               id="g174">
              <path
                 style="fill:#ed917d"
                 inkscape:connector-curvature="0"
                 id="path172"
                 d="m 244.9,370.7 c -2.2,-1.3 -5,-0.7 -6.4,1.5 -8.7,14.1 -3.5,26.2 0.5,30.6 0.9,1 2.2,1.5 3.4,1.5 1.1,0 2.2,-0.4 3.1,-1.2 1.9,-1.7 2,-4.6 0.3,-6.5 -0.1,-0.1 -6.8,-7.8 0.5,-19.6 1.5,-2.1 0.8,-5 -1.4,-6.3 z" />
            </g>
            <path
               style="fill:#429699"
               inkscape:connector-curvature="0"
               id="path176"
               d="m 244.9,370.7 c -2.2,-1.3 -5,-0.7 -6.4,1.5 -4.1,6.6 -5.1,12.8 -4.6,18 2.5,0.9 5.8,1.3 9.3,0.2 -0.6,-3.4 -0.2,-7.9 3.2,-13.3 1.4,-2.2 0.7,-5.1 -1.5,-6.4 z" />
          </g>
        </g>
      </g>
    </g>
  </g>
</svg>
