<?xml version="1.0" encoding="UTF-8" standalone="no"?>
<!-- Created with Inkscape (http://www.inkscape.org/) -->

<svg
   xmlns:dc="http://purl.org/dc/elements/1.1/"
   xmlns:cc="http://creativecommons.org/ns#"
   xmlns:rdf="http://www.w3.org/1999/02/22-rdf-syntax-ns#"
   xmlns:svg="http://www.w3.org/2000/svg"
   xmlns="http://www.w3.org/2000/svg"
   xmlns:sodipodi="http://sodipodi.sourceforge.net/DTD/sodipodi-0.dtd"
   xmlns:inkscape="http://www.inkscape.org/namespaces/inkscape"
   width="728.5235"
   height="804.03101"
   id="svg2"
   inkscape:label="Pozadí"
   version="1.1"
   inkscape:version="0.92.4 (5da689c313, 2019-01-14)"
   sodipodi:docname="Female_homo.svg"
   viewBox="0 0 682.99078 753.77905">
  <defs
     id="defs2950">
    <inkscape:perspective
       sodipodi:type="inkscape:persp3d"
       inkscape:vp_x="0 : 526.18108 : 1"
       inkscape:vp_y="0 : 999.99998 : 0"
       inkscape:vp_z="744.09449 : 526.18108 : 1"
       inkscape:persp3d-origin="372.04724 : 350.78738 : 1"
       id="perspective2956" />
    <inkscape:perspective
       id="perspective2941"
       inkscape:persp3d-origin="0.5 : 0.33333332 : 1"
       inkscape:vp_z="1 : 0.49999999 : 1"
       inkscape:vp_y="0 : 999.99998 : 0"
       inkscape:vp_x="0 : 0.49999999 : 1"
       sodipodi:type="inkscape:persp3d" />
  </defs>
  <sodipodi:namedview
     id="base"
     pagecolor="#ffffff"
     bordercolor="#666666"
     borderopacity="1.0"
     inkscape:pageopacity="0.0"
     inkscape:pageshadow="2"
     inkscape:zoom="0.35"
     inkscape:cx="-106.19077"
     inkscape:cy="361.17523"
     inkscape:document-units="px"
     inkscape:current-layer="layer1"
     showgrid="false"
     inkscape:window-width="1920"
     inkscape:window-height="1017"
     inkscape:window-x="-8"
     inkscape:window-y="-8"
     inkscape:window-maximized="1" />
  <metadata
     id="metadata2953">
    <rdf:RDF>
      <cc:Work
         rdf:about="">
        <dc:format>image/svg+xml</dc:format>
        <dc:type
           rdf:resource="http://purl.org/dc/dcmitype/StillImage" />
        <dc:title />
      </cc:Work>
    </rdf:RDF>
  </metadata>
  <g
     inkscape:label="Vrstva 1"
     inkscape:groupmode="layer"
     id="layer1"
     transform="translate(-44.047906,-139.75835)">
    <g
       transform="matrix(2.5658027,0,0,2.5658027,2.3347923,-1773.4703)"
       id="g2868"
       style="fill:#000000">
      <path
         id="path2823"
         d="m 282.44724,826.57497 c 0,-44.65242 -36.18387,-80.8363 -80.8363,-80.8363 -44.65243,0 -80.83628,36.18388 -80.83628,80.8363 0,40.03321 29.63995,74.29242 69.28823,80.06644 V 958.6076 H 132.3227 v 23.09607 h 57.74019 v 57.74013 h 23.0961 v -57.74013 h 57.7402 V 958.6076 h -57.7402 v -51.96619 c 39.64827,-5.77402 69.28825,-40.03323 69.28825,-80.06644 z m -23.0961,0 c 0,31.9496 -25.79062,57.74023 -57.7402,57.74023 -31.94959,0 -57.74021,-25.79063 -57.74021,-57.74023 0,-31.94957 25.79062,-57.74021 57.74021,-57.74021 31.94958,0 57.7402,25.79064 57.7402,57.74021 z"
         style="fill:#000000;stroke:none"
         inkscape:connector-curvature="0" />
      <path
         id="path2823-1"
         d="m 177.92993,826.50106 c 0,-44.65243 -36.18388,-80.8363 -80.836296,-80.8363 -44.652434,0 -80.836299,36.18387 -80.836299,80.8363 0,40.03321 29.63998,74.29241 69.288259,80.06643 v 51.96618 H 27.805376 v 23.0961 h 57.740218 v 57.74033 h 23.096076 v -57.74033 h 57.74021 v -23.0961 h -57.74021 v -51.96618 c 39.64827,-5.77402 69.28826,-40.03322 69.28826,-80.06643 z m -23.09609,0 c 0,31.94959 -25.79061,57.74022 -57.740206,57.74022 -31.949572,0 -57.740205,-25.79063 -57.740205,-57.74022 0,-31.94958 25.790633,-57.7402 57.740205,-57.7402 31.949596,0 57.740206,25.79062 57.740206,57.7402 z"
         style="fill:#000000;stroke:none"
         inkscape:connector-curvature="0" />
      <path
         id="path2825-9"
         d="m 201.29778,746.36628 c -44.65243,0 -80.83628,36.18386 -80.83628,80.83629 h 23.09607 c 0,-31.94958 25.79062,-57.74021 57.74021,-57.74021 z"
         style="fill:#000000;stroke:none"
         inkscape:connector-curvature="0" />
    </g>
  </g>
</svg>
