<?xml version="1.0" encoding="utf-8"?>
<!-- Generator: Adobe Illustrator 19.2.0, SVG Export Plug-In . SVG Version: 6.00 Build 0)  -->
<svg version="1.0" id="Layer_1" xmlns="http://www.w3.org/2000/svg" xmlns:xlink="http://www.w3.org/1999/xlink" x="0px" y="0px"
	 width="1400px" height="980px" viewBox="0 0 1400 980" enable-background="new 0 0 1400 980" xml:space="preserve">
<rect fill="#FFF7ED" width="1400" height="980"/>
<g opacity="0.1">
	<path fill="#381A04" d="M1327.1,268.8l-43.1-15.5c0-17.7-14.3-32.1-32-32.1c-1.1,0-105.9,13.5-105.9,13.5c-3,0.7-6,1.6-8.8,2.7
		c0,0,0,0,0,0c0,0,0,0,0,0c-0.2,0.1-0.4,0.1-0.5,0.2c-0.7,0.3-1.5,0.6-2.2,0.9c-0.3,0.1-0.7,0.3-1,0.4c-0.6,0.2-1.1,0.5-1.7,0.7
		c-0.4,0.2-0.7,0.4-1.1,0.5c-0.5,0.2-1,0.5-1.5,0.8c-0.4,0.2-0.7,0.4-1.1,0.6c-0.5,0.3-1,0.5-1.4,0.8c-0.4,0.2-0.7,0.4-1.1,0.6
		c-0.5,0.3-0.9,0.6-1.4,0.8c-0.4,0.2-0.7,0.5-1.1,0.7c-0.5,0.3-0.9,0.6-1.4,0.9c-0.4,0.2-0.7,0.5-1,0.7c-0.5,0.3-0.9,0.6-1.3,1
		c-0.3,0.2-0.7,0.5-1,0.7c-0.5,0.4-0.9,0.7-1.4,1.1c-0.3,0.2-0.6,0.5-0.9,0.7c-0.5,0.4-1,0.9-1.5,1.3c-0.2,0.2-0.4,0.4-0.6,0.6
		c-0.7,0.6-1.4,1.3-2.1,1.9c-0.2,0.2-0.4,0.4-0.6,0.6c-0.5,0.5-1,1-1.4,1.5c-0.3,0.3-0.5,0.6-0.8,0.8c-0.4,0.4-0.8,0.9-1.2,1.3
		c-0.3,0.3-0.5,0.6-0.8,0.9c-0.4,0.4-0.7,0.8-1.1,1.3c-0.3,0.3-0.5,0.7-0.8,1c-0.3,0.4-0.7,0.9-1,1.3c-0.3,0.3-0.5,0.7-0.8,1
		c-0.3,0.4-0.6,0.9-0.9,1.3c-0.2,0.3-0.5,0.7-0.7,1.1c-0.3,0.5-0.6,0.9-0.9,1.4c-0.2,0.4-0.4,0.7-0.7,1.1c-0.3,0.5-0.6,1-0.9,1.5
		c-0.2,0.3-0.4,0.7-0.6,1c-0.3,0.5-0.6,1.1-0.9,1.6c-0.2,0.3-0.3,0.6-0.5,0.9c-0.4,0.7-0.7,1.4-1,2.1c-0.1,0.2-0.2,0.3-0.2,0.5
		c-0.4,0.9-0.8,1.8-1.2,2.7c-0.1,0.3-0.2,0.6-0.3,0.8c-0.2,0.6-0.5,1.3-0.7,1.9c-0.1,0.4-0.2,0.7-0.4,1.1c-0.2,0.6-0.4,1.1-0.6,1.7
		c-0.1,0.4-0.2,0.8-0.4,1.2c-0.2,0.6-0.3,1.1-0.5,1.7c-0.1,0.4-0.2,0.8-0.3,1.2c-0.1,0.6-0.3,1.1-0.4,1.7c-0.1,0.4-0.2,0.8-0.3,1.3
		c-0.1,0.6-0.2,1.1-0.3,1.7c-0.1,0.4-0.2,0.8-0.2,1.3c-0.1,0.6-0.2,1.2-0.3,1.7c-0.1,0.4-0.1,0.8-0.2,1.3c-0.1,0.6-0.1,1.2-0.2,1.8
		c0,0.4-0.1,0.8-0.1,1.2c-0.1,0.7-0.1,1.4-0.1,2c0,0.3,0,0.7-0.1,1c0,1-0.1,2.1-0.1,3.1c0,10.1,2,19.7,5.8,28.5
		c0.9,2.2,2,4.3,3.1,6.4c0.6,1,1.2,2.1,1.8,3.1c2.8,4.7,6.2,9,10,12.9l-4.3,11.9c-0.1,0.2-0.1,0.5-0.1,0.7c0,0.8,0.4,1.7,1.1,2.1
		l5.2,3l-4.2,8.4c-4.2,8.3-1.6,18.4,6,23.7l19.7,13.7c3,2.1,6.7,3.3,10.4,3.3h32h5.9h32c2.5,0,4-2.8,2.6-4.9l-1.1-1.6
		c-3.3-4.8-8.8-7.7-14.7-7.7h-20.8c-1.2,0-2.3-0.4-3.2-1.1l-18.9-13.7c-2.3-1.6-2.9-4.7-1.6-7.2l4.7-8.5c0.7,0,1.3,0,2,0h0h0
		c0.8,0,1.7,0,2.5,0c0.8,0,1.6-0.1,2.4-0.1c0,0,0,0,0,0l0,0c28.1-1.9,51.8-19.6,62.3-44.3l30.7-50.7c0,0,9.6-2.6,16.5-10.9h11.7l0,0
		h37.5C1328.9,273.3,1329.5,269.7,1327.1,268.8z M1145.7,406.8l4.1,2.9h-2.1c-1.2,0-2.3-0.4-3.2-1.1l-18.9-13.7
		c-2.3-1.6-2.9-4.7-1.6-7.2l2.5-4.6l2.9,1.7c1,0.6,2.3,0.3,3-0.6l6.6-8.8c1.3,0.5,2.7,0.9,4,1.2l-3.3,6.4
		C1135.6,391.3,1138.1,401.5,1145.7,406.8z"/>
	<path fill="#381A04" d="M998.1,203.9l-13.2-4.1c-3.6-10.9-9.2-19.1-17.1-22.1c-21.6-8.4-55.2,22.8-78.1,53.2
		c-0.3,0.4-3.2,4.1-7.2,10c-3.9,5.8-7.4,11.4-10.1,16.6c-2.4,4.3-7,12.7-12.3,22.3c0,0,0,0,0,0L834.3,326l-44.9,79.8
		c-2.8,6.4-1.2,13.6,4.2,16.6c1.7,1,3.6,1.4,5.5,1.4c3.9,0,6.6-2.1,9.8-5.7l4.3-5.1c1,2,2.5,3.7,4.6,4.9c1.7,1,3.6,1.4,5.5,1.4
		c3.9,0,6.7-2.2,9.8-5.7l60-71.3c0.1,0.1,0.2,0.1,0.3,0.2c0.2,0.1,0.4,0.2,0.7,0.4c0.7,0.4,1.4,0.8,2.1,1.2c0.1,0,0.2,0.1,0.3,0.1
		c0.8,0.4,1.6,0.8,2.4,1.2c0.2,0.1,0.5,0.2,0.7,0.3c0.8,0.4,1.6,0.7,2.4,1c0,0,0.1,0,0.1,0c4.9,1.9,9.8,3.1,14.7,3.7
		c-1.9,1.1-3.7,2.6-5.5,4.3c-1.5,1.5-1.5,3.9,0,5.4c1.5,1.5,3.9,1.5,5.4,0c3.4-3.4,6.8-5,10.2-4.9c5.5,0.2,9.5,4.7,9.6,4.7
		c0.8,0.9,1.8,1.3,2.9,1.3c0.9,0,1.8-0.3,2.5-0.9c1.6-1.4,1.7-3.8,0.4-5.4c-0.2-0.2-2.7-3.1-6.9-5.2c3.6-0.7,7.2-1.7,10.6-3
		c15.4-5.9,28.4-18.1,34.9-34.8c0-0.1,0.1-0.2,0.1-0.2c0.2-0.5,0.4-1,0.6-1.5c0.1-0.2,0.2-0.5,0.2-0.7c0.1-0.4,0.3-0.8,0.4-1.2
		c0.1-0.3,0.2-0.5,0.3-0.8c0.1-0.4,0.3-0.8,0.4-1.3c0.1-0.2,0.2-0.5,0.2-0.7c0.2-0.7,0.4-1.3,0.6-2c0.1-0.2,0.1-0.5,0.2-0.7
		c0.1-0.5,0.3-1,0.4-1.5c0.1-0.3,0.2-0.6,0.2-0.9c0.1-0.5,0.2-0.9,0.3-1.4c0.1-0.3,0.2-0.6,0.2-1c0.1-0.5,0.2-1,0.4-1.6
		c0.1-0.3,0.1-0.5,0.2-0.8c0.2-0.8,0.3-1.6,0.5-2.4c0.1-0.3,0.1-0.6,0.2-0.9c0.1-0.5,0.2-1.1,0.3-1.6c0.1-0.4,0.1-0.7,0.2-1.1
		c0.1-0.5,0.2-1.1,0.3-1.6c0.1-0.4,0.1-0.7,0.2-1.1c0.1-0.7,0.2-1.3,0.3-2c0-0.3,0.1-0.6,0.1-0.9c0.1-0.8,0.2-1.6,0.4-2.4
		c0.1-0.4,0.1-0.7,0.2-1.1c0.1-0.6,0.2-1.2,0.2-1.8c0.1-0.4,0.1-0.8,0.2-1.2c0.1-0.6,0.2-1.2,0.2-1.8c0-0.4,0.1-0.7,0.1-1.1
		c0.1-0.9,0.2-1.9,0.3-2.8c0-0.2,0-0.5,0.1-0.7c0.1-0.7,0.2-1.5,0.2-2.2c0-0.4,0.1-0.8,0.1-1.1c0.1-0.6,0.1-1.3,0.2-1.9
		c0-0.4,0.1-0.8,0.1-1.1c0.1-0.7,0.1-1.4,0.2-2.1c0-0.3,0-0.6,0.1-0.9c0.1-1,0.1-2,0.2-3c0-0.3,0-0.6,0-0.9c0-0.7,0.1-1.5,0.1-2.2
		c0-0.4,0-0.7,0-1.1c0-0.7,0.1-1.4,0.1-2.1c0-0.4,0-0.7,0-1.1c0-0.9,0-1.7,0.1-2.6c0-0.2,0-0.3,0-0.5c0-1,0-2,0-3.1
		c0-0.3,0-0.6,0-0.9c0-0.7,0-1.5,0-2.2c0-0.3,0-0.7,0-1c0-0.7,0-1.5,0-2.2c0-0.3,0-0.6,0-0.9c0-1-0.1-2-0.1-3.1c0-0.1,0-0.1,0-0.2
		c0-1-0.1-1.9-0.1-2.9c0-0.3,0-0.6-0.1-0.9c0-0.7-0.1-1.4-0.1-2.1c0-0.3,0-0.6-0.1-1c-0.1-0.8-0.1-1.5-0.2-2.3c0-0.2,0-0.5-0.1-0.7
		c-0.1-1-0.2-2-0.3-2.9c0-0.2,0-0.3-0.1-0.5c-0.1-0.8-0.2-1.6-0.3-2.4c0-0.3-0.1-0.6-0.1-0.9c-0.1-0.4-0.1-0.8-0.2-1.2l10.1-9.1
		c0.6-0.6,0.9-1.4,0.7-2.2C999.5,204.8,998.9,204.1,998.1,203.9z"/>
	<path fill="#381A04" d="M1297.4,674.3c-1.9-8.5-7.2-16.1-14.8-21c-1.5-0.9-3-1.7-4.6-2.4c-10.7-4.6-22.3-3.3-31.3,2.3
		c-2.2,1.4-9.6,8.8-18.6,18.8c-0.4,0.4-2.5,2.8-6.2,6.6c0,0,0,0,0,0c-0.3,0.3-0.6,0.6-0.9,0.9c0,0,0,0,0,0c-0.3,0.3-0.6,0.6-1,1
		c0,0,0,0-0.1,0.1c-0.3,0.3-0.7,0.7-1,1c0,0-0.1,0.1-0.1,0.1c-0.3,0.3-0.7,0.7-1,1c0,0-0.1,0.1-0.1,0.1c-0.3,0.3-0.7,0.7-1,1
		c-0.1,0.1-0.1,0.1-0.2,0.2c-0.4,0.3-0.7,0.7-1.1,1.1c-0.1,0.1-0.1,0.1-0.2,0.2c-0.4,0.4-0.8,0.7-1.1,1.1c-0.1,0.1-0.1,0.1-0.2,0.2
		c-0.4,0.4-0.8,0.8-1.2,1.2c-0.1,0.1-0.1,0.1-0.2,0.2c-0.4,0.4-0.9,0.9-1.4,1.3c0,0-0.1,0.1-0.1,0.1c-2.5,2.4-5.3,4.9-8.3,7.6
		c-0.1,0.1-0.2,0.1-0.2,0.2c-0.5,0.5-1.1,0.9-1.6,1.4c-0.1,0.1-0.2,0.2-0.4,0.3c-0.5,0.4-1,0.9-1.5,1.3c-0.2,0.1-0.3,0.3-0.5,0.4
		c-0.5,0.4-1,0.8-1.5,1.3c-0.2,0.2-0.4,0.3-0.6,0.5c-0.5,0.4-0.9,0.8-1.4,1.2c-0.2,0.2-0.4,0.3-0.6,0.5c-0.5,0.4-1,0.8-1.5,1.2
		c-0.2,0.2-0.4,0.4-0.6,0.5c-0.5,0.4-1,0.8-1.5,1.2c-0.1,0.1-0.3,0.2-0.4,0.3c-1.2,1-2.5,2.1-3.8,3.2c-0.1,0.1-0.2,0.1-0.3,0.2
		c-1.3,1.1-2.7,2.2-4.1,3.3c-0.1,0-0.1,0.1-0.2,0.1c-1.4,1.1-2.9,2.3-4.3,3.4c0,0,0,0,0,0c-3,2.4-6.1,4.7-9.4,7.2
		c0,0-0.1,0.1-0.1,0.1c-1.5,1.1-3.1,2.3-4.7,3.5c-0.1,0.1-0.3,0.2-0.4,0.3c-1.5,1.1-3.1,2.2-4.7,3.3c-0.2,0.1-0.4,0.3-0.6,0.4
		c-1.5,1.1-3.1,2.2-4.7,3.3c-0.2,0.2-0.5,0.3-0.7,0.5c-1.6,1.1-3.1,2.1-4.7,3.2c-0.3,0.2-0.6,0.4-0.9,0.6c-1.6,1.1-3.2,2.1-4.8,3.1
		c-0.3,0.2-0.6,0.4-0.9,0.6c-1.6,1-3.3,2.1-4.9,3.1c-0.1,0-0.1,0.1-0.2,0.1c-0.3,0.2-0.5,0.3-0.8,0.5c-1.7,1-3.3,2.1-5.1,3.1
		c-0.3,0.2-0.7,0.4-1,0.6c-1.7,1-3.5,2.1-5.2,3.1c-0.3,0.2-0.6,0.4-1,0.5c-1.8,1-3.6,2.1-5.4,3.1c-0.3,0.2-0.6,0.3-0.8,0.5
		c-1.9,1.1-3.8,2.1-5.7,3.1c-0.2,0.1-0.4,0.2-0.6,0.3c-2,1.1-4,2.1-6,3.2c-0.1,0-0.1,0.1-0.2,0.1l-1.6,0.8l-3.3,1.6l35.2,1.2l0,0
		l2.3,0.1l1.9,0.1c1.9,0.1,3.7,0.2,5.5,0.3c9.5,0.6,19,2.1,28.2,4.3c9.3,2.2,18.4,5.2,27.2,8.8h0h0c0.4,0.2,0.9,0.3,1.3,0.5
		c1.8,0.7,3.5,1.2,5.3,1.7v31.3c0,0.2,0,0.3,0,0.5c-2.1,0.6-3.9,1.6-5.2,2.5c-1.2,0.9-1.5,2.6-0.7,3.9c0.9,1.3,2.6,1.6,3.9,0.7
		c0.3-0.2,5.9-4,10.2-1.2c0,0,0,0,0,0.1c0.3,0.5,0.8,0.8,1.3,1c0.5,0.4,1.1,0.6,1.7,0.6c0.7,0,1.4-0.3,2-0.8
		c0.3-0.3,0.6-0.7,0.7-1.2c2.3-1.1,6.4-2.3,9.5,0.7c0.5,0.5,1.3,0.8,2,0.8c0.7,0,1.4-0.3,2-0.8c1.1-1.1,1.1-2.8,0-3.9
		c-1.7-1.7-3.6-2.7-5.5-3.2c0,0,0-0.1,0-0.1v-29.6c4.1-0.6,8.2-1.7,12.1-3.2c0,0,0,0,0,0c0.3-0.1,0.5-0.2,0.8-0.3
		c0.4-0.2,0.9-0.4,1.3-0.6c0.4-0.2,0.8-0.4,1.1-0.5c0.4-0.2,0.8-0.4,1.2-0.6c0.4-0.2,0.8-0.4,1.1-0.6c0.4-0.2,0.8-0.4,1.1-0.6
		c0.4-0.2,0.8-0.4,1.1-0.7c0.4-0.2,0.7-0.4,1.1-0.7c0.4-0.2,0.8-0.5,1.1-0.7c0.4-0.2,0.7-0.5,1-0.7c0.4-0.3,0.7-0.5,1.1-0.8
		c0.3-0.3,0.7-0.5,1-0.8c0.4-0.3,0.7-0.6,1.1-0.9c0.3-0.3,0.7-0.5,1-0.8c0.3-0.3,0.7-0.6,1-0.9c0.3-0.3,0.6-0.6,0.9-0.9
		c0.3-0.3,0.6-0.6,1-0.9c0.3-0.3,0.6-0.6,0.9-1c0.3-0.3,0.6-0.6,0.9-1c0.3-0.3,0.6-0.7,0.9-1c0.3-0.3,0.6-0.7,0.8-1
		c0.3-0.4,0.6-0.7,0.9-1.1c0.3-0.3,0.5-0.7,0.8-1c0.3-0.4,0.6-0.8,0.9-1.2c0.2-0.3,0.5-0.7,0.7-1c0.3-0.4,0.6-0.9,0.8-1.4
		c0.2-0.3,0.4-0.6,0.6-1c0.3-0.5,0.6-1,0.9-1.5c0.2-0.3,0.3-0.6,0.5-0.9c0.3-0.6,0.6-1.3,0.9-1.9c0.1-0.2,0.2-0.4,0.3-0.6
		c0.4-0.9,0.8-1.7,1.1-2.6c0.2-0.4,0.3-0.8,0.5-1.2c0.1-0.3,0.2-0.5,0.3-0.8c0.1-0.3,0.2-0.6,0.3-0.9c0.1-0.4,0.3-0.8,0.4-1.2
		c0.1-0.3,0.2-0.5,0.2-0.8c0.1-0.4,0.3-0.8,0.4-1.3c0.1-0.3,0.1-0.5,0.2-0.8c0.1-0.4,0.2-0.9,0.3-1.3c0.1-0.3,0.1-0.5,0.2-0.8
		c0.1-0.4,0.2-0.9,0.3-1.3c0-0.3,0.1-0.5,0.1-0.8c0.1-0.4,0.1-0.8,0.2-1.3c0-0.3,0.1-0.6,0.1-0.8c0.1-0.4,0.1-0.8,0.1-1.2
		c0-0.3,0.1-0.6,0.1-0.9c0-0.4,0.1-0.8,0.1-1.2c0-0.3,0-0.6,0-0.9c0-0.4,0-0.8,0-1.2c0-0.3,0-0.6,0-0.9c0-0.4,0-0.7,0-1.1
		c0-0.3,0-0.6,0-1c0-0.4,0-0.7,0-1.1c0-0.3,0-0.7-0.1-1c0-0.3,0-0.7-0.1-1c0-0.3-0.1-0.7-0.1-1c0-0.3-0.1-0.7-0.1-1
		c0-0.3-0.1-0.7-0.1-1c0-0.3-0.1-0.7-0.1-1c-0.1-0.3-0.1-0.7-0.2-1c-0.1-0.3-0.1-0.6-0.2-1c-0.1-0.3-0.1-0.7-0.2-1
		c0-0.2-0.1-0.3-0.1-0.5c0,0,0,0,0,0c-0.1-0.3-0.1-0.7-0.2-1c3.7-3.1,14.3-11.9,16.2-13.9c1.2-1.2,2.3-2.6,3.3-4
		c0,0.1,0.1,0.3,0.1,0.4l26.7-9.1l-21.2-18.6L1297.4,674.3z M1220.4,815.8c-1.2,0.4-2.3,0.8-3.3,1.3c-1-0.6-2-1-3.1-1.3
		c0,0,0-0.1,0-0.1v-29.8c2.1,0.2,4.2,0.4,6.3,0.4v29C1220.3,815.5,1220.3,815.6,1220.4,815.8z"/>
	<path fill="#381A04" d="M113.7,380.7c9.8,1.2,19.2,2,28.2,2.5c-8.2,5.1-18.4,10.5-24.6,13.5c-3.3,1.6-21.5,9.9,1.2,14.5
		c20.2,4.1,52.9-15.4,68.6-25.9c2.4,1.2,5.2,2.3,8.2,3.4c0,0,22.5,7,49,4.1c0,0.1,0,0.2-0.1,0.3c0,0.2-0.1,0.4-0.1,0.6
		c0,0.2-0.1,0.4-0.1,0.5c0,0.2-0.1,0.4-0.1,0.6c0,0.2,0,0.3,0,0.5c0,0.2,0,0.4-0.1,0.6c0,0.2,0,0.3,0,0.5c0,0.2,0,0.4,0,0.6
		c0,0.1,0,0.3,0,0.4c0,0.2,0,0.4,0,0.6c0,0.1,0,0.2,0,0.4c0,0.2,0,0.4,0,0.7c0,0.1,0,0.2,0,0.3c0,0.2,0,0.5,0.1,0.7l0,0l0,0
		c0.4,4.6,2.1,8.4,3.8,10.9l-6.1,2.4c-1.5,0.6-2.2,2.3-1.6,3.7c0.4,1.1,1.5,1.8,2.7,1.8c0.4,0,0.7-0.1,1.1-0.2l10.9-4.3l17.4,8.9
		c0.4,0.2,0.9,0.3,1.3,0.3c1,0,2.1-0.6,2.6-1.6c0.7-1.4,0.2-3.2-1.2-3.9l-7.9-4l10.9-0.4c1.6-0.1,2.8-1.4,2.8-3
		c-0.1-1.6-1.4-2.8-3-2.8l-19.9,0.7c-0.2-0.2-0.5-0.4-0.8-0.5c-0.2-0.6-0.5-1.2-1-1.8c0,0-2-2.3-2.7-6.2h0c-0.2-1-0.3-2.1-0.2-3.3
		c0-0.1,0-0.1,0-0.2c0-0.2,0-0.3,0-0.5c0-0.1,0-0.2,0-0.3c0-0.2,0-0.3,0.1-0.5c0-0.1,0-0.2,0.1-0.4c0-0.2,0.1-0.3,0.1-0.5
		c0-0.1,0.1-0.3,0.1-0.4c0-0.2,0.1-0.3,0.1-0.5c0-0.1,0.1-0.3,0.1-0.4c0-0.1,0.1-0.3,0.1-0.4c0-0.2,0.1-0.3,0.1-0.5
		c0-0.1,0.1-0.3,0.1-0.4c0.1-0.2,0.1-0.3,0.2-0.5c0-0.1,0.1-0.2,0.1-0.3c3.1-0.6,6.2-1.4,9.3-2.4c0,0,0,0,0,0.1c0,0.1,0,0.2,0,0.3
		c0,0.2,0,0.4,0,0.6c0,0.1,0,0.2,0,0.2c0.3,4.5,1.9,8.2,3.5,10.6l-5.5,2.2c-1.3,0.5-2,2.1-1.5,3.4c0.4,1,1.4,1.7,2.4,1.7
		c0.3,0,0.6-0.1,1-0.2l9.9-3.9l15.9,8.1c0.4,0.2,0.8,0.3,1.2,0.3c1,0,1.9-0.5,2.3-1.4c0.7-1.3,0.2-2.9-1.1-3.5l-7.2-3.7l9.9-0.4
		c1.4-0.1,2.6-1.3,2.5-2.7c-0.1-1.4-1.2-2.6-2.7-2.5l-18.1,0.7c-0.2-0.2-0.5-0.4-0.7-0.5c-0.2-0.6-0.5-1.1-0.9-1.6
		c0,0-1.8-2.1-2.4-5.6l0,0c-0.2-0.9-0.2-1.9-0.2-3c0-0.1,0-0.1,0-0.2c0-0.2,0-0.3,0-0.5c0-0.1,0-0.2,0-0.3c0-0.1,0-0.3,0.1-0.4
		c0-0.1,0-0.2,0-0.3c0-0.1,0-0.3,0.1-0.4c0-0.1,0-0.1,0-0.2c22.2-9.5,42.9-29.5,51.9-69.2c0.7-2.9,1.2-5.8,1.5-8.9l0,0c0,0,0,0,0,0
		c0-0.3,0.1-0.6,0.1-1c0-0.1,0-0.2,0-0.2c0-0.3,0.1-0.6,0.1-1c0-0.1,0-0.1,0-0.2c0.1-1,0.1-2,0.1-3.1c0-0.1,0-0.2,0-0.4
		c0-0.3,0-0.6,0-0.9c0-0.2,0-0.3,0-0.5c0-0.3,0-0.6,0-0.9c0-0.2,0-0.3,0-0.5c0-0.6,0-1.2-0.1-1.8c0-0.2,0-0.3,0-0.5
		c0-0.3,0-0.6-0.1-0.9c0-0.2,0-0.4-0.1-0.7c0-0.3-0.1-0.6-0.1-0.9c0-0.2,0-0.5-0.1-0.7c0-0.3-0.1-0.6-0.1-0.9c0-0.3-0.1-0.6-0.1-0.9
		c-0.1-0.4-0.1-0.9-0.2-1.3c0-0.3-0.1-0.7-0.1-1c0-0.3-0.1-0.5-0.1-0.8c-0.1-0.3-0.1-0.6-0.2-0.9c0-0.3-0.1-0.6-0.2-0.8
		c-0.1-0.3-0.1-0.7-0.2-1c-0.1-0.3-0.1-0.5-0.2-0.8c-0.1-0.6-0.2-1.2-0.4-1.8c0-0.2-0.1-0.4-0.1-0.6c-0.1-0.4-0.2-0.9-0.3-1.3
		c-0.1-0.3-0.1-0.6-0.2-0.8c-0.1-0.4-0.2-0.8-0.3-1.2c-0.1-0.3-0.1-0.6-0.2-0.8c-0.1-0.5-0.3-1-0.4-1.5c-0.1-0.2-0.1-0.4-0.2-0.7
		c-0.2-0.7-0.4-1.4-0.6-2.2c-0.1-0.2-0.1-0.4-0.2-0.7c-0.2-0.5-0.3-1.1-0.5-1.7c-0.1-0.3-0.2-0.6-0.3-0.9c-0.2-0.5-0.3-1.1-0.5-1.6
		c-0.1-0.3-0.2-0.6-0.3-0.8c-0.2-0.7-0.4-1.4-0.7-2c-0.1-0.2-0.1-0.3-0.2-0.5c-0.3-0.8-0.6-1.7-0.9-2.6c-0.1-0.3-0.2-0.5-0.3-0.8
		c-0.2-0.6-0.5-1.3-0.7-2c-0.1-0.3-0.2-0.6-0.3-0.9c-0.2-0.6-0.5-1.3-0.7-2c-0.1-0.3-0.2-0.6-0.3-0.9c-0.4-1-0.7-1.9-1.1-2.9
		c-0.3-0.7-0.5-1.5-0.7-2.5c-0.1-0.3-0.1-0.6-0.1-0.9c0-0.3-0.1-0.6-0.1-1c0-0.1,0-0.2,0-0.3c0-0.1,0-0.3,0-0.4c0-0.1,0-0.2,0-0.3
		c0-0.1,0-0.3,0-0.4c0-0.1,0-0.2,0-0.4c0-0.1,0-0.3,0-0.4c0-0.1,0-0.3,0-0.4c0-0.1,0-0.2,0-0.4c0-0.2,0-0.3,0.1-0.5
		c0-0.1,0-0.3,0.1-0.4c0-0.2,0.1-0.4,0.1-0.5c0-0.1,0-0.2,0.1-0.3c0-0.1,0.1-0.3,0.1-0.4c0-0.1,0.1-0.2,0.1-0.3
		c0-0.1,0.1-0.3,0.1-0.4c0-0.1,0.1-0.2,0.1-0.3c0.1-0.1,0.1-0.3,0.2-0.4c0-0.1,0.1-0.2,0.1-0.3c0.1-0.2,0.2-0.4,0.3-0.5
		c0,0,0-0.1,0.1-0.1c0,0,0,0,0,0c0.1-0.2,0.3-0.4,0.4-0.6c0,0,0.1-0.1,0.1-0.1c0.1-0.2,0.3-0.3,0.4-0.5c0.1-0.1,0.1-0.1,0.2-0.2
		c0.1-0.1,0.3-0.3,0.4-0.4c0.1-0.1,0.1-0.1,0.2-0.2c0.2-0.1,0.3-0.3,0.5-0.4c0.1,0,0.1-0.1,0.2-0.1c0,0,0,0,0,0
		c0.2-0.2,0.4-0.3,0.7-0.4c0,0,0,0,0,0c0,0,0.1,0,0.1-0.1c0.2-0.1,0.5-0.2,0.7-0.3c0.1,0,0.1,0,0.2-0.1c0,0,0,0,0,0
		c0.2-0.1,0.4-0.2,0.7-0.3c0.1,0,0.2-0.1,0.3-0.1c0,0,0.1,0,0.1,0c0.2-0.1,0.4-0.1,0.6-0.2c0.1,0,0.2-0.1,0.3-0.1c0.1,0,0.1,0,0.2,0
		c0.2,0,0.4-0.1,0.6-0.1c0.1,0,0.2,0,0.4-0.1c0.1,0,0.2,0,0.3,0c0.2,0,0.4,0,0.6-0.1c0.1,0,0.2,0,0.3,0c0.2,0,0.3,0,0.5,0
		c0.3,0,0.5,0,0.8,0c0.1,0,0.1,0,0.2,0c0.2,0,0.3,0,0.5,0c0.2,0,0.4,0,0.7,0c0.2,0,0.3,0,0.5,0c0.1,0,0.3,0,0.4,0
		c0.2,0,0.4,0,0.6,0.1c0.2,0,0.4,0,0.6,0.1c0.2,0,0.4,0.1,0.6,0.1c0.1,0,0.3,0,0.4,0.1c0.2,0,0.4,0.1,0.6,0.1
		c0.3,0.1,0.6,0.1,0.9,0.2c0.1,0,0.2,0,0.3,0.1c0.2,0,0.4,0.1,0.6,0.1c0.6,0.1,1.2,0.3,1.8,0.5c0,0,0-0.1,0-0.4c0-0.1,0-0.1,0-0.2
		c0-0.1,0-0.3,0-0.4c0-0.3-0.1-0.6-0.2-1c-0.1-0.5-0.3-1.1-0.6-1.7c-0.1-0.1-0.1-0.2-0.2-0.4c-0.4-0.8-1-1.8-1.8-2.8
		c-0.5-0.7-1.1-1.4-1.8-2.1c-0.3-0.4-0.7-0.7-1.1-1.1c-1.3-1.3-2.9-2.7-5-4.2c0,0,0,0,0-0.1c0,0,0,0,0,0c0-0.1,0-0.1-0.1-0.2
		c0,0,0,0,0,0l0,0c-0.1-0.4-0.4-1.1-0.8-2.1c-0.1-0.2-0.2-0.4-0.2-0.6c-0.2-0.5-0.5-1-0.7-1.6c-0.1-0.2-0.2-0.4-0.3-0.6
		c-0.2-0.4-0.4-0.8-0.6-1.2c-0.2-0.5-0.5-0.9-0.8-1.4c-0.1-0.2-0.3-0.4-0.4-0.7c-0.3-0.5-0.6-0.9-0.9-1.4c-0.2-0.3-0.3-0.5-0.5-0.8
		c-0.3-0.4-0.5-0.7-0.8-1.1c-0.2-0.2-0.4-0.5-0.5-0.7c-0.4-0.5-0.8-0.9-1.2-1.4c-1.2-1.3-2.6-2.6-4.1-3.6c-0.3-0.2-0.7-0.5-1.1-0.7
		c-0.3-0.2-0.7-0.4-1-0.6c-0.2-0.1-0.4-0.2-0.6-0.3c-1.3-0.6-2.7-1.1-4.3-1.4c-0.6-0.1-1.3-0.2-2-0.2c-0.3,0-0.7,0-1,0
		c-3.2,0-6.7,0.9-10.7,2.9c-0.4,0.2-0.9,0.5-1.3,0.7c-2.7,1.6-5.6,3.7-8.6,6.5c-2,1.9-4.2,4-6.4,6.5c-0.7,0.7-1.2,1.5-1.8,2.2
		c-0.3,0.5-0.7,1-0.9,1.5c-0.7,1.3-1.2,2.6-1.7,4c-0.2,0.6-0.3,1.2-0.4,1.8c-0.1,0.3-0.1,0.6-0.2,1c-0.1,0.7-0.2,1.3-0.3,2.1
		c-0.3,2.2-0.4,4.6-0.6,7.6c-0.2,5.4-0.4,12.4-1.1,21.9c0,0,0,0,0,0c0,0,0,0,0,0c0,0,0,0.1,0,0.1c0,0,0,0,0,0.1c0,0,0,0.1,0,0.1
		c0,0,0,0.1,0,0.1c0,0,0,0.1,0,0.1c-0.1,0.2-0.1,0.5-0.3,0.9c0,0,0,0,0,0c0,0.1-0.1,0.2-0.1,0.4c0,0,0,0,0,0.1
		c-0.1,0.1-0.1,0.3-0.2,0.4c0,0,0,0,0,0c0,0.1-0.1,0.2-0.1,0.2c-0.4,0.8-0.9,1.6-1.3,2.4c0,0.1-0.1,0.2-0.1,0.2
		c-0.4,0.7-0.9,1.4-1.3,2.1c-0.1,0.1-0.1,0.2-0.2,0.3c-0.4,0.7-0.9,1.3-1.4,1.9c-0.1,0.1-0.1,0.2-0.2,0.3c-0.5,0.6-0.9,1.2-1.4,1.7
		c-0.1,0.1-0.1,0.1-0.2,0.2c0,0,0,0,0,0c-2.2,2.4-5.1,4.9-8.8,7.5c0,0-0.1,0.1-0.1,0.1c-0.4,0.3-0.9,0.6-1.3,0.9
		c-0.1,0-0.1,0.1-0.2,0.1c-0.5,0.3-0.9,0.6-1.4,0.9c-0.8,0.5-1.6,0.9-2.4,1.4c-7.4,3-14.1,6-20.2,9.1c-3.7,1.8-7.3,3.8-10.8,5.9
		c-35.1,20.5-42.1,39.6-42.1,39.6l0,0C74.4,374,113.7,380.7,113.7,380.7z"/>
	<path fill="#381A04" d="M718.2,202.7h-24.6c-2.3-10.9-12-19-23.5-19l0,0c-13.3,0-24.1,10.8-24.1,24.1v36.9c0,0,0-0.1-0.1-0.1
		c-6.5,1.9-115,35.3-187.1,113.1c-4.3,4.6-0.8,12.2,5.5,11.9c40.5-1.5,83.6-0.1,118.7-7h14.9V411c-3.7,1.8-9.6,5.3-14.7,8.5
		c-2.1,1.3-1,4.6,1.5,4.3c9.2-1.2,23.4-2.1,41.1-0.3c1.8,0.2,2.5-2.2,0.9-3c-2.3-1.2-4.9-2.5-7.5-3.7c5.9,0,12.4,0.3,19.5,1
		c1.8,0.2,2.5-2.2,0.9-3c-6.4-3.3-15.4-7.7-21.2-9.6v-42.4h6.8c0,0,69-15.3,69-71.7v-75.4H731C731,208.5,725.2,202.7,718.2,202.7z
		 M610.6,405.3c-1.5,0.7-3.3,1.7-5.2,2.8v-45.4h5.2V405.3z"/>
	<path fill="#381A04" d="M978.3,661.6c-0.4-0.3-0.8-0.6-1.3-0.9c-0.3-0.2-0.6-0.5-1-0.7c-0.6-0.4-1.2-0.8-1.8-1.2
		c-0.2-0.1-0.4-0.3-0.6-0.4c-0.7-0.4-1.4-0.9-2.1-1.3c-0.1-0.1-0.2-0.1-0.3-0.2c-0.8-0.5-1.6-0.9-2.4-1.4c-0.1,0-0.1-0.1-0.2-0.1
		c-0.8-0.5-1.7-0.9-2.5-1.4c0,0-0.1,0-0.1-0.1c-0.9-0.4-1.7-0.9-2.6-1.3c0,0-0.1,0-0.1-0.1c-0.9-0.4-1.7-0.8-2.6-1.2
		c0,0-0.1,0-0.1-0.1c0,0,0,0,0,0c-8.2-3.7-17.1-6.1-25.4-6.1c-30.8,0-44.2,30.4-56.9,59.7c-13.9,32.3-28.3,65.8-65.4,65.8
		c-2.6,0-4.8,1.8-5.4,4.3c-0.6,2.5,0.7,5.1,3.1,6.2c18.4,8.5,36.1,14.4,52.4,17.6v16.3c-3.9,1.4-6.3,4.2-6.5,4.4
		c-0.9,1.1-0.8,2.7,0.3,3.7c1.1,0.9,2.7,0.8,3.7-0.2c0,0,2.9-3.3,6.8-3.4c2.5-0.1,4.9,1.1,7.3,3.5c0.5,0.5,1.2,0.8,1.8,0.8
		s1.3-0.3,1.8-0.8c1-1,1-2.7,0-3.7c-0.2-0.2-0.4-0.4-0.6-0.6c0.3-0.1,0.6-0.4,0.8-0.6c0,0,2.9-3.3,6.8-3.4c2.5-0.1,4.9,1.1,7.3,3.5
		c0.5,0.5,1.2,0.8,1.8,0.8s1.3-0.3,1.8-0.8c1-1,1-2.7,0-3.7c-2-2-4.1-3.4-6.3-4.2v-8.8c0.9,0,1.8,0,2.7-0.1c0.4,0,0.7,0,1.1-0.1
		c0.9,0,1.8-0.1,2.7-0.2c0.4,0,0.8-0.1,1.2-0.1c0.9-0.1,1.8-0.2,2.6-0.3c0.4,0,0.7-0.1,1.1-0.1c1.2-0.2,2.3-0.4,3.5-0.6c0,0,0,0,0,0
		c1.1-0.2,2.2-0.5,3.3-0.7c0.4-0.1,0.7-0.2,1.1-0.3c0.7-0.2,1.4-0.4,2.1-0.6c0.4-0.1,0.8-0.3,1.2-0.4c0.7-0.2,1.3-0.4,1.9-0.7
		c0.4-0.1,0.8-0.3,1.2-0.4c0.8-0.3,1.5-0.6,2.2-0.9c0.4-0.2,0.9-0.4,1.3-0.6c0.7-0.3,1.4-0.6,2-1c0.4-0.2,0.8-0.4,1.2-0.7
		c0.5-0.3,1-0.5,1.4-0.8c0.4-0.2,0.8-0.5,1.2-0.8c0.4-0.3,0.9-0.6,1.3-0.9c0.4-0.3,0.8-0.5,1.2-0.8c0.5-0.4,1-0.7,1.4-1.1
		c0.5-0.4,1-0.8,1.5-1.3c0.4-0.4,0.8-0.7,1.2-1.1c0,0,0,0,0,0c0,0,0,0,0,0c0.1-0.1,0.1-0.1,0.2-0.2c0.3-0.3,0.6-0.5,0.8-0.8
		c0.1-0.1,0.3-0.3,0.4-0.4c0.1-0.1,0.1-0.1,0.2-0.2c0.2-0.2,0.4-0.4,0.6-0.6c0.3-0.3,0.6-0.7,0.9-1c0.4-0.5,0.8-0.9,1.2-1.4
		c0.2-0.3,0.4-0.5,0.7-0.8c0.2-0.2,0.3-0.4,0.4-0.6c0.4-0.6,0.9-1.2,1.3-1.8c0,0,0,0,0,0c13.6-20.5,15.3-47.1,16.8-70.5
		c0.9-14,1.7-26.7,5-34.7c0.1-0.2,0.2-0.4,0.2-0.6c0.1-0.3,0.2-0.5,0.4-0.8c0.1-0.2,0.2-0.4,0.3-0.6c0-0.1,0.1-0.1,0.1-0.2
		c0.1-0.2,0.2-0.4,0.4-0.6c0.1-0.1,0.1-0.2,0.2-0.3c0.1-0.2,0.2-0.4,0.3-0.5c0.1-0.1,0.1-0.2,0.2-0.3c0.2-0.3,0.4-0.5,0.6-0.8
		c0,0,0.1-0.1,0.1-0.1c0.2-0.3,0.5-0.5,0.7-0.8c0.2-0.2,0.3-0.3,0.5-0.5c0.2-0.1,0.3-0.3,0.5-0.4c0.1-0.1,0.2-0.2,0.3-0.2
		c0,0,0.1,0,0.1-0.1c0.3-0.3,0.7-0.5,1.1-0.7c0.1-0.1,0.2-0.1,0.4-0.2c0,0,0.1,0,0.1-0.1c0.2-0.1,0.4-0.2,0.6-0.3
		c0.3-0.1,0.5-0.2,0.8-0.3c0.1,0,0.2-0.1,0.3-0.1c0,0,0,0,0,0c2.3-0.6,9.4-2.5,11.7-2.5C979.7,662.7,979,662.1,978.3,661.6z
		 M874.6,814.7c-0.3,0.4-0.5,0.9-0.6,1.3c-0.7-0.4-1.3-0.7-2-0.9v-14.8c3.1,0.4,6.1,0.7,9,0.9v9.1
		C877.2,811.7,874.7,814.5,874.6,814.7z"/>
	<path fill="#381A04" d="M668.2,567.9c-0.1-1.7-0.4-3.5-0.9-5.4c-8.2-32.9-35.3-48.5-54.7-37.6c-19.4,10.9-24.1,45-13.8,69.7
		c10.3,24.7,14,28.4,7.4,54.1c0,0-100.9-24.1-125.9,94.4c-6.7,31.8-3.9,60.5-2.8,56.7c19.1-8.3,35.3-17.9,49.2-28.2
		c0.1,0,0.2,0,0.3-0.1c0.1,0,0.2,0,0.3,0c0.3,0,0.5-0.1,0.8-0.1c0.1,0,0.2,0,0.3,0c0.7-0.1,1.5-0.3,2.3-0.4c0.1,0,0.1,0,0.2,0
		c0.3-0.1,0.7-0.1,1-0.2c0.1,0,0.2,0,0.3-0.1c0.4-0.1,0.7-0.2,1.1-0.2c0.1,0,0.1,0,0.2,0c0.9-0.2,1.8-0.4,2.8-0.6c0.1,0,0.1,0,0.2,0
		c0.4-0.1,0.8-0.2,1.3-0.3c0.1,0,0.2,0,0.2-0.1c0.5-0.1,0.9-0.2,1.4-0.3c0,0,0,0,0.1,0c0.8-0.2,1.6-0.4,2.4-0.6l-1.2,44.5l-7.4,1.9
		c-1.6,0.4-2.5,2-2.1,3.6c0.4,1.6,2,2.5,3.6,2.1l9.5-2.4c0,0,0,0,0,0c0,0,0,0,0,0l22.5,5.8c0.2,0.1,0.5,0.1,0.7,0.1
		c1.3,0,2.5-0.9,2.8-2.2c0.4-1.6-0.5-3.2-2.1-3.6l-6.8-1.8l2.8-0.7c0,0,0,0,0,0c0,0,0,0,0,0l22.5,5.8c0.2,0.1,0.5,0.1,0.7,0.1
		c1.3,0,2.5-0.9,2.8-2.2c0.4-1.6-0.5-3.2-2.1-3.6l-20.4-5.2l1.4-51.8c0-0.1,0-0.2,0-0.3c1.1-0.5,2.3-1.1,3.4-1.6c0,0,0,0,0,0
		c15.2-7.6,30.9-18.8,42.8-35.2c0,0,0,0,0,0c0.5-0.7,1-1.4,1.5-2.1c0,0,0,0,0,0c1.5-2.2,2.9-4.4,4.3-6.8c0,0,0-0.1,0.1-0.1
		c0.4-0.8,0.9-1.5,1.3-2.3c0,0,0,0,0,0l0,0c14-25.9,19.1-62.5,3.9-114c0,0,0.1,0,0.3,0c9.5,18.6,32.6,50.7,83.7,69.2c0,0,0,0,0.1,0
		c0,0,0,0,0,0c0.2,0.1,0.4,0.2,0.6,0.2c0,0,10.7,0-41.6-96C668.9,568.9,668.6,568.4,668.2,567.9z M547.6,812.7l1.3-46.6
		c0.2-0.1,0.4-0.1,0.5-0.2c0,0,0.1,0,0.1,0c0.6-0.2,1.1-0.4,1.7-0.5c0,0,0.1,0,0.1,0c1.8-0.6,3.6-1.2,5.5-1.9c0,0,0,0,0.1,0
		c0.6-0.2,1.2-0.5,1.8-0.7c0,0,0,0,0,0c1-0.4,2.1-0.8,3.2-1.3l-1.3,48.9l-7.4,1.9c-0.8,0.2-1.5,0.8-1.9,1.5L547.6,812.7z"/>
	<path fill="#381A04" d="M346.9,592.7c-12.8,6.8-46.9,25.2-52.2,32.8c-17.1-2.2-57.7-2.4-57.7,46.4c-37.4-21.1-101.3-53-141-49.4
		c-4.2,0.4-6.1,5.3-3.4,8.5c5.6,6.6,15.6,16.1,29.4,20.2c0,0,0.4,21.8,35,29.2c0,0,2.1,14,24.7,20c0,0,7.4,14.7,19.4,17.3
		c0,0,1.8,0.5,4.9,0.9c-11.9,9.6-27.8,26.3-34.9,51.2c-8.3,16.9-11.9,34.5-13.5,46.1c-0.8,5.8,5.6,9.8,10.5,6.6
		c18.7-12.4,30.6-29.9,38.2-46.6c0,0,0,0,0,0c0,0,24.8-5.7,47.2-20.2c0,0,0,0,0,0c0.3-0.2,0.6-0.4,1-0.6c0.5-0.3,1-0.7,1.5-1
		c0.3-0.2,0.7-0.5,1-0.7c0.3-0.2,0.6-0.4,0.8-0.6c0.3-0.2,0.6-0.4,0.9-0.7c0.3-0.2,0.6-0.4,0.9-0.6c0.3-0.2,0.6-0.5,0.9-0.7
		c0.3-0.2,0.6-0.4,0.8-0.7c0.3-0.2,0.6-0.5,0.9-0.7c0.3-0.2,0.6-0.4,0.8-0.7c0.3-0.2,0.6-0.5,0.9-0.7c0.3-0.2,0.5-0.5,0.8-0.7
		c0.3-0.3,0.6-0.5,0.9-0.8c0.3-0.2,0.5-0.5,0.8-0.7c0.3-0.3,0.6-0.5,0.9-0.8c0.3-0.2,0.5-0.5,0.8-0.7c0.3-0.3,0.6-0.6,0.9-0.9
		c0.2-0.2,0.5-0.4,0.7-0.7c0.4-0.4,0.7-0.7,1.1-1.1c0.2-0.2,0.3-0.3,0.5-0.5c0.5-0.5,1-1.1,1.5-1.6c0.2-0.2,0.3-0.4,0.5-0.6
		c0.3-0.4,0.6-0.7,0.9-1.1c0.2-0.2,0.4-0.5,0.6-0.7c0.3-0.3,0.6-0.7,0.8-1c0.2-0.3,0.4-0.5,0.6-0.8c0.3-0.3,0.5-0.7,0.8-1
		c0.2-0.3,0.4-0.5,0.6-0.8c0.2-0.3,0.5-0.7,0.7-1c0.2-0.3,0.4-0.5,0.6-0.8c0.2-0.3,0.5-0.7,0.7-1c0.2-0.3,0.4-0.5,0.5-0.8
		c0.2-0.4,0.4-0.7,0.7-1.1c0.2-0.3,0.3-0.5,0.5-0.8c0.2-0.4,0.4-0.8,0.7-1.2c0.1-0.3,0.3-0.5,0.4-0.8c0.2-0.5,0.5-0.9,0.7-1.4
		c0.1-0.2,0.2-0.4,0.3-0.6c0.3-0.7,0.6-1.4,0.9-2c0.1-0.2,0.1-0.3,0.2-0.5c0.2-0.5,0.4-1.1,0.7-1.6c0.1-0.3,0.2-0.5,0.3-0.8
		c0.2-0.5,0.3-0.9,0.5-1.4c0.1-0.3,0.2-0.6,0.3-0.9c0.1-0.4,0.3-0.9,0.4-1.3c0.1-0.3,0.2-0.6,0.3-0.9c0.1-0.4,0.2-0.9,0.3-1.3
		c0.1-0.3,0.2-0.6,0.2-1c0.1-0.4,0.2-0.9,0.3-1.3c0.1-0.3,0.1-0.7,0.2-1c0.1-0.5,0.2-0.9,0.2-1.4c0-0.3,0.1-0.7,0.1-1
		c0.1-0.5,0.1-1,0.2-1.5c0-0.3,0.1-0.6,0.1-1c0-0.5,0.1-1.1,0.1-1.7c0-0.3,0-0.5,0-0.8c0-0.8,0.1-1.7,0-2.5v0l0,0l0,0v0
		c-0.1-39.2,4.9-56.8,9.3-66.1c1.4-0.4,3.3-1.3,5.4-3.1c1.3-1.1,29.7-24.4,44.4-37.4C348.3,593.3,347.6,592.4,346.9,592.7z"/>
</g>
<g>
	<g>
		<path fill="#D1AEA3" d="M1205.3,407.3c-3.3-4.8-8.8-7.7-14.7-7.7h-20.8c-1.2,0-2.3-0.4-3.2-1.1l-18.9-13.7
			c-2.3-1.6-2.9-4.7-1.6-7.2l15.5-28.2l-15.8-8.2l-16,31.7c-4.2,8.3-1.6,18.4,6,23.7l19.7,13.7c3,2.1,6.7,3.3,10.4,3.3h38
			c2.5,0,4-2.8,2.6-4.9L1205.3,407.3z"/>
		<path fill="#405766" d="M1241.9,211.3c-1.1,0-105.9,13.5-105.9,13.5c-32.4,7.5-56.5,36.6-56.5,71.3c0,40.4,32.8,73.2,73.2,73.2
			c30.2,0,56.1-18.3,67.3-44.4l30.7-50.7c0,0,23.3-6.2,23.3-30.9C1273.9,225.6,1259.6,211.3,1241.9,211.3z"/>
		<path fill="#2F3F4A" d="M1089.6,293.3c0-28,15.1-52.5,37.6-65.8c-27.9,10.3-47.7,37.2-47.7,68.6c0,40.4,32.8,73.2,73.2,73.2
			c1.7,0,3.3-0.1,4.9-0.2C1119.4,365,1089.6,332.6,1089.6,293.3z"/>
		<ellipse fill="#2F3F4A" cx="1249.6" cy="232" rx="3.8" ry="3.8"/>
		<path fill="#E8C1B5" d="M1317.1,258.8l-43.1-15.5c0,0-10.5-3.4-14.5,7c-4,10.4,7.5,13,7.5,13h49.3
			C1318.9,263.3,1319.5,259.7,1317.1,258.8z"/>
		<path fill="#CCA396" d="M1271.3,250.3c1.2-3.2,3.1-5,5-6.1l-2.3-0.8c0,0-10.5-3.4-14.5,7c-4,10.4,7.5,13,7.5,13h11.8
			C1278.8,263.3,1267.2,260.7,1271.3,250.3z"/>
		<path fill="#E8C1B5" d="M1173.2,407.3c-3.3-4.8-8.8-7.7-14.7-7.7h-20.8c-1.2,0-2.3-0.4-3.2-1.1l-18.9-13.7
			c-2.3-1.6-2.9-4.7-1.6-7.2l15.5-28.2l-15.8-8.2l-16,31.7c-4.2,8.3-1.6,18.4,6,23.7l19.7,13.7c3,2.1,6.7,3.3,10.4,3.3h38
			c2.5,0,4-2.8,2.6-4.9L1173.2,407.3z"/>
		<path fill="#334452" d="M1126.4,324.4l-13.1-7.1c-1.1-0.6-2.4-0.1-2.8,1.1l-14.6,40.5c-0.4,1.1,0,2.2,1,2.8l22.7,13.1
			c1,0.6,2.3,0.3,3-0.6l11.5-15.3C1142.4,347.4,1138.9,331.1,1126.4,324.4z"/>
		<path fill="#2F3F4A" d="M1114.5,318l-1.3-0.7c-1.1-0.6-2.4-0.1-2.8,1.1l-14.6,40.5c-0.4,1.1,0,2.2,1,2.8l6.7,3.9l14.7-37.5
			C1119.7,324.3,1118.1,319.9,1114.5,318z"/>
		<path fill="#2F3F4A" d="M1176.1,233l-20.9,3.5c-2.1,0.3-3.4,2.3-3.1,4.3c0.3,1.8,1.9,3.2,3.7,3.2c0.2,0,0.4,0,0.6-0.1l20.9-3.5
			c2.1-0.3,3.4-2.3,3.1-4.3C1180.1,234,1178.2,232.7,1176.1,233z"/>
		<path fill="#2F3F4A" d="M1145.1,250.8l-20.3,6.1c-2,0.6-3.1,2.7-2.5,4.7c0.5,1.6,2,2.7,3.6,2.7c0.4,0,0.7-0.1,1.1-0.2l20.3-6.1
			c2-0.6,3.1-2.7,2.5-4.7C1149.2,251.3,1147.1,250.2,1145.1,250.8z"/>
		<path fill="#2F3F4A" d="M1222.3,293.7c-1.6-1.3-4-1-5.3,0.6l-13.1,16.7c-1.3,1.6-1,4,0.6,5.3c0.7,0.5,1.5,0.8,2.3,0.8
			c1.1,0,2.2-0.5,3-1.4L1223,299C1224.3,297.4,1224,295,1222.3,293.7z"/>
		<path fill="#2F3F4A" d="M1182.2,250.3l-19.9,7.2c-2,0.7-3,2.9-2.3,4.8c0.6,1.5,2,2.5,3.6,2.5c0.4,0,0.9-0.1,1.3-0.2l19.9-7.2
			c2-0.7,3-2.9,2.3-4.8C1186.4,250.6,1184.2,249.6,1182.2,250.3z"/>
		<path fill="#2F3F4A" d="M1154.1,273.9l-18.6,10.1c-1.8,1-2.5,3.3-1.5,5.1c0.7,1.3,2,2,3.3,2c0.6,0,1.2-0.1,1.8-0.5l18.6-10.1
			c1.8-1,2.5-3.3,1.5-5.1C1158.2,273.6,1155.9,272.9,1154.1,273.9z"/>
		<path fill="#2F3F4A" d="M1168.6,294.9l-15.2,14.7c-1.5,1.4-1.5,3.8-0.1,5.3c0.7,0.8,1.7,1.2,2.7,1.2c0.9,0,1.9-0.4,2.6-1.1
			l15.2-14.7c1.5-1.4,1.5-3.8,0.1-5.3C1172.5,293.5,1170.1,293.5,1168.6,294.9z"/>
		<path fill="#2F3F4A" d="M1193.1,313.1c-1.7-1.2-4.1-0.8-5.3,0.9l-12.1,17.4c-1.2,1.7-0.8,4.1,0.9,5.3c0.7,0.5,1.4,0.7,2.2,0.7
			c1.2,0,2.4-0.6,3.1-1.6l12.1-17.4C1195.3,316.7,1194.8,314.3,1193.1,313.1z"/>
		<path fill="#2F3F4A" d="M1202.6,280.2l-15.3,14.7c-1.5,1.4-1.6,3.8-0.1,5.3c0.7,0.8,1.7,1.2,2.7,1.2c0.9,0,1.9-0.3,2.6-1.1
			l15.3-14.7c1.5-1.4,1.6-3.8,0.1-5.3C1206.5,278.8,1204.1,278.8,1202.6,280.2z"/>
		<path fill="#2F3F4A" d="M1191.8,264.8l-17.8,11.4c-1.8,1.1-2.3,3.5-1.1,5.2c0.7,1.1,1.9,1.7,3.2,1.7c0.7,0,1.4-0.2,2-0.6
			l17.8-11.4c1.8-1.1,2.3-3.5,1.1-5.2C1195.9,264.2,1193.6,263.7,1191.8,264.8z"/>
	</g>
	<g>
		<path fill="#927955" d="M897.7,248c-5.4-3-12.3-1.1-15.3,4.3l-78.8,140.2c-3,5.4-1.1,12.3,4.3,15.3c1.7,1,3.6,1.4,5.5,1.4
			c3.9,0,6.7-2.2,9.8-5.7L925.4,282C928.5,276.6,903.2,251,897.7,248z"/>
		<path fill="#A58C65" d="M873.5,252.5c-5.4-3-20.4,11.8-23.5,17.2L824.3,316l-44.9,79.8c-2.8,6.4-1.2,13.6,4.2,16.6
			c1.7,1,3.6,1.4,5.5,1.4c3.9,0,6.6-2.1,9.8-5.7l102.2-121.5C904.3,281.1,879,255.6,873.5,252.5z"/>
		<path fill="#3E3D42" d="M988.1,193.9l-17.4-5.4c-0.8-0.3-1.7-0.1-2.3,0.5c-0.6,0.6-0.9,1.4-0.7,2.2l3.9,17.7
			c0.2,0.8,0.8,1.5,1.6,1.7c0.4,0.1,0.8,0.1,1.2,0.1c0.4-0.1,0.8-0.3,1.1-0.6l13.6-12.2c0.6-0.6,0.9-1.4,0.7-2.2
			C989.5,194.8,988.9,194.1,988.1,193.9z"/>
		<path fill="#AF9B7B" d="M957.7,167.6c-31.3-12.2-88.1,59-100.3,90.3c-12.2,31.3,3.4,66.5,34.7,78.7c31.3,12.2,66.5-3.4,78.7-34.7
			C983,270.6,989,179.8,957.7,167.6z"/>
		<path fill="#9E835C" d="M957.7,293.7c-17,31.5-56.3,43.2-87.8,26.2c-1.1-0.6-2.1-1.2-3.1-1.8c6.5,8,15.1,14.5,25.4,18.5
			c31.3,12.2,66.5-3.4,78.7-34.7c7.7-19.9,13-63.8,7.8-96.3C977.2,238.3,967.2,276,957.7,293.7z"/>
		<path fill="#927955" d="M900.7,213.1c-8,0-15.4,2.9-21,7.7c0,0-7.7,9.8-15.5,23.4c0,0-28,50.7-39.8,71.8
			c-4.3,7.6-0.6,11.4-0.6,11.4c2.4,2.7,6.8,2.8,8.3,2.7c13.7-0.8,24.4-9.7,31.1-17.2c5-5.7,7.8-10.6,7.8-10.6
			c61.8,5.9,61.7-49.4,61.7-49.4S935.2,213.1,900.7,213.1z"/>
		<path fill="#7D6949" d="M925.9,243.2c0,0,0,39.1-36.7,48l5-18.2c0,0,0.9-3.2-1.3-3.9c-1.8-0.5-3.1,1.8-3.1,1.8l-19,31.3
			c3.9,0.4,7.6,0.5,11,0.4l0,0c0.2,0,0.4,0,0.6,0c0.1,0,0.3,0,0.4,0c49.7-1.9,49.7-49.8,49.7-49.8s1.4-20.4-10.6-32
			C926.7,231.5,925.9,243.2,925.9,243.2z"/>
		<path fill="#7D6949" d="M877.1,258.7c-1.8-1.1-4.1-0.5-5.2,1.2L845,303.5c-1.1,1.8-0.5,4.1,1.2,5.2c0.6,0.4,1.3,0.6,2,0.6
			c1.3,0,2.5-0.6,3.2-1.8l26.8-43.5C879.4,262.2,878.9,259.8,877.1,258.7z"/>
		<path fill="#806749" d="M917.2,337.5c-5.6-0.2-11,2.2-15.9,7.1c-1.5,1.5-1.5,3.9,0,5.4c1.5,1.5,3.9,1.5,5.4,0
			c3.4-3.4,6.8-5,10.2-4.9c5.5,0.2,9.5,4.7,9.6,4.7c0.8,0.9,1.8,1.3,2.9,1.3c0.9,0,1.8-0.3,2.5-0.9c1.6-1.4,1.7-3.8,0.4-5.4
			C932,344.6,926,337.8,917.2,337.5z"/>
		<circle fill="#8A765F" cx="949.4" cy="190.9" r="8.7"/>
		<circle fill="#3E3D42" cx="949.4" cy="190.9" r="5"/>
	</g>
	<g>
		<path fill="#F7A14C" d="M1214.2,768.6c-2.1,0-3.9,1.7-3.9,3.9v32.8c0,2.1,1.7,3.9,3.9,3.9c2.1,0,3.9-1.7,3.9-3.9v-32.8
			C1218.1,770.3,1216.3,768.6,1214.2,768.6z"/>
		<path fill="#FBC447" d="M1272.6,643.3c-1.5-0.9-3-1.7-4.6-2.4c-10.7-4.6-22.3-3.3-31.3,2.3c-2.2,1.4-9.6,8.8-18.6,18.8
			c-1,1.1-14.4,16-37.5,35.4c-21.2,17.8-50.7,39.5-86.4,57.7l-4.9,2.4l37.5,1.3l1.9,0.1c1.9,0.1,3.7,0.2,5.5,0.3
			c19.1,1.3,37.7,5.8,55.4,13.1c0.4,0.2,0.9,0.3,1.3,0.5c27.7,10.6,58.4-3,69.4-30.5c4.4-10.9,4.9-22.4,2.2-33
			c3.7-3.1,14.3-11.9,16.2-13.9c4-4.1,7-9.2,8.5-15.2C1290.9,665.8,1284.8,651,1272.6,643.3z"/>
		<path fill="#E3AB39" d="M1236.7,643.1c-2.2,1.4-9.6,8.8-18.6,18.8c-1,1.1-14.4,16-37.5,35.4c17.4,5.9,34,5.2,41.9-12.9
			c20.4-46.3,50.1-41.2,50.1-41.2c-1.5-0.9-3-1.7-4.6-2.4C1257.3,636.2,1245.7,637.5,1236.7,643.1z"/>
		<path fill="#EAB03B" d="M1227.7,757.3c0,5.3,0.8,10.4,2.4,15.2c13.3-5.3,24.4-15.8,30.2-30.2c4.2-10.6,4.8-21.7,2.5-32.1
			C1242.5,716.3,1227.7,735.1,1227.7,757.3z"/>
		<path fill="#8A6C27" d="M1286.9,665c-5.8,7.6-7.6,17.5-4.8,26.7l26.7-9.1l-21.2-18.6L1286.9,665z"/>
		<path fill="#705820" d="M1281.4,688.6c0.2,1,0.4,2.1,0.8,3.1l26.7-9.1l-2.7-2.4L1281.4,688.6z"/>
		<path fill="#FBC447" d="M1218.1,661.9c-2,2.2-49.4,55-123.9,93.2l-4.9,2.4l15.9-0.3c33.1-0.7,65.6-7.7,95.9-20.5
			c0.1,0,0.2-0.1,0.3-0.1c16.9-7.2,26.4-25.4,22.8-43.4L1218.1,661.9z"/>
		<path fill="#E3AB39" d="M1183.5,743.3L1183.5,743.3c-18.3,6.2-37.2,10.4-56.5,12.4l-2.6,2.9l2.3,0.1l1.9,0.1
			c1.9,0.1,3.7,0.2,5.5,0.3c19.1,1.3,37.7,5.8,55.4,13.1C1173.2,755.8,1183.5,743.3,1183.5,743.3z"/>
		<path fill="#EAB03B" d="M1094.2,755.1l-4.9,2.4l37.5,1.3c4.4-1.3,9.2-2.9,14.2-4.8c44.7-16.8,68.7-45.5,81.5-69.4l-4.4-22.6
			C1216.1,664.1,1168.7,716.9,1094.2,755.1z"/>
		<circle fill="#A67C52" cx="1258.3" cy="667.6" r="6.5"/>
		<path fill="#966C48" d="M1259.9,661.3c-0.5-0.1-1.1-0.2-1.6-0.2c-3.6,0-6.5,2.9-6.5,6.5c0,3.6,2.9,6.5,6.5,6.5
			c0.6,0,1.1-0.1,1.6-0.2c-2.8-0.7-4.9-3.3-4.9-6.3C1255,664.5,1257.1,662,1259.9,661.3z"/>
		<g>
			<path fill="#F7A14C" d="M1205.2,808.3c-1.2,0.9-1.5,2.6-0.7,3.9c0.9,1.3,2.6,1.6,3.9,0.7c0.3-0.2,6.9-4.7,11.3-0.3
				c0.5,0.5,1.3,0.8,2,0.8c0.7,0,1.4-0.3,2-0.8c1.1-1.1,1.1-2.8,0-3.9C1217.4,802.4,1208.8,805.7,1205.2,808.3z"/>
		</g>
		<path fill="#F7A14C" d="M1200.1,769.1c-2.1,0-3.9,1.7-3.9,3.9v32.8c0,2.1,1.7,3.9,3.9,3.9c2.1,0,3.9-1.7,3.9-3.9v-32.8
			C1204,770.8,1202.2,769.1,1200.1,769.1z"/>
		<g>
			<path fill="#F7A14C" d="M1191.1,808.7c-1.2,0.9-1.5,2.6-0.7,3.9c0.9,1.3,2.6,1.6,3.9,0.7c0.3-0.2,6.9-4.7,11.3-0.3
				c0.5,0.5,1.3,0.8,2,0.8c0.7,0,1.4-0.3,2-0.8c1.1-1.1,1.1-2.8,0-3.9C1203.3,802.8,1194.7,806.1,1191.1,808.7z"/>
		</g>
	</g>
	<g>
		<g>
			<g>
				<path fill="#DE8976" d="M284.3,388l-20,0.7c-1.2,0-2.2,0.9-2.5,2.1c-0.3,1.2,0.3,2.4,1.4,2.9l16.1,8.3c0.4,0.2,0.8,0.3,1.2,0.3
					c1,0,1.9-0.5,2.3-1.4c0.7-1.3,0.2-2.9-1.1-3.5l-7.2-3.7l9.9-0.4c1.4-0.1,2.6-1.3,2.5-2.7C287,389.1,285.8,388,284.3,388z"/>
			</g>
		</g>
		<g>
			<g>
				<path fill="#DE8976" d="M263.5,388.2l-11.9,4.7c-1.3,0.5-2,2.1-1.5,3.4c0.4,1,1.4,1.7,2.4,1.7c0.3,0,0.6-0.1,1-0.2l11.9-4.7
					c1.3-0.5,2-2.1,1.5-3.4C266.4,388.3,264.9,387.7,263.5,388.2z"/>
			</g>
		</g>
		<g>
			<path fill="#DE8976" d="M263.7,363.1c-2-1.2-4.6-0.6-5.8,1.3c-8,12.8-3.2,23.8,0.4,27.8c0.8,0.9,2,1.4,3.1,1.4c1,0,2-0.4,2.8-1.1
				c1.7-1.6,1.9-4.2,0.3-5.9c-0.1-0.1-6.2-7.1,0.4-17.8C266.2,366.9,265.6,364.3,263.7,363.1z"/>
		</g>
		<path fill="#429699" d="M263.7,363.1c-2-1.2-4.6-0.6-5.8,1.3c-3.7,6-4.7,11.7-4.2,16.4c2.3,0.8,5.2,1.2,8.5,0.2
			c-0.5-3-0.2-7.2,2.9-12.1C266.2,366.9,265.6,364.3,263.7,363.1z"/>
		<g>
			<g>
				<path fill="#ED917D" d="M267.7,398.1l-21.9,0.8c-1.3,0-2.4,1-2.7,2.3c-0.3,1.3,0.3,2.6,1.5,3.2l17.7,9.1
					c0.4,0.2,0.9,0.3,1.3,0.3c1,0,2.1-0.6,2.6-1.6c0.7-1.4,0.2-3.2-1.2-3.9l-7.9-4l10.9-0.4c1.6-0.1,2.8-1.4,2.8-3
					C270.6,399.3,269.3,398.1,267.7,398.1z"/>
			</g>
		</g>
		<g>
			<g>
				<path fill="#ED917D" d="M244.8,398.3l-13,5.1c-1.5,0.6-2.2,2.3-1.6,3.7c0.4,1.1,1.5,1.8,2.7,1.8c0.4,0,0.7-0.1,1.1-0.2l13-5.1
					c1.5-0.6,2.2-2.3,1.6-3.7C247.9,398.5,246.3,397.7,244.8,398.3z"/>
			</g>
		</g>
		<path fill="#5B4D55" d="M312.9,214.9c0,0-13.6-43.6-48.9-4.1c-7.1,7.9-5,14.3-6.9,42c0,0-2.7,16.3-32.4,27.8
			c-29.7,11.4-58,37.6-63,51.9c0,0-19,31.5,23.6,46.2c0,0,105.2,32.6,128.8-72.2c3.1-13.8,3.8-27.7-9.5-62.4
			c-2.1-5.5-2.8-20.8,18.8-14.9C323.4,229.2,324.6,223.5,312.9,214.9z"/>
		<path fill="#6E5F68" d="M140.3,367.3c-7.7,6.2-24.4,15.2-33.1,19.3c-3.3,1.6-21.5,9.9,1.2,14.5C135.8,406.8,186,369,186,369
			C181.5,363.5,148.1,361.1,140.3,367.3z"/>
		<path fill="#429699" d="M312.9,214.9c0,0-13.6-43.6-48.9-4.1c-7.1,7.9-5,14.3-6.9,42c0,0-1.9,11-18.9,21.3
			c0.5,18.6,7,37.4,27.6,47.7c32.8,16.4,45.2-6.4,49.8-24.2c1.3-11.6-0.5-26.1-11.1-53.5c-2.1-5.5-2.8-20.8,18.8-14.9
			C323.4,229.2,324.6,223.5,312.9,214.9z"/>
		<path fill="#B8969C" d="M256.2,255.4c-8,15.6-20.4,20-20.4,20c-63.2,27.7-73.1,54.6-73.1,54.6c-98.3,33.9-59,40.6-59,40.6
			c70.8,8.6,120.5-1.9,146.9-15c26.5-13.1,26.5-31,16.7-53.4C257.6,279.8,256.2,255.4,256.2,255.4z"/>
		<path fill="#54BEC2" d="M312.9,214.9c0,0-13.6-43.6-48.9-4.1c-0.2,0.2-0.4,0.4-0.6,0.7c3.5,10.5,13.4,28.3,40.3,29.3
			c-0.9-6.6,1.5-16.6,19.6-11.6C323.4,229.2,324.6,223.5,312.9,214.9z"/>
		<path fill="#6A6D7D" d="M312.9,214.9c0,0,0-0.1-0.1-0.3c-3.6,2.5-10.4,8.5-7.7,17.7c2.3-3.8,7.5-6.1,18.3-3.1
			C323.4,229.2,324.6,223.5,312.9,214.9z"/>
		
			<ellipse transform="matrix(0.9969 -7.818318e-02 7.818318e-02 0.9969 -15.934 23.4597)" fill="#FFFFFF" cx="291.6" cy="215.2" rx="4.5" ry="4.5"/>
		
			<ellipse transform="matrix(0.9969 -7.819314e-02 7.819314e-02 0.9969 -15.936 23.4628)" fill="#6A6D7D" cx="291.6" cy="215.2" rx="2.7" ry="2.7"/>
		<path fill="#B6B2A2" d="M256.2,255.4c-8,15.6-20.4,20-20.4,20c-62.4,25-73.1,54.6-73.1,54.6c-1,0.3,19.1,33,80.9,28.8
			c2.5-1,4.8-2.1,7-3.2c26.5-13.1,26.5-31,16.7-53.4C257.6,279.8,256.2,255.4,256.2,255.4z"/>
		<path fill="#A6A394" d="M256.2,255.4c-3.7,7.2-8.3,12-12.2,15.1c1.6,8.6,4.1,19.3,8.8,29.6c24,52.7-39.5,57.1-46.3,56.5
			c10.2,2.2,22.5,3.3,37.1,2.3c2.5-1,4.8-2.1,7-3.2c26.5-13.1,26.5-31,16.7-53.4C257.6,279.8,256.2,255.4,256.2,255.4z"/>
		<path fill="#838075" d="M234.3,319c-4.3-3.2-6.6-7.7-5.9-11.2c0,0,0,0,0,0c0,0,0,0,0,0c-3.1,1.6-8.1,0.8-12.4-2.4
			c-4.3-3.2-6.6-7.7-5.9-11.2c-0.7,0.4-1.3,0.9-1.8,1.5c-2.5,3.4-0.3,9.4,5,13.3c4.3,3.2,9.3,4,12.4,2.4c-0.7,3.4,1.6,8,5.9,11.2
			c5.3,3.9,11.6,4.3,14.2,0.9c0.5-0.6,0.8-1.4,0.9-2.1C243.6,323,238.6,322.1,234.3,319z"/>
		<path fill="#838075" d="M227.8,342.4c-4-3.2-6.1-7.7-5.4-11c0,0,0-0.1,0-0.1c0,0,0,0,0,0c0,0,0,0,0,0c0,0-0.1,0-0.1,0
			c-3.1,1.4-7.8,0.4-11.9-2.8c-4.1-3.3-6.1-7.7-5.4-11.1c0,0,0,0,0,0c0,0,0,0,0,0c-3.1,1.5-7.9,0.5-12-2.8
			c-4.1-3.3-6.1-7.7-5.4-11.1c-0.7,0.3-1.3,0.8-1.8,1.4c-2.6,3.2-0.6,9.1,4.4,13.1c4.1,3.3,8.9,4.3,12,2.7
			c-0.8,3.3,1.3,7.8,5.4,11.1c4.1,3.2,8.9,4.2,12,2.8c-0.8,3.3,1.3,7.8,5.4,11c5,4,11.2,4.6,13.8,1.3c0.5-0.6,0.8-1.3,1-2
			C236.7,346.7,231.9,345.7,227.8,342.4z"/>
		<g>
			<path fill="#ED917D" d="M244.9,370.7c-2.2-1.3-5-0.7-6.4,1.5c-8.7,14.1-3.5,26.2,0.5,30.6c0.9,1,2.2,1.5,3.4,1.5
				c1.1,0,2.2-0.4,3.1-1.2c1.9-1.7,2-4.6,0.3-6.5c-0.1-0.1-6.8-7.8,0.5-19.6C247.8,374.9,247.1,372,244.9,370.7z"/>
		</g>
		<path fill="#429699" d="M244.9,370.7c-2.2-1.3-5-0.7-6.4,1.5c-4.1,6.6-5.1,12.8-4.6,18c2.5,0.9,5.8,1.3,9.3,0.2
			c-0.6-3.4-0.2-7.9,3.2-13.3C247.8,374.9,247.1,372,244.9,370.7z"/>
	</g>
	<g>
		<path fill="#D4B364" d="M629.5,404.7c-6.4-3.3-15.4-7.7-21.2-9.6v-52.9c0-2.1-1.7-3.8-3.8-3.8c-2.1,0-3.8,1.7-3.8,3.8v53.1
			c-3.7,1.8-9.6,5.3-14.7,8.5c-2.1,1.3-1,4.6,1.5,4.3c9.2-1.2,23.4-2.1,41.1-0.3C630.4,407.9,631.1,405.5,629.5,404.7z"/>
		<path fill="#FBD476" d="M616.6,410.4c-6.4-3.3-15.4-7.7-21.2-9.6v-52.9c0-2.1-1.7-3.8-3.8-3.8c-2.1,0-3.8,1.7-3.8,3.8V401
			c-3.7,1.8-9.6,5.3-14.7,8.5c-2.1,1.3-1,4.6,1.5,4.3c9.2-1.2,23.4-2.1,41.1-0.3C617.5,413.6,618.2,411.2,616.6,410.4z"/>
		<path fill="#FCB344" d="M708.2,192.7h-27v12.8H721C721,198.5,715.2,192.7,708.2,192.7z"/>
		<path fill="#E6E3E6" d="M660,173.8L660,173.8c-13.3,0-24.1,10.8-24.1,24.1v38.3c0,0-113.9,33.2-162.7,116.5h141.8
			c0,0,69-15.3,69-71.7v-83.1C684.1,184.5,673.3,173.8,660,173.8z"/>
		<path fill="#7E7275" d="M448.8,347.7c-4.3,4.6-0.8,12.2,5.5,11.9c75.6-2.8,160.1,4.4,184.9-50.6c16.2-35.9,5.6-61.4-3.3-74.4
			C629.4,236.5,520.8,269.9,448.8,347.7z"/>
		<circle fill="#FFFFFF" cx="663.9" cy="189.8" r="6"/>
		<circle cx="663.9" cy="189.8" r="2.9"/>
		<path fill="#695F61" d="M574.8,333.4c-6.4-1.2-11.5-4.3-12.7-7.3c0,0,0,0,0,0c0,0,0,0,0,0c-2.3,2.4-8.1,3.4-14.5,2.2
			c-6.4-1.2-11.5-4.3-12.7-7.3c0,0,0,0,0,0c0,0,0,0,0,0c-2.3,2.4-8.1,3.4-14.5,2.2c-6.4-1.2-11.5-4.3-12.7-7.3
			c-0.5,0.5-0.8,1.1-1,1.8c-0.7,3.7,5.1,7.9,12.9,9.4c6.4,1.2,12.2,0.2,14.5-2.2c1.2,3.1,6.3,6.2,12.7,7.4
			c6.4,1.2,12.2,0.2,14.5-2.2c1.2,3.1,6.3,6.2,12.7,7.4c7.8,1.5,14.8-0.3,15.5-4c0.1-0.7,0-1.4-0.2-2.1
			C587.1,333.6,581.3,334.6,574.8,333.4z"/>
		<path fill="#695F61" d="M582.1,299.6c-6.5-0.5-11.9-2.9-13.4-5.9c0,0,0,0,0,0c0,0,0,0,0,0c-2,2.7-7.6,4.3-14.2,3.8
			c-6.5-0.5-11.9-2.9-13.4-5.9c-0.4,0.6-0.7,1.2-0.8,1.9c-0.3,3.8,5.9,7.3,13.9,7.9c6.5,0.5,12.2-1.2,14.2-3.8
			c1.6,2.9,6.9,5.4,13.5,5.9c8,0.6,14.6-2,14.9-5.7c0.1-0.7-0.1-1.4-0.5-2C594.3,298.4,588.6,300,582.1,299.6z"/>
	</g>
	<g>
		<path fill="#C27241" d="M880.1,800.3v-16.9c0-3-1.5-5.5-4.5-5.5c-3,0-4.5,2.5-4.5,5.5v16.9c-3.9,1.4-6.3,4.2-6.5,4.4
			c-0.9,1.1-0.8,2.7,0.3,3.7c1.1,0.9,2.7,0.8,3.7-0.2c0,0,2.9-3.3,6.8-3.4c2.5-0.1,4.9,1.1,7.3,3.5c0.5,0.5,1.2,0.8,1.8,0.8
			s1.3-0.3,1.8-0.8c1-1,1-2.7,0-3.7C884.4,802.5,882.3,801.1,880.1,800.3z"/>
		<path fill="#E2854C" d="M862,805.1v-16.9c0-3-1.5-5.5-4.5-5.5c-3,0-4.5,2.5-4.5,5.5v16.9c-3.9,1.4-6.3,4.2-6.5,4.4
			c-0.9,1.1-0.8,2.7,0.3,3.7c1.1,0.9,2.7,0.8,3.7-0.2c0,0,2.9-3.3,6.8-3.4c2.5-0.1,4.9,1.1,7.3,3.5c0.5,0.5,1.2,0.8,1.8,0.8
			s1.3-0.3,1.8-0.8c1-1,1-2.7,0-3.7C866.3,807.3,864.2,805.9,862,805.1z"/>
		<path fill="#356178" d="M868.4,694.9c-13.9,32.3-28.3,65.8-65.4,65.8c-2.6,0-4.8,1.8-5.4,4.3c-0.6,2.5,0.7,5.1,3.1,6.2
			c28.8,13.3,55.9,20.3,78.2,20.3c23,0,40.2-7.7,49.9-22.3c13.6-20.5,15.3-47.1,16.8-70.5c1.4-21.5,2.6-40.1,13-42.9
			c2.2-0.6,9.5-2.5,11.7-2.5c-11.3-9-29.3-18.1-45.1-18.1C894.4,635.2,881,665.5,868.4,694.9z"/>
		<path fill="#4681A0" d="M942.4,694.8c-4.5-1.5-9.2-2.3-14-2.3c-22.7,0-43.5,16.6-50.5,40.3c-5.5,18.6-2.3,38,8.8,53.1
			c0.3,0.4,0.6,0.7,0.9,1l4.3,3.5c16.5-2.4,29.2-9.6,36.9-21.3c13.6-20.5,15.3-47.1,16.8-70.5c0-0.5,0.1-1,0.1-1.5l-1.1-1.1
			C944,695.5,943.3,695.1,942.4,694.8z"/>
		<path fill="#90B3C6" d="M942.4,694.8c-4.5-1.5-9.2-2.3-14-2.3c-22.7,0-43.5,16.6-50.5,40.3c-5.5,18.6-2.3,38,8.8,53.1
			c0.3,0.4,0.6,0.7,0.9,1l1.9,1.6c-8.4-14.3-10.5-31.5-5.6-48.2c7-23.7,27.8-40.3,50.5-40.3c3.8,0,7.4,0.6,11,1.5
			c0.1-0.9,0.1-1.9,0.2-2.9c0-0.5,0.1-1,0.1-1.5l-1.1-1.1C944,695.5,943.3,695.1,942.4,694.8z"/>
		<path fill="#86A6B8" d="M879.1,771.9c1.9,4.9,4.4,9.7,7.6,14c0.3,0.4,0.6,0.7,0.9,1l1.9,1.6c-3.4-5.7-5.7-11.9-7-18.4
			C881.4,770.8,880.2,771.4,879.1,771.9z"/>
		<path fill="#86A6B8" d="M942.4,694.8c-3.7-1.2-7.6-1.9-11.5-2.2c-0.9,2.6-1.8,5.2-2.8,7.9c2.1-0.3,4.1-0.5,6.2-0.5
			c3.8,0,7.4,0.6,11,1.5c0.1-0.9,0.1-1.9,0.2-2.9c0-0.5,0.1-1,0.1-1.5l-1.1-1.1C944,695.5,943.3,695.1,942.4,694.8z"/>
		<path fill="#F5F5F5" d="M924.2,650.4c-6.1,0-11,4.9-11,11c0,6.1,4.9,11,11,11c6.1,0,11-4.9,11-11
			C935.2,655.4,930.3,650.4,924.2,650.4z"/>
		<circle fill="#242424" cx="924.2" cy="661.5" r="5.5"/>
		<path fill="#E78244" d="M947.8,653.2c0,4.1,0.9,8,2.6,11.5c1.8-4.7,4.4-7.9,8.3-8.9c2.2-0.6,9.5-2.5,11.7-2.5
			c-5.4-4.3-12.3-8.6-19.8-11.9C948.8,644.9,947.8,648.9,947.8,653.2z"/>
		<path fill="#D97A40" d="M950.4,664.7C950.4,664.7,950.4,664.6,950.4,664.7c0.3-0.7,0.5-1.2,0.8-1.8c0.1-0.3,0.3-0.6,0.4-0.8
			c0.2-0.3,0.4-0.7,0.6-1c0.2-0.2,0.3-0.5,0.5-0.7c0.3-0.4,0.5-0.7,0.8-1.1c0.1-0.1,0.2-0.3,0.3-0.4c0.4-0.4,0.8-0.8,1.3-1.2
			c0.1-0.1,0.3-0.2,0.5-0.3c0.3-0.3,0.7-0.5,1.1-0.7c0.2-0.1,0.3-0.2,0.5-0.3c0.5-0.3,1.1-0.5,1.7-0.6c0.2,0,0.3-0.1,0.5-0.2
			c-4.1-0.1-7.5,1.3-10.6,3.8C949,661.2,949.6,663,950.4,664.7z"/>
		<path opacity="0.1" fill="#14252E" d="M926.9,704.1c-0.3,0.7-0.5,1.5-0.8,2.2c0,0.1-0.1,0.1-0.1,0.2c-0.3,0.9-0.6,1.7-0.9,2.6
			c0,0,0,0.1,0,0.1c-9,24.5-21,50.8-46,62.7c0,0,0,0,0,0c-18.5,8.9-44.2,9.9-81.1-3.5c0.5,1.2,1.4,2.2,2.7,2.7
			c28.8,13.3,55.9,20.3,78.2,20.3c18.4,0,33.1-4.9,43.2-14.4c0,0,0,0,0,0c0,0,0,0,0,0c0.5-0.5,0.9-0.9,1.4-1.4
			c0.2-0.2,0.3-0.3,0.5-0.5c1.2-1.2,2.3-2.5,3.3-3.9c0.5-0.7,1-1.3,1.5-2c0,0,0,0,0,0c13.6-20.5,15.3-47.1,16.8-70.5
			c1.4-21.5,2.6-40.1,13-42.9c0.2,0,0.3-0.1,0.5-0.2C942.8,655.2,936.2,678,926.9,704.1z"/>
	</g>
	<g>
		<path fill="#AB954D" d="M577.9,805.6l-20.4-5.2l1.4-51.8c0.1-1.9-1.5-3.6-3.4-3.6c-1.9-0.1-3.6,1.5-3.6,3.4l-1.4,51.9l-7.4,1.9
			c-1.6,0.4-2.5,2-2.1,3.6c0.4,1.6,2,2.5,3.6,2.1l9.5-2.4c0,0,0,0,0,0c0,0,0,0,0,0l22.5,5.8c0.2,0.1,0.5,0.1,0.7,0.1
			c1.3,0,2.5-0.9,2.8-2.2C580.4,807.6,579.5,806,577.9,805.6z"/>
		<path fill="#E6E7E9" d="M602.7,514.9c-19.4,10.9-24.1,45-13.8,69.7c10.3,24.7,14,28.4,7.4,54.1c0,0-106.1,5.6-87.6,124
			c0,0,155.9-13.1,107.6-176.6c0,0,49.4-0.6,41.2-33.5C649.1,519.6,622.1,504,602.7,514.9z"/>
		<path fill="#C4C5C7" d="M534.3,711.3c-15.8,14.5-24.2,33.5-24.3,51.2c10.2-1.2,74.3-10.6,102.3-62.5
			C591.2,685.1,558.2,689.3,534.3,711.3z"/>
		<path fill="#D6D7D9" d="M470.3,733.1c-6.7,31.8-3.9,60.5-2.8,56.7C584,739.1,596.2,638.7,596.2,638.7S495.3,614.6,470.3,733.1z"/>
		<path fill="#D9BD62" d="M646.6,554.2c-4.3,1.2-9.1,3.8-12.1,9.1c-2.2,3.9-6.4,6.2-10.9,5.7c-5.9-0.7-12.8-0.8-13.1,2.7
			c0,0,14.7,56.8,90.3,83.8c0,0,10.7,0-41.6-96C656.8,555,651.6,552.8,646.6,554.2z"/>
		<path fill="#8C7A3F" d="M634.6,563.3c-2.2,3.9-6.4,6.2-10.9,5.7c-5.9-0.7-12.8-0.8-13.1,2.7c0,0,14.6,56.4,89.7,83.6
			c-16.4-22.1-48-70.6-63.7-94.8C635.9,561.3,635.2,562.2,634.6,563.3z"/>
		<circle fill="#D9BD62" cx="636.1" cy="545.4" r="6.5"/>
		<circle cx="636.1" cy="545.4" r="3.8"/>
		<path fill="#D9BD62" d="M558,808l-20.4-5.2l1.4-51.8c0.1-1.9-1.5-3.6-3.4-3.6c-1.9,0-3.6,1.5-3.6,3.4l-1.4,51.9l-7.4,1.9
			c-1.6,0.4-2.5,2-2.1,3.6c0.4,1.6,2,2.5,3.6,2.1l9.5-2.4c0,0,0,0,0,0c0,0,0,0,0,0l22.5,5.8c0.2,0.1,0.5,0.1,0.7,0.1
			c1.3,0,2.5-0.9,2.8-2.2C560.5,810,559.5,808.4,558,808z"/>
	</g>
	<g>
		<path fill="#B8560D" d="M147.6,806.1c-0.8,5.8,5.6,9.8,10.5,6.6c47.7-31.7,51.5-96.6,51.5-96.6
			C163.3,730.2,150.9,781.5,147.6,806.1z"/>
		<path fill="#E86D11" d="M227.1,664.1c0,0-53.3,46.1-30.7,102c0,0,82.5-18.9,82.3-75.6c-0.2-53.2,9.1-66.4,13.5-73.6
			C292.2,616.9,225.5,599.8,227.1,664.1z"/>
		<path fill="#2C2C2C" d="M336.9,582.7c-13.7,7.2-51.3,27.6-52.8,34.1c-1.9,7.9,0,7.5,0,7.5s3.5,1.7,9.3-3.2
			c1.3-1.1,29.7-24.4,44.4-37.4C338.3,583.3,337.6,582.4,336.9,582.7z"/>
		<path fill="#C95F0F" d="M270.7,688.1c-19.5,0-35.3,15.8-35.3,35.3c0,8.6,3,16.4,8.1,22.5c18.4-11.9,35.2-29.8,35.1-55.5
			c0-0.5,0-1,0-1.4C276.1,688.4,273.5,688.1,270.7,688.1z"/>
		<path fill="#E87F31" d="M160.1,763.7c0,0,59-23.8,50.7-64.9C210.8,698.8,170.9,718.5,160.1,763.7z"/>
		<path fill="#90512C" d="M247.4,673.8c-28.4-17.2-112.9-65.6-161.3-61.2c-4.2,0.4-6.1,5.3-3.4,8.5c5.6,6.6,15.6,16.1,29.4,20.2
			c0,0,0.4,21.8,35,29.2c0,0,2.1,14,24.7,20c0,0,7.4,14.7,19.4,17.3c0,0,38.4,9.9,59.4-17.1C254.7,685.3,253.2,677.4,247.4,673.8z"
			/>
		<circle fill="#381A04" cx="265.2" cy="624.4" r="5.6"/>
	</g>
</g>
</svg>
