<?xml version="1.0" encoding="UTF-8" standalone="no"?>
<!-- Generator: Adobe Illustrator 19.2.0, SVG Export Plug-In . SVG Version: 6.00 Build 0)  -->

<svg
   xmlns:dc="http://purl.org/dc/elements/1.1/"
   xmlns:cc="http://creativecommons.org/ns#"
   xmlns:rdf="http://www.w3.org/1999/02/22-rdf-syntax-ns#"
   xmlns:svg="http://www.w3.org/2000/svg"
   xmlns="http://www.w3.org/2000/svg"
   xmlns:sodipodi="http://sodipodi.sourceforge.net/DTD/sodipodi-0.dtd"
   xmlns:inkscape="http://www.inkscape.org/namespaces/inkscape"
   version="1.0"
   id="Layer_1"
   x="0px"
   y="0px"
   width="1400px"
   height="980px"
   viewBox="0 0 1400 980"
   enable-background="new 0 0 1400 980"
   xml:space="preserve"
   sodipodi:docname="Flat Bird Vectors-04.svg"
   inkscape:version="0.92.4 (5da689c313, 2019-01-14)"><metadata
   id="metadata239"><rdf:RDF><cc:Work
       rdf:about=""><dc:format>image/svg+xml</dc:format><dc:type
         rdf:resource="http://purl.org/dc/dcmitype/StillImage" /></cc:Work></rdf:RDF></metadata><defs
   id="defs237">
	
	
	
	
	
	
	
	

	
	
	
	
	
	
	
	
</defs><sodipodi:namedview
   pagecolor="#ffffff"
   bordercolor="#666666"
   borderopacity="1"
   objecttolerance="10"
   gridtolerance="10"
   guidetolerance="10"
   inkscape:pageopacity="0"
   inkscape:pageshadow="2"
   inkscape:window-width="1920"
   inkscape:window-height="1017"
   id="namedview235"
   showgrid="false"
   inkscape:zoom="0.57982756"
   inkscape:cx="670.47114"
   inkscape:cy="555.58252"
   inkscape:window-x="-8"
   inkscape:window-y="-8"
   inkscape:window-maximized="1"
   inkscape:current-layer="Layer_1" />

<path
   style="fill:#362720"
   inkscape:connector-curvature="0"
   id="path4"
   d="m 227.6,122.9 c 0,0 0,0 0,0 -0.1,0 -0.1,0 -0.1,0 0,0 -0.1,0 -0.1,0 0,0 -0.1,0 -0.1,0 -0.1,0 -0.2,0 -0.3,0 0,0 -0.1,0 -0.1,0 -0.1,0 -0.3,0 -0.4,0.1 0,0 -0.1,0 -0.1,0 -0.2,0 -0.3,0 -0.5,0.1 -0.1,0 -0.1,0 -0.2,0 -0.2,0 -0.3,0 -0.5,0.1 -0.1,0 -0.2,0 -0.3,0.1 -0.2,0 -0.4,0.1 -0.5,0.1 -0.1,0 -0.2,0 -0.3,0.1 -0.2,0 -0.4,0.1 -0.5,0.1 -0.2,0 -0.3,0.1 -0.5,0.1 -0.2,0 -0.4,0.1 -0.6,0.1 -0.1,0 -0.3,0.1 -0.4,0.1 -0.2,0 -0.4,0.1 -0.6,0.1 -0.2,0 -0.4,0.1 -0.6,0.1 -0.2,0 -0.4,0.1 -0.7,0.1 -0.1,0 -0.2,0 -0.3,0.1 2.3,-0.7 4.9,-1.1 7.7,-1.4 0,0 4.3,-31.5 -32.7,-25.7 -10.1,1.6 -27.4,12.5 -28.4,28.8 -0.4,6.2 -3.1,26.1 23.7,34.2 0,0 57.2,23.3 49,49 0,0 -1.2,23.3 -29.2,31.5 0,0 -29.1,12 -36.7,29.4 -0.3,0.7 0.1,1.5 0.7,1.7 v 0 c -2.3,0.8 -20.5,7.1 -28.1,15.5 0,0 -28.3,29.3 -11.6,58.9 1.5,2.6 5.3,2.2 6.3,-0.5 0.4,-1.2 1,-2.1 1.8,-2.4 l 1.6,3.8 c 1.3,3 5.5,2.8 6.5,-0.3 1.3,-3.9 2.9,-7.7 4.3,-8.6 0,0 3,4.3 5.7,7.7 1.7,2.1 5,1.6 6,-0.9 2.3,-5.8 6.4,-15 10.5,-18.5 0,0 1.2,-1.1 3.5,-2.8 2.8,3 5.7,9.8 0.4,24.2 0,0 0.4,0.4 1.1,1 l -29.7,34.9 c 0,0 -5,6.4 6.7,9 0,0 22.7,3.4 48.6,11.5 -0.1,11.4 -0.3,24.3 -0.7,37.1 v 39.1 c -22.2,4.4 -31.9,19.4 -31.9,19.4 -2.1,8.7 10.4,-2.2 15.6,-3.9 27,-9.1 79.8,6.7 81.9,4.1 2,-2.6 -10.5,-6.8 -8.8,-7.8 1.8,-1 7.1,4.3 7.1,1.2 0,-3.1 -5.6,-5.8 -8.3,-7 -16.1,-7 -35.8,-6.8 -35.8,-6.8 -4,-0.4 -7.7,-0.5 -11.1,-0.3 l 5.3,-70.6 c 3.4,1.3 6.8,2.6 10.2,4 1.6,4.7 4.5,14.2 3.1,19.4 0,0 3.1,1.2 4.1,-1.8 0.8,-2.3 2.2,-8.8 2.8,-13.1 2.6,1.3 5.2,2.7 7.7,4.1 1.9,5.3 5.5,17 3.8,23.4 0,0 3.6,1.4 4.8,-2.1 0.8,-2.4 2.3,-8.8 3.1,-13.8 8.1,6 14.6,12.9 18.3,20.8 0,0 2.9,1.5 3.2,-6.1 0,0 3.3,-35.1 -60,-49.1 l 2.6,-34.5 c 0.9,0.2 1.6,0.2 2.1,0.1 0,0 -4.3,-27.6 0,-36.2 0,0 3.8,-15.3 10.1,-25.2 6.1,-3 12.3,-6.4 17.1,-9.8 v 0 c 0.6,2.2 3.4,3.4 5.4,1.9 3.9,-2.8 9,-7.4 11.9,-13 0.2,-0.5 0.9,-0.4 1.1,0.1 0.5,1.4 1.2,3.8 1.7,6.6 0.5,3 4.4,4 6.2,1.5 4.4,-5.8 9.5,-14.6 9.3,-24.1 0,-0.6 0.8,-0.8 1.1,-0.3 0,0 0,0.1 0.1,0.1 1.4,2.8 5.5,2.6 6.4,-0.4 1.9,-5.8 3,-16.3 -1.2,-34.2 0,0 -11.3,-49 -65.3,-68.8 0,0 -10.3,-4.7 -19.2,-10.5 l 140.1,24.1 z m 12.3,122 -6.4,20 c -0.7,2.2 0.9,4.3 2.9,4.5 -2,-0.3 -3.6,-2.3 -2.9,-4.5 l 6.4,-20 c 0.2,-0.5 -0.4,-1 -0.9,-0.6 0.4,-0.4 1.1,0 0.9,0.6 z m -44.4,21.2 c 0,0 0,0.1 0,0 0,0.1 0,0 0,0 z m -21,5.9 c 0,0 0,0 0,0 0,0 0,0 0,0 z m 24.5,119.2 -19.8,-5.5 c 0,0 -8.7,-3.2 -2.6,-9.3 l 14.6,-22.6 c 1.1,0.2 2.2,0.3 3.4,0.2 0,0 5.7,-6.9 10.8,-13.6 l -2.3,13.2 c 0,0 0.8,0 1.9,0.2 -0.6,2.6 -0.8,7.3 2.5,13.1 0,0 0.2,10.4 0.1,25.6 -2.7,-0.6 -5.5,-0.9 -8.6,-1.3 z m 43.2,-123.9 c 0.8,-0.4 1.7,-0.8 2.5,-1.2 -0.9,0.4 -1.7,0.8 -2.5,1.2 z m 4.2,-2.1 c 0.2,-0.1 0.5,-0.3 0.7,-0.4 -0.2,0.2 -0.4,0.3 -0.7,0.4 z m 2.1,-1.1 c 0.9,-0.5 1.8,-1 2.6,-1.4 -0.8,0.5 -1.7,1 -2.6,1.4 z m 5.5,24.6 c 0,0 0,0 0,0 0,0 0,0 0,0 z m 3.7,-29 c -0.4,2 -1.1,6 -1.8,10.5 0.7,-4.5 1.4,-8.4 1.8,-10.5 0,-0.2 0,-0.4 -0.1,-0.5 0.1,0.2 0.1,0.3 0.1,0.5 z" /><path
   style="fill:#362720"
   inkscape:connector-curvature="0"
   id="path6"
   d="m 1282.1,671.3 c 0,0 0,0 0,0 -0.3,-0.9 -0.6,-1.7 -0.9,-2.6 -0.1,-0.2 -0.2,-0.4 -0.2,-0.6 -0.3,-0.8 -0.7,-1.6 -1.1,-2.4 0,0 0,0 0,0 -0.4,-0.8 -0.8,-1.6 -1.3,-2.4 -0.1,-0.2 -0.2,-0.3 -0.3,-0.5 -0.4,-0.7 -0.9,-1.4 -1.3,-2.1 0,-0.1 -0.1,-0.1 -0.1,-0.2 -0.5,-0.7 -1.1,-1.5 -1.6,-2.2 -0.1,-0.1 -0.2,-0.2 -0.3,-0.3 -0.5,-0.6 -1,-1.2 -1.6,-1.8 -0.1,-0.1 -0.1,-0.1 -0.2,-0.2 -0.6,-0.7 -1.3,-1.3 -1.9,-1.9 -0.1,-0.1 -0.1,-0.1 -0.2,-0.2 -0.6,-0.6 -1.3,-1.1 -1.9,-1.7 -0.1,0 -0.1,-0.1 -0.2,-0.1 -1.4,-1.2 -3,-2.2 -4.5,-3.2 0,0 -0.1,-0.1 -0.1,-0.1 -1.6,-1 -3.3,-1.8 -5,-2.5 0,0 -0.1,0 -0.1,0 -1.7,-0.7 -3.5,-1.3 -5.3,-1.8 0,0 0,0 0,0 -1.8,-0.5 -3.7,-0.8 -5.6,-1.1 0,0 0,0 0,0 v 0 c -5.6,-0.7 -11.5,-0.2 -17.2,1.7 l -56.6,18.2 v 0 c -13.2,4 -55.1,21.1 -41.3,76.3 0,0 -0.4,0.3 -1.2,1 -10.5,-1.2 -18.6,5.6 -24.2,15.3 l -50.2,87.4 c -2.3,4 1.7,8.7 6,7.1 l 10.3,-4 -8.9,50.2 c -1.1,6.3 7.3,9.6 10.7,4.1 l 22.5,-36 c 8.3,-1.6 20.2,-4.5 33,-9.4 l 21.5,19.5 c -5.8,2.6 -9.5,6.5 -9.7,6.7 -1.7,1.9 -1.6,4.7 0.3,6.5 1.9,1.7 4.8,1.6 6.5,-0.2 0.1,-0.1 5.7,-5.9 13.2,-6.1 4.7,-0.1 9.4,2 14,6.3 0.9,0.8 2,1.3 3.2,1.3 1.2,0 2.4,-0.5 3.3,-1.4 1.7,-1.8 1.7,-4.7 -0.2,-6.5 -3.6,-3.4 -7.3,-5.8 -11.2,-7.3 2.2,-1.8 6.5,-4.6 11.7,-4.7 4.7,-0.1 9.4,2 14,6.3 0.9,0.8 2,1.3 3.2,1.3 1.2,0 2.4,-0.5 3.3,-1.4 1.7,-1.8 1.7,-4.7 -0.2,-6.5 -5.6,-5.3 -11.5,-8.2 -17.7,-8.8 -0.3,-0.4 -0.5,-0.8 -0.9,-1.1 L 1163.3,839 c 22.3,-15.3 40.7,-38.7 40.7,-74.4 0,0 -1.5,-20 -2.3,-36.5 0,-0.6 -0.1,-1.3 -0.1,-1.9 0,0 0,0 0,0 0,-0.6 -0.1,-1.3 -0.1,-1.9 0,-0.1 0,-0.1 0,-0.2 -0.1,-1.2 -0.1,-2.4 -0.2,-3.6 0,-0.1 0,-0.1 0,-0.2 0,-0.6 0,-1.1 -0.1,-1.6 0,-0.1 0,-0.2 0,-0.2 0,-0.5 0,-1 0,-1.5 0,0 0,0 0,-0.1 0,-0.5 0,-1 0,-1.5 0,-0.1 0,-0.2 0,-0.3 0,-0.5 0,-0.9 0,-1.4 0,0 0,-0.1 0,-0.1 0,-0.4 0,-0.8 0,-1.2 0,-0.1 0,-0.1 0,-0.2 0,-0.4 0,-0.7 0,-1.1 0,-0.1 0,-0.1 0,-0.2 0,-0.3 0,-0.6 0,-0.9 0,0 0,-0.1 0,-0.1 0,-0.3 0,-0.6 0,-0.8 0,-0.1 0,-0.1 0,-0.2 0,-0.2 0,-0.5 0,-0.7 0,0 0,-0.1 0,-0.1 0,-0.2 0,-0.3 0.1,-0.5 0,0 0,-0.1 0,-0.1 0,-0.2 0,-0.3 0.1,-0.4 0,0 0,0 0,-0.1 0,-0.1 0.1,-0.2 0.1,-0.2 0,0 0,0 0,0 0.5,-0.6 1.6,-4.6 2,-10 l 78.6,-25.5 v 0 c 0,0 0,0 0,0 z m -108.6,191.2 c -5.8,2.6 -9.5,6.5 -9.7,6.7 -0.3,0.3 -0.5,0.6 -0.6,0.9 l -21.3,-19.3 c 4,-1.8 8,-3.9 12,-6.1 z" /><path
   style="fill:#362720"
   inkscape:connector-curvature="0"
   id="path8"
   d="m 763,499.5 c 8.2,-15.2 27,-37 44.6,-55.8 5.8,10.2 15.7,14.5 22.7,16.2 1.1,0.3 2.1,0.5 3,0.6 1.3,0.2 2.5,0.4 3.3,0.5 1,0.1 1.5,0.1 1.5,0.1 1.5,0.2 3,0.3 4.5,0.5 0.3,0 0.6,0.1 0.8,0.1 1.4,0.1 2.9,0.3 4.3,0.4 0.2,0 0.5,0 0.7,0 1.4,0.1 2.8,0.2 4.2,0.2 0,0 0.1,0 0.1,0 1.4,0.1 2.8,0.1 4.2,0.1 0.2,0 0.4,0 0.6,0 0.2,0 0.3,0 0.5,0 0.9,1.2 1.9,2.5 3,3.8 4.9,5.6 2.4,6.9 1.4,7.7 -1,0.8 -8,0.9 -10.9,1.8 -2.9,0.9 -4.2,4.9 -3.4,5.5 0.8,0.6 7.2,-1.7 11.2,-2.1 4,-0.4 14.6,3.6 16.7,3.6 2.1,0 15,-3.8 19.1,-1.7 4.2,2.1 6.3,0 6.3,0 -0.4,-0.9 -1,-1.7 -1.7,-2.4 4.7,-1 11.1,-2.1 13.9,-0.7 4.2,2.1 6.3,0 6.3,0 -3.6,-8 -18.4,-5 -23.2,-6.5 -3,-1 -7.6,-7 -10.6,-11.3 74.3,-15.5 45.2,-101.9 45.2,-101.9 0,-1.1 0.2,-2.1 0.8,-3 0.1,-0.2 0.2,-0.4 0.4,-0.5 0,0 0,-0.1 0.1,-0.1 0.1,-0.2 0.3,-0.3 0.4,-0.5 0,0 0.1,-0.1 0.1,-0.1 0.1,-0.2 0.3,-0.3 0.5,-0.4 0,0 0.1,-0.1 0.1,-0.1 0.2,-0.1 0.3,-0.3 0.5,-0.4 0,0 0,0 0.1,0 1.2,-0.9 2.8,-1.7 4.5,-2.3 0,0 0,0 0,0 0.3,-0.1 0.6,-0.2 0.8,-0.3 0,0 0,0 0,0 2.3,-0.7 4.8,-1.2 7,-1.5 0,0 0,0 0.1,0 0.3,0 0.5,-0.1 0.8,-0.1 0,0 0,0 0.1,0 0.3,0 0.5,-0.1 0.7,-0.1 0,0 0,0 0,0 1.2,-0.1 2.3,-0.2 3.1,-0.3 0,0 0.1,0 0.1,0 0.1,0 0.2,0 0.3,0 0.1,0 0.1,0 0.1,0 0.1,0 0.2,0 0.3,0 0,0 0.1,0 0.1,0 0.1,0 0.1,0 0.2,0 0,0 0.1,0 0.1,0 0,0 0.1,0 0.1,0 0.1,0 0.1,0 0.1,0 0,0 0,0 0,0 0,0 0.1,0 0.1,0 -0.6,-0.9 -1.2,-1.8 -1.7,-2.6 -0.2,-0.3 -0.4,-0.6 -0.6,-0.9 -0.4,-0.5 -0.8,-1.1 -1.2,-1.6 -0.2,-0.3 -0.5,-0.6 -0.7,-1 -0.4,-0.5 -0.7,-0.9 -1.1,-1.3 -0.3,-0.3 -0.5,-0.6 -0.8,-1 -0.3,-0.4 -0.7,-0.8 -1,-1.2 -0.3,-0.3 -0.6,-0.6 -0.9,-0.9 -0.3,-0.4 -0.7,-0.7 -1,-1 -0.3,-0.3 -0.6,-0.6 -0.9,-0.9 -0.3,-0.3 -0.6,-0.6 -1,-0.9 -0.1,-0.1 -0.2,-0.2 -0.3,-0.3 -0.2,-0.2 -0.4,-0.3 -0.6,-0.5 -0.3,-0.3 -0.6,-0.6 -1,-0.8 -0.3,-0.3 -0.6,-0.5 -0.9,-0.8 -0.2,-0.1 -0.3,-0.3 -0.5,-0.4 0,0 0,0 0,0 -0.3,-0.2 -0.6,-0.5 -0.9,-0.7 -2.7,-2 -5.5,-3.6 -8.2,-4.9 -2,-6.3 -7.5,-19.8 -19.6,-23.3 0,0 0.9,6.4 -2.7,7.6 -2.8,0.9 -15.2,8.2 -22.6,14.2 -0.7,0.2 -1.4,0.5 -2.1,0.7 -0.1,0 -0.3,0.1 -0.4,0.2 -0.4,0.1 -0.8,0.3 -1.2,0.4 -0.2,0.1 -0.3,0.1 -0.5,0.2 -0.4,0.2 -0.8,0.3 -1.2,0.5 -0.2,0.1 -0.3,0.1 -0.5,0.2 -1.1,0.5 -2.3,0.9 -3.5,1.5 -0.1,0.1 -0.3,0.1 -0.4,0.2 -0.5,0.2 -0.9,0.4 -1.4,0.6 -0.2,0.1 -0.4,0.2 -0.6,0.3 -0.4,0.2 -0.9,0.4 -1.4,0.6 -0.2,0.1 -0.3,0.2 -0.5,0.2 -0.6,0.3 -1.2,0.6 -1.8,0.9 0,0 0,0 0,0 v 0 c -1.8,0.9 -3.7,1.9 -5.6,3 0,0 0,0 0,0 -0.6,0.4 -1.3,0.7 -1.9,1.1 0,0 -0.1,0.1 -0.1,0.1 -0.6,0.4 -1.3,0.7 -1.9,1.1 0,0 -0.1,0 -0.1,0 -2.7,1.6 -5.3,3.3 -8,5.2 0,0 -0.1,0 -0.1,0.1 -0.6,0.4 -1.3,0.9 -1.9,1.3 -0.1,0 -0.1,0.1 -0.2,0.1 -0.6,0.4 -1.2,0.9 -1.9,1.4 0,0 -0.1,0.1 -0.1,0.1 -2.7,2 -5.3,4.2 -7.9,6.5 0,0 0,0 -0.1,0.1 -0.6,0.5 -1.2,1.1 -1.8,1.7 -0.1,0 -0.1,0.1 -0.2,0.1 -0.6,0.5 -1.2,1.1 -1.8,1.7 0,0 -0.1,0.1 -0.1,0.1 -2.6,2.4 -5,5 -7.4,7.7 0,0 0,0 0,0 -0.6,0.7 -1.1,1.3 -1.7,2 0,0.1 -0.1,0.1 -0.1,0.2 -0.5,0.6 -1.1,1.3 -1.6,2 0,0 -0.1,0.1 -0.1,0.1 -2.3,2.8 -4.4,5.8 -6.4,8.9 -33.9,8.8 -44.9,40.9 -48.4,59.6 -1,5.4 4.7,9.6 9.6,6.9 2.2,-1.2 4.6,-2.5 7.3,-3.9 l -32.6,34 c -10.7,9.2 -8.2,19.5 -3.7,26.9 2.5,4.9 9.8,4.8 12.6,-0.4 z m 116.2,-36.3 c 4.8,5.7 2.4,6.9 1.4,7.7 -0.6,0.5 -3.5,0.7 -6.4,1 -2.7,-2.7 -5.5,-6.6 -7.5,-9.5 1,0 1.9,-0.1 2.8,-0.1 0.1,0 0.2,0 0.4,0 1.3,-0.1 2.5,-0.2 3.7,-0.3 0,0 0,0 0,0 v 0 c 1.4,-0.1 2.8,-0.3 4.1,-0.4 0.6,0.5 1,1 1.5,1.6 z m -76.1,-32.5 c -0.8,0.3 -1.5,0.7 -2.2,1 0.6,-0.3 1.4,-0.7 2.2,-1 z m -12.6,6 c -0.6,0.3 -1.2,0.6 -1.7,0.9 0.5,-0.3 1.1,-0.6 1.7,-0.9 z m 9.8,-4.8 c -0.7,0.3 -1.4,0.7 -2.1,1 0.7,-0.3 1.4,-0.6 2.1,-1 z m -2.6,1.3 c -0.7,0.3 -1.3,0.6 -2,0.9 0.7,-0.3 1.4,-0.6 2,-0.9 z m -2.5,1.2 c -0.6,0.3 -1.3,0.6 -1.9,0.9 0.6,-0.3 1.3,-0.6 1.9,-0.9 z m -2.4,1.1 c -0.6,0.3 -1.2,0.6 -1.8,0.9 0.6,-0.3 1.2,-0.6 1.8,-0.9 z m -4.5,2.3 c -0.7,0.3 -1.3,0.7 -1.9,1 0.6,-0.3 1.2,-0.7 1.9,-1 z" /><path
   style="fill:#362720"
   inkscape:connector-curvature="0"
   id="path10"
   d="m 664.3,238.2 v 0 c -0.6,-0.6 -1.2,-1.1 -1.7,-1.6 -0.2,-0.2 -0.3,-0.3 -0.5,-0.5 -0.4,-0.4 -0.8,-0.7 -1.2,-1.1 -0.2,-0.2 -0.4,-0.3 -0.5,-0.5 -0.5,-0.4 -0.9,-0.8 -1.4,-1.1 -0.1,-0.1 -0.2,-0.2 -0.3,-0.2 -0.6,-0.4 -1.1,-0.8 -1.6,-1.2 -0.1,-0.1 -0.3,-0.2 -0.4,-0.3 -0.4,-0.3 -0.8,-0.6 -1.2,-0.8 -0.2,-0.1 -0.3,-0.2 -0.5,-0.3 -0.4,-0.3 -0.8,-0.5 -1.2,-0.7 -0.1,-0.1 -0.3,-0.2 -0.4,-0.3 -0.5,-0.3 -1,-0.6 -1.5,-0.9 -0.1,0 -0.2,-0.1 -0.3,-0.1 -0.4,-0.2 -0.8,-0.4 -1.3,-0.6 -0.2,-0.1 -0.3,-0.1 -0.5,-0.2 -0.4,-0.2 -0.7,-0.3 -1.1,-0.5 -0.1,-0.1 -0.3,-0.1 -0.4,-0.2 -0.5,-0.2 -0.9,-0.4 -1.4,-0.6 0,0 0,0 0,0 -0.5,-0.2 -1,-0.3 -1.4,-0.5 -0.1,0 -0.3,-0.1 -0.4,-0.1 -0.3,-0.1 -0.7,-0.2 -1,-0.3 -0.1,0 -0.3,-0.1 -0.4,-0.1 -0.4,-0.1 -0.7,-0.2 -1.1,-0.2 -0.1,0 -0.2,0 -0.3,0 -0.4,-0.1 -0.9,-0.1 -1.3,-0.2 -0.1,0 -0.2,0 -0.3,0 -0.3,0 -0.7,-0.1 -1,-0.1 -0.1,0 -0.3,0 -0.4,0 -0.3,0 -0.6,0 -0.9,0 -0.1,0 -0.2,0 -0.3,0 -0.4,0 -0.8,0 -1.2,0.1 -0.1,0 -0.1,0 -0.2,0 -0.3,0 -0.7,0.1 -1,0.1 -0.1,0 -0.2,0 -0.4,0.1 -0.3,0 -0.6,0.1 -0.9,0.2 -0.1,0 -0.2,0 -0.3,0.1 -0.4,0.1 -0.7,0.2 -1.1,0.3 0,0 0,0 0,0 -0.4,0.1 -0.7,0.2 -1.1,0.4 -0.1,0 -0.2,0.1 -0.3,0.1 -0.3,0.1 -0.5,0.2 -0.8,0.3 -0.1,0 -0.2,0.1 -0.3,0.1 -0.3,0.1 -0.6,0.3 -0.9,0.4 -0.1,0 -0.1,0.1 -0.2,0.1 -0.3,0.2 -0.7,0.4 -1,0.6 -0.1,0 -0.1,0.1 -0.2,0.1 -0.3,0.2 -0.5,0.3 -0.8,0.5 -0.1,0.1 -0.2,0.1 -0.3,0.2 -0.2,0.2 -0.5,0.3 -0.7,0.5 -0.1,0.1 -0.2,0.1 -0.2,0.2 -0.3,0.2 -0.6,0.5 -0.9,0.7 0,0 -0.1,0.1 -0.1,0.1 -0.3,0.2 -0.5,0.4 -0.8,0.7 -0.1,0.1 -0.2,0.2 -0.3,0.2 -0.2,0.2 -0.4,0.4 -0.6,0.6 -0.1,0.1 -0.2,0.2 -0.3,0.2 -0.3,0.2 -0.5,0.5 -0.8,0.8 0,0 0,0 -0.1,0.1 -0.3,0.3 -0.5,0.6 -0.8,0.9 -0.1,0.1 -0.1,0.2 -0.2,0.2 -0.2,0.2 -0.4,0.4 -0.6,0.7 -0.1,0.1 -0.2,0.2 -0.2,0.3 -0.2,0.2 -0.4,0.5 -0.6,0.7 -0.1,0.1 -0.1,0.1 -0.2,0.2 -0.2,0.3 -0.5,0.6 -0.7,0.9 -0.1,0.1 -0.1,0.2 -0.2,0.2 -0.2,0.2 -0.4,0.5 -0.5,0.7 -0.1,0.1 -0.1,0.2 -0.2,0.3 -0.2,0.2 -0.3,0.5 -0.5,0.7 -0.1,0.1 -0.1,0.2 -0.2,0.3 -0.2,0.3 -0.4,0.6 -0.6,1 0,0 -0.1,0.1 -0.1,0.1 -0.2,0.3 -0.4,0.6 -0.5,0.9 -0.1,0.1 -0.1,0.2 -0.2,0.3 -0.1,0.2 -0.3,0.5 -0.4,0.7 -0.1,0.1 -0.1,0.2 -0.2,0.3 -0.2,0.3 -0.3,0.6 -0.5,0.8 0,0 -0.1,0.1 -0.1,0.1 -0.2,0.3 -0.4,0.7 -0.5,1 -0.1,0.1 -0.1,0.2 -0.2,0.3 -0.1,0.2 -0.2,0.5 -0.4,0.7 -0.1,0.1 -0.1,0.2 -0.2,0.3 -0.1,0.2 -0.2,0.5 -0.4,0.7 0,0.1 -0.1,0.2 -0.1,0.3 -0.2,0.3 -0.3,0.6 -0.5,0.9 0,0.1 -0.1,0.2 -0.1,0.3 -0.1,0.2 -0.2,0.5 -0.3,0.7 -0.1,0.1 -0.1,0.2 -0.2,0.3 -0.1,0.2 -0.2,0.4 -0.3,0.6 0,0.1 -0.1,0.2 -0.1,0.3 -0.1,0.3 -0.3,0.6 -0.4,0.9 0,0.1 -0.1,0.1 -0.1,0.2 -0.1,0.2 -0.2,0.5 -0.3,0.7 0,0.1 -0.1,0.2 -0.1,0.3 -0.1,0.2 -0.1,0.4 -0.2,0.5 0,0.1 -0.1,0.2 -0.1,0.3 0,0 0,0.1 0,0.1 0,0 0,0 0,0 -1.8,4.6 -2.6,7.9 -2.6,7.9 -2.4,21.2 -7.9,45.4 -13,62.6 -3.8,1.2 -7.2,2.4 -10.2,3.6 -6.4,2.5 -12.1,6.7 -16.5,12 -11,13.4 -29.6,25.8 -50,36.5 -2.6,1.4 -5.3,2.7 -7.9,4 0,0 -0.1,0 -0.1,0 -2.6,1.3 -5.3,2.6 -8,3.8 -7.2,3.4 -14.4,6.5 -21.4,9.4 -1.5,0.6 -2.9,1.2 -4.4,1.8 -0.1,0 -0.2,0.1 -0.3,0.1 -1.4,0.6 -2.8,1.1 -4.2,1.7 -0.1,0.1 -0.3,0.1 -0.4,0.2 -1.3,0.5 -2.7,1.1 -4,1.6 -0.1,0.1 -0.3,0.1 -0.4,0.2 -1.3,0.5 -2.6,1 -3.9,1.5 -7,2.7 -13.6,5 -19.4,7 -7.1,2.5 -6.6,12.7 0.7,14.5 14.2,3.4 27.6,6 40.4,7.8 -22.5,13.1 -43.8,23.9 -58.6,31 -4.1,2 -2.4,8.2 2.1,7.8 17.4,-1.5 42.1,-3.9 68.3,-7.2 v 0 c 0.9,-0.1 1.9,-0.2 2.8,-0.4 0.4,0 0.8,-0.1 1.1,-0.1 0.8,-0.1 1.5,-0.2 2.3,-0.3 0.4,0 0.7,-0.1 1.1,-0.1 1,-0.1 2,-0.3 3,-0.4 0.4,0 0.7,-0.1 1.1,-0.1 0.8,-0.1 1.6,-0.2 2.4,-0.3 0.3,0 0.7,-0.1 1,-0.1 1,-0.1 2.1,-0.3 3.1,-0.4 0.3,0 0.7,-0.1 1,-0.1 0.8,-0.1 1.6,-0.2 2.4,-0.3 0.3,0 0.7,-0.1 1,-0.1 1,-0.1 2.1,-0.3 3.1,-0.4 0.3,0 0.7,-0.1 1,-0.1 0.8,-0.1 1.6,-0.2 2.4,-0.4 0.3,0 0.7,-0.1 1,-0.1 1,-0.2 2.1,-0.3 3.1,-0.5 0.3,0 0.6,-0.1 1,-0.1 0.8,-0.1 1.7,-0.2 2.5,-0.4 0.3,0 0.6,-0.1 1,-0.1 1.1,-0.2 2.1,-0.3 3.2,-0.5 0.3,0 0.5,-0.1 0.8,-0.1 0.9,-0.1 1.7,-0.3 2.6,-0.4 0.3,-0.1 0.6,-0.1 1,-0.2 1,-0.2 2.1,-0.3 3.1,-0.5 0.3,0 0.5,-0.1 0.8,-0.1 0.9,-0.1 1.7,-0.3 2.6,-0.4 0.3,0 0.6,-0.1 0.9,-0.1 0.2,0 0.4,-0.1 0.5,-0.1 8.2,12.3 20.9,31 20.9,31 0.1,0.1 0.2,0.2 0.3,0.3 1.3,2.3 3.3,5.8 2.5,7.8 -1.1,2.9 -12.3,2.3 -16.4,2.5 -4.2,0.2 -5.5,5.9 -5.5,5.9 2.5,2.2 13.4,1.5 16.5,0 1.5,-0.7 3.4,-1 5.1,-1.1 -0.2,0.7 -0.4,1.1 -0.4,1.1 1.4,1.2 5.2,1.5 9,1.3 1.2,0.5 2.8,0.9 4.7,1.3 3.8,0.8 12.2,0.3 19,-0.5 0.7,0.2 1.5,0.4 2.3,0.5 6.4,1.2 25.3,-0.9 28.8,-2.2 3.5,-1.3 11.8,0.7 11.4,-2.4 -0.4,-3.1 -7,-5.2 -10.1,-5.5 -2.2,-0.2 -12,0.3 -18.5,0.5 -1.1,-0.3 -2.1,-0.5 -2.8,-0.5 -0.7,-0.1 -2.2,-0.1 -4.2,0 -2.1,-1.4 -4.9,-4.7 -6.4,-7.6 -1.1,-2 -2.7,-4.1 -3.9,-5.5 0.1,-2.1 -0.6,-4.1 -0.6,-4.1 3.2,-3.9 16.1,-31.6 20.7,-41.5 0.2,-0.1 0.4,-0.2 0.7,-0.3 0.1,-0.1 0.2,-0.1 0.4,-0.2 0.5,-0.3 0.9,-0.5 1.4,-0.8 0,0 0,0 0,0 0.4,-0.3 0.8,-0.5 1.2,-0.8 0.1,-0.1 0.2,-0.1 0.3,-0.2 0.4,-0.3 0.8,-0.5 1.2,-0.8 0.8,-0.6 1.5,-1.1 2.3,-1.7 0.1,-0.1 0.2,-0.2 0.4,-0.3 0.7,-0.5 1.5,-1.1 2.2,-1.6 0.1,-0.1 0.3,-0.2 0.4,-0.3 0.7,-0.6 1.5,-1.1 2.2,-1.7 0.1,-0.1 0.2,-0.1 0.3,-0.2 0.7,-0.6 1.5,-1.1 2.2,-1.7 0.1,0 0.1,-0.1 0.2,-0.1 0.7,-0.6 1.5,-1.2 2.2,-1.8 0.1,-0.1 0.2,-0.2 0.4,-0.3 0.7,-0.6 1.4,-1.2 2.1,-1.8 0.1,-0.1 0.2,-0.2 0.3,-0.3 0.7,-0.6 1.4,-1.3 2.1,-1.9 0,0 0,0 0.1,-0.1 0.7,-0.6 1.4,-1.3 2.1,-2 0.1,-0.1 0.2,-0.2 0.3,-0.2 0.7,-0.6 1.3,-1.3 2,-2 0.1,-0.1 0.2,-0.2 0.3,-0.3 0.7,-0.7 1.3,-1.3 1.9,-2 0.1,-0.1 0.2,-0.2 0.2,-0.2 0.6,-0.7 1.3,-1.4 1.9,-2.1 0,0 0,0 0,0 0.6,-0.7 1.2,-1.4 1.9,-2.2 0.1,-0.1 0.2,-0.2 0.3,-0.3 0.6,-0.7 1.2,-1.4 1.7,-2.2 0.1,-0.1 0.2,-0.2 0.3,-0.3 0.6,-0.8 1.1,-1.5 1.7,-2.3 0,0 0.1,-0.1 0.1,-0.1 0.5,-0.8 1.1,-1.5 1.6,-2.3 0,-0.1 0.1,-0.1 0.1,-0.2 0.5,-0.8 1,-1.6 1.5,-2.4 0.1,-0.1 0.2,-0.2 0.2,-0.4 0.5,-0.8 0.9,-1.6 1.4,-2.4 0.1,-0.1 0.1,-0.2 0.2,-0.3 0.9,-1.7 1.8,-3.4 2.6,-5.2 0,-0.1 0.1,-0.2 0.1,-0.3 0.4,-0.9 0.7,-1.7 1.1,-2.6 0.1,-0.1 0.1,-0.3 0.2,-0.4 0.3,-0.9 0.7,-1.8 1,-2.7 0,-0.1 0,-0.1 0.1,-0.2 0.3,-0.9 0.6,-1.9 0.9,-2.8 0,0 0,-0.1 0,-0.1 0.3,-0.9 0.5,-1.9 0.8,-2.9 0,-0.1 0.1,-0.3 0.1,-0.4 0.2,-1 0.4,-1.9 0.6,-2.9 0,-0.1 0,-0.3 0.1,-0.4 0.2,-1 0.4,-2 0.5,-3.1 0,0 0,0 0,0 0.1,-1 0.3,-2.1 0.4,-3.2 0,-0.1 0,-0.2 0,-0.3 0.1,-1 0.2,-2.1 0.2,-3.1 0,-0.2 0,-0.3 0,-0.5 0,-1.1 0.1,-2.1 0.1,-3.2 0,-0.1 0,-0.2 0,-0.3 0,-1.1 0,-2.3 -0.1,-3.4 0,0 0,0 0,0 -0.1,-1.1 -0.1,-2.3 -0.3,-3.5 0,-0.2 0,-0.3 0,-0.5 -0.1,-1.1 -0.2,-2.3 -0.4,-3.4 0,-0.2 0,-0.3 -0.1,-0.5 -0.2,-1.2 -0.4,-2.4 -0.6,-3.6 0,0 0,0 0,0 0,0 0,0 0,0 -1.3,-6.9 -3.4,-14.2 -6.5,-21.9 -7.2,-18.1 -10.7,-30.9 -12.1,-40.1 -0.1,-0.5 -0.2,-1 -0.2,-1.5 0,0 0,-0.1 0,-0.1 -0.1,-0.5 -0.1,-1 -0.2,-1.5 0,-0.1 0,-0.2 0,-0.3 0,-0.4 -0.1,-0.8 -0.1,-1.2 0,-0.1 0,-0.2 0,-0.3 -0.1,-0.9 -0.1,-1.8 -0.2,-2.6 0,-0.1 0,-0.2 0,-0.3 0,-0.3 0,-0.7 0,-1 0,-0.1 0,-0.2 0,-0.3 0,-0.4 0,-0.8 0,-1.1 0,0 0,0 0,0 0,-0.3 0,-0.7 0,-1 0,-0.1 0,-0.2 0,-0.3 0,-0.3 0,-0.5 0,-0.8 0,-0.1 0,-0.1 0,-0.2 0,-0.3 0.1,-0.6 0.1,-0.9 0,0 0,-0.1 0,-0.1 0,-0.3 0.1,-0.5 0.1,-0.7 0,-0.1 0,-0.1 0,-0.2 0,-0.2 0.1,-0.5 0.1,-0.7 0,0 0,-0.1 0,-0.1 0,-0.3 0.1,-0.5 0.1,-0.7 0,0 0,-0.1 0,-0.1 0,-0.2 0.1,-0.4 0.1,-0.6 0,-0.1 0,-0.1 0,-0.2 0.1,-0.2 0.1,-0.4 0.2,-0.6 0,0 0,0 0,0 0.1,-0.2 0.1,-0.4 0.2,-0.6 0,0 0,-0.1 0,-0.1 0.1,-0.1 0.1,-0.3 0.2,-0.4 0,0 0,-0.1 0,-0.1 0.1,-0.3 0.3,-0.6 0.4,-0.9 0,0 0,-0.1 0,-0.1 0.1,-0.1 0.1,-0.2 0.2,-0.3 0,0 0,-0.1 0,-0.1 0.1,-0.1 0.1,-0.2 0.2,-0.3 0,0 0,0 0,0 0.1,-0.1 0.1,-0.2 0.2,-0.3 0,0 0,0 0,-0.1 0.1,-0.1 0.1,-0.1 0.2,-0.2 0,0 0,0 0,0 0.1,-0.1 0.1,-0.1 0.2,-0.2 0,0 0,0 0,0 0,-0.1 0.1,-0.1 0.1,-0.1 0,0 0,0 0,0 0,0 0.1,-0.1 0.1,-0.1 0,0 0,0 0,0 0,0 0.1,-0.1 0.1,-0.1 0,0 0,0 0,0 0,0 0.1,-0.1 0.1,-0.1 0,0 0,0 0,0 0,0 0.1,0 0.1,-0.1 0,0 0,0 0,0 0,0 0.1,0 0.1,0 0,0 0,0 0,0 0,0 0,0 0,0 0,0 0,0 0,0 0,0 0,0 0,0 1,-0.7 1.9,-1.4 2.7,-2.2 0.3,-0.3 0.6,-0.6 0.9,-1 0,0 0,0 0,0 1.6,0.5 18.7,0.4 21.6,-2.2 2.9,-3.5 -16.1,-16.6 -16.1,-16.6 z m -72.5,255.3 c -2,-0.3 -5.9,-4.6 -7.8,-8.3 -1.1,-2 -2.7,-4.1 -3.9,-5.5 0.1,-2.1 -0.6,-4.1 -0.6,-4.1 0.6,-0.8 1.7,-2.5 2.9,-4.9 4.9,7.3 8.8,13.1 8.8,13.1 0.1,0.1 0.2,0.2 0.3,0.3 1.3,2.3 3.3,5.8 2.5,7.8 -0.3,0.6 -1,1.1 -2,1.5 -0.1,0.1 -0.2,0.1 -0.2,0.1 z" /><path
   style="fill:#362720"
   inkscape:connector-curvature="0"
   id="path12"
   d="m 275.9,695.7 c -0.3,-0.1 -0.6,-0.1 -1,-0.2 0,0 -0.1,0 -0.1,0 -0.3,-0.1 -0.7,-0.1 -1,-0.2 0,0 0,0 -0.1,0 v 0 c -7,-1.2 -19.1,-3.2 -24.5,-3.5 -2.1,-2.4 -4.8,-4.5 -7.9,-5.9 l -1.2,-0.6 c -10.8,-5 -23.7,-1.2 -30,8.9 L 189.7,727 c -21,15.6 -40.2,59.3 -52.4,75.8 -4.7,6.3 -23,21.5 -23,21.5 -2.9,2.7 -0.5,7.7 3.4,6.8 6,-1.3 11.6,-2.7 17,-4.1 h 13.5 c -45.5,7.7 -57.4,20.2 -63.6,41.1 -7.2,24.5 49,55.2 47.8,18.4 -0.9,-27.7 23.8,-49.5 36,-58.5 1.3,3.7 3.5,8.4 6,7.7 0.5,-0.1 1,-0.3 1.6,-0.5 2.2,5.4 9.4,23.3 9.4,28.6 0,0 -17.8,0.4 -16.2,2 1.6,1.6 8.5,3.6 14.2,4 5.8,0.4 21.2,1.5 23.8,0.5 2.6,-1 21.4,-3.4 25.8,-1.9 2.9,0.9 2.2,-2 -1.4,-3.8 5.5,-0.7 12.3,-1.1 14.6,-0.4 3.8,1.2 0.4,-5.2 -7.8,-4.3 -8.2,0.9 -12.3,1.2 -11.1,-0.1 1.2,-1.2 13.7,-2.4 14.1,-3.1 0.4,-0.7 -1.9,-3.4 -6,-2.8 -2.3,0.3 -6.6,1.7 -10.5,3 -1.2,-0.5 -2.7,-0.9 -4.6,-0.6 -1.6,0.2 -4.1,0.9 -6.7,1.7 -1,-1.1 -2,-2.8 -3.2,-5.5 -3.1,-7 -5.8,-14.9 -6.9,-18.3 1.5,-0.5 2.5,-1 2.6,-1.5 0.1,-1.1 -2,-8.8 -3.2,-9.7 0.5,-0.2 1,-0.4 1.5,-0.6 0,0 0,0 0,0 2.6,-1.1 5.4,-2.5 8.1,-4.2 0.1,-0.1 0.2,-0.1 0.3,-0.2 0.4,-0.3 0.9,-0.5 1.3,-0.8 0.1,-0.1 0.3,-0.2 0.4,-0.3 0.4,-0.3 0.8,-0.5 1.2,-0.8 0.2,-0.1 0.3,-0.2 0.5,-0.3 0.4,-0.3 0.7,-0.5 1.1,-0.8 0.1,-0.1 0.3,-0.2 0.4,-0.3 0,0 0,0 0.1,0 0,0 0,0 0,0 0.4,-0.3 0.7,-0.6 1.1,-0.9 0.2,-0.1 0.3,-0.2 0.5,-0.4 0,0 0.1,0 0.1,-0.1 0.3,-0.3 0.7,-0.6 1,-0.9 0.2,-0.1 0.3,-0.3 0.5,-0.4 0,0 0,0 0.1,-0.1 v 0 0 c 0.3,-0.3 0.7,-0.6 1,-0.9 0.2,-0.1 0.3,-0.3 0.5,-0.4 0.4,-0.4 0.8,-0.7 1.1,-1.1 0.1,-0.1 0.3,-0.3 0.4,-0.4 0.4,-0.5 0.9,-0.9 1.3,-1.4 0.1,-0.1 0.1,-0.1 0.2,-0.2 1,-1.1 2,-2.3 2.9,-3.5 0.1,-0.1 0.2,-0.3 0.3,-0.4 0.4,-0.5 0.7,-1 1.1,-1.5 0.2,-0.2 0.3,-0.4 0.5,-0.7 0.3,-0.4 0.6,-0.9 0.9,-1.3 0.2,-0.3 0.3,-0.5 0.5,-0.8 0.3,-0.4 0.6,-0.9 0.8,-1.3 0.2,-0.3 0.3,-0.6 0.5,-0.9 0.3,-0.4 0.5,-0.9 0.8,-1.3 0.2,-0.3 0.3,-0.6 0.5,-0.9 0.2,-0.5 0.5,-0.9 0.7,-1.4 0.2,-0.3 0.3,-0.7 0.5,-1 0.2,-0.5 0.5,-1 0.7,-1.5 0.2,-0.3 0.3,-0.7 0.5,-1 0.2,-0.5 0.5,-1 0.7,-1.5 0.1,-0.3 0.3,-0.7 0.4,-1 0.2,-0.6 0.4,-1.1 0.7,-1.7 0.1,-0.3 0.3,-0.7 0.4,-1 0.2,-0.6 0.5,-1.3 0.7,-2 0.1,-0.3 0.2,-0.6 0.3,-0.9 0.3,-1 0.6,-1.9 0.9,-3 0,0 0,-0.1 0,-0.1 0.3,-1 0.6,-2 0.8,-3 0.1,-0.3 0.2,-0.7 0.3,-1 0.2,-0.7 0.4,-1.4 0.5,-2.2 0.1,-0.4 0.2,-0.9 0.3,-1.3 0.1,-0.7 0.3,-1.3 0.4,-2 0.1,-0.5 0.2,-1 0.3,-1.4 0.1,-0.7 0.2,-1.3 0.4,-2 0.1,-0.5 0.2,-1 0.2,-1.5 0.1,-0.7 0.2,-1.4 0.3,-2.1 0.1,-0.5 0.1,-1.1 0.2,-1.6 0.1,-0.7 0.2,-1.4 0.2,-2.1 0.1,-0.6 0.1,-1.1 0.2,-1.7 0.1,-0.7 0.1,-1.5 0.2,-2.2 0,-0.6 0.1,-1.1 0.1,-1.7 0.1,-0.8 0.1,-1.6 0.1,-2.4 0,-0.6 0.1,-1.1 0.1,-1.7 0,-0.8 0.1,-1.7 0.1,-2.5 0,-0.6 0,-1.1 0,-1.7 0,-1 0,-1.9 0,-2.9 0,-0.5 0,-1 0,-1.5 0,-1.5 0,-3 -0.1,-4.5 0,0 0,0 0,0 l 7.7,-19.6 c 1.1,-2.7 1.6,-5.5 1.6,-8.3 5.5,-2.1 11.3,-4.6 15.9,-6.7 0.9,-0.4 1.7,-0.8 2.4,-1.2 0.8,-0.4 1.5,-0.7 2.1,-1.1 0.3,-0.2 0.6,-0.3 0.9,-0.5 1.4,-0.8 1.1,-2.5 -0.2,-2.7 z m -70.1,164.5 c 0,0 -7.1,0.1 -11.1,0.7 -1.1,-1.3 -2.3,-3.2 -3.7,-6.3 -3.7,-8.2 -6.8,-17.5 -8.1,-21.5 1.7,-0.6 3,-1.2 3,-1.7 0,-0.5 -0.4,-2.4 -0.9,-4.5 0,0 0,0 0.1,0 0,0 0.1,0 0.1,0 1.1,-0.1 2.5,-0.2 4.3,-0.4 0,0 0,0 0,0 0.3,0 0.5,-0.1 0.8,-0.1 0.4,1.6 3,10.8 6.2,9.9 0.4,-0.1 0.9,-0.3 1.4,-0.4 1.8,4.6 7.9,19.8 7.9,24.3 z" /><path
   style="fill:#362720"
   inkscape:connector-curvature="0"
   id="path14"
   d="m 635.2,682.6 c 0,0 0,0 0,0 -0.5,-1.1 -6.5,-13 -36.4,-8.2 0,0 -36.7,-26 -74.6,45.9 -0.5,0.9 -1,1.9 -1.5,2.8 -0.6,1.1 -1.2,2.1 -1.8,3.2 0,0 0,0.1 -0.1,0.1 -0.6,1 -1.2,2.1 -1.8,3.1 0,0.1 -0.1,0.1 -0.1,0.2 -0.6,1 -1.2,2.1 -1.9,3.1 -0.1,0.1 -0.1,0.2 -0.2,0.3 -0.6,1 -1.3,2 -1.9,3 -0.1,0.1 -0.1,0.2 -0.2,0.3 -0.6,1 -1.3,2 -1.9,3 -0.1,0.1 -0.2,0.2 -0.2,0.4 -0.6,1 -1.3,1.9 -2,2.9 -0.1,0.1 -0.2,0.3 -0.3,0.4 -0.7,1 -1.3,1.9 -2,2.9 -0.1,0.2 -0.2,0.3 -0.3,0.5 -0.7,0.9 -1.3,1.9 -2,2.8 -0.1,0.2 -0.2,0.3 -0.4,0.5 -0.7,0.9 -1.3,1.9 -2,2.8 -0.1,0.2 -0.3,0.4 -0.4,0.5 -0.7,0.9 -1.4,1.8 -2.1,2.7 -0.1,0.2 -0.3,0.4 -0.4,0.6 -0.7,0.9 -1.4,1.8 -2.1,2.7 -0.1,0.2 -0.3,0.4 -0.4,0.6 -0.7,0.9 -1.4,1.8 -2.1,2.7 -0.2,0.2 -0.3,0.4 -0.5,0.6 -0.7,0.9 -1.4,1.8 -2.1,2.6 -0.2,0.2 -0.3,0.4 -0.5,0.6 -0.7,0.9 -1.4,1.7 -2.1,2.6 -0.2,0.2 -0.4,0.4 -0.5,0.6 -0.7,0.9 -1.4,1.7 -2.2,2.6 -0.2,0.2 -0.4,0.4 -0.5,0.6 -0.7,0.8 -1.4,1.7 -2.2,2.5 -0.2,0.2 -0.4,0.4 -0.6,0.7 -0.7,0.8 -1.5,1.7 -2.2,2.5 -0.2,0.2 -0.4,0.4 -0.6,0.7 -0.7,0.8 -1.5,1.7 -2.2,2.5 -0.2,0.2 -0.4,0.4 -0.6,0.7 -0.7,0.8 -1.5,1.6 -2.2,2.5 -0.2,0.2 -0.4,0.4 -0.6,0.7 -0.7,0.8 -1.5,1.6 -2.2,2.4 -0.2,0.2 -0.4,0.4 -0.6,0.7 -0.7,0.8 -1.5,1.6 -2.2,2.4 -0.2,0.2 -0.4,0.4 -0.6,0.7 -0.8,0.8 -1.5,1.6 -2.3,2.4 -0.2,0.2 -0.4,0.4 -0.6,0.6 -0.8,0.8 -1.5,1.6 -2.3,2.4 -0.2,0.2 -0.4,0.4 -0.6,0.6 -0.8,0.8 -1.5,1.6 -2.3,2.4 -0.2,0.2 -0.4,0.4 -0.6,0.6 -0.8,0.8 -1.6,1.6 -2.3,2.4 -0.2,0.2 -0.4,0.4 -0.5,0.5 -0.8,0.8 -1.6,1.6 -2.4,2.4 -0.2,0.2 -0.3,0.3 -0.5,0.5 -0.8,0.8 -1.6,1.6 -2.4,2.4 -0.1,0.1 -0.3,0.3 -0.4,0.4 -0.8,0.8 -1.6,1.6 -2.5,2.4 -0.1,0.1 -0.3,0.3 -0.4,0.4 -0.8,0.8 -1.7,1.6 -2.5,2.4 -0.1,0.1 -0.2,0.2 -0.3,0.3 -0.9,0.8 -1.7,1.6 -2.6,2.5 -0.1,0.1 -0.2,0.1 -0.2,0.2 -0.9,0.8 -1.8,1.7 -2.7,2.5 0,0 -0.1,0.1 -0.1,0.1 -0.9,0.9 -1.8,1.7 -2.8,2.6 v 0 c -30.3,28.3 -56.9,48.5 -61.7,51.6 -9.7,6.3 -17.4,15.9 12.1,8.3 6.6,-1.7 13.6,-4.1 20.8,-7 v 0 c 39,-9.8 68.3,-21 90.4,-32.5 0.4,0 0.8,0.1 1.2,0.1 0.5,4.8 2.4,13.8 10.4,17.7 1.7,0.8 3.3,1.4 4.8,1.8 1.8,5.4 5.2,15.9 5.1,19 -0.2,4.2 -2,9.5 -10.4,11.7 -8.4,2.2 -14.2,8.4 -8.4,7.8 5.8,-0.5 20,-4.2 25.7,-3.1 5.6,1.1 30.1,7.5 32.8,4.7 2.7,-2.7 -0.2,-5.1 -9.1,-8.2 -8.8,-3.1 -18.9,-2.6 -21.4,-9 0.3,0.1 0.8,0.1 1.5,0.1 5.1,-0.5 17.4,-3.6 22.3,-2.7 4.9,0.9 26.1,6.5 28.5,4.1 2.4,-2.4 -0.2,-4.4 -7.9,-7.1 -7.8,-2.7 -16.6,-2.2 -18.7,-8 -1.5,-4.3 -2.1,-15.9 -2.8,-21.7 2.2,-2 3.9,-5.1 4.9,-9.3 1.9,-7.9 3.4,-12.1 4,-13.8 4.7,-4.5 8.7,-10.1 11.9,-17.1 23,-51 7.3,-83.1 13.8,-99.5 2.2,-5.5 5.3,-11.8 7.7,-15.4 0.3,0 0.5,0 0.8,0 v 0 0 c 0,0 2.6,-2.1 7.1,-4.5 0.4,-0.2 0.9,-0.5 1.3,-0.7 0.6,-0.3 1.3,-0.6 1.9,-0.9 0,0 0.1,0 0.2,-0.1 6.7,-3 16,-6.1 26.8,-6.3 v 0 0 c 0.1,0.1 0.1,0.1 0,0 z m -94.4,196.3 c -4.6,1.2 -8.3,3.8 -9.2,5.4 -1.5,-5.6 -2.1,-17.6 -2.9,-24 2.6,-2.3 4.4,-5.9 5.6,-10.8 0.4,-1.5 0.7,-2.9 1.1,-4.2 1.3,2.1 3.2,4.1 5.9,5.4 1.5,0.7 2.8,1.2 4.1,1.5 1.6,4.7 4.5,13.8 4.4,16.5 -0.1,3.7 -1.7,8.3 -9,10.2 z" /><path
   style="fill:#362720"
   inkscape:connector-curvature="0"
   id="path16"
   d="m 1335.8,211.9 c 0,-0.8 0,-1.6 -0.1,-2.4 0,-0.3 0,-0.5 0,-0.8 0,-0.5 -0.1,-1 -0.1,-1.6 0,-0.3 -0.1,-0.6 -0.1,-0.9 0,-0.5 -0.1,-0.9 -0.1,-1.4 0,-0.3 -0.1,-0.6 -0.1,-1 -0.1,-0.4 -0.1,-0.9 -0.2,-1.3 0,-0.3 -0.1,-0.6 -0.1,-1 -0.1,-0.4 -0.1,-0.8 -0.2,-1.2 -0.1,-0.3 -0.1,-0.6 -0.2,-0.9 -0.1,-0.4 -0.2,-0.8 -0.3,-1.3 -0.1,-0.5 -0.2,-0.9 -0.3,-1.4 -0.1,-0.5 -0.2,-1 -0.4,-1.5 -0.1,-0.4 -0.2,-0.7 -0.3,-1.1 -0.1,-0.3 -0.2,-0.6 -0.2,-0.9 -0.1,-0.4 -0.2,-0.8 -0.4,-1.2 -0.1,-0.3 -0.2,-0.5 -0.3,-0.8 -0.1,-0.4 -0.3,-0.8 -0.4,-1.2 -0.1,-0.2 -0.2,-0.5 -0.3,-0.7 -0.1,-0.4 -0.3,-0.8 -0.5,-1.2 -0.1,-0.2 -0.2,-0.4 -0.2,-0.6 -0.2,-0.4 -0.3,-0.8 -0.5,-1.3 0,-0.1 -0.1,-0.2 -0.1,-0.3 -14.8,-34.1 -55.5,-43.4 -55.5,-43.4 v 0 c 0,0 0,0 0,0 -4.6,-4.2 -10.8,-6.7 -17.6,-6.7 h -29.6 c 0,0 -53.7,5.7 -45.4,49.8 10.2,54.3 89.4,68.1 95.6,92.6 18.8,31.8 -6.9,68.4 -44.4,16.7 -20.7,-28.5 -33.4,-35.8 -55.7,-39.3 v 0 c 0,0 0,0 0,0 -3.4,-0.5 -6.9,-1 -10.8,-1.4 -0.2,0 -0.4,0 -0.7,-0.1 -0.6,-0.1 -1.2,-0.1 -1.8,-0.2 -0.4,0 -0.8,-0.1 -1.3,-0.1 -0.5,0 -0.9,-0.1 -1.4,-0.1 -0.9,-0.1 -1.9,-0.2 -2.8,-0.3 -0.8,-0.1 -1.6,-0.2 -2.5,-0.2 -0.3,0 -0.6,0 -0.8,-0.1 -0.6,0 -1.1,-0.1 -1.7,-0.1 -0.3,0 -0.7,0 -1,-0.1 -0.5,0 -1,-0.1 -1.5,-0.1 -0.4,0 -0.7,0 -1.1,0 -0.5,0 -1,0 -1.5,0 -0.4,0 -0.8,0 -1.1,0 -0.5,0 -1,0 -1.4,0 -0.4,0 -0.8,0 -1.2,0 -0.5,0 -0.9,0 -1.4,0 -0.4,0 -0.8,0 -1.2,0 -0.5,0 -0.9,0 -1.4,0 -0.4,0 -0.8,0 -1.2,0 -0.5,0 -0.9,0 -1.4,0.1 -0.4,0 -0.8,0 -1.2,0.1 -0.5,0 -0.9,0.1 -1.4,0.1 -0.4,0 -0.8,0.1 -1.2,0.1 -0.5,0 -1,0.1 -1.4,0.1 -0.4,0 -0.9,0.1 -1.3,0.1 -0.8,0.1 -1.7,0.2 -2.5,0.3 -0.5,0.1 -0.9,0.1 -1.4,0.2 -0.4,0.1 -0.8,0.1 -1.2,0.2 -0.5,0.1 -1,0.1 -1.5,0.2 -0.4,0.1 -0.8,0.1 -1.2,0.2 -0.5,0.1 -1,0.2 -1.5,0.2 -0.4,0.1 -0.8,0.1 -1.1,0.2 -0.5,0.1 -1,0.2 -1.5,0.3 -0.4,0.1 -0.7,0.1 -1.1,0.2 -0.5,0.1 -1.1,0.2 -1.6,0.3 -0.4,0.1 -0.7,0.1 -1.1,0.2 -0.5,0.1 -1.1,0.2 -1.6,0.4 -0.3,0.1 -0.7,0.2 -1,0.2 -0.6,0.1 -1.1,0.3 -1.7,0.4 -0.3,0.1 -0.6,0.2 -0.9,0.2 -0.6,0.2 -1.2,0.3 -1.8,0.5 -0.2,0.1 -0.5,0.1 -0.7,0.2 -0.6,0.2 -1.3,0.4 -1.9,0.6 -0.1,0 -0.2,0.1 -0.3,0.1 -3.3,1 -6.5,2.1 -9.7,3.3 0,0 0,0 -0.1,0 -0.7,0.3 -1.5,0.6 -2.2,0.9 -0.1,0.1 -0.2,0.1 -0.4,0.1 -0.7,0.3 -1.4,0.6 -2.1,0.9 -0.2,0.1 -0.3,0.1 -0.5,0.2 -0.7,0.3 -1.3,0.6 -2,0.9 -0.2,0.1 -0.3,0.1 -0.5,0.2 -0.7,0.3 -1.3,0.6 -2,1 -0.1,0.1 -0.3,0.1 -0.4,0.2 -0.7,0.3 -1.4,0.7 -2.1,1.1 -0.1,0.1 -0.2,0.1 -0.3,0.2 -0.7,0.4 -1.4,0.8 -2.2,1.2 0,0 -0.1,0 -0.1,0 -6.3,3.5 -12.2,7.6 -17.8,12.4 0,0 0,0 0,0 -0.7,0.6 -1.4,1.2 -2.1,1.8 0,0 0,0 0,0 -15.7,14.3 -27.9,34.4 -33.1,61.4 0,0 0,0 0,0.1 -0.2,1.2 -0.4,2.3 -0.6,3.5 0,0 0,0 0,0 v 0 c -1.2,7.4 -1.9,15.2 -2.1,23.6 0,5 5.5,8 9.7,5.3 l 17.1,-11.1 c 0,0 21.3,0 61.1,0 l -49.5,49.5 c -3.4,3.4 -1,9.3 3.8,9.3 h 72.5 V 498 c 0,3 2.4,5.4 5.4,5.4 3,0 5.4,-2.4 5.4,-5.4 v -73.3 h 27.9 c 3,0 5.4,-2.4 5.4,-5.4 v 0 c 0,-3 -2.4,-5.4 -5.4,-5.4 H 1152 V 366 c 0.8,0 1.7,0 2.5,0 65.5,0 68.7,-41.5 68.7,-41.5 36.9,39.2 72.4,9.3 72.4,9.3 51.4,-51.7 -30,-101.7 -42.3,-106.7 -12.3,-5.1 -39.9,-27.7 -43.1,-35.5 -3.3,-7.9 8.7,-3 8.7,-3 h 38.6 c 6.4,0 12.2,-2.3 16.8,-6.1 0,0 0,0 0,0 10.1,2.7 21.6,8.6 32.9,17.2 1.1,0.9 2.3,1.7 3.4,2.6 0.2,0.1 0.3,0.3 0.5,0.4 0.9,0.8 1.9,1.5 2.8,2.3 0.3,0.2 0.5,0.4 0.8,0.7 0.9,0.8 1.7,1.5 2.6,2.3 0.3,0.3 0.6,0.5 0.8,0.8 1.1,1 2.2,2 3.3,3.1 17.6,17.3 14.4,0 14.4,0 z m -194.7,202 h -46.3 c -4.8,0 -7.3,-5.8 -3.8,-9.3 l 36.8,-36.8 c 0.6,-0.6 1,-1.2 1.2,-1.9 3.9,0 8,0 12.2,0 v 48 z m 134.2,-232.4 c 0,0 0,0 0,0 0,0 0,0 0,0 z m 0.9,-0.9 c 0,0 0.1,-0.1 0.1,-0.1 0,0 -0.1,0.1 -0.1,0.1 z m 7.5,-17.9 c 0,0 0,0 0,0 z m -6.6,16.9 c 0,0 0.1,-0.1 0.1,-0.1 0,0 0,0.1 -0.1,0.1 z m 0.9,-1.1 c 0,0 0.1,-0.1 0.1,-0.1 0,0.1 0,0.1 -0.1,0.1 z m 0.9,-1.1 c 0,0 0,0 0,0 0,0 0,0 0,0 z m 2.1,-3.6 c 0,0 0,-0.1 0,-0.1 0.1,0 0,0.1 0,0.1 z m 0.6,-1.2 c 0,-0.1 0.1,-0.2 0.1,-0.3 0,0.1 -0.1,0.2 -0.1,0.3 z m 0.5,-1.3 c 0.1,-0.1 0.1,-0.3 0.1,-0.4 0,0.2 -0.1,0.3 -0.1,0.4 z m 0.4,-1.2 c 0,-0.2 0.1,-0.3 0.1,-0.5 0,0.1 0,0.3 -0.1,0.5 z m 0.4,-1.4 c 0,-0.2 0.1,-0.3 0.1,-0.5 0,0.2 -0.1,0.4 -0.1,0.5 z m 0.3,-1.3 c 0,-0.2 0.1,-0.4 0.1,-0.5 -0.1,0.1 -0.1,0.3 -0.1,0.5 z m 0.2,-1.4 c 0,-0.2 0.1,-0.3 0.1,-0.5 0,0.2 -0.1,0.3 -0.1,0.5 z m 0.2,-1.4 c 0,-0.2 0,-0.3 0,-0.5 0,0.1 0,0.3 0,0.5 z m 0.1,-1.9 v 0 z m -3.6,-13.6 c 0,0.1 0.1,0.1 0.1,0.2 0,-0.1 0,-0.1 -0.1,-0.2 z m 0.7,1.2 c 0,0.1 0.1,0.2 0.1,0.3 0,-0.2 -0.1,-0.2 -0.1,-0.3 z m 0.6,1.2 c 0.1,0.1 0.1,0.2 0.2,0.4 -0.1,-0.2 -0.2,-0.3 -0.2,-0.4 z m 0.5,1.2 c 0.1,0.1 0.1,0.3 0.2,0.4 -0.1,-0.1 -0.2,-0.3 -0.2,-0.4 z m 0.4,1.3 c 0.1,0.2 0.1,0.3 0.1,0.5 0,-0.2 0,-0.4 -0.1,-0.5 z m 0.4,1.3 c 0,0.2 0.1,0.3 0.1,0.5 0,-0.2 0,-0.4 -0.1,-0.5 z m 0.4,1.3 c 0,0.2 0.1,0.3 0.1,0.5 -0.1,-0.2 -0.1,-0.3 -0.1,-0.5 z m 0.2,1.3 c 0,0.2 0.1,0.4 0.1,0.5 0,-0.1 -0.1,-0.3 -0.1,-0.5 z m 0.2,1.4 c 0,0.2 0,0.3 0.1,0.5 0,-0.1 -0.1,-0.3 -0.1,-0.5 z m 0.1,1.5 c 0,0.2 0,0.3 0,0.5 0.1,-0.2 0,-0.3 0,-0.5 z" /><path
   style="fill:#362720"
   inkscape:connector-curvature="0"
   id="path18"
   d="m 958.1,795.7 c 0,0 0,-0.1 0,0 0.2,-0.5 0.1,-0.9 -0.2,-1.2 v 0 0 c -0.1,-0.2 -0.3,-0.3 -0.5,-0.4 -16.7,-5.7 -58.2,-19 -63.7,-20.8 -0.2,-0.4 -0.3,-0.7 -0.3,-0.7 -64.8,-64.1 -97.2,5.6 -102.1,17.8 v 0 0 c 0,0 0,0 0,0 -58.8,16.7 -57,101.5 -57,101.5 v 0 c 0,0 0.1,0 0.1,0 1.9,0 3.9,0 5.7,0 0.1,0 0.1,0 0.2,0 3.9,0 7.7,-0.1 11.4,-0.3 v 0 c 0,0 0,0 0.1,0 8.2,-0.4 15.7,-1.2 22.7,-2.3 v 0 c 0,0 0,0 0,0 5.6,-0.9 10.9,-2 15.8,-3.3 8.7,1.9 16.7,2.4 24.2,1.8 v 2.2 c -2.6,1 -4.3,2.8 -5.3,4.5 -0.9,1.5 0.6,3.3 2.3,2.7 3.4,-1.2 7.3,-1.8 11.1,-2 v 0.7 c -2.6,1 -4.3,2.8 -5.3,4.5 -0.9,1.5 0.6,3.3 2.3,2.7 7.6,-2.8 17.9,-2.1 23,-1.6 1,0.1 1.4,-1.3 0.5,-1.7 -5.5,-2.5 -17.4,-4 -17.4,-4 V 895 c 3.5,0 6.7,0.3 8.9,0.5 1,0.1 1.4,-1.3 0.5,-1.7 -2.4,-1.1 -6,-2 -9.3,-2.7 v -5.4 c 1.8,-0.4 3.7,-0.9 5.5,-1.5 0,0 0.1,0 0.1,0 1.1,-0.3 2.2,-0.7 3.3,-1.1 0.1,0 0.2,-0.1 0.3,-0.1 1.1,-0.4 2.2,-0.8 3.2,-1.2 0,0 0.1,0 0.1,-0.1 3.4,-1.4 6.8,-3 10.2,-4.8 0.1,-0.1 0.3,-0.2 0.4,-0.2 1,-0.5 1.9,-1 2.9,-1.6 0.3,-0.2 0.6,-0.3 0.9,-0.5 0.8,-0.5 1.6,-0.9 2.5,-1.4 0.3,-0.2 0.7,-0.4 1,-0.6 0.8,-0.5 1.6,-0.9 2.3,-1.4 0.4,-0.2 0.7,-0.5 1.1,-0.7 0.8,-0.5 1.6,-1 2.4,-1.6 0.3,-0.2 0.6,-0.4 1,-0.6 1.1,-0.7 2.3,-1.5 3.4,-2.3 12.8,-8.6 16.6,-19.1 16.5,-28.8 -0.1,-9.7 -4.3,-18.8 -7.6,-24.4 -0.1,-0.2 -0.3,-0.5 -0.4,-0.7 0,-0.1 -0.1,-0.1 -0.1,-0.2 -0.1,-0.2 -0.1,-0.3 -0.2,-0.5 0,-0.1 -0.1,-0.2 -0.1,-0.3 0,-0.2 -0.1,-0.3 -0.1,-0.5 0,-0.1 0,-0.2 -0.1,-0.3 0,-0.1 -0.1,-0.3 -0.1,-0.4 0,-0.3 -0.1,-0.7 -0.1,-1 0,0 0,0 0,0 0,0 0,0 0,0 0,-0.3 0,-0.6 0.1,-0.9 0,0 0,-0.1 0,-0.1 0,-0.3 0.1,-0.5 0.2,-0.8 0,-0.1 0,-0.1 0.1,-0.2 0.1,-0.3 0.2,-0.6 0.3,-0.9 0,0 0,0 0,0 0,0 0,0 0,0 0.1,-0.3 0.2,-0.5 0.4,-0.8 0,-0.1 0.1,-0.1 0.1,-0.2 0.2,-0.3 0.3,-0.5 0.5,-0.8 0,0 0,0 0,0 0.2,-0.2 0.4,-0.4 0.6,-0.6 0.1,-0.1 0.1,-0.1 0.2,-0.2 0.2,-0.2 0.5,-0.4 0.7,-0.6 0,0 0,0 0,0 0,0 0,0 0.1,0 0.7,-0.5 1.4,-1.1 2.1,-1.6 v 0 c 0,0 0.1,-0.1 0.1,-0.1 0.7,-0.5 1.3,-1.1 2,-1.6 0,0 0.1,-0.1 0.1,-0.1 0,0 0,0 0,0 0.1,-0.1 0.2,-0.1 0.2,-0.2 0.1,0 0.1,0.1 0.2,0.1 1.2,0.3 23,-0.6 43.7,-1.5 2.6,-0.1 5.2,-0.2 7.7,-0.3 1,0 2,-0.1 3,-0.1 1,0 2,-0.1 2.9,-0.1 1,0 1.9,-0.1 2.8,-0.1 0.9,0 1.8,-0.1 2.7,-0.1 0.4,0 0.9,0 1.3,-0.1 1.3,-0.1 2.5,-0.1 3.7,-0.2 0.4,0 0.8,0 1.2,-0.1 2.3,-0.1 4.3,-0.2 6.1,-0.3 0.2,0 0.3,0 0.4,-0.1 0,0 0.1,0 0.1,-0.1 0.1,0 0.1,-0.1 0.2,-0.1 0,0 0.1,-0.1 0.1,-0.1 0,-0.1 0.1,-0.1 0.1,-0.2 -0.1,0 0,0 0,-0.1 z m -135.6,95.2 c -2.9,-0.5 -5,-0.8 -5,-0.8 v -2.5 c 1.7,-0.2 3.4,-0.5 5,-0.8 z" />
<g
   id="g46">
		<path
   style="fill:#cca75e"
   inkscape:connector-curvature="0"
   id="path22"
   d="m 189,381.2 -19.8,-5.5 c 0,0 -8.7,-3.2 -2.6,-9.3 l 16.9,-26.2 -11.4,-1.2 -29.7,35 c 0,0 -5,6.4 6.7,9 0,0 38.3,5.7 72.2,20.1 1.6,4.7 4.5,14.2 3.1,19.4 0,0 3.1,1.2 4.1,-1.8 0.8,-2.3 2.2,-8.8 2.8,-13.1 2.6,1.3 5.2,2.7 7.7,4.1 1.9,5.3 5.5,17 3.8,23.4 0,0 3.6,1.4 4.8,-2.1 0.8,-2.4 2.3,-8.8 3.1,-13.8 8.1,6 14.6,12.9 18.3,20.8 0,0 2.9,1.5 3.2,-6.1 0,0.1 4,-43.1 -83.2,-52.7 z" />
		<path
   style="fill:#fbd476"
   inkscape:connector-curvature="0"
   id="path24"
   d="m 197.6,356.7 c 0,0 0.6,37.9 -0.6,74.9 v 39.7 l 8.6,0.4 9.3,-123.5 -19.1,-6.8 c 0,0 -3.4,6.4 1.8,15.3 z" />
		<path
   style="fill:#d8d3d2"
   inkscape:connector-curvature="0"
   id="path26"
   d="m 167.5,311.6 c 0,0 11.7,3.9 3.5,26.4 0,0 6.6,6.6 13.6,5.8 0,0 13.2,-15.9 17.5,-22.9 0,0.1 -4.3,-25.2 -34.6,-9.3 z" />
		<path
   style="fill:#ede6e4"
   inkscape:connector-curvature="0"
   id="path28"
   d="m 197,321 -3.9,22.6 c 0,0 8.9,0.4 13.4,3.3 4.5,2.9 8.7,4.1 10.3,3.7 0,0 -4.3,-27.6 0,-36.2 0,0 5.4,-21.8 14,-30.3 l -64.5,25.3 c 0,-0.1 29.5,-3.2 30.7,11.6 z" />
		<path
   style="fill:#ce4c36"
   inkscape:connector-curvature="0"
   id="path30"
   d="m 197,137.4 144.6,24.9 -124,-49.4 c 0,0 -50.1,6.2 -20.6,24.5 z" />
		<path
   style="fill:#e25e40"
   inkscape:connector-curvature="0"
   id="path32"
   d="m 187.8,125.9 c -0.5,3.2 153.9,36.4 153.9,36.4 l -124,-49.4 c -0.1,0 -28.3,3.5 -29.9,13 z" />
		<path
   style="fill:#ede6e4"
   inkscape:connector-curvature="0"
   id="path34"
   d="m 220.7,148.7 c 0,0 -28.4,-12.8 -31.5,-22.6 0,0 10.1,-11.7 28.4,-13.2 0,0 4.3,-31.5 -32.7,-25.7 -10.1,1.6 -27.4,12.5 -28.4,28.8 -0.4,6.2 -3.1,26.1 23.7,34.2 0,0 57.2,23.3 49,49 0,0 -1.2,23.3 -29.2,31.5 0,0 -29.1,12 -36.7,29.4 -0.4,1 0.5,2.1 1.5,1.8 9.1,-2.1 42,-10.5 64.1,-27.7 0.5,-0.4 1.1,0.1 0.9,0.6 l -6.4,20 c -0.9,2.9 2,5.5 4.8,4.2 5.9,-2.7 13.9,-6.6 18.5,-10 0.4,-0.3 1,0 0.9,0.6 -0.9,4.7 -3.5,19.5 -3.8,28.5 -0.1,2.9 3.2,4.7 5.5,2.9 3.9,-2.8 9,-7.4 11.9,-13 0.2,-0.5 0.9,-0.4 1.1,0.1 0.5,1.4 1.2,3.8 1.7,6.6 0.5,3 4.4,4 6.2,1.5 4.4,-5.8 9.5,-14.6 9.3,-24.1 0,-0.6 0.8,-0.8 1.1,-0.3 0,0 0,0.1 0.1,0.1 1.4,2.8 5.5,2.6 6.4,-0.4 1.9,-5.8 3,-16.3 -1.2,-34.2 0.2,0.2 -11.1,-48.8 -65.2,-68.6 z" />
		<path
   style="fill:#666565"
   inkscape:connector-curvature="0"
   id="path36"
   d="m 246.8,249.2 c -4.6,3.4 -12.7,7.3 -18.5,10 -2.8,1.3 -5.7,-1.4 -4.8,-4.2 l 6.4,-20 c 0.2,-0.5 -0.5,-1 -0.9,-0.6 -22,17.2 -55,25.7 -64.1,27.7 -0.3,0.1 -0.6,0 -0.8,-0.1 -2.3,0.8 -20.5,7.1 -28.1,15.5 0,0 -28.3,29.3 -11.6,58.9 1.5,2.6 5.3,2.2 6.3,-0.5 0.4,-1.2 1,-2.1 1.8,-2.4 l 1.6,3.8 c 1.3,3 5.5,2.8 6.5,-0.3 1.3,-3.9 2.9,-7.7 4.3,-8.6 0,0 3,4.3 5.7,7.7 1.7,2.1 5,1.6 6,-0.9 2.3,-5.8 6.4,-15 10.5,-18.5 0,0 14.4,-13.6 37.3,-17.9 0,0 25.8,-9.5 39.7,-19.5 -0.1,-0.3 -0.1,-0.7 -0.1,-1.1 0.3,-9 2.9,-23.8 3.7,-28.5 0.1,-0.5 -0.5,-0.9 -0.9,-0.5 z" />
		<circle
   style="fill:#d1d1d1"
   id="circle38"
   r="5.8000002"
   cy="114.1"
   cx="190.8" />
		<circle
   style="fill:#ffffff"
   id="circle40"
   r="5.1999998"
   cy="114.1"
   cx="190.8" />
		<circle
   style="fill:#666565"
   id="circle42"
   r="3.2"
   cy="114.1"
   cx="190.8" />
		<path
   style="fill:#fbd476"
   inkscape:connector-curvature="0"
   id="path44"
   d="m 253.8,482.5 c 1.8,-1 7.1,4.3 7.1,1.2 0,-3.1 -5.6,-5.8 -8.3,-7 -16.1,-7 -35.8,-6.8 -35.8,-6.8 -36.4,-3.7 -51.7,20.2 -51.7,20.2 -2.1,8.7 10.4,-2.2 15.6,-3.9 27,-9.1 79.8,6.7 81.9,4.1 2,-2.6 -10.6,-6.8 -8.8,-7.8 z" />
	</g><g
   id="g66">
		<path
   style="fill:#5f6f78"
   inkscape:connector-curvature="0"
   id="path48"
   d="m 1176.3,850.2 c -0.3,-0.4 -0.5,-0.8 -0.9,-1.1 l -36.8,-33.3 c -2.2,-1.9 -5.5,-1.8 -7.4,0.4 -1.9,2.2 -1.8,5.5 0.4,7.4 l 32,28.9 c -5.8,2.6 -9.5,6.5 -9.7,6.7 -1.7,1.9 -1.6,4.7 0.3,6.5 1.9,1.7 4.8,1.6 6.5,-0.2 0.1,-0.1 5.7,-5.9 13.2,-6.1 4.7,-0.1 9.4,2 14,6.3 0.9,0.8 2,1.3 3.2,1.3 1.2,0 2.4,-0.5 3.3,-1.4 1.7,-1.8 1.7,-4.7 -0.2,-6.5 -5.7,-5.4 -11.6,-8.4 -17.9,-8.9 z" />
		<path
   style="fill:#6a7c86"
   inkscape:connector-curvature="0"
   id="path50"
   d="m 1155.5,862.5 c -0.3,-0.4 -0.5,-0.8 -0.9,-1.1 l -36.8,-33.3 c -2.2,-1.9 -5.5,-1.8 -7.4,0.4 -1.9,2.2 -1.8,5.5 0.4,7.4 l 32,28.9 c -5.8,2.6 -9.5,6.5 -9.7,6.7 -1.7,1.9 -1.6,4.7 0.3,6.5 1.9,1.7 4.8,1.6 6.5,-0.2 0.1,-0.1 5.7,-5.9 13.2,-6.1 4.7,-0.1 9.4,2 14,6.3 0.9,0.8 2,1.3 3.2,1.3 1.2,0 2.4,-0.5 3.3,-1.4 1.7,-1.8 1.7,-4.7 -0.2,-6.5 -5.7,-5.4 -11.6,-8.3 -17.9,-8.9 z" />
		<path
   style="fill:#fbb546"
   inkscape:connector-curvature="0"
   id="path52"
   d="m 1221,635.1 -56.6,18.2 12.4,38.7 95.3,-30.6 v 0 c -6.8,-21.4 -29.7,-33.2 -51.1,-26.3 z" />
		<path
   style="fill:#5d5d5d"
   inkscape:connector-curvature="0"
   id="path54"
   d="m 1238.2,633.4 c -0.8,4 -0.6,8.2 0.8,12.3 4.2,13.1 18.3,20.4 31.4,16.1 0.6,-0.2 1.1,-0.4 1.7,-0.6 -5,-15.5 -18.6,-26 -33.9,-27.8 z" />
		<path
   style="fill:#465a65"
   inkscape:connector-curvature="0"
   id="path56"
   d="m 1191.3,696.7 c 1.5,-1.9 10.4,-41.7 -23,-44.4 0,0 -61.4,12 -45.2,77.3 0,0 -57.4,42.1 -46.9,127.1 0,0 117.6,-12 117.6,-102.2 0,0 -4.1,-55.9 -2.5,-57.8 z" />
		<path
   style="fill:#d3d0cb"
   inkscape:connector-curvature="0"
   id="path58"
   d="m 1168.3,652.3 c 0,0 -1.7,0.3 -4.6,1.2 -7.1,6.8 -11.5,16.4 -11.5,27 0,20.8 16.8,37.6 37.6,37.6 0.6,0 1.1,0 1.6,0 -0.6,-11.1 -0.9,-20.6 -0.2,-21.4 1.6,-1.9 10.5,-41.7 -22.9,-44.4 z" />
		<path
   style="fill:#28353b"
   inkscape:connector-curvature="0"
   id="path60"
   d="m 1054.9,886.6 c -1.1,6.3 7.3,9.6 10.7,4.1 l 46.3,-74 h -44.6 z" />
		<path
   style="fill:#314047"
   inkscape:connector-curvature="0"
   id="path62"
   d="m 1151.2,750.6 c -25.7,-30 -43.5,-22.2 -53.6,-4.7 l -50.2,87.4 c -2.3,4 1.7,8.7 6,7.1 l 94.1,-36.1 c 18.9,-7.3 29.4,-23.7 3.7,-53.7 z" />
		<circle
   style="fill:#28353b"
   id="circle64"
   r="6.5999999"
   cy="672.70001"
   cx="1174" />
	</g><g
   id="g92">
		<path
   style="fill:#5c3f22"
   inkscape:connector-curvature="0"
   id="path68"
   d="m 886.4,461.5 c -4.8,-1.5 -13.6,-15.9 -13.6,-15.9 h -10 c 0,0 1.6,1.9 6.4,7.6 4.8,5.7 2.4,6.9 1.4,7.7 -1,0.8 -8,0.9 -10.9,1.8 -2.8,0.9 -4.2,4.9 -3.4,5.5 0.8,0.6 7.2,-1.7 11.2,-2.1 4,-0.4 14.6,3.6 16.7,3.6 2.1,0 15,-3.8 19.1,-1.7 4.2,2.1 6.3,0 6.3,0 -3.6,-7.9 -18.4,-4.9 -23.2,-6.5 z" />
		<path
   style="fill:#d94822"
   inkscape:connector-curvature="0"
   id="path70"
   d="m 899.7,293.4 c 0,0 0.9,6.4 -2.7,7.6 -3.6,1.1 -23.3,13.1 -27.5,18.9 0,0 43.6,-7.6 50.6,0 0.1,0 -4.5,-21.9 -20.4,-26.5 z" />
		<path
   style="fill:#fc5427"
   inkscape:connector-curvature="0"
   id="path72"
   d="m 942.7,338.5 c -18.9,-30.1 -44.5,-27 -57.6,-25.8 -18.1,1.7 -76.8,28.3 -89.9,82.8 -13.2,54.5 32.8,55.6 32.8,55.6 132.8,15.7 92.9,-102.8 92.9,-102.8 -0.3,-9.4 21.8,-9.8 21.8,-9.8 z" />
		<path
   style="fill:#fc8f71"
   inkscape:connector-curvature="0"
   id="path74"
   d="m 874,324.8 c -2.3,-3 -6.3,-4.5 -11.1,-5.1 -19.7,9.1 -45.2,26.8 -59.5,53.9 23.5,2.2 81.6,-17 81.6,-17 -24.2,-9.3 -11,-31.8 -11,-31.8 z" />
		<path
   style="fill:#d14620"
   inkscape:connector-curvature="0"
   id="path76"
   d="m 818.7,398.7 c -3.8,-16 -9.8,-22.1 -16.7,-22.2 -2.9,5.9 -5.2,12.2 -6.8,19 -13.2,54.5 32.8,55.6 32.8,55.6 13.7,1.6 25.5,1.8 35.7,0.8 -15.8,-3.5 -36.2,-15.8 -45,-53.2 z" />
		<path
   inkscape:connector-curvature="0"
   id="path78"
   d="m 885.1,312.7 c -5.6,0.5 -15.2,3.5 -26.2,9 4.3,5.1 12.9,11 26.8,12.1 6,0.5 17,3.2 22.4,9.4 3.2,3.7 9.1,6.2 13.6,7.4 -0.4,-1.5 -0.7,-2.3 -0.7,-2.3 -0.4,-9.5 21.7,-9.9 21.7,-9.9 -19,-30 -44.5,-26.9 -57.6,-25.7 z" />
		<path
   style="fill:#403635"
   inkscape:connector-curvature="0"
   id="path80"
   d="m 928.4,322.3 c -0.4,1.3 -0.9,2.6 -1.6,3.7 -2.4,3.6 -5.9,13.1 -5.1,19.3 3.8,-6.5 21,-6.8 21,-6.8 -4.5,-7.1 -9.3,-12.3 -14.3,-16.2 z" />
		<circle
   style="fill:#403635"
   id="circle82"
   r="4.4000001"
   cy="330.10001"
   cx="906.5" />
		<circle
   style="fill:#211c1b"
   id="circle84"
   r="2.8"
   cy="330.10001"
   cx="906.5" />
		<path
   style="fill:#6d4b28"
   inkscape:connector-curvature="0"
   id="path86"
   d="m 868,464.7 c -4.8,-1.5 -13.6,-15.9 -13.6,-15.9 0,0 -1.2,-0.2 -5.1,-2.5 -3.2,-1.8 -7.1,-5 -7.1,-5 0,0 2.2,7.7 8.7,15 4.9,5.6 2.4,6.9 1.4,7.7 -1,0.8 -8,0.9 -10.9,1.8 -2.9,0.9 -4.2,4.9 -3.4,5.5 0.8,0.6 7.2,-1.7 11.2,-2.1 4,-0.4 14.6,3.6 16.7,3.6 2.1,0 15,-3.8 19.1,-1.7 4.2,2.1 6.3,0 6.3,0 -3.7,-7.9 -18.5,-4.9 -23.3,-6.4 z" />
		<path
   style="fill:#403635"
   inkscape:connector-curvature="0"
   id="path88"
   d="m 819.4,364.2 c -43.2,3.8 -56.2,40.9 -60.1,61.6 -1,5.4 4.7,9.6 9.6,6.9 17.1,-9.5 51.6,-26 94.1,-36.3 58,-14 41.3,-40.5 41.3,-40.5 -9.5,-11.4 -24.7,3 -84.9,8.3 z" />
		<path
   style="fill:#211c1b"
   inkscape:connector-curvature="0"
   id="path90"
   d="m 743.6,462.9 c -10.7,9.2 -8.2,19.5 -3.7,26.9 3,5 10.3,4.9 13.1,-0.2 12.2,-22.8 48.7,-60.7 68.4,-80.5 -18.6,6.8 -34.1,14 -45.2,19.8 z" />
	</g><g
   id="g122">
		<path
   style="fill:#a17d50"
   inkscape:connector-curvature="0"
   id="path94"
   d="m 627.2,482.9 c -3.2,-0.3 -22,0.9 -24.1,0.6 -2,-0.3 -5.9,-4.6 -7.8,-8.3 -1.9,-3.6 -5.6,-7.3 -5.6,-7.3 -4,-1.8 -9,2.8 -9.1,4.1 -0.1,1.3 4.5,7.1 3.4,10 -1.1,2.9 -12.3,2.3 -16.4,2.5 -4.2,0.2 -5.5,5.9 -5.5,5.9 2.5,2.2 13.4,1.5 16.5,0 3.2,-1.5 8,-1.2 8.9,-1 0.9,0.2 3.2,2.4 9.5,3.6 6.4,1.2 25.3,-0.9 28.8,-2.2 3.5,-1.3 11.8,0.7 11.4,-2.4 -0.3,-3.1 -6.8,-5.2 -10,-5.5 z" />
		<path
   style="fill:#57677a"
   inkscape:connector-curvature="0"
   id="path96"
   d="m 553.9,433 c 3.2,5.5 27.3,40.9 27.3,40.9 3.1,4.1 9.4,0.6 10.1,-3 0.4,-2.4 -0.5,-5.2 -0.5,-5.2 3.9,-4.8 22.3,-45 22.3,-45 -13,-2.9 -62.3,6.8 -59.2,12.3 z" />
		<path
   style="fill:#b58d5a"
   inkscape:connector-curvature="0"
   id="path98"
   d="m 605.9,482.9 c -3.2,-0.3 -22,0.9 -24.1,0.6 -2,-0.3 -5.9,-4.6 -7.8,-8.3 -1.9,-3.6 -5.6,-7.3 -5.6,-7.3 -4,-1.8 -9,2.8 -9.1,4.1 -0.1,1.3 4.5,7.1 3.4,10 -1.1,2.9 -12.3,2.3 -16.4,2.5 -4.1,0.2 -5.5,5.9 -5.5,5.9 2.5,2.2 13.4,1.5 16.5,0 3.2,-1.5 8,-1.2 8.9,-1 0.9,0.2 3.2,2.4 9.5,3.6 6.4,1.2 25.3,-0.9 28.8,-2.2 3.5,-1.3 11.8,0.7 11.4,-2.4 -0.3,-3.1 -6.8,-5.2 -10,-5.5 z" />
		<path
   style="fill:#62748a"
   inkscape:connector-curvature="0"
   id="path100"
   d="m 532.6,433 c 3.2,5.5 27.3,40.9 27.3,40.9 3.1,4.1 9.4,0.6 10.1,-3 0.4,-2.4 -0.5,-5.2 -0.5,-5.2 3.9,-4.8 22.3,-45 22.3,-45 -13,-2.9 -62.4,6.8 -59.2,12.3 z" />
		<path
   style="fill:#524f64"
   inkscape:connector-curvature="0"
   id="path102"
   d="m 645.1,249.3 c 10.5,-7.2 9.2,-21.1 9.2,-21.1 -41.6,-39.9 -56.9,22.2 -56.9,22.2 -2.7,24.5 -9.8,53.1 -15.3,70.2 -17.3,53 -121.5,107.8 -166.3,129.3 -4.1,2 -2.4,8.2 2.1,7.8 52.6,-4.5 172.3,-17.7 198.7,-36.5 31.8,-22.7 60,-54.1 37.8,-110 -22.2,-55.9 -9.3,-61.9 -9.3,-61.9 z" />
		<path
   style="fill:#4b5063"
   inkscape:connector-curvature="0"
   id="path104"
   d="m 654.3,228.2 c 0,0 -13.9,9.6 -10.8,11.1 3.1,1.5 5.2,6.9 5.2,6.9 1.6,0.5 18.7,0.4 21.6,-2.2 3,-2.7 -16,-15.8 -16,-15.8 z" />
		<path
   style="fill:#d0cdde"
   inkscape:connector-curvature="0"
   id="path106"
   d="m 600,242.5 c 3.6,16.8 18.6,29.3 36.4,29.3 2,0 4,-0.2 5.9,-0.5 -3.1,-19.3 2.8,-22 2.8,-22 10.5,-7.2 9.2,-21.1 9.2,-21.1 -32,-30.7 -48.5,-1 -54.3,14.3 z" />
		<path
   style="fill:#6f839c"
   inkscape:connector-curvature="0"
   id="path108"
   d="m 632,351.6 c 0,0 -112.6,38.2 -117.7,58.2 -3.2,12.5 -17.7,29.6 -28.1,40.7 53.2,-6.6 112.7,-16.7 130.3,-29.3 27.4,-19.6 52.1,-45.5 44.3,-88.1 -12.9,4 -28.8,18.5 -28.8,18.5 z" />
		<path
   style="fill:#c0bfd1"
   inkscape:connector-curvature="0"
   id="path110"
   d="m 574.1,316.6 c -6.4,2.5 -12.1,6.7 -16.5,12 -24.9,30.4 -89,55.7 -124.4,67.9 -7.1,2.5 -6.6,12.7 0.7,14.5 147.6,35.4 219.2,-16.5 213.1,-71.6 -4.7,-44.1 -50.9,-31.5 -72.9,-22.8 z" />
		<path
   style="fill:#524f64"
   inkscape:connector-curvature="0"
   id="path112"
   d="m 507.7,365.2 c -5.3,2.8 -10.7,5.5 -16.2,8 10,12.2 36.4,34.8 96.7,39.9 6.4,-2.2 12.3,-4.7 17.7,-7.5 -22.5,-2.5 -76.2,-11.1 -98.2,-40.4 z" />
		<path
   style="fill:#524f64"
   inkscape:connector-curvature="0"
   id="path114"
   d="m 470.3,382.5 c -6.2,2.6 -12.2,4.9 -17.9,7.1 14,11 38.4,27 67.6,33 15.2,0.2 29.1,-0.9 41.6,-3 -17.6,-2.4 -68.3,-11.4 -91.3,-37.1 z" />
		<circle
   style="fill:#ffffff"
   id="circle116"
   r="5.5999999"
   cy="229.7"
   cx="634.70001" />
		<circle
   style="fill:#b0271d"
   id="circle118"
   r="4.0999999"
   cy="229.7"
   cx="634.70001" />
		<circle
   style="fill:#111317"
   id="circle120"
   r="2.5"
   cy="229.7"
   cx="634.70001" />
	</g><g
   id="g154">
		<g
   id="g128">
			<path
   style="fill:#423c3d"
   inkscape:connector-curvature="0"
   id="path124"
   d="m 228.6,849.8 c -8.2,0.9 -12.3,1.2 -11.1,-0.1 1.2,-1.2 13.7,-2.4 14.1,-3.1 0.4,-0.7 -1.9,-3.4 -6,-2.8 -4.1,0.5 -14.6,4.5 -17.8,5.5 -1.4,0.5 -3.8,0.9 -7.3,-6.9 -4.1,-9.2 -7.4,-20 -7.4,-20 l -5.9,2.1 c 0,0 8.6,20.3 8.6,25.7 0,0 -15.1,0.3 -13.8,1.7 1.4,1.4 7.2,3.1 12.1,3.4 4.9,0.3 18,1.3 20.3,0.5 2.2,-0.8 18.2,-2.9 22,-1.6 3.8,1.1 0.4,-5.3 -7.8,-4.4 z" />
			<path
   style="fill:#303030"
   inkscape:connector-curvature="0"
   id="path126"
   d="m 180.2,816.2 c 0,0 2.8,11.1 6.2,10.1 3.5,-1 9.7,-2.5 9.8,-3.6 0.1,-1.1 -2,-8.8 -3.2,-9.7 -1,-0.9 -12.4,1.7 -12.8,3.2 z" />
		</g>
		<path
   style="fill:#f33f3f"
   inkscape:connector-curvature="0"
   id="path130"
   d="m 74.6,858 c -7.2,24.5 49,55.2 47.8,18.4 -1.3,-36.8 42.7,-63.1 42.7,-63.1 C 97,820.5 81.8,833.5 74.6,858 Z" />
		<path
   style="fill:#212121"
   inkscape:connector-curvature="0"
   id="path132"
   d="m 231.3,675.8 -1.2,-0.6 c -10.8,-5 -23.7,-1.2 -30,8.9 l -82.7,132.7 h 55.8 c 0,0 65.4,2.4 62.5,-91.3 l 7.7,-19.6 c 4.6,-11.6 -0.7,-24.8 -12.1,-30.1 z" />
		<path
   style="fill:#615859"
   inkscape:connector-curvature="0"
   id="path134"
   d="m 265.9,685.7 c -7.3,-1.3 -24.7,-4.2 -28.7,-3.9 -5,0.4 0.4,7 -0.9,8.3 -1.3,1.3 -11,11.9 -8.5,13 2.2,0.9 29.5,-9.8 38.5,-14.8 1.2,-0.7 0.9,-2.4 -0.4,-2.6 z" />
		<path
   style="fill:#524a4b"
   inkscape:connector-curvature="0"
   id="path136"
   d="m 265.9,685.7 c -0.6,-0.1 -1.4,-0.2 -2.2,-0.4 -7.8,4.2 -27.4,12.1 -35.1,14.1 -1.1,1.8 -1.6,3.2 -0.8,3.6 2.2,0.9 29.5,-9.8 38.5,-14.8 1.2,-0.6 0.9,-2.3 -0.4,-2.5 z" />
		<circle
   style="fill:#333333"
   id="circle138"
   r="4.5999999"
   cy="692.40002"
   cx="218.8" />
		<circle
   style="fill:#3b0f0f"
   id="circle140"
   r="2.8"
   cy="692.40002"
   cx="218.8" />
		<path
   style="fill:#242424"
   inkscape:connector-curvature="0"
   id="path142"
   d="m 152.9,788.8 c -12.3,5.6 -26.8,18.4 -30.5,28.1 h 50.8 c 0,0 20.5,0.7 38,-15 -2,-14.3 -10,-35.7 -10,-35.7 0,0 -28.5,13.6 -48.3,22.6 z" />
		<path
   style="fill:#f33f3f"
   inkscape:connector-curvature="0"
   id="path144"
   d="m 201.2,809.2 c 17.4,-9.9 36.1,-32.5 34.5,-83.6 0,0 -54.6,-13.7 -34.5,83.6 z" />
		<g
   id="g150">
			<path
   style="fill:#524a4b"
   inkscape:connector-curvature="0"
   id="path146"
   d="m 214.1,853.3 c -9.6,1.1 -14.4,1.4 -13.1,-0.1 1.3,-1.5 16.1,-2.8 16.6,-3.6 0.5,-0.8 -2.3,-4 -7,-3.3 -4.8,0.6 -17.1,5.2 -20.9,6.5 -1.6,0.5 -4.5,1.1 -8.6,-8.1 -4.8,-10.8 -8.7,-23.5 -8.7,-23.5 l -6.9,2.5 c 0,0 10.1,23.9 10.1,30.2 0,0 -17.8,0.4 -16.2,2 1.6,1.6 8.5,3.6 14.2,4 5.8,0.4 21.2,1.5 23.8,0.5 2.6,-1 21.4,-3.4 25.8,-1.9 4.5,1.2 0.5,-6.3 -9.1,-5.2 z" />
			<path
   style="fill:#333333"
   inkscape:connector-curvature="0"
   id="path148"
   d="m 157.1,813.7 c 0,0 3.2,13.1 7.3,11.9 4.1,-1.2 11.4,-2.9 11.5,-4.2 0.1,-1.3 -2.4,-10.3 -3.7,-11.4 -1.3,-1.1 -14.6,2 -15.1,3.7 z" />
		</g>
		<path
   style="fill:#333333"
   inkscape:connector-curvature="0"
   id="path152"
   d="m 200.6,712.6 c -28.5,-11.5 -57.2,58.3 -73.3,80.2 -4.7,6.3 -23,21.5 -23,21.5 -2.9,2.7 -0.5,7.7 3.4,6.8 142.9,-31.2 104.8,-103.7 92.9,-108.5 z" />
	</g><g
   id="g178">
		<path
   style="fill:#422f1b"
   inkscape:connector-curvature="0"
   id="path156"
   d="m 566.4,870 c -7.8,-2.7 -16.6,-2.2 -18.7,-8 -2.1,-5.8 -2.4,-24.4 -3.6,-25.2 -1.3,-0.8 -10.4,-3.2 -9.6,2.7 0,0 5.5,15.7 5.4,19.3 -0.2,3.6 -1.7,8.2 -9,10.1 -7.3,1.9 -12.3,7.3 -7.3,6.8 5.1,-0.5 17.4,-3.6 22.3,-2.7 4.9,0.9 26.1,6.5 28.5,4.1 2.3,-2.3 -0.2,-4.4 -8,-7.1 z" />
		<path
   style="fill:#211e1c"
   inkscape:connector-curvature="0"
   id="path158"
   d="m 522.1,822.7 c 0,0 -0.5,13.3 9.2,18 9.6,4.7 16,0.6 18.5,-9.8 2.5,-10.4 4.3,-14.6 4.3,-14.6 0,0 -31.3,-3.2 -32,6.4 z" />
		<path
   style="fill:#4d371f"
   inkscape:connector-curvature="0"
   id="path160"
   d="m 543.5,884.6 c -8.9,-3.1 -19.1,-2.5 -21.5,-9.2 -2.4,-6.7 -2.7,-28.2 -4.2,-29.1 -1.5,-0.9 -12,-3.6 -11.1,3.1 0,0 6.4,18 6.2,22.2 -0.2,4.2 -2,9.5 -10.4,11.7 -8.4,2.2 -14.2,8.4 -8.4,7.8 5.8,-0.5 20,-4.2 25.7,-3.1 5.6,1.1 30.1,7.5 32.8,4.7 2.7,-2.8 -0.2,-5 -9.1,-8.1 z" />
		<path
   style="fill:#302b28"
   inkscape:connector-curvature="0"
   id="path162"
   d="m 492.5,830.1 c 0,0 -0.5,15.3 10.6,20.8 11.1,5.5 18.4,0.7 21.3,-11.3 2.9,-12 4.9,-16.8 4.9,-16.8 0,0 -36.1,-3.8 -36.8,7.3 z" />
		<path
   inkscape:connector-curvature="0"
   id="path164"
   d="m 588.8,664.4 c 0,0 -36.7,-26 -74.6,45.9 -37.9,71.9 -136.5,147.7 -146.2,154 -9.7,6.3 -17.4,15.9 12.1,8.3 29.5,-7.7 68.5,-29.5 91.1,-43.4 0,0 71.4,21.9 94.4,-29.1 23,-51 7.3,-83.1 13.8,-99.5 2.7,-6.8 6.9,-15.1 9.4,-17.5 0,0 15.1,-11.9 0,-18.7 z" />
		<path
   style="fill:#6d4c29"
   inkscape:connector-curvature="0"
   id="path166"
   d="m 588.8,664.4 c 0,0 2.2,3.8 -4.4,8.5 -6.6,4.7 -7.8,12.9 3.5,12.3 0,0 15.4,-12.3 37.3,-12.5 0.1,0 -5.1,-13.3 -36.4,-8.3 z" />
		<path
   style="fill:#5e4223"
   inkscape:connector-curvature="0"
   id="path168"
   d="m 622.4,669.1 c -21.9,0.6 -38.1,11.3 -42,14.1 1.2,1.4 3.6,2.2 7.5,2 0,0 15.4,-12.3 37.3,-12.5 0.1,0 -0.6,-1.7 -2.8,-3.6 z" />
		<circle
   style="fill:#362614"
   id="circle170"
   r="5.4000001"
   cy="674.29999"
   cx="565.40002" />
		<circle
   style="fill:none;stroke:#b58d5a;stroke-miterlimit:10"
   id="circle172"
   r="3.3"
   cy="674.29999"
   cx="565.40002"
   stroke-miterlimit="10" />
		<path
   style="fill:#262626"
   inkscape:connector-curvature="0"
   id="path174"
   d="M 401,865.6 C 592.2,817.4 552.6,737 552.6,737 516.7,755.3 401,865.6 401,865.6 Z" />
		<path
   style="fill:#1a1a1a"
   inkscape:connector-curvature="0"
   id="path176"
   d="m 545.6,703.9 c -9.4,-6.8 -20.5,-1.4 -32.9,9.3 -19.4,35.4 -52.9,71.4 -82.9,99.5 0,0 0,0 0,0 156.4,-23.2 134.4,-95.3 115.8,-108.8 z" />
	</g><g
   id="g200">
		<g
   id="g182">
			<path
   style="fill:#d9bd62"
   inkscape:connector-curvature="0"
   id="path180"
   d="m 1136.6,350.2 c -3,0 -5.4,2.4 -5.4,5.4 V 488 c 0,3 2.4,5.4 5.4,5.4 3,0 5.4,-2.4 5.4,-5.4 V 355.6 c 0,-3 -2.4,-5.4 -5.4,-5.4 z" />
		</g>
		<g
   id="g186">
			<path
   style="fill:#f6d76f"
   inkscape:connector-curvature="0"
   id="path184"
   d="m 1169.9,403.9 h -85 c -4.8,0 -7.3,-5.8 -3.8,-9.3 l 36.8,-36.8 c 2.1,-2.1 2.1,-5.6 0,-7.7 -2.1,-2.1 -5.6,-2.1 -7.7,0 l -55.3,55.3 c -3.4,3.4 -1,9.3 3.8,9.3 h 111.2 c 3,0 5.4,-2.4 5.4,-5.4 v 0 c 0,-2.9 -2.4,-5.4 -5.4,-5.4 z" />
		</g>
		<path
   style="fill:#fb5c7b"
   inkscape:connector-curvature="0"
   id="path188"
   d="m 1243.3,217.1 c -12.3,-5.1 -39.9,-27.7 -43.1,-35.5 -3.3,-7.9 8.7,-3 8.7,-3 h 38.6 c 14.3,0 26,-11.5 26.3,-25.8 v 0 c 0.2,-14.7 -11.6,-26.7 -26.3,-26.7 h -29.6 c 0,0 -53.7,5.7 -45.4,49.8 10.2,54.3 89.4,68.1 95.6,92.6 18.8,31.8 -6.9,68.4 -44.4,16.7 -25.8,-35.6 -39.2,-38.1 -74.3,-41.5 -54.8,-5.4 -131.2,22.2 -132.7,118.1 0,5 5.5,8 9.7,5.3 l 17.1,-11.1 c 0,0 35.8,0 101.3,0 65.5,0 68.7,-41.5 68.7,-41.5 36.9,39.2 72.4,9.3 72.4,9.3 51.1,-51.7 -30.3,-101.7 -42.6,-106.7 z" />
		<path
   style="fill:#f6d76f"
   inkscape:connector-curvature="0"
   id="path190"
   d="m 1265,132.8 v 0 c 5.4,4.9 8.8,12 8.7,19.9 v 0 c -0.1,8 -3.8,15 -9.4,19.8 14.5,3.9 31.6,14.3 47.1,29.4 17.7,17.4 14.5,0 14.5,0 -0.8,-55.4 -60.9,-69.1 -60.9,-69.1 z" />
		<path
   style="fill:#293441"
   inkscape:connector-curvature="0"
   id="path192"
   d="m 1318.2,171.6 c -1.7,7.6 -6.9,15.9 -21.1,18 4.8,3.6 9.6,7.7 14.2,12.3 17.7,17.4 14.5,0 14.5,0 -0.2,-12 -3.1,-22 -7.6,-30.3 z" />
		<circle
   style="fill:#ed858f"
   id="circle194"
   r="7.9000001"
   cy="141.10001"
   cx="1251.4" />
		<circle
   style="fill:#293441"
   id="circle196"
   r="4.5999999"
   cy="141.10001"
   cx="1251.4" />
		<path
   style="fill:#ed858f"
   inkscape:connector-curvature="0"
   id="path198"
   d="m 1149.1,243.7 c -50,-4.9 -118,17.7 -130.6,94.5 15.5,-9.4 44.6,-7.7 44.6,-7.7 h 96.3 c 36.3,-11.4 20.1,-59.1 8.4,-84.6 -5.5,-0.9 -11.7,-1.6 -18.7,-2.2 z" />
	</g><g
   id="g230">
		<path
   style="fill:#362720"
   inkscape:connector-curvature="0"
   id="path202"
   d="m 824.9,884.1 c -5.5,-2.5 -17.4,-4 -17.4,-4 v -11.8 h -3.1 v 11.8 c -2.6,1 -4.3,2.8 -5.3,4.5 -0.9,1.5 0.6,3.3 2.3,2.7 7.6,-2.8 17.9,-2.1 23,-1.6 1,0.2 1.4,-1.2 0.5,-1.6 z" />
		<path
   style="fill:#443228"
   inkscape:connector-curvature="0"
   id="path204"
   d="m 833,890.1 c -5.5,-2.5 -17.4,-4 -17.4,-4 v -11.8 h -3.1 v 11.8 c -2.6,1 -4.3,2.8 -5.3,4.5 -0.9,1.5 0.6,3.3 2.3,2.7 7.6,-2.8 17.9,-2.1 23,-1.6 1,0.2 1.4,-1.2 0.5,-1.6 z" />
		<path
   style="fill:#1b5a69"
   inkscape:connector-curvature="0"
   id="path206"
   d="m 780.5,782.1 c -49.3,12.2 -32.9,82.6 -32.9,82.6 48.9,22.6 74.5,14.5 108.6,-8.4 25.5,-17.2 15.5,-41.9 9,-53.2 -2,-3.4 -1.2,-7.7 2,-10.1 23.1,-16.9 16.2,-30.4 16.2,-30.4 -70.7,-69.9 -102.9,19.5 -102.9,19.5 z" />
		<path
   style="fill:#c2ac42"
   inkscape:connector-curvature="0"
   id="path208"
   d="m 864.5,796.9 c -10.9,-3.1 -23.6,-6.7 -23.6,-6.7 -1,44 -32.1,75.2 -60.7,85.1 6.8,1.7 13.2,2.6 19.2,2.8 20.2,-0.2 37.1,-8.5 56.9,-21.8 25.5,-17.2 15.5,-41.9 9,-53.2 -1.2,-2 -1.4,-4.2 -0.8,-6.2 z" />
		<circle
   style="fill:none"
   id="circle210"
   r="9.3999996"
   cy="766.90002"
   cx="856.29999" />
		<circle
   style="fill:#f0f0f0"
   id="circle212"
   r="9.3999996"
   cy="766.90002"
   cx="856.29999" />
		<circle
   style="fill:#39393b"
   id="circle214"
   r="5.8000002"
   cy="766.90002"
   cx="856.29999" />
		<path
   style="fill:#123d47"
   inkscape:connector-curvature="0"
   id="path216"
   d="m 819.7,779 c -98,-15.6 -95.5,102.9 -95.5,102.9 121.6,2 123.9,-72.8 122.7,-82.1 -1.1,-9.3 -27.2,-20.8 -27.2,-20.8 z" />
		<path
   style="fill:#3ecdf0"
   inkscape:connector-curvature="0"
   id="path218"
   d="m 782.2,778 v 0 c -0.1,0.3 -1,2.4 -1,2.4 21.9,-2.2 60.2,10.4 83,19.8 0,-0.3 -0.1,-0.7 -0.1,-1 0,0 0,0 0,0 0,-0.7 0.1,-1.3 0.2,-1.9 0,0 0,-0.1 0,-0.1 0.1,-0.3 0.2,-0.6 0.3,-0.9 0,0 0,0 0,0 0.1,-0.3 0.2,-0.5 0.4,-0.8 0,-0.1 0.1,-0.1 0.1,-0.2 0.2,-0.3 0.3,-0.5 0.5,-0.8 0,0 0,0 0,0 0.2,-0.2 0.4,-0.4 0.6,-0.7 0.1,-0.1 0.1,-0.1 0.2,-0.2 0.2,-0.2 0.5,-0.4 0.7,-0.6 0,0 0,0 0,0 0.7,-0.5 1.5,-1.1 2.2,-1.6 0.1,-0.1 0.2,-0.2 0.3,-0.3 0.6,-0.5 1.2,-0.9 1.7,-1.4 0.1,-0.1 0.1,-0.1 0.2,-0.2 0.6,-0.5 1.2,-1 1.7,-1.5 0,0 0,0 0,0 0.6,-0.5 1.1,-1.1 1.6,-1.6 0,0 0,0 0,0 C 836,773.1 797.9,776 782.2,778 Z" />
		<path
   style="fill:#4d4d4f"
   inkscape:connector-curvature="0"
   id="path220"
   d="m 947.4,784.1 c -18,-6.1 -64.3,-21 -64.3,-21 0,0 0,9.9 -4.7,15.5 -4.7,5.6 -8.6,10.2 -6.3,10.8 1.9,0.5 56.5,-2.1 75,-3 1.3,-0.1 1.5,-1.9 0.3,-2.3 z" />
		<path
   style="fill:#39393b"
   inkscape:connector-curvature="0"
   id="path222"
   d="m 880.6,774.8 c -0.6,1.4 -1.4,2.7 -2.3,3.8 -4.7,5.6 -8.6,10.2 -6.3,10.8 1.9,0.5 56.5,-2.1 75,-3 1.1,-0.1 1.4,-1.2 0.9,-1.9 z" />
		<path
   style="fill:#362720"
   inkscape:connector-curvature="0"
   id="path224"
   d="m 803.6,844.8 c -1.5,-0.6 -3.1,0.1 -3.7,1.6 -0.1,0.3 -7.9,18.5 -35.5,32.9 6,-1 11.6,-2.2 16.8,-3.6 18.2,-13.2 23.7,-26.4 24,-27.2 0.5,-1.4 -0.2,-3.1 -1.6,-3.7 z" />
		<path
   style="fill:#362720"
   inkscape:connector-curvature="0"
   id="path226"
   d="m 789.1,845.2 c -1.4,-0.7 -3.1,0 -3.8,1.4 -0.1,0.2 -10,21 -43.8,34.9 5.7,-0.3 11,-0.7 16.1,-1.4 24.9,-13.9 32.5,-30.3 32.9,-31.2 0.7,-1.3 0.1,-3 -1.4,-3.7 z" />
		<path
   style="fill:#362720"
   inkscape:connector-curvature="0"
   id="path228"
   d="m 770.9,845.7 c -1.4,-0.7 -3.1,-0.2 -3.9,1.3 -0.1,0.3 -10.9,20.6 -42.8,33.9 0,0.7 0,1.1 0,1.1 4,0.1 7.8,0 11.5,0 26.7,-13.7 36,-31.4 36.4,-32.3 0.8,-1.6 0.2,-3.3 -1.2,-4 z" />
	</g>
</svg>