<?xml version="1.0" encoding="UTF-8" standalone="no"?>
<!-- Generator: Adobe Illustrator 19.2.0, SVG Export Plug-In . SVG Version: 6.00 Build 0)  -->

<svg
   xmlns:dc="http://purl.org/dc/elements/1.1/"
   xmlns:cc="http://creativecommons.org/ns#"
   xmlns:rdf="http://www.w3.org/1999/02/22-rdf-syntax-ns#"
   xmlns:svg="http://www.w3.org/2000/svg"
   xmlns="http://www.w3.org/2000/svg"
   xmlns:sodipodi="http://sodipodi.sourceforge.net/DTD/sodipodi-0.dtd"
   xmlns:inkscape="http://www.inkscape.org/namespaces/inkscape"
   version="1.0"
   id="Layer_1"
   x="0px"
   y="0px"
   width="1400px"
   height="980px"
   viewBox="0 0 1400 980"
   enable-background="new 0 0 1400 980"
   xml:space="preserve"
   sodipodi:docname="Flat Bird Vectors-03.svg"
   inkscape:version="0.92.4 (5da689c313, 2019-01-14)"><metadata
   id="metadata269"><rdf:RDF><cc:Work
       rdf:about=""><dc:format>image/svg+xml</dc:format><dc:type
         rdf:resource="http://purl.org/dc/dcmitype/StillImage" /></cc:Work></rdf:RDF></metadata><defs
   id="defs267">
	
	
	
	
	
	
	
	

	
	
	
	
	
	
	
	
</defs><sodipodi:namedview
   pagecolor="#ffffff"
   bordercolor="#666666"
   borderopacity="1"
   objecttolerance="10"
   gridtolerance="10"
   guidetolerance="10"
   inkscape:pageopacity="0"
   inkscape:pageshadow="2"
   inkscape:window-width="1920"
   inkscape:window-height="1017"
   id="namedview265"
   showgrid="false"
   inkscape:zoom="0.41"
   inkscape:cx="260.14596"
   inkscape:cy="555.01355"
   inkscape:window-x="-8"
   inkscape:window-y="-8"
   inkscape:window-maximized="1"
   inkscape:current-layer="Layer_1" />

<path
   style="fill:#381a04"
   inkscape:connector-curvature="0"
   id="path4"
   d="M 1327.1,268.8 1284,253.3 c 0,-17.7 -14.3,-32.1 -32,-32.1 -1.1,0 -105.9,13.5 -105.9,13.5 -3,0.7 -6,1.6 -8.8,2.7 0,0 0,0 0,0 0,0 0,0 0,0 -0.2,0.1 -0.4,0.1 -0.5,0.2 -0.7,0.3 -1.5,0.6 -2.2,0.9 -0.3,0.1 -0.7,0.3 -1,0.4 -0.6,0.2 -1.1,0.5 -1.7,0.7 -0.4,0.2 -0.7,0.4 -1.1,0.5 -0.5,0.2 -1,0.5 -1.5,0.8 -0.4,0.2 -0.7,0.4 -1.1,0.6 -0.5,0.3 -1,0.5 -1.4,0.8 -0.4,0.2 -0.7,0.4 -1.1,0.6 -0.5,0.3 -0.9,0.6 -1.4,0.8 -0.4,0.2 -0.7,0.5 -1.1,0.7 -0.5,0.3 -0.9,0.6 -1.4,0.9 -0.4,0.2 -0.7,0.5 -1,0.7 -0.5,0.3 -0.9,0.6 -1.3,1 -0.3,0.2 -0.7,0.5 -1,0.7 -0.5,0.4 -0.9,0.7 -1.4,1.1 -0.3,0.2 -0.6,0.5 -0.9,0.7 -0.5,0.4 -1,0.9 -1.5,1.3 -0.2,0.2 -0.4,0.4 -0.6,0.6 -0.7,0.6 -1.4,1.3 -2.1,1.9 -0.2,0.2 -0.4,0.4 -0.6,0.6 -0.5,0.5 -1,1 -1.4,1.5 -0.3,0.3 -0.5,0.6 -0.8,0.8 -0.4,0.4 -0.8,0.9 -1.2,1.3 -0.3,0.3 -0.5,0.6 -0.8,0.9 -0.4,0.4 -0.7,0.8 -1.1,1.3 -0.3,0.3 -0.5,0.7 -0.8,1 -0.3,0.4 -0.7,0.9 -1,1.3 -0.3,0.3 -0.5,0.7 -0.8,1 -0.3,0.4 -0.6,0.9 -0.9,1.3 -0.2,0.3 -0.5,0.7 -0.7,1.1 -0.3,0.5 -0.6,0.9 -0.9,1.4 -0.2,0.4 -0.4,0.7 -0.7,1.1 -0.3,0.5 -0.6,1 -0.9,1.5 -0.2,0.3 -0.4,0.7 -0.6,1 -0.3,0.5 -0.6,1.1 -0.9,1.6 -0.2,0.3 -0.3,0.6 -0.5,0.9 -0.4,0.7 -0.7,1.4 -1,2.1 -0.1,0.2 -0.2,0.3 -0.2,0.5 -0.4,0.9 -0.8,1.8 -1.2,2.7 -0.1,0.3 -0.2,0.6 -0.3,0.8 -0.2,0.6 -0.5,1.3 -0.7,1.9 -0.1,0.4 -0.2,0.7 -0.4,1.1 -0.2,0.6 -0.4,1.1 -0.6,1.7 -0.1,0.4 -0.2,0.8 -0.4,1.2 -0.2,0.6 -0.3,1.1 -0.5,1.7 -0.1,0.4 -0.2,0.8 -0.3,1.2 -0.1,0.6 -0.3,1.1 -0.4,1.7 -0.1,0.4 -0.2,0.8 -0.3,1.3 -0.1,0.6 -0.2,1.1 -0.3,1.7 -0.1,0.4 -0.2,0.8 -0.2,1.3 -0.1,0.6 -0.2,1.2 -0.3,1.7 -0.1,0.4 -0.1,0.8 -0.2,1.3 -0.1,0.6 -0.1,1.2 -0.2,1.8 0,0.4 -0.1,0.8 -0.1,1.2 -0.1,0.7 -0.1,1.4 -0.1,2 0,0.3 0,0.7 -0.1,1 0,1 -0.1,2.1 -0.1,3.1 0,10.1 2,19.7 5.8,28.5 0.9,2.2 2,4.3 3.1,6.4 0.6,1 1.2,2.1 1.8,3.1 2.8,4.7 6.2,9 10,12.9 l -4.3,11.9 c -0.1,0.2 -0.1,0.5 -0.1,0.7 0,0.8 0.4,1.7 1.1,2.1 l 5.2,3 -4.2,8.4 c -4.2,8.3 -1.6,18.4 6,23.7 l 19.7,13.7 c 3,2.1 6.7,3.3 10.4,3.3 h 32 5.9 32 c 2.5,0 4,-2.8 2.6,-4.9 l -1.1,-1.6 c -3.3,-4.8 -8.8,-7.7 -14.7,-7.7 h -20.8 c -1.2,0 -2.3,-0.4 -3.2,-1.1 l -18.9,-13.7 c -2.3,-1.6 -2.9,-4.7 -1.6,-7.2 l 4.7,-8.5 c 0.7,0 1.3,0 2,0 v 0 0 c 0.8,0 1.7,0 2.5,0 0.8,0 1.6,-0.1 2.4,-0.1 0,0 0,0 0,0 v 0 c 28.1,-1.9 51.8,-19.6 62.3,-44.3 l 30.7,-50.7 c 0,0 9.6,-2.6 16.5,-10.9 h 11.7 v 0 h 37.5 c 2.4,0.4 3,-3.2 0.6,-4.1 z m -181.4,138 4.1,2.9 h -2.1 c -1.2,0 -2.3,-0.4 -3.2,-1.1 l -18.9,-13.7 c -2.3,-1.6 -2.9,-4.7 -1.6,-7.2 l 2.5,-4.6 2.9,1.7 c 1,0.6 2.3,0.3 3,-0.6 l 6.6,-8.8 c 1.3,0.5 2.7,0.9 4,1.2 l -3.3,6.4 c -4.1,8.3 -1.6,18.5 6,23.8 z" /><path
   style="fill:#381a04"
   inkscape:connector-curvature="0"
   id="path6"
   d="m 998.1,203.9 -13.2,-4.1 c -3.6,-10.9 -9.2,-19.1 -17.1,-22.1 -21.6,-8.4 -55.2,22.8 -78.1,53.2 -0.3,0.4 -3.2,4.1 -7.2,10 -3.9,5.8 -7.4,11.4 -10.1,16.6 -2.4,4.3 -7,12.7 -12.3,22.3 0,0 0,0 0,0 l -25.8,46.2 -44.9,79.8 c -2.8,6.4 -1.2,13.6 4.2,16.6 1.7,1 3.6,1.4 5.5,1.4 3.9,0 6.6,-2.1 9.8,-5.7 l 4.3,-5.1 c 1,2 2.5,3.7 4.6,4.9 1.7,1 3.6,1.4 5.5,1.4 3.9,0 6.7,-2.2 9.8,-5.7 l 60,-71.3 c 0.1,0.1 0.2,0.1 0.3,0.2 0.2,0.1 0.4,0.2 0.7,0.4 0.7,0.4 1.4,0.8 2.1,1.2 0.1,0 0.2,0.1 0.3,0.1 0.8,0.4 1.6,0.8 2.4,1.2 0.2,0.1 0.5,0.2 0.7,0.3 0.8,0.4 1.6,0.7 2.4,1 0,0 0.1,0 0.1,0 4.9,1.9 9.8,3.1 14.7,3.7 -1.9,1.1 -3.7,2.6 -5.5,4.3 -1.5,1.5 -1.5,3.9 0,5.4 1.5,1.5 3.9,1.5 5.4,0 3.4,-3.4 6.8,-5 10.2,-4.9 5.5,0.2 9.5,4.7 9.6,4.7 0.8,0.9 1.8,1.3 2.9,1.3 0.9,0 1.8,-0.3 2.5,-0.9 1.6,-1.4 1.7,-3.8 0.4,-5.4 -0.2,-0.2 -2.7,-3.1 -6.9,-5.2 3.6,-0.7 7.2,-1.7 10.6,-3 15.4,-5.9 28.4,-18.1 34.9,-34.8 0,-0.1 0.1,-0.2 0.1,-0.2 0.2,-0.5 0.4,-1 0.6,-1.5 0.1,-0.2 0.2,-0.5 0.2,-0.7 0.1,-0.4 0.3,-0.8 0.4,-1.2 0.1,-0.3 0.2,-0.5 0.3,-0.8 0.1,-0.4 0.3,-0.8 0.4,-1.3 0.1,-0.2 0.2,-0.5 0.2,-0.7 0.2,-0.7 0.4,-1.3 0.6,-2 0.1,-0.2 0.1,-0.5 0.2,-0.7 0.1,-0.5 0.3,-1 0.4,-1.5 0.1,-0.3 0.2,-0.6 0.2,-0.9 0.1,-0.5 0.2,-0.9 0.3,-1.4 0.1,-0.3 0.2,-0.6 0.2,-1 0.1,-0.5 0.2,-1 0.4,-1.6 0.1,-0.3 0.1,-0.5 0.2,-0.8 0.2,-0.8 0.3,-1.6 0.5,-2.4 0.1,-0.3 0.1,-0.6 0.2,-0.9 0.1,-0.5 0.2,-1.1 0.3,-1.6 0.1,-0.4 0.1,-0.7 0.2,-1.1 0.1,-0.5 0.2,-1.1 0.3,-1.6 0.1,-0.4 0.1,-0.7 0.2,-1.1 0.1,-0.7 0.2,-1.3 0.3,-2 0,-0.3 0.1,-0.6 0.1,-0.9 0.1,-0.8 0.2,-1.6 0.4,-2.4 0.1,-0.4 0.1,-0.7 0.2,-1.1 0.1,-0.6 0.2,-1.2 0.2,-1.8 0.1,-0.4 0.1,-0.8 0.2,-1.2 0.1,-0.6 0.2,-1.2 0.2,-1.8 0,-0.4 0.1,-0.7 0.1,-1.1 0.1,-0.9 0.2,-1.9 0.3,-2.8 0,-0.2 0,-0.5 0.1,-0.7 0.1,-0.7 0.2,-1.5 0.2,-2.2 0,-0.4 0.1,-0.8 0.1,-1.1 0.1,-0.6 0.1,-1.3 0.2,-1.9 0,-0.4 0.1,-0.8 0.1,-1.1 0.1,-0.7 0.1,-1.4 0.2,-2.1 0,-0.3 0,-0.6 0.1,-0.9 0.1,-1 0.1,-2 0.2,-3 0,-0.3 0,-0.6 0,-0.9 0,-0.7 0.1,-1.5 0.1,-2.2 0,-0.4 0,-0.7 0,-1.1 0,-0.7 0.1,-1.4 0.1,-2.1 0,-0.4 0,-0.7 0,-1.1 0,-0.9 0,-1.7 0.1,-2.6 0,-0.2 0,-0.3 0,-0.5 0,-1 0,-2 0,-3.1 0,-0.3 0,-0.6 0,-0.9 0,-0.7 0,-1.5 0,-2.2 0,-0.3 0,-0.7 0,-1 0,-0.7 0,-1.5 0,-2.2 0,-0.3 0,-0.6 0,-0.9 0,-1 -0.1,-2 -0.1,-3.1 0,-0.1 0,-0.1 0,-0.2 0,-1 -0.1,-1.9 -0.1,-2.9 0,-0.3 0,-0.6 -0.1,-0.9 0,-0.7 -0.1,-1.4 -0.1,-2.1 0,-0.3 0,-0.6 -0.1,-1 -0.1,-0.8 -0.1,-1.5 -0.2,-2.3 0,-0.2 0,-0.5 -0.1,-0.7 -0.1,-1 -0.2,-2 -0.3,-2.9 0,-0.2 0,-0.3 -0.1,-0.5 -0.1,-0.8 -0.2,-1.6 -0.3,-2.4 0,-0.3 -0.1,-0.6 -0.1,-0.9 -0.1,-0.4 -0.1,-0.8 -0.2,-1.2 l 10.1,-9.1 c 0.6,-0.6 0.9,-1.4 0.7,-2.2 -0.3,-0.8 -0.9,-1.5 -1.7,-1.7 z" /><path
   style="fill:#381a04"
   inkscape:connector-curvature="0"
   id="path8"
   d="m 1297.4,674.3 c -1.9,-8.5 -7.2,-16.1 -14.8,-21 -1.5,-0.9 -3,-1.7 -4.6,-2.4 -10.7,-4.6 -22.3,-3.3 -31.3,2.3 -2.2,1.4 -9.6,8.8 -18.6,18.8 -0.4,0.4 -2.5,2.8 -6.2,6.6 0,0 0,0 0,0 -0.3,0.3 -0.6,0.6 -0.9,0.9 0,0 0,0 0,0 -0.3,0.3 -0.6,0.6 -1,1 0,0 0,0 -0.1,0.1 -0.3,0.3 -0.7,0.7 -1,1 0,0 -0.1,0.1 -0.1,0.1 -0.3,0.3 -0.7,0.7 -1,1 0,0 -0.1,0.1 -0.1,0.1 -0.3,0.3 -0.7,0.7 -1,1 -0.1,0.1 -0.1,0.1 -0.2,0.2 -0.4,0.3 -0.7,0.7 -1.1,1.1 -0.1,0.1 -0.1,0.1 -0.2,0.2 -0.4,0.4 -0.8,0.7 -1.1,1.1 -0.1,0.1 -0.1,0.1 -0.2,0.2 -0.4,0.4 -0.8,0.8 -1.2,1.2 -0.1,0.1 -0.1,0.1 -0.2,0.2 -0.4,0.4 -0.9,0.9 -1.4,1.3 0,0 -0.1,0.1 -0.1,0.1 -2.5,2.4 -5.3,4.9 -8.3,7.6 -0.1,0.1 -0.2,0.1 -0.2,0.2 -0.5,0.5 -1.1,0.9 -1.6,1.4 -0.1,0.1 -0.2,0.2 -0.4,0.3 -0.5,0.4 -1,0.9 -1.5,1.3 -0.2,0.1 -0.3,0.3 -0.5,0.4 -0.5,0.4 -1,0.8 -1.5,1.3 -0.2,0.2 -0.4,0.3 -0.6,0.5 -0.5,0.4 -0.9,0.8 -1.4,1.2 -0.2,0.2 -0.4,0.3 -0.6,0.5 -0.5,0.4 -1,0.8 -1.5,1.2 -0.2,0.2 -0.4,0.4 -0.6,0.5 -0.5,0.4 -1,0.8 -1.5,1.2 -0.1,0.1 -0.3,0.2 -0.4,0.3 -1.2,1 -2.5,2.1 -3.8,3.2 -0.1,0.1 -0.2,0.1 -0.3,0.2 -1.3,1.1 -2.7,2.2 -4.1,3.3 -0.1,0 -0.1,0.1 -0.2,0.1 -1.4,1.1 -2.9,2.3 -4.3,3.4 0,0 0,0 0,0 -3,2.4 -6.1,4.7 -9.4,7.2 0,0 -0.1,0.1 -0.1,0.1 -1.5,1.1 -3.1,2.3 -4.7,3.5 -0.1,0.1 -0.3,0.2 -0.4,0.3 -1.5,1.1 -3.1,2.2 -4.7,3.3 -0.2,0.1 -0.4,0.3 -0.6,0.4 -1.5,1.1 -3.1,2.2 -4.7,3.3 -0.2,0.2 -0.5,0.3 -0.7,0.5 -1.6,1.1 -3.1,2.1 -4.7,3.2 -0.3,0.2 -0.6,0.4 -0.9,0.6 -1.6,1.1 -3.2,2.1 -4.8,3.1 -0.3,0.2 -0.6,0.4 -0.9,0.6 -1.6,1 -3.3,2.1 -4.9,3.1 -0.1,0 -0.1,0.1 -0.2,0.1 -0.3,0.2 -0.5,0.3 -0.8,0.5 -1.7,1 -3.3,2.1 -5.1,3.1 -0.3,0.2 -0.7,0.4 -1,0.6 -1.7,1 -3.5,2.1 -5.2,3.1 -0.3,0.2 -0.6,0.4 -1,0.5 -1.8,1 -3.6,2.1 -5.4,3.1 -0.3,0.2 -0.6,0.3 -0.8,0.5 -1.9,1.1 -3.8,2.1 -5.7,3.1 -0.2,0.1 -0.4,0.2 -0.6,0.3 -2,1.1 -4,2.1 -6,3.2 -0.1,0 -0.1,0.1 -0.2,0.1 l -1.6,0.8 -3.3,1.6 35.2,1.2 v 0 l 2.3,0.1 1.9,0.1 c 1.9,0.1 3.7,0.2 5.5,0.3 9.5,0.6 19,2.1 28.2,4.3 9.3,2.2 18.4,5.2 27.2,8.8 v 0 0 c 0.4,0.2 0.9,0.3 1.3,0.5 1.8,0.7 3.5,1.2 5.3,1.7 v 31.3 c 0,0.2 0,0.3 0,0.5 -2.1,0.6 -3.9,1.6 -5.2,2.5 -1.2,0.9 -1.5,2.6 -0.7,3.9 0.9,1.3 2.6,1.6 3.9,0.7 0.3,-0.2 5.9,-4 10.2,-1.2 0,0 0,0 0,0.1 0.3,0.5 0.8,0.8 1.3,1 0.5,0.4 1.1,0.6 1.7,0.6 0.7,0 1.4,-0.3 2,-0.8 0.3,-0.3 0.6,-0.7 0.7,-1.2 2.3,-1.1 6.4,-2.3 9.5,0.7 0.5,0.5 1.3,0.8 2,0.8 0.7,0 1.4,-0.3 2,-0.8 1.1,-1.1 1.1,-2.8 0,-3.9 -1.7,-1.7 -3.6,-2.7 -5.5,-3.2 0,0 0,-0.1 0,-0.1 v -29.6 c 4.1,-0.6 8.2,-1.7 12.1,-3.2 0,0 0,0 0,0 0.3,-0.1 0.5,-0.2 0.8,-0.3 0.4,-0.2 0.9,-0.4 1.3,-0.6 0.4,-0.2 0.8,-0.4 1.1,-0.5 0.4,-0.2 0.8,-0.4 1.2,-0.6 0.4,-0.2 0.8,-0.4 1.1,-0.6 0.4,-0.2 0.8,-0.4 1.1,-0.6 0.4,-0.2 0.8,-0.4 1.1,-0.7 0.4,-0.2 0.7,-0.4 1.1,-0.7 0.4,-0.2 0.8,-0.5 1.1,-0.7 0.4,-0.2 0.7,-0.5 1,-0.7 0.4,-0.3 0.7,-0.5 1.1,-0.8 0.3,-0.3 0.7,-0.5 1,-0.8 0.4,-0.3 0.7,-0.6 1.1,-0.9 0.3,-0.3 0.7,-0.5 1,-0.8 0.3,-0.3 0.7,-0.6 1,-0.9 0.3,-0.3 0.6,-0.6 0.9,-0.9 0.3,-0.3 0.6,-0.6 1,-0.9 0.3,-0.3 0.6,-0.6 0.9,-1 0.3,-0.3 0.6,-0.6 0.9,-1 0.3,-0.3 0.6,-0.7 0.9,-1 0.3,-0.3 0.6,-0.7 0.8,-1 0.3,-0.4 0.6,-0.7 0.9,-1.1 0.3,-0.3 0.5,-0.7 0.8,-1 0.3,-0.4 0.6,-0.8 0.9,-1.2 0.2,-0.3 0.5,-0.7 0.7,-1 0.3,-0.4 0.6,-0.9 0.8,-1.4 0.2,-0.3 0.4,-0.6 0.6,-1 0.3,-0.5 0.6,-1 0.9,-1.5 0.2,-0.3 0.3,-0.6 0.5,-0.9 0.3,-0.6 0.6,-1.3 0.9,-1.9 0.1,-0.2 0.2,-0.4 0.3,-0.6 0.4,-0.9 0.8,-1.7 1.1,-2.6 0.2,-0.4 0.3,-0.8 0.5,-1.2 0.1,-0.3 0.2,-0.5 0.3,-0.8 0.1,-0.3 0.2,-0.6 0.3,-0.9 0.1,-0.4 0.3,-0.8 0.4,-1.2 0.1,-0.3 0.2,-0.5 0.2,-0.8 0.1,-0.4 0.3,-0.8 0.4,-1.3 0.1,-0.3 0.1,-0.5 0.2,-0.8 0.1,-0.4 0.2,-0.9 0.3,-1.3 0.1,-0.3 0.1,-0.5 0.2,-0.8 0.1,-0.4 0.2,-0.9 0.3,-1.3 0,-0.3 0.1,-0.5 0.1,-0.8 0.1,-0.4 0.1,-0.8 0.2,-1.3 0,-0.3 0.1,-0.6 0.1,-0.8 0.1,-0.4 0.1,-0.8 0.1,-1.2 0,-0.3 0.1,-0.6 0.1,-0.9 0,-0.4 0.1,-0.8 0.1,-1.2 0,-0.3 0,-0.6 0,-0.9 0,-0.4 0,-0.8 0,-1.2 0,-0.3 0,-0.6 0,-0.9 0,-0.4 0,-0.7 0,-1.1 0,-0.3 0,-0.6 0,-1 0,-0.4 0,-0.7 0,-1.1 0,-0.3 0,-0.7 -0.1,-1 0,-0.3 0,-0.7 -0.1,-1 0,-0.3 -0.1,-0.7 -0.1,-1 0,-0.3 -0.1,-0.7 -0.1,-1 0,-0.3 -0.1,-0.7 -0.1,-1 0,-0.3 -0.1,-0.7 -0.1,-1 -0.1,-0.3 -0.1,-0.7 -0.2,-1 -0.1,-0.3 -0.1,-0.6 -0.2,-1 -0.1,-0.3 -0.1,-0.7 -0.2,-1 0,-0.2 -0.1,-0.3 -0.1,-0.5 0,0 0,0 0,0 -0.1,-0.3 -0.1,-0.7 -0.2,-1 3.7,-3.1 14.3,-11.9 16.2,-13.9 1.2,-1.2 2.3,-2.6 3.3,-4 0,0.1 0.1,0.3 0.1,0.4 l 26.7,-9.1 -21.2,-18.6 z m -77,141.5 c -1.2,0.4 -2.3,0.8 -3.3,1.3 -1,-0.6 -2,-1 -3.1,-1.3 0,0 0,-0.1 0,-0.1 v -29.8 c 2.1,0.2 4.2,0.4 6.3,0.4 v 29 c 0,0.2 0,0.3 0.1,0.5 z" /><path
   style="fill:#381a04"
   inkscape:connector-curvature="0"
   id="path10"
   d="m 113.7,380.7 c 9.8,1.2 19.2,2 28.2,2.5 -8.2,5.1 -18.4,10.5 -24.6,13.5 -3.3,1.6 -21.5,9.9 1.2,14.5 20.2,4.1 52.9,-15.4 68.6,-25.9 2.4,1.2 5.2,2.3 8.2,3.4 0,0 22.5,7 49,4.1 0,0.1 0,0.2 -0.1,0.3 0,0.2 -0.1,0.4 -0.1,0.6 0,0.2 -0.1,0.4 -0.1,0.5 0,0.2 -0.1,0.4 -0.1,0.6 0,0.2 0,0.3 0,0.5 0,0.2 0,0.4 -0.1,0.6 0,0.2 0,0.3 0,0.5 0,0.2 0,0.4 0,0.6 0,0.1 0,0.3 0,0.4 0,0.2 0,0.4 0,0.6 0,0.1 0,0.2 0,0.4 0,0.2 0,0.4 0,0.7 0,0.1 0,0.2 0,0.3 0,0.2 0,0.5 0.1,0.7 v 0 0 c 0.4,4.6 2.1,8.4 3.8,10.9 l -6.1,2.4 c -1.5,0.6 -2.2,2.3 -1.6,3.7 0.4,1.1 1.5,1.8 2.7,1.8 0.4,0 0.7,-0.1 1.1,-0.2 l 10.9,-4.3 17.4,8.9 c 0.4,0.2 0.9,0.3 1.3,0.3 1,0 2.1,-0.6 2.6,-1.6 0.7,-1.4 0.2,-3.2 -1.2,-3.9 l -7.9,-4 10.9,-0.4 c 1.6,-0.1 2.8,-1.4 2.8,-3 -0.1,-1.6 -1.4,-2.8 -3,-2.8 l -19.9,0.7 c -0.2,-0.2 -0.5,-0.4 -0.8,-0.5 -0.2,-0.6 -0.5,-1.2 -1,-1.8 0,0 -2,-2.3 -2.7,-6.2 v 0 c -0.2,-1 -0.3,-2.1 -0.2,-3.3 0,-0.1 0,-0.1 0,-0.2 0,-0.2 0,-0.3 0,-0.5 0,-0.1 0,-0.2 0,-0.3 0,-0.2 0,-0.3 0.1,-0.5 0,-0.1 0,-0.2 0.1,-0.4 0,-0.2 0.1,-0.3 0.1,-0.5 0,-0.1 0.1,-0.3 0.1,-0.4 0,-0.2 0.1,-0.3 0.1,-0.5 0,-0.1 0.1,-0.3 0.1,-0.4 0,-0.1 0.1,-0.3 0.1,-0.4 0,-0.2 0.1,-0.3 0.1,-0.5 0,-0.1 0.1,-0.3 0.1,-0.4 0.1,-0.2 0.1,-0.3 0.2,-0.5 0,-0.1 0.1,-0.2 0.1,-0.3 3.1,-0.6 6.2,-1.4 9.3,-2.4 0,0 0,0 0,0.1 0,0.1 0,0.2 0,0.3 0,0.2 0,0.4 0,0.6 0,0.1 0,0.2 0,0.2 0.3,4.5 1.9,8.2 3.5,10.6 l -5.5,2.2 c -1.3,0.5 -2,2.1 -1.5,3.4 0.4,1 1.4,1.7 2.4,1.7 0.3,0 0.6,-0.1 1,-0.2 l 9.9,-3.9 15.9,8.1 c 0.4,0.2 0.8,0.3 1.2,0.3 1,0 1.9,-0.5 2.3,-1.4 0.7,-1.3 0.2,-2.9 -1.1,-3.5 l -7.2,-3.7 9.9,-0.4 c 1.4,-0.1 2.6,-1.3 2.5,-2.7 -0.1,-1.4 -1.2,-2.6 -2.7,-2.5 l -18.1,0.7 c -0.2,-0.2 -0.5,-0.4 -0.7,-0.5 -0.2,-0.6 -0.5,-1.1 -0.9,-1.6 0,0 -1.8,-2.1 -2.4,-5.6 v 0 c -0.2,-0.9 -0.2,-1.9 -0.2,-3 0,-0.1 0,-0.1 0,-0.2 0,-0.2 0,-0.3 0,-0.5 0,-0.1 0,-0.2 0,-0.3 0,-0.1 0,-0.3 0.1,-0.4 0,-0.1 0,-0.2 0,-0.3 0,-0.1 0,-0.3 0.1,-0.4 0,-0.1 0,-0.1 0,-0.2 22.2,-9.5 42.9,-29.5 51.9,-69.2 0.7,-2.9 1.2,-5.8 1.5,-8.9 v 0 c 0,0 0,0 0,0 0,-0.3 0.1,-0.6 0.1,-1 0,-0.1 0,-0.2 0,-0.2 0,-0.3 0.1,-0.6 0.1,-1 0,-0.1 0,-0.1 0,-0.2 0.1,-1 0.1,-2 0.1,-3.1 0,-0.1 0,-0.2 0,-0.4 0,-0.3 0,-0.6 0,-0.9 0,-0.2 0,-0.3 0,-0.5 0,-0.3 0,-0.6 0,-0.9 0,-0.2 0,-0.3 0,-0.5 0,-0.6 0,-1.2 -0.1,-1.8 0,-0.2 0,-0.3 0,-0.5 0,-0.3 0,-0.6 -0.1,-0.9 0,-0.2 0,-0.4 -0.1,-0.7 0,-0.3 -0.1,-0.6 -0.1,-0.9 0,-0.2 0,-0.5 -0.1,-0.7 0,-0.3 -0.1,-0.6 -0.1,-0.9 0,-0.3 -0.1,-0.6 -0.1,-0.9 -0.1,-0.4 -0.1,-0.9 -0.2,-1.3 0,-0.3 -0.1,-0.7 -0.1,-1 0,-0.3 -0.1,-0.5 -0.1,-0.8 -0.1,-0.3 -0.1,-0.6 -0.2,-0.9 0,-0.3 -0.1,-0.6 -0.2,-0.8 -0.1,-0.3 -0.1,-0.7 -0.2,-1 -0.1,-0.3 -0.1,-0.5 -0.2,-0.8 -0.1,-0.6 -0.2,-1.2 -0.4,-1.8 0,-0.2 -0.1,-0.4 -0.1,-0.6 -0.1,-0.4 -0.2,-0.9 -0.3,-1.3 -0.1,-0.3 -0.1,-0.6 -0.2,-0.8 -0.1,-0.4 -0.2,-0.8 -0.3,-1.2 -0.1,-0.3 -0.1,-0.6 -0.2,-0.8 -0.1,-0.5 -0.3,-1 -0.4,-1.5 -0.1,-0.2 -0.1,-0.4 -0.2,-0.7 -0.2,-0.7 -0.4,-1.4 -0.6,-2.2 -0.1,-0.2 -0.1,-0.4 -0.2,-0.7 -0.2,-0.5 -0.3,-1.1 -0.5,-1.7 -0.1,-0.3 -0.2,-0.6 -0.3,-0.9 -0.2,-0.5 -0.3,-1.1 -0.5,-1.6 -0.1,-0.3 -0.2,-0.6 -0.3,-0.8 -0.2,-0.7 -0.4,-1.4 -0.7,-2 -0.1,-0.2 -0.1,-0.3 -0.2,-0.5 -0.3,-0.8 -0.6,-1.7 -0.9,-2.6 -0.1,-0.3 -0.2,-0.5 -0.3,-0.8 -0.2,-0.6 -0.5,-1.3 -0.7,-2 -0.1,-0.3 -0.2,-0.6 -0.3,-0.9 -0.2,-0.6 -0.5,-1.3 -0.7,-2 -0.1,-0.3 -0.2,-0.6 -0.3,-0.9 -0.4,-1 -0.7,-1.9 -1.1,-2.9 -0.3,-0.7 -0.5,-1.5 -0.7,-2.5 -0.1,-0.3 -0.1,-0.6 -0.1,-0.9 0,-0.3 -0.1,-0.6 -0.1,-1 0,-0.1 0,-0.2 0,-0.3 0,-0.1 0,-0.3 0,-0.4 0,-0.1 0,-0.2 0,-0.3 0,-0.1 0,-0.3 0,-0.4 0,-0.1 0,-0.2 0,-0.4 0,-0.1 0,-0.3 0,-0.4 0,-0.1 0,-0.3 0,-0.4 0,-0.1 0,-0.2 0,-0.4 0,-0.2 0,-0.3 0.1,-0.5 0,-0.1 0,-0.3 0.1,-0.4 0,-0.2 0.1,-0.4 0.1,-0.5 0,-0.1 0,-0.2 0.1,-0.3 0,-0.1 0.1,-0.3 0.1,-0.4 0,-0.1 0.1,-0.2 0.1,-0.3 0,-0.1 0.1,-0.3 0.1,-0.4 0,-0.1 0.1,-0.2 0.1,-0.3 0.1,-0.1 0.1,-0.3 0.2,-0.4 0,-0.1 0.1,-0.2 0.1,-0.3 0.1,-0.2 0.2,-0.4 0.3,-0.5 0,0 0,-0.1 0.1,-0.1 0,0 0,0 0,0 0.1,-0.2 0.3,-0.4 0.4,-0.6 0,0 0.1,-0.1 0.1,-0.1 0.1,-0.2 0.3,-0.3 0.4,-0.5 0.1,-0.1 0.1,-0.1 0.2,-0.2 0.1,-0.1 0.3,-0.3 0.4,-0.4 0.1,-0.1 0.1,-0.1 0.2,-0.2 0.2,-0.1 0.3,-0.3 0.5,-0.4 0.1,0 0.1,-0.1 0.2,-0.1 0,0 0,0 0,0 0.2,-0.2 0.4,-0.3 0.7,-0.4 0,0 0,0 0,0 0,0 0.1,0 0.1,-0.1 0.2,-0.1 0.5,-0.2 0.7,-0.3 0.1,0 0.1,0 0.2,-0.1 0,0 0,0 0,0 0.2,-0.1 0.4,-0.2 0.7,-0.3 0.1,0 0.2,-0.1 0.3,-0.1 0,0 0.1,0 0.1,0 0.2,-0.1 0.4,-0.1 0.6,-0.2 0.1,0 0.2,-0.1 0.3,-0.1 0.1,0 0.1,0 0.2,0 0.2,0 0.4,-0.1 0.6,-0.1 0.1,0 0.2,0 0.4,-0.1 0.1,0 0.2,0 0.3,0 0.2,0 0.4,0 0.6,-0.1 0.1,0 0.2,0 0.3,0 0.2,0 0.3,0 0.5,0 0.3,0 0.5,0 0.8,0 0.1,0 0.1,0 0.2,0 0.2,0 0.3,0 0.5,0 0.2,0 0.4,0 0.7,0 0.2,0 0.3,0 0.5,0 0.1,0 0.3,0 0.4,0 0.2,0 0.4,0 0.6,0.1 0.2,0 0.4,0 0.6,0.1 0.2,0 0.4,0.1 0.6,0.1 0.1,0 0.3,0 0.4,0.1 0.2,0 0.4,0.1 0.6,0.1 0.3,0.1 0.6,0.1 0.9,0.2 0.1,0 0.2,0 0.3,0.1 0.2,0 0.4,0.1 0.6,0.1 0.6,0.1 1.2,0.3 1.8,0.5 0,0 0,-0.1 0,-0.4 0,-0.1 0,-0.1 0,-0.2 0,-0.1 0,-0.3 0,-0.4 0,-0.3 -0.1,-0.6 -0.2,-1 -0.1,-0.5 -0.3,-1.1 -0.6,-1.7 -0.1,-0.1 -0.1,-0.2 -0.2,-0.4 -0.4,-0.8 -1,-1.8 -1.8,-2.8 -0.5,-0.7 -1.1,-1.4 -1.8,-2.1 -0.3,-0.4 -0.7,-0.7 -1.1,-1.1 -1.3,-1.3 -2.9,-2.7 -5,-4.2 0,0 0,0 0,-0.1 0,0 0,0 0,0 0,-0.1 0,-0.1 -0.1,-0.2 0,0 0,0 0,0 v 0 c -0.1,-0.4 -0.4,-1.1 -0.8,-2.1 -0.1,-0.2 -0.2,-0.4 -0.2,-0.6 -0.2,-0.5 -0.5,-1 -0.7,-1.6 -0.1,-0.2 -0.2,-0.4 -0.3,-0.6 -0.2,-0.4 -0.4,-0.8 -0.6,-1.2 -0.2,-0.5 -0.5,-0.9 -0.8,-1.4 -0.1,-0.2 -0.3,-0.4 -0.4,-0.7 -0.3,-0.5 -0.6,-0.9 -0.9,-1.4 -0.2,-0.3 -0.3,-0.5 -0.5,-0.8 -0.3,-0.4 -0.5,-0.7 -0.8,-1.1 -0.2,-0.2 -0.4,-0.5 -0.5,-0.7 -0.4,-0.5 -0.8,-0.9 -1.2,-1.4 -1.2,-1.3 -2.6,-2.6 -4.1,-3.6 -0.3,-0.2 -0.7,-0.5 -1.1,-0.7 -0.3,-0.2 -0.7,-0.4 -1,-0.6 -0.2,-0.1 -0.4,-0.2 -0.6,-0.3 -1.3,-0.6 -2.7,-1.1 -4.3,-1.4 -0.6,-0.1 -1.3,-0.2 -2,-0.2 -0.3,0 -0.7,0 -1,0 -3.2,0 -6.7,0.9 -10.7,2.9 -0.4,0.2 -0.9,0.5 -1.3,0.7 -2.7,1.6 -5.6,3.7 -8.6,6.5 -2,1.9 -4.2,4 -6.4,6.5 -0.7,0.7 -1.2,1.5 -1.8,2.2 -0.3,0.5 -0.7,1 -0.9,1.5 -0.7,1.3 -1.2,2.6 -1.7,4 -0.2,0.6 -0.3,1.2 -0.4,1.8 -0.1,0.3 -0.1,0.6 -0.2,1 -0.1,0.7 -0.2,1.3 -0.3,2.1 -0.3,2.2 -0.4,4.6 -0.6,7.6 -0.2,5.4 -0.4,12.4 -1.1,21.9 0,0 0,0 0,0 0,0 0,0 0,0 0,0 0,0.1 0,0.1 0,0 0,0 0,0.1 0,0 0,0.1 0,0.1 0,0 0,0.1 0,0.1 0,0 0,0.1 0,0.1 -0.1,0.2 -0.1,0.5 -0.3,0.9 0,0 0,0 0,0 0,0.1 -0.1,0.2 -0.1,0.4 0,0 0,0 0,0.1 -0.1,0.1 -0.1,0.3 -0.2,0.4 0,0 0,0 0,0 0,0.1 -0.1,0.2 -0.1,0.2 -0.4,0.8 -0.9,1.6 -1.3,2.4 0,0.1 -0.1,0.2 -0.1,0.2 -0.4,0.7 -0.9,1.4 -1.3,2.1 -0.1,0.1 -0.1,0.2 -0.2,0.3 -0.4,0.7 -0.9,1.3 -1.4,1.9 -0.1,0.1 -0.1,0.2 -0.2,0.3 -0.5,0.6 -0.9,1.2 -1.4,1.7 -0.1,0.1 -0.1,0.1 -0.2,0.2 0,0 0,0 0,0 -2.2,2.4 -5.1,4.9 -8.8,7.5 0,0 -0.1,0.1 -0.1,0.1 -0.4,0.3 -0.9,0.6 -1.3,0.9 -0.1,0 -0.1,0.1 -0.2,0.1 -0.5,0.3 -0.9,0.6 -1.4,0.9 -0.8,0.5 -1.6,0.9 -2.4,1.4 -7.4,3 -14.1,6 -20.2,9.1 -3.7,1.8 -7.3,3.8 -10.8,5.9 -35.1,20.5 -42.1,39.6 -42.1,39.6 v 0 c -98.1,34.4 -58.8,41.1 -58.8,41.1 z" /><path
   style="fill:#381a04"
   inkscape:connector-curvature="0"
   id="path12"
   d="m 718.2,202.7 h -24.6 c -2.3,-10.9 -12,-19 -23.5,-19 v 0 c -13.3,0 -24.1,10.8 -24.1,24.1 v 36.9 c 0,0 0,-0.1 -0.1,-0.1 -6.5,1.9 -115,35.3 -187.1,113.1 -4.3,4.6 -0.8,12.2 5.5,11.9 40.5,-1.5 83.6,-0.1 118.7,-7 h 14.9 V 411 c -3.7,1.8 -9.6,5.3 -14.7,8.5 -2.1,1.3 -1,4.6 1.5,4.3 9.2,-1.2 23.4,-2.1 41.1,-0.3 1.8,0.2 2.5,-2.2 0.9,-3 -2.3,-1.2 -4.9,-2.5 -7.5,-3.7 5.9,0 12.4,0.3 19.5,1 1.8,0.2 2.5,-2.2 0.9,-3 -6.4,-3.3 -15.4,-7.7 -21.2,-9.6 v -42.4 h 6.8 c 0,0 69,-15.3 69,-71.7 V 215.7 H 731 c 0,-7.2 -5.8,-13 -12.8,-13 z M 610.6,405.3 c -1.5,0.7 -3.3,1.7 -5.2,2.8 v -45.4 h 5.2 z" /><path
   style="fill:#381a04"
   inkscape:connector-curvature="0"
   id="path14"
   d="m 978.3,661.6 c -0.4,-0.3 -0.8,-0.6 -1.3,-0.9 -0.3,-0.2 -0.6,-0.5 -1,-0.7 -0.6,-0.4 -1.2,-0.8 -1.8,-1.2 -0.2,-0.1 -0.4,-0.3 -0.6,-0.4 -0.7,-0.4 -1.4,-0.9 -2.1,-1.3 -0.1,-0.1 -0.2,-0.1 -0.3,-0.2 -0.8,-0.5 -1.6,-0.9 -2.4,-1.4 -0.1,0 -0.1,-0.1 -0.2,-0.1 -0.8,-0.5 -1.7,-0.9 -2.5,-1.4 0,0 -0.1,0 -0.1,-0.1 -0.9,-0.4 -1.7,-0.9 -2.6,-1.3 0,0 -0.1,0 -0.1,-0.1 -0.9,-0.4 -1.7,-0.8 -2.6,-1.2 0,0 -0.1,0 -0.1,-0.1 0,0 0,0 0,0 -8.2,-3.7 -17.1,-6.1 -25.4,-6.1 -30.8,0 -44.2,30.4 -56.9,59.7 -13.9,32.3 -28.3,65.8 -65.4,65.8 -2.6,0 -4.8,1.8 -5.4,4.3 -0.6,2.5 0.7,5.1 3.1,6.2 18.4,8.5 36.1,14.4 52.4,17.6 V 815 c -3.9,1.4 -6.3,4.2 -6.5,4.4 -0.9,1.1 -0.8,2.7 0.3,3.7 1.1,0.9 2.7,0.8 3.7,-0.2 0,0 2.9,-3.3 6.8,-3.4 2.5,-0.1 4.9,1.1 7.3,3.5 0.5,0.5 1.2,0.8 1.8,0.8 0.6,0 1.3,-0.3 1.8,-0.8 1,-1 1,-2.7 0,-3.7 -0.2,-0.2 -0.4,-0.4 -0.6,-0.6 0.3,-0.1 0.6,-0.4 0.8,-0.6 0,0 2.9,-3.3 6.8,-3.4 2.5,-0.1 4.9,1.1 7.3,3.5 0.5,0.5 1.2,0.8 1.8,0.8 0.6,0 1.3,-0.3 1.8,-0.8 1,-1 1,-2.7 0,-3.7 -2,-2 -4.1,-3.4 -6.3,-4.2 v -8.8 c 0.9,0 1.8,0 2.7,-0.1 0.4,0 0.7,0 1.1,-0.1 0.9,0 1.8,-0.1 2.7,-0.2 0.4,0 0.8,-0.1 1.2,-0.1 0.9,-0.1 1.8,-0.2 2.6,-0.3 0.4,0 0.7,-0.1 1.1,-0.1 1.2,-0.2 2.3,-0.4 3.5,-0.6 0,0 0,0 0,0 1.1,-0.2 2.2,-0.5 3.3,-0.7 0.4,-0.1 0.7,-0.2 1.1,-0.3 0.7,-0.2 1.4,-0.4 2.1,-0.6 0.4,-0.1 0.8,-0.3 1.2,-0.4 0.7,-0.2 1.3,-0.4 1.9,-0.7 0.4,-0.1 0.8,-0.3 1.2,-0.4 0.8,-0.3 1.5,-0.6 2.2,-0.9 0.4,-0.2 0.9,-0.4 1.3,-0.6 0.7,-0.3 1.4,-0.6 2,-1 0.4,-0.2 0.8,-0.4 1.2,-0.7 0.5,-0.3 1,-0.5 1.4,-0.8 0.4,-0.2 0.8,-0.5 1.2,-0.8 0.4,-0.3 0.9,-0.6 1.3,-0.9 0.4,-0.3 0.8,-0.5 1.2,-0.8 0.5,-0.4 1,-0.7 1.4,-1.1 0.5,-0.4 1,-0.8 1.5,-1.3 0.4,-0.4 0.8,-0.7 1.2,-1.1 0,0 0,0 0,0 0,0 0,0 0,0 0.1,-0.1 0.1,-0.1 0.2,-0.2 0.3,-0.3 0.6,-0.5 0.8,-0.8 0.1,-0.1 0.3,-0.3 0.4,-0.4 0.1,-0.1 0.1,-0.1 0.2,-0.2 0.2,-0.2 0.4,-0.4 0.6,-0.6 0.3,-0.3 0.6,-0.7 0.9,-1 0.4,-0.5 0.8,-0.9 1.2,-1.4 0.2,-0.3 0.4,-0.5 0.7,-0.8 0.2,-0.2 0.3,-0.4 0.4,-0.6 0.4,-0.6 0.9,-1.2 1.3,-1.8 0,0 0,0 0,0 13.6,-20.5 15.3,-47.1 16.8,-70.5 0.9,-14 1.7,-26.7 5,-34.7 0.1,-0.2 0.2,-0.4 0.2,-0.6 0.1,-0.3 0.2,-0.5 0.4,-0.8 0.1,-0.2 0.2,-0.4 0.3,-0.6 0,-0.1 0.1,-0.1 0.1,-0.2 0.1,-0.2 0.2,-0.4 0.4,-0.6 0.1,-0.1 0.1,-0.2 0.2,-0.3 0.1,-0.2 0.2,-0.4 0.3,-0.5 0.1,-0.1 0.1,-0.2 0.2,-0.3 0.2,-0.3 0.4,-0.5 0.6,-0.8 0,0 0.1,-0.1 0.1,-0.1 0.2,-0.3 0.5,-0.5 0.7,-0.8 0.2,-0.2 0.3,-0.3 0.5,-0.5 0.2,-0.1 0.3,-0.3 0.5,-0.4 0.1,-0.1 0.2,-0.2 0.3,-0.2 0,0 0.1,0 0.1,-0.1 0.3,-0.3 0.7,-0.5 1.1,-0.7 0.1,-0.1 0.2,-0.1 0.4,-0.2 0,0 0.1,0 0.1,-0.1 0.2,-0.1 0.4,-0.2 0.6,-0.3 0.3,-0.1 0.5,-0.2 0.8,-0.3 0.1,0 0.2,-0.1 0.3,-0.1 0,0 0,0 0,0 2.3,-0.6 9.4,-2.5 11.7,-2.5 -0.1,-0.2 -0.8,-0.8 -1.5,-1.3 z M 874.6,814.7 c -0.3,0.4 -0.5,0.9 -0.6,1.3 -0.7,-0.4 -1.3,-0.7 -2,-0.9 v -14.8 c 3.1,0.4 6.1,0.7 9,0.9 v 9.1 c -3.8,1.4 -6.3,4.2 -6.4,4.4 z" /><path
   style="fill:#381a04"
   inkscape:connector-curvature="0"
   id="path16"
   d="m 668.2,567.9 c -0.1,-1.7 -0.4,-3.5 -0.9,-5.4 -8.2,-32.9 -35.3,-48.5 -54.7,-37.6 -19.4,10.9 -24.1,45 -13.8,69.7 10.3,24.7 14,28.4 7.4,54.1 0,0 -100.9,-24.1 -125.9,94.4 -6.7,31.8 -3.9,60.5 -2.8,56.7 19.1,-8.3 35.3,-17.9 49.2,-28.2 0.1,0 0.2,0 0.3,-0.1 0.1,0 0.2,0 0.3,0 0.3,0 0.5,-0.1 0.8,-0.1 0.1,0 0.2,0 0.3,0 0.7,-0.1 1.5,-0.3 2.3,-0.4 0.1,0 0.1,0 0.2,0 0.3,-0.1 0.7,-0.1 1,-0.2 0.1,0 0.2,0 0.3,-0.1 0.4,-0.1 0.7,-0.2 1.1,-0.2 0.1,0 0.1,0 0.2,0 0.9,-0.2 1.8,-0.4 2.8,-0.6 0.1,0 0.1,0 0.2,0 0.4,-0.1 0.8,-0.2 1.3,-0.3 0.1,0 0.2,0 0.2,-0.1 0.5,-0.1 0.9,-0.2 1.4,-0.3 0,0 0,0 0.1,0 0.8,-0.2 1.6,-0.4 2.4,-0.6 l -1.2,44.5 -7.4,1.9 c -1.6,0.4 -2.5,2 -2.1,3.6 0.4,1.6 2,2.5 3.6,2.1 l 9.5,-2.4 c 0,0 0,0 0,0 0,0 0,0 0,0 l 22.5,5.8 c 0.2,0.1 0.5,0.1 0.7,0.1 1.3,0 2.5,-0.9 2.8,-2.2 0.4,-1.6 -0.5,-3.2 -2.1,-3.6 l -6.8,-1.8 2.8,-0.7 c 0,0 0,0 0,0 0,0 0,0 0,0 l 22.5,5.8 c 0.2,0.1 0.5,0.1 0.7,0.1 1.3,0 2.5,-0.9 2.8,-2.2 0.4,-1.6 -0.5,-3.2 -2.1,-3.6 l -20.4,-5.2 1.4,-51.8 c 0,-0.1 0,-0.2 0,-0.3 1.1,-0.5 2.3,-1.1 3.4,-1.6 0,0 0,0 0,0 15.2,-7.6 30.9,-18.8 42.8,-35.2 0,0 0,0 0,0 0.5,-0.7 1,-1.4 1.5,-2.1 0,0 0,0 0,0 1.5,-2.2 2.9,-4.4 4.3,-6.8 0,0 0,-0.1 0.1,-0.1 0.4,-0.8 0.9,-1.5 1.3,-2.3 0,0 0,0 0,0 v 0 c 14,-25.9 19.1,-62.5 3.9,-114 0,0 0.1,0 0.3,0 9.5,18.6 32.6,50.7 83.7,69.2 0,0 0,0 0.1,0 0,0 0,0 0,0 0.2,0.1 0.4,0.2 0.6,0.2 0,0 10.7,0 -41.6,-96 -0.6,-1.1 -0.9,-1.6 -1.3,-2.1 z m -120.6,244.8 1.3,-46.6 c 0.2,-0.1 0.4,-0.1 0.5,-0.2 0,0 0.1,0 0.1,0 0.6,-0.2 1.1,-0.4 1.7,-0.5 0,0 0.1,0 0.1,0 1.8,-0.6 3.6,-1.2 5.5,-1.9 0,0 0,0 0.1,0 0.6,-0.2 1.2,-0.5 1.8,-0.7 0,0 0,0 0,0 1,-0.4 2.1,-0.8 3.2,-1.3 l -1.3,48.9 -7.4,1.9 c -0.8,0.2 -1.5,0.8 -1.9,1.5 z" /><path
   style="fill:#381a04"
   inkscape:connector-curvature="0"
   id="path18"
   d="m 346.9,592.7 c -12.8,6.8 -46.9,25.2 -52.2,32.8 -17.1,-2.2 -57.7,-2.4 -57.7,46.4 -37.4,-21.1 -101.3,-53 -141,-49.4 -4.2,0.4 -6.1,5.3 -3.4,8.5 5.6,6.6 15.6,16.1 29.4,20.2 0,0 0.4,21.8 35,29.2 0,0 2.1,14 24.7,20 0,0 7.4,14.7 19.4,17.3 0,0 1.8,0.5 4.9,0.9 -11.9,9.6 -27.8,26.3 -34.9,51.2 -8.3,16.9 -11.9,34.5 -13.5,46.1 -0.8,5.8 5.6,9.8 10.5,6.6 18.7,-12.4 30.6,-29.9 38.2,-46.6 0,0 0,0 0,0 0,0 24.8,-5.7 47.2,-20.2 0,0 0,0 0,0 0.3,-0.2 0.6,-0.4 1,-0.6 0.5,-0.3 1,-0.7 1.5,-1 0.3,-0.2 0.7,-0.5 1,-0.7 0.3,-0.2 0.6,-0.4 0.8,-0.6 0.3,-0.2 0.6,-0.4 0.9,-0.7 0.3,-0.2 0.6,-0.4 0.9,-0.6 0.3,-0.2 0.6,-0.5 0.9,-0.7 0.3,-0.2 0.6,-0.4 0.8,-0.7 0.3,-0.2 0.6,-0.5 0.9,-0.7 0.3,-0.2 0.6,-0.4 0.8,-0.7 0.3,-0.2 0.6,-0.5 0.9,-0.7 0.3,-0.2 0.5,-0.5 0.8,-0.7 0.3,-0.3 0.6,-0.5 0.9,-0.8 0.3,-0.2 0.5,-0.5 0.8,-0.7 0.3,-0.3 0.6,-0.5 0.9,-0.8 0.3,-0.2 0.5,-0.5 0.8,-0.7 0.3,-0.3 0.6,-0.6 0.9,-0.9 0.2,-0.2 0.5,-0.4 0.7,-0.7 0.4,-0.4 0.7,-0.7 1.1,-1.1 0.2,-0.2 0.3,-0.3 0.5,-0.5 0.5,-0.5 1,-1.1 1.5,-1.6 0.2,-0.2 0.3,-0.4 0.5,-0.6 0.3,-0.4 0.6,-0.7 0.9,-1.1 0.2,-0.2 0.4,-0.5 0.6,-0.7 0.3,-0.3 0.6,-0.7 0.8,-1 0.2,-0.3 0.4,-0.5 0.6,-0.8 0.3,-0.3 0.5,-0.7 0.8,-1 0.2,-0.3 0.4,-0.5 0.6,-0.8 0.2,-0.3 0.5,-0.7 0.7,-1 0.2,-0.3 0.4,-0.5 0.6,-0.8 0.2,-0.3 0.5,-0.7 0.7,-1 0.2,-0.3 0.4,-0.5 0.5,-0.8 0.2,-0.4 0.4,-0.7 0.7,-1.1 0.2,-0.3 0.3,-0.5 0.5,-0.8 0.2,-0.4 0.4,-0.8 0.7,-1.2 0.1,-0.3 0.3,-0.5 0.4,-0.8 0.2,-0.5 0.5,-0.9 0.7,-1.4 0.1,-0.2 0.2,-0.4 0.3,-0.6 0.3,-0.7 0.6,-1.4 0.9,-2 0.1,-0.2 0.1,-0.3 0.2,-0.5 0.2,-0.5 0.4,-1.1 0.7,-1.6 0.1,-0.3 0.2,-0.5 0.3,-0.8 0.2,-0.5 0.3,-0.9 0.5,-1.4 0.1,-0.3 0.2,-0.6 0.3,-0.9 0.1,-0.4 0.3,-0.9 0.4,-1.3 0.1,-0.3 0.2,-0.6 0.3,-0.9 0.1,-0.4 0.2,-0.9 0.3,-1.3 0.1,-0.3 0.2,-0.6 0.2,-1 0.1,-0.4 0.2,-0.9 0.3,-1.3 0.1,-0.3 0.1,-0.7 0.2,-1 0.1,-0.5 0.2,-0.9 0.2,-1.4 0,-0.3 0.1,-0.7 0.1,-1 0.1,-0.5 0.1,-1 0.2,-1.5 0,-0.3 0.1,-0.6 0.1,-1 0,-0.5 0.1,-1.1 0.1,-1.7 0,-0.3 0,-0.5 0,-0.8 0,-0.8 0.1,-1.7 0,-2.5 v 0 0 0 0 c -0.1,-39.2 4.9,-56.8 9.3,-66.1 1.4,-0.4 3.3,-1.3 5.4,-3.1 1.3,-1.1 29.7,-24.4 44.4,-37.4 0.5,-0.2 -0.2,-1.1 -0.9,-0.8 z" />
<g
   id="g58">
		<path
   style="fill:#d1aea3"
   inkscape:connector-curvature="0"
   id="path22"
   d="m 1205.3,407.3 c -3.3,-4.8 -8.8,-7.7 -14.7,-7.7 h -20.8 c -1.2,0 -2.3,-0.4 -3.2,-1.1 l -18.9,-13.7 c -2.3,-1.6 -2.9,-4.7 -1.6,-7.2 l 15.5,-28.2 -15.8,-8.2 -16,31.7 c -4.2,8.3 -1.6,18.4 6,23.7 l 19.7,13.7 c 3,2.1 6.7,3.3 10.4,3.3 h 38 c 2.5,0 4,-2.8 2.6,-4.9 z" />
		<path
   style="fill:#405766"
   inkscape:connector-curvature="0"
   id="path24"
   d="m 1241.9,211.3 c -1.1,0 -105.9,13.5 -105.9,13.5 -32.4,7.5 -56.5,36.6 -56.5,71.3 0,40.4 32.8,73.2 73.2,73.2 30.2,0 56.1,-18.3 67.3,-44.4 l 30.7,-50.7 c 0,0 23.3,-6.2 23.3,-30.9 -0.1,-17.7 -14.4,-32 -32.1,-32 z" />
		<path
   style="fill:#2f3f4a"
   inkscape:connector-curvature="0"
   id="path26"
   d="m 1089.6,293.3 c 0,-28 15.1,-52.5 37.6,-65.8 -27.9,10.3 -47.7,37.2 -47.7,68.6 0,40.4 32.8,73.2 73.2,73.2 1.7,0 3.3,-0.1 4.9,-0.2 -38.2,-4.1 -68,-36.5 -68,-75.8 z" />
		<circle
   style="fill:#2f3f4a"
   r="3.8"
   id="ellipse28"
   cy="232"
   cx="1249.6" />
		<path
   style="fill:#e8c1b5"
   inkscape:connector-curvature="0"
   id="path30"
   d="M 1317.1,258.8 1274,243.3 c 0,0 -10.5,-3.4 -14.5,7 -4,10.4 7.5,13 7.5,13 h 49.3 c 2.6,0 3.2,-3.6 0.8,-4.5 z" />
		<path
   style="fill:#cca396"
   inkscape:connector-curvature="0"
   id="path32"
   d="m 1271.3,250.3 c 1.2,-3.2 3.1,-5 5,-6.1 l -2.3,-0.8 c 0,0 -10.5,-3.4 -14.5,7 -4,10.4 7.5,13 7.5,13 h 11.8 c 0,-0.1 -11.6,-2.7 -7.5,-13.1 z" />
		<path
   style="fill:#e8c1b5"
   inkscape:connector-curvature="0"
   id="path34"
   d="m 1173.2,407.3 c -3.3,-4.8 -8.8,-7.7 -14.7,-7.7 h -20.8 c -1.2,0 -2.3,-0.4 -3.2,-1.1 l -18.9,-13.7 c -2.3,-1.6 -2.9,-4.7 -1.6,-7.2 l 15.5,-28.2 -15.8,-8.2 -16,31.7 c -4.2,8.3 -1.6,18.4 6,23.7 l 19.7,13.7 c 3,2.1 6.7,3.3 10.4,3.3 h 38 c 2.5,0 4,-2.8 2.6,-4.9 z" />
		<path
   style="fill:#334452"
   inkscape:connector-curvature="0"
   id="path36"
   d="m 1126.4,324.4 -13.1,-7.1 c -1.1,-0.6 -2.4,-0.1 -2.8,1.1 l -14.6,40.5 c -0.4,1.1 0,2.2 1,2.8 l 22.7,13.1 c 1,0.6 2.3,0.3 3,-0.6 l 11.5,-15.3 c 8.3,-11.5 4.8,-27.8 -7.7,-34.5 z" />
		<path
   style="fill:#2f3f4a"
   inkscape:connector-curvature="0"
   id="path38"
   d="m 1114.5,318 -1.3,-0.7 c -1.1,-0.6 -2.4,-0.1 -2.8,1.1 l -14.6,40.5 c -0.4,1.1 0,2.2 1,2.8 l 6.7,3.9 14.7,-37.5 c 1.5,-3.8 -0.1,-8.2 -3.7,-10.1 z" />
		<path
   style="fill:#2f3f4a"
   inkscape:connector-curvature="0"
   id="path40"
   d="m 1176.1,233 -20.9,3.5 c -2.1,0.3 -3.4,2.3 -3.1,4.3 0.3,1.8 1.9,3.2 3.7,3.2 0.2,0 0.4,0 0.6,-0.1 l 20.9,-3.5 c 2.1,-0.3 3.4,-2.3 3.1,-4.3 -0.3,-2.1 -2.2,-3.4 -4.3,-3.1 z" />
		<path
   style="fill:#2f3f4a"
   inkscape:connector-curvature="0"
   id="path42"
   d="m 1145.1,250.8 -20.3,6.1 c -2,0.6 -3.1,2.7 -2.5,4.7 0.5,1.6 2,2.7 3.6,2.7 0.4,0 0.7,-0.1 1.1,-0.2 l 20.3,-6.1 c 2,-0.6 3.1,-2.7 2.5,-4.7 -0.6,-2 -2.7,-3.1 -4.7,-2.5 z" />
		<path
   style="fill:#2f3f4a"
   inkscape:connector-curvature="0"
   id="path44"
   d="m 1222.3,293.7 c -1.6,-1.3 -4,-1 -5.3,0.6 l -13.1,16.7 c -1.3,1.6 -1,4 0.6,5.3 0.7,0.5 1.5,0.8 2.3,0.8 1.1,0 2.2,-0.5 3,-1.4 L 1223,299 c 1.3,-1.6 1,-4 -0.7,-5.3 z" />
		<path
   style="fill:#2f3f4a"
   inkscape:connector-curvature="0"
   id="path46"
   d="m 1182.2,250.3 -19.9,7.2 c -2,0.7 -3,2.9 -2.3,4.8 0.6,1.5 2,2.5 3.6,2.5 0.4,0 0.9,-0.1 1.3,-0.2 l 19.9,-7.2 c 2,-0.7 3,-2.9 2.3,-4.8 -0.7,-2 -2.9,-3 -4.9,-2.3 z" />
		<path
   style="fill:#2f3f4a"
   inkscape:connector-curvature="0"
   id="path48"
   d="m 1154.1,273.9 -18.6,10.1 c -1.8,1 -2.5,3.3 -1.5,5.1 0.7,1.3 2,2 3.3,2 0.6,0 1.2,-0.1 1.8,-0.5 l 18.6,-10.1 c 1.8,-1 2.5,-3.3 1.5,-5.1 -1,-1.8 -3.3,-2.5 -5.1,-1.5 z" />
		<path
   style="fill:#2f3f4a"
   inkscape:connector-curvature="0"
   id="path50"
   d="m 1168.6,294.9 -15.2,14.7 c -1.5,1.4 -1.5,3.8 -0.1,5.3 0.7,0.8 1.7,1.2 2.7,1.2 0.9,0 1.9,-0.4 2.6,-1.1 l 15.2,-14.7 c 1.5,-1.4 1.5,-3.8 0.1,-5.3 -1.4,-1.5 -3.8,-1.5 -5.3,-0.1 z" />
		<path
   style="fill:#2f3f4a"
   inkscape:connector-curvature="0"
   id="path52"
   d="m 1193.1,313.1 c -1.7,-1.2 -4.1,-0.8 -5.3,0.9 l -12.1,17.4 c -1.2,1.7 -0.8,4.1 0.9,5.3 0.7,0.5 1.4,0.7 2.2,0.7 1.2,0 2.4,-0.6 3.1,-1.6 l 12.1,-17.4 c 1.3,-1.7 0.8,-4.1 -0.9,-5.3 z" />
		<path
   style="fill:#2f3f4a"
   inkscape:connector-curvature="0"
   id="path54"
   d="m 1202.6,280.2 -15.3,14.7 c -1.5,1.4 -1.6,3.8 -0.1,5.3 0.7,0.8 1.7,1.2 2.7,1.2 0.9,0 1.9,-0.3 2.6,-1.1 l 15.3,-14.7 c 1.5,-1.4 1.6,-3.8 0.1,-5.3 -1.4,-1.5 -3.8,-1.5 -5.3,-0.1 z" />
		<path
   style="fill:#2f3f4a"
   inkscape:connector-curvature="0"
   id="path56"
   d="m 1191.8,264.8 -17.8,11.4 c -1.8,1.1 -2.3,3.5 -1.1,5.2 0.7,1.1 1.9,1.7 3.2,1.7 0.7,0 1.4,-0.2 2,-0.6 l 17.8,-11.4 c 1.8,-1.1 2.3,-3.5 1.1,-5.2 -1.1,-1.7 -3.4,-2.2 -5.2,-1.1 z" />
	</g><g
   id="g82">
		<path
   style="fill:#927955"
   inkscape:connector-curvature="0"
   id="path60"
   d="m 897.7,248 c -5.4,-3 -12.3,-1.1 -15.3,4.3 l -78.8,140.2 c -3,5.4 -1.1,12.3 4.3,15.3 1.7,1 3.6,1.4 5.5,1.4 3.9,0 6.7,-2.2 9.8,-5.7 L 925.4,282 c 3.1,-5.4 -22.2,-31 -27.7,-34 z" />
		<path
   style="fill:#a58c65"
   inkscape:connector-curvature="0"
   id="path62"
   d="m 873.5,252.5 c -5.4,-3 -20.4,11.8 -23.5,17.2 l -25.7,46.3 -44.9,79.8 c -2.8,6.4 -1.2,13.6 4.2,16.6 1.7,1 3.6,1.4 5.5,1.4 3.9,0 6.6,-2.1 9.8,-5.7 L 901.1,286.6 c 3.2,-5.5 -22.1,-31 -27.6,-34.1 z" />
		<path
   style="fill:#3e3d42"
   inkscape:connector-curvature="0"
   id="path64"
   d="m 988.1,193.9 -17.4,-5.4 c -0.8,-0.3 -1.7,-0.1 -2.3,0.5 -0.6,0.6 -0.9,1.4 -0.7,2.2 l 3.9,17.7 c 0.2,0.8 0.8,1.5 1.6,1.7 0.4,0.1 0.8,0.1 1.2,0.1 0.4,-0.1 0.8,-0.3 1.1,-0.6 l 13.6,-12.2 c 0.6,-0.6 0.9,-1.4 0.7,-2.2 -0.3,-0.9 -0.9,-1.6 -1.7,-1.8 z" />
		<path
   style="fill:#af9b7b"
   inkscape:connector-curvature="0"
   id="path66"
   d="m 957.7,167.6 c -31.3,-12.2 -88.1,59 -100.3,90.3 -12.2,31.3 3.4,66.5 34.7,78.7 31.3,12.2 66.5,-3.4 78.7,-34.7 C 983,270.6 989,179.8 957.7,167.6 Z" />
		<path
   style="fill:#9e835c"
   inkscape:connector-curvature="0"
   id="path68"
   d="m 957.7,293.7 c -17,31.5 -56.3,43.2 -87.8,26.2 -1.1,-0.6 -2.1,-1.2 -3.1,-1.8 6.5,8 15.1,14.5 25.4,18.5 31.3,12.2 66.5,-3.4 78.7,-34.7 7.7,-19.9 13,-63.8 7.8,-96.3 -1.5,32.7 -11.5,70.4 -21,88.1 z" />
		<path
   style="fill:#927955"
   inkscape:connector-curvature="0"
   id="path70"
   d="m 900.7,213.1 c -8,0 -15.4,2.9 -21,7.7 0,0 -7.7,9.8 -15.5,23.4 0,0 -28,50.7 -39.8,71.8 -4.3,7.6 -0.6,11.4 -0.6,11.4 2.4,2.7 6.8,2.8 8.3,2.7 13.7,-0.8 24.4,-9.7 31.1,-17.2 5,-5.7 7.8,-10.6 7.8,-10.6 61.8,5.9 61.7,-49.4 61.7,-49.4 0,0 2.5,-39.8 -32,-39.8 z" />
		<path
   style="fill:#7d6949"
   inkscape:connector-curvature="0"
   id="path72"
   d="m 925.9,243.2 c 0,0 0,39.1 -36.7,48 l 5,-18.2 c 0,0 0.9,-3.2 -1.3,-3.9 -1.8,-0.5 -3.1,1.8 -3.1,1.8 l -19,31.3 c 3.9,0.4 7.6,0.5 11,0.4 v 0 c 0.2,0 0.4,0 0.6,0 0.1,0 0.3,0 0.4,0 49.7,-1.9 49.7,-49.8 49.7,-49.8 0,0 1.4,-20.4 -10.6,-32 4.8,10.7 4,22.4 4,22.4 z" />
		<path
   style="fill:#7d6949"
   inkscape:connector-curvature="0"
   id="path74"
   d="m 877.1,258.7 c -1.8,-1.1 -4.1,-0.5 -5.2,1.2 L 845,303.5 c -1.1,1.8 -0.5,4.1 1.2,5.2 0.6,0.4 1.3,0.6 2,0.6 1.3,0 2.5,-0.6 3.2,-1.8 L 878.2,264 c 1.2,-1.8 0.7,-4.2 -1.1,-5.3 z" />
		<path
   style="fill:#806749"
   inkscape:connector-curvature="0"
   id="path76"
   d="m 917.2,337.5 c -5.6,-0.2 -11,2.2 -15.9,7.1 -1.5,1.5 -1.5,3.9 0,5.4 1.5,1.5 3.9,1.5 5.4,0 3.4,-3.4 6.8,-5 10.2,-4.9 5.5,0.2 9.5,4.7 9.6,4.7 0.8,0.9 1.8,1.3 2.9,1.3 0.9,0 1.8,-0.3 2.5,-0.9 1.6,-1.4 1.7,-3.8 0.4,-5.4 -0.3,-0.2 -6.3,-7 -15.1,-7.3 z" />
		<circle
   style="fill:#8a765f"
   id="circle78"
   r="8.6999998"
   cy="190.89999"
   cx="949.40002" />
		<circle
   style="fill:#3e3d42"
   id="circle80"
   r="5"
   cy="190.89999"
   cx="949.40002" />
	</g><g
   id="g116">
		<path
   style="fill:#f7a14c"
   inkscape:connector-curvature="0"
   id="path84"
   d="m 1214.2,768.6 c -2.1,0 -3.9,1.7 -3.9,3.9 v 32.8 c 0,2.1 1.7,3.9 3.9,3.9 2.1,0 3.9,-1.7 3.9,-3.9 v -32.8 c 0,-2.2 -1.8,-3.9 -3.9,-3.9 z" />
		<path
   style="fill:#fbc447"
   inkscape:connector-curvature="0"
   id="path86"
   d="m 1272.6,643.3 c -1.5,-0.9 -3,-1.7 -4.6,-2.4 -10.7,-4.6 -22.3,-3.3 -31.3,2.3 -2.2,1.4 -9.6,8.8 -18.6,18.8 -1,1.1 -14.4,16 -37.5,35.4 -21.2,17.8 -50.7,39.5 -86.4,57.7 l -4.9,2.4 37.5,1.3 1.9,0.1 c 1.9,0.1 3.7,0.2 5.5,0.3 19.1,1.3 37.7,5.8 55.4,13.1 0.4,0.2 0.9,0.3 1.3,0.5 27.7,10.6 58.4,-3 69.4,-30.5 4.4,-10.9 4.9,-22.4 2.2,-33 3.7,-3.1 14.3,-11.9 16.2,-13.9 4,-4.1 7,-9.2 8.5,-15.2 3.7,-14.4 -2.4,-29.2 -14.6,-36.9 z" />
		<path
   style="fill:#e3ab39"
   inkscape:connector-curvature="0"
   id="path88"
   d="m 1236.7,643.1 c -2.2,1.4 -9.6,8.8 -18.6,18.8 -1,1.1 -14.4,16 -37.5,35.4 17.4,5.9 34,5.2 41.9,-12.9 20.4,-46.3 50.1,-41.2 50.1,-41.2 -1.5,-0.9 -3,-1.7 -4.6,-2.4 -10.7,-4.6 -22.3,-3.3 -31.3,2.3 z" />
		<path
   style="fill:#eab03b"
   inkscape:connector-curvature="0"
   id="path90"
   d="m 1227.7,757.3 c 0,5.3 0.8,10.4 2.4,15.2 13.3,-5.3 24.4,-15.8 30.2,-30.2 4.2,-10.6 4.8,-21.7 2.5,-32.1 -20.3,6.1 -35.1,24.9 -35.1,47.1 z" />
		<path
   style="fill:#8a6c27"
   inkscape:connector-curvature="0"
   id="path92"
   d="m 1286.9,665 c -5.8,7.6 -7.6,17.5 -4.8,26.7 l 26.7,-9.1 -21.2,-18.6 z" />
		<path
   style="fill:#705820"
   inkscape:connector-curvature="0"
   id="path94"
   d="m 1281.4,688.6 c 0.2,1 0.4,2.1 0.8,3.1 l 26.7,-9.1 -2.7,-2.4 z" />
		<path
   style="fill:#fbc447"
   inkscape:connector-curvature="0"
   id="path96"
   d="m 1218.1,661.9 c -2,2.2 -49.4,55 -123.9,93.2 l -4.9,2.4 15.9,-0.3 c 33.1,-0.7 65.6,-7.7 95.9,-20.5 0.1,0 0.2,-0.1 0.3,-0.1 16.9,-7.2 26.4,-25.4 22.8,-43.4 z" />
		<path
   style="fill:#e3ab39"
   inkscape:connector-curvature="0"
   id="path98"
   d="m 1183.5,743.3 v 0 c -18.3,6.2 -37.2,10.4 -56.5,12.4 l -2.6,2.9 2.3,0.1 1.9,0.1 c 1.9,0.1 3.7,0.2 5.5,0.3 19.1,1.3 37.7,5.8 55.4,13.1 -16.3,-16.4 -6,-28.9 -6,-28.9 z" />
		<path
   style="fill:#eab03b"
   inkscape:connector-curvature="0"
   id="path100"
   d="m 1094.2,755.1 -4.9,2.4 37.5,1.3 c 4.4,-1.3 9.2,-2.9 14.2,-4.8 44.7,-16.8 68.7,-45.5 81.5,-69.4 l -4.4,-22.6 c -2,2.1 -49.4,54.9 -123.9,93.1 z" />
		<circle
   style="fill:#a67c52"
   id="circle102"
   r="6.5"
   cy="667.59998"
   cx="1258.3" />
		<path
   style="fill:#966c48"
   inkscape:connector-curvature="0"
   id="path104"
   d="m 1259.9,661.3 c -0.5,-0.1 -1.1,-0.2 -1.6,-0.2 -3.6,0 -6.5,2.9 -6.5,6.5 0,3.6 2.9,6.5 6.5,6.5 0.6,0 1.1,-0.1 1.6,-0.2 -2.8,-0.7 -4.9,-3.3 -4.9,-6.3 0,-3.1 2.1,-5.6 4.9,-6.3 z" />
		<g
   id="g108">
			<path
   style="fill:#f7a14c"
   inkscape:connector-curvature="0"
   id="path106"
   d="m 1205.2,808.3 c -1.2,0.9 -1.5,2.6 -0.7,3.9 0.9,1.3 2.6,1.6 3.9,0.7 0.3,-0.2 6.9,-4.7 11.3,-0.3 0.5,0.5 1.3,0.8 2,0.8 0.7,0 1.4,-0.3 2,-0.8 1.1,-1.1 1.1,-2.8 0,-3.9 -6.3,-6.3 -14.9,-3 -18.5,-0.4 z" />
		</g>
		<path
   style="fill:#f7a14c"
   inkscape:connector-curvature="0"
   id="path110"
   d="m 1200.1,769.1 c -2.1,0 -3.9,1.7 -3.9,3.9 v 32.8 c 0,2.1 1.7,3.9 3.9,3.9 2.1,0 3.9,-1.7 3.9,-3.9 V 773 c 0,-2.2 -1.8,-3.9 -3.9,-3.9 z" />
		<g
   id="g114">
			<path
   style="fill:#f7a14c"
   inkscape:connector-curvature="0"
   id="path112"
   d="m 1191.1,808.7 c -1.2,0.9 -1.5,2.6 -0.7,3.9 0.9,1.3 2.6,1.6 3.9,0.7 0.3,-0.2 6.9,-4.7 11.3,-0.3 0.5,0.5 1.3,0.8 2,0.8 0.7,0 1.4,-0.3 2,-0.8 1.1,-1.1 1.1,-2.8 0,-3.9 -6.3,-6.3 -14.9,-3 -18.5,-0.4 z" />
		</g>
	</g><g
   id="g178">
		<g
   id="g122">
			<g
   id="g120">
				<path
   style="fill:#de8976"
   inkscape:connector-curvature="0"
   id="path118"
   d="m 284.3,388 -20,0.7 c -1.2,0 -2.2,0.9 -2.5,2.1 -0.3,1.2 0.3,2.4 1.4,2.9 l 16.1,8.3 c 0.4,0.2 0.8,0.3 1.2,0.3 1,0 1.9,-0.5 2.3,-1.4 0.7,-1.3 0.2,-2.9 -1.1,-3.5 l -7.2,-3.7 9.9,-0.4 c 1.4,-0.1 2.6,-1.3 2.5,-2.7 0.1,-1.5 -1.1,-2.6 -2.6,-2.6 z" />
			</g>
		</g>
		<g
   id="g128">
			<g
   id="g126">
				<path
   style="fill:#de8976"
   inkscape:connector-curvature="0"
   id="path124"
   d="m 263.5,388.2 -11.9,4.7 c -1.3,0.5 -2,2.1 -1.5,3.4 0.4,1 1.4,1.7 2.4,1.7 0.3,0 0.6,-0.1 1,-0.2 l 11.9,-4.7 c 1.3,-0.5 2,-2.1 1.5,-3.4 -0.5,-1.4 -2,-2 -3.4,-1.5 z" />
			</g>
		</g>
		<g
   id="g132">
			<path
   style="fill:#de8976"
   inkscape:connector-curvature="0"
   id="path130"
   d="m 263.7,363.1 c -2,-1.2 -4.6,-0.6 -5.8,1.3 -8,12.8 -3.2,23.8 0.4,27.8 0.8,0.9 2,1.4 3.1,1.4 1,0 2,-0.4 2.8,-1.1 1.7,-1.6 1.9,-4.2 0.3,-5.9 -0.1,-0.1 -6.2,-7.1 0.4,-17.8 1.3,-1.9 0.7,-4.5 -1.2,-5.7 z" />
		</g>
		<path
   style="fill:#429699"
   inkscape:connector-curvature="0"
   id="path134"
   d="m 263.7,363.1 c -2,-1.2 -4.6,-0.6 -5.8,1.3 -3.7,6 -4.7,11.7 -4.2,16.4 2.3,0.8 5.2,1.2 8.5,0.2 -0.5,-3 -0.2,-7.2 2.9,-12.1 1.1,-2 0.5,-4.6 -1.4,-5.8 z" />
		<g
   id="g140">
			<g
   id="g138">
				<path
   style="fill:#ed917d"
   inkscape:connector-curvature="0"
   id="path136"
   d="m 267.7,398.1 -21.9,0.8 c -1.3,0 -2.4,1 -2.7,2.3 -0.3,1.3 0.3,2.6 1.5,3.2 l 17.7,9.1 c 0.4,0.2 0.9,0.3 1.3,0.3 1,0 2.1,-0.6 2.6,-1.6 0.7,-1.4 0.2,-3.2 -1.2,-3.9 l -7.9,-4 10.9,-0.4 c 1.6,-0.1 2.8,-1.4 2.8,-3 -0.2,-1.6 -1.5,-2.8 -3.1,-2.8 z" />
			</g>
		</g>
		<g
   id="g146">
			<g
   id="g144">
				<path
   style="fill:#ed917d"
   inkscape:connector-curvature="0"
   id="path142"
   d="m 244.8,398.3 -13,5.1 c -1.5,0.6 -2.2,2.3 -1.6,3.7 0.4,1.1 1.5,1.8 2.7,1.8 0.4,0 0.7,-0.1 1.1,-0.2 l 13,-5.1 c 1.5,-0.6 2.2,-2.3 1.6,-3.7 -0.7,-1.4 -2.3,-2.2 -3.8,-1.6 z" />
			</g>
		</g>
		<path
   style="fill:#5b4d55"
   inkscape:connector-curvature="0"
   id="path148"
   d="m 312.9,214.9 c 0,0 -13.6,-43.6 -48.9,-4.1 -7.1,7.9 -5,14.3 -6.9,42 0,0 -2.7,16.3 -32.4,27.8 -29.7,11.4 -58,37.6 -63,51.9 0,0 -19,31.5 23.6,46.2 0,0 105.2,32.6 128.8,-72.2 3.1,-13.8 3.8,-27.7 -9.5,-62.4 -2.1,-5.5 -2.8,-20.8 18.8,-14.9 0,0 1.2,-5.7 -10.5,-14.3 z" />
		<path
   style="fill:#6e5f68"
   inkscape:connector-curvature="0"
   id="path150"
   d="m 140.3,367.3 c -7.7,6.2 -24.4,15.2 -33.1,19.3 -3.3,1.6 -21.5,9.9 1.2,14.5 27.4,5.7 77.6,-32.1 77.6,-32.1 -4.5,-5.5 -37.9,-7.9 -45.7,-1.7 z" />
		<path
   style="fill:#429699"
   inkscape:connector-curvature="0"
   id="path152"
   d="m 312.9,214.9 c 0,0 -13.6,-43.6 -48.9,-4.1 -7.1,7.9 -5,14.3 -6.9,42 0,0 -1.9,11 -18.9,21.3 0.5,18.6 7,37.4 27.6,47.7 32.8,16.4 45.2,-6.4 49.8,-24.2 1.3,-11.6 -0.5,-26.1 -11.1,-53.5 -2.1,-5.5 -2.8,-20.8 18.8,-14.9 0.1,0 1.3,-5.7 -10.4,-14.3 z" />
		<path
   style="fill:#b8969c"
   inkscape:connector-curvature="0"
   id="path154"
   d="m 256.2,255.4 c -8,15.6 -20.4,20 -20.4,20 -63.2,27.7 -73.1,54.6 -73.1,54.6 -98.3,33.9 -59,40.6 -59,40.6 70.8,8.6 120.5,-1.9 146.9,-15 26.5,-13.1 26.5,-31 16.7,-53.4 -9.7,-22.4 -11.1,-46.8 -11.1,-46.8 z" />
		<path
   style="fill:#54bec2"
   inkscape:connector-curvature="0"
   id="path156"
   d="m 312.9,214.9 c 0,0 -13.6,-43.6 -48.9,-4.1 -0.2,0.2 -0.4,0.4 -0.6,0.7 3.5,10.5 13.4,28.3 40.3,29.3 -0.9,-6.6 1.5,-16.6 19.6,-11.6 0.1,0 1.3,-5.7 -10.4,-14.3 z" />
		<path
   style="fill:#6a6d7d"
   inkscape:connector-curvature="0"
   id="path158"
   d="m 312.9,214.9 c 0,0 0,-0.1 -0.1,-0.3 -3.6,2.5 -10.4,8.5 -7.7,17.7 2.3,-3.8 7.5,-6.1 18.3,-3.1 0,0 1.2,-5.7 -10.5,-14.3 z" />
		
			<circle
   style="fill:#ffffff"
   r="4.5"
   id="ellipse160"
   cy="215.2"
   cx="291.60001"
   transform="matrix(0.9969,-0.07818318,0.07818318,0.9969,-15.934,23.4597)" />
		
			<circle
   style="fill:#6a6d7d"
   r="2.7"
   id="ellipse162"
   cy="215.2"
   cx="291.60001"
   transform="matrix(0.9969,-0.07819314,0.07819314,0.9969,-15.936,23.4628)" />
		<path
   style="fill:#b6b2a2"
   inkscape:connector-curvature="0"
   id="path164"
   d="m 256.2,255.4 c -8,15.6 -20.4,20 -20.4,20 -62.4,25 -73.1,54.6 -73.1,54.6 -1,0.3 19.1,33 80.9,28.8 2.5,-1 4.8,-2.1 7,-3.2 26.5,-13.1 26.5,-31 16.7,-53.4 -9.7,-22.4 -11.1,-46.8 -11.1,-46.8 z" />
		<path
   style="fill:#a6a394"
   inkscape:connector-curvature="0"
   id="path166"
   d="m 256.2,255.4 c -3.7,7.2 -8.3,12 -12.2,15.1 1.6,8.6 4.1,19.3 8.8,29.6 24,52.7 -39.5,57.1 -46.3,56.5 10.2,2.2 22.5,3.3 37.1,2.3 2.5,-1 4.8,-2.1 7,-3.2 26.5,-13.1 26.5,-31 16.7,-53.4 -9.7,-22.5 -11.1,-46.9 -11.1,-46.9 z" />
		<path
   style="fill:#838075"
   inkscape:connector-curvature="0"
   id="path168"
   d="m 234.3,319 c -4.3,-3.2 -6.6,-7.7 -5.9,-11.2 0,0 0,0 0,0 0,0 0,0 0,0 -3.1,1.6 -8.1,0.8 -12.4,-2.4 -4.3,-3.2 -6.6,-7.7 -5.9,-11.2 -0.7,0.4 -1.3,0.9 -1.8,1.5 -2.5,3.4 -0.3,9.4 5,13.3 4.3,3.2 9.3,4 12.4,2.4 -0.7,3.4 1.6,8 5.9,11.2 5.3,3.9 11.6,4.3 14.2,0.9 0.5,-0.6 0.8,-1.4 0.9,-2.1 -3.1,1.6 -8.1,0.7 -12.4,-2.4 z" />
		<path
   style="fill:#838075"
   inkscape:connector-curvature="0"
   id="path170"
   d="m 227.8,342.4 c -4,-3.2 -6.1,-7.7 -5.4,-11 0,0 0,-0.1 0,-0.1 0,0 0,0 0,0 0,0 0,0 0,0 0,0 -0.1,0 -0.1,0 -3.1,1.4 -7.8,0.4 -11.9,-2.8 -4.1,-3.3 -6.1,-7.7 -5.4,-11.1 0,0 0,0 0,0 0,0 0,0 0,0 -3.1,1.5 -7.9,0.5 -12,-2.8 -4.1,-3.3 -6.1,-7.7 -5.4,-11.1 -0.7,0.3 -1.3,0.8 -1.8,1.4 -2.6,3.2 -0.6,9.1 4.4,13.1 4.1,3.3 8.9,4.3 12,2.7 -0.8,3.3 1.3,7.8 5.4,11.1 4.1,3.2 8.9,4.2 12,2.8 -0.8,3.3 1.3,7.8 5.4,11 5,4 11.2,4.6 13.8,1.3 0.5,-0.6 0.8,-1.3 1,-2 -3.1,1.8 -7.9,0.8 -12,-2.5 z" />
		<g
   id="g174">
			<path
   style="fill:#ed917d"
   inkscape:connector-curvature="0"
   id="path172"
   d="m 244.9,370.7 c -2.2,-1.3 -5,-0.7 -6.4,1.5 -8.7,14.1 -3.5,26.2 0.5,30.6 0.9,1 2.2,1.5 3.4,1.5 1.1,0 2.2,-0.4 3.1,-1.2 1.9,-1.7 2,-4.6 0.3,-6.5 -0.1,-0.1 -6.8,-7.8 0.5,-19.6 1.5,-2.1 0.8,-5 -1.4,-6.3 z" />
		</g>
		<path
   style="fill:#429699"
   inkscape:connector-curvature="0"
   id="path176"
   d="m 244.9,370.7 c -2.2,-1.3 -5,-0.7 -6.4,1.5 -4.1,6.6 -5.1,12.8 -4.6,18 2.5,0.9 5.8,1.3 9.3,0.2 -0.6,-3.4 -0.2,-7.9 3.2,-13.3 1.4,-2.2 0.7,-5.1 -1.5,-6.4 z" />
	</g><g
   id="g198">
		<path
   style="fill:#d4b364"
   inkscape:connector-curvature="0"
   id="path180"
   d="m 629.5,404.7 c -6.4,-3.3 -15.4,-7.7 -21.2,-9.6 v -52.9 c 0,-2.1 -1.7,-3.8 -3.8,-3.8 -2.1,0 -3.8,1.7 -3.8,3.8 v 53.1 c -3.7,1.8 -9.6,5.3 -14.7,8.5 -2.1,1.3 -1,4.6 1.5,4.3 9.2,-1.2 23.4,-2.1 41.1,-0.3 1.8,0.1 2.5,-2.3 0.9,-3.1 z" />
		<path
   style="fill:#fbd476"
   inkscape:connector-curvature="0"
   id="path182"
   d="m 616.6,410.4 c -6.4,-3.3 -15.4,-7.7 -21.2,-9.6 v -52.9 c 0,-2.1 -1.7,-3.8 -3.8,-3.8 -2.1,0 -3.8,1.7 -3.8,3.8 V 401 c -3.7,1.8 -9.6,5.3 -14.7,8.5 -2.1,1.3 -1,4.6 1.5,4.3 9.2,-1.2 23.4,-2.1 41.1,-0.3 1.8,0.1 2.5,-2.3 0.9,-3.1 z" />
		<path
   style="fill:#fcb344"
   inkscape:connector-curvature="0"
   id="path184"
   d="m 708.2,192.7 h -27 v 12.8 H 721 c 0,-7 -5.8,-12.8 -12.8,-12.8 z" />
		<path
   style="fill:#e6e3e6"
   inkscape:connector-curvature="0"
   id="path186"
   d="m 660,173.8 v 0 c -13.3,0 -24.1,10.8 -24.1,24.1 v 38.3 c 0,0 -113.9,33.2 -162.7,116.5 H 615 c 0,0 69,-15.3 69,-71.7 v -83.1 c 0.1,-13.4 -10.7,-24.1 -24,-24.1 z" />
		<path
   style="fill:#7e7275"
   inkscape:connector-curvature="0"
   id="path188"
   d="m 448.8,347.7 c -4.3,4.6 -0.8,12.2 5.5,11.9 75.6,-2.8 160.1,4.4 184.9,-50.6 16.2,-35.9 5.6,-61.4 -3.3,-74.4 -6.5,1.9 -115.1,35.3 -187.1,113.1 z" />
		<circle
   style="fill:#ffffff"
   id="circle190"
   r="6"
   cy="189.8"
   cx="663.90002" />
		<circle
   id="circle192"
   r="2.9000001"
   cy="189.8"
   cx="663.90002" />
		<path
   style="fill:#695f61"
   inkscape:connector-curvature="0"
   id="path194"
   d="m 574.8,333.4 c -6.4,-1.2 -11.5,-4.3 -12.7,-7.3 0,0 0,0 0,0 0,0 0,0 0,0 -2.3,2.4 -8.1,3.4 -14.5,2.2 -6.4,-1.2 -11.5,-4.3 -12.7,-7.3 0,0 0,0 0,0 0,0 0,0 0,0 -2.3,2.4 -8.1,3.4 -14.5,2.2 -6.4,-1.2 -11.5,-4.3 -12.7,-7.3 -0.5,0.5 -0.8,1.1 -1,1.8 -0.7,3.7 5.1,7.9 12.9,9.4 6.4,1.2 12.2,0.2 14.5,-2.2 1.2,3.1 6.3,6.2 12.7,7.4 6.4,1.2 12.2,0.2 14.5,-2.2 1.2,3.1 6.3,6.2 12.7,7.4 7.8,1.5 14.8,-0.3 15.5,-4 0.1,-0.7 0,-1.4 -0.2,-2.1 -2.2,2.2 -8,3.2 -14.5,2 z" />
		<path
   style="fill:#695f61"
   inkscape:connector-curvature="0"
   id="path196"
   d="m 582.1,299.6 c -6.5,-0.5 -11.9,-2.9 -13.4,-5.9 0,0 0,0 0,0 0,0 0,0 0,0 -2,2.7 -7.6,4.3 -14.2,3.8 -6.5,-0.5 -11.9,-2.9 -13.4,-5.9 -0.4,0.6 -0.7,1.2 -0.8,1.9 -0.3,3.8 5.9,7.3 13.9,7.9 6.5,0.5 12.2,-1.2 14.2,-3.8 1.6,2.9 6.9,5.4 13.5,5.9 8,0.6 14.6,-2 14.9,-5.7 0.1,-0.7 -0.1,-1.4 -0.5,-2 -2,2.6 -7.7,4.2 -14.2,3.8 z" />
	</g><g
   id="g224">
		<path
   style="fill:#c27241"
   inkscape:connector-curvature="0"
   id="path200"
   d="m 880.1,800.3 v -16.9 c 0,-3 -1.5,-5.5 -4.5,-5.5 -3,0 -4.5,2.5 -4.5,5.5 v 16.9 c -3.9,1.4 -6.3,4.2 -6.5,4.4 -0.9,1.1 -0.8,2.7 0.3,3.7 1.1,0.9 2.7,0.8 3.7,-0.2 0,0 2.9,-3.3 6.8,-3.4 2.5,-0.1 4.9,1.1 7.3,3.5 0.5,0.5 1.2,0.8 1.8,0.8 0.6,0 1.3,-0.3 1.8,-0.8 1,-1 1,-2.7 0,-3.7 -1.9,-2.1 -4,-3.5 -6.2,-4.3 z" />
		<path
   style="fill:#e2854c"
   inkscape:connector-curvature="0"
   id="path202"
   d="m 862,805.1 v -16.9 c 0,-3 -1.5,-5.5 -4.5,-5.5 -3,0 -4.5,2.5 -4.5,5.5 v 16.9 c -3.9,1.4 -6.3,4.2 -6.5,4.4 -0.9,1.1 -0.8,2.7 0.3,3.7 1.1,0.9 2.7,0.8 3.7,-0.2 0,0 2.9,-3.3 6.8,-3.4 2.5,-0.1 4.9,1.1 7.3,3.5 0.5,0.5 1.2,0.8 1.8,0.8 0.6,0 1.3,-0.3 1.8,-0.8 1,-1 1,-2.7 0,-3.7 -1.9,-2.1 -4,-3.5 -6.2,-4.3 z" />
		<path
   style="fill:#356178"
   inkscape:connector-curvature="0"
   id="path204"
   d="m 868.4,694.9 c -13.9,32.3 -28.3,65.8 -65.4,65.8 -2.6,0 -4.8,1.8 -5.4,4.3 -0.6,2.5 0.7,5.1 3.1,6.2 28.8,13.3 55.9,20.3 78.2,20.3 23,0 40.2,-7.7 49.9,-22.3 13.6,-20.5 15.3,-47.1 16.8,-70.5 1.4,-21.5 2.6,-40.1 13,-42.9 2.2,-0.6 9.5,-2.5 11.7,-2.5 -11.3,-9 -29.3,-18.1 -45.1,-18.1 -30.8,0 -44.2,30.3 -56.8,59.7 z" />
		<path
   style="fill:#4681a0"
   inkscape:connector-curvature="0"
   id="path206"
   d="m 942.4,694.8 c -4.5,-1.5 -9.2,-2.3 -14,-2.3 -22.7,0 -43.5,16.6 -50.5,40.3 -5.5,18.6 -2.3,38 8.8,53.1 0.3,0.4 0.6,0.7 0.9,1 l 4.3,3.5 c 16.5,-2.4 29.2,-9.6 36.9,-21.3 13.6,-20.5 15.3,-47.1 16.8,-70.5 0,-0.5 0.1,-1 0.1,-1.5 l -1.1,-1.1 c -0.6,-0.5 -1.3,-0.9 -2.2,-1.2 z" />
		<path
   style="fill:#90b3c6"
   inkscape:connector-curvature="0"
   id="path208"
   d="m 942.4,694.8 c -4.5,-1.5 -9.2,-2.3 -14,-2.3 -22.7,0 -43.5,16.6 -50.5,40.3 -5.5,18.6 -2.3,38 8.8,53.1 0.3,0.4 0.6,0.7 0.9,1 l 1.9,1.6 c -8.4,-14.3 -10.5,-31.5 -5.6,-48.2 7,-23.7 27.8,-40.3 50.5,-40.3 3.8,0 7.4,0.6 11,1.5 0.1,-0.9 0.1,-1.9 0.2,-2.9 0,-0.5 0.1,-1 0.1,-1.5 l -1.1,-1.1 c -0.6,-0.5 -1.3,-0.9 -2.2,-1.2 z" />
		<path
   style="fill:#86a6b8"
   inkscape:connector-curvature="0"
   id="path210"
   d="m 879.1,771.9 c 1.9,4.9 4.4,9.7 7.6,14 0.3,0.4 0.6,0.7 0.9,1 l 1.9,1.6 c -3.4,-5.7 -5.7,-11.9 -7,-18.4 -1.1,0.7 -2.3,1.3 -3.4,1.8 z" />
		<path
   style="fill:#86a6b8"
   inkscape:connector-curvature="0"
   id="path212"
   d="m 942.4,694.8 c -3.7,-1.2 -7.6,-1.9 -11.5,-2.2 -0.9,2.6 -1.8,5.2 -2.8,7.9 2.1,-0.3 4.1,-0.5 6.2,-0.5 3.8,0 7.4,0.6 11,1.5 0.1,-0.9 0.1,-1.9 0.2,-2.9 0,-0.5 0.1,-1 0.1,-1.5 l -1.1,-1.1 c -0.5,-0.5 -1.2,-0.9 -2.1,-1.2 z" />
		<path
   style="fill:#f5f5f5"
   inkscape:connector-curvature="0"
   id="path214"
   d="m 924.2,650.4 c -6.1,0 -11,4.9 -11,11 0,6.1 4.9,11 11,11 6.1,0 11,-4.9 11,-11 0,-6 -4.9,-11 -11,-11 z" />
		<circle
   style="fill:#242424"
   id="circle216"
   r="5.5"
   cy="661.5"
   cx="924.20001" />
		<path
   style="fill:#e78244"
   inkscape:connector-curvature="0"
   id="path218"
   d="m 947.8,653.2 c 0,4.1 0.9,8 2.6,11.5 1.8,-4.7 4.4,-7.9 8.3,-8.9 2.2,-0.6 9.5,-2.5 11.7,-2.5 -5.4,-4.3 -12.3,-8.6 -19.8,-11.9 -1.8,3.5 -2.8,7.5 -2.8,11.8 z" />
		<path
   style="fill:#d97a40"
   inkscape:connector-curvature="0"
   id="path220"
   d="m 950.4,664.7 c 0,0 0,-0.1 0,0 0.3,-0.7 0.5,-1.2 0.8,-1.8 0.1,-0.3 0.3,-0.6 0.4,-0.8 0.2,-0.3 0.4,-0.7 0.6,-1 0.2,-0.2 0.3,-0.5 0.5,-0.7 0.3,-0.4 0.5,-0.7 0.8,-1.1 0.1,-0.1 0.2,-0.3 0.3,-0.4 0.4,-0.4 0.8,-0.8 1.3,-1.2 0.1,-0.1 0.3,-0.2 0.5,-0.3 0.3,-0.3 0.7,-0.5 1.1,-0.7 0.2,-0.1 0.3,-0.2 0.5,-0.3 0.5,-0.3 1.1,-0.5 1.7,-0.6 0.2,0 0.3,-0.1 0.5,-0.2 -4.1,-0.1 -7.5,1.3 -10.6,3.8 0.2,1.8 0.8,3.6 1.6,5.3 z" />
		<path
   style="opacity:0.1;fill:#14252e"
   inkscape:connector-curvature="0"
   id="path222"
   d="m 926.9,704.1 c -0.3,0.7 -0.5,1.5 -0.8,2.2 0,0.1 -0.1,0.1 -0.1,0.2 -0.3,0.9 -0.6,1.7 -0.9,2.6 0,0 0,0.1 0,0.1 -9,24.5 -21,50.8 -46,62.7 0,0 0,0 0,0 -18.5,8.9 -44.2,9.9 -81.1,-3.5 0.5,1.2 1.4,2.2 2.7,2.7 28.8,13.3 55.9,20.3 78.2,20.3 18.4,0 33.1,-4.9 43.2,-14.4 0,0 0,0 0,0 0,0 0,0 0,0 0.5,-0.5 0.9,-0.9 1.4,-1.4 0.2,-0.2 0.3,-0.3 0.5,-0.5 1.2,-1.2 2.3,-2.5 3.3,-3.9 0.5,-0.7 1,-1.3 1.5,-2 0,0 0,0 0,0 13.6,-20.5 15.3,-47.1 16.8,-70.5 1.4,-21.5 2.6,-40.1 13,-42.9 0.2,0 0.3,-0.1 0.5,-0.2 -16.3,-0.4 -22.9,22.4 -32.2,48.5 z" />
	</g><g
   id="g244">
		<path
   style="fill:#ab954d"
   inkscape:connector-curvature="0"
   id="path226"
   d="m 577.9,805.6 -20.4,-5.2 1.4,-51.8 c 0.1,-1.9 -1.5,-3.6 -3.4,-3.6 -1.9,-0.1 -3.6,1.5 -3.6,3.4 l -1.4,51.9 -7.4,1.9 c -1.6,0.4 -2.5,2 -2.1,3.6 0.4,1.6 2,2.5 3.6,2.1 l 9.5,-2.4 c 0,0 0,0 0,0 0,0 0,0 0,0 l 22.5,5.8 c 0.2,0.1 0.5,0.1 0.7,0.1 1.3,0 2.5,-0.9 2.8,-2.2 0.3,-1.6 -0.6,-3.2 -2.2,-3.6 z" />
		<path
   style="fill:#e6e7e9"
   inkscape:connector-curvature="0"
   id="path228"
   d="m 602.7,514.9 c -19.4,10.9 -24.1,45 -13.8,69.7 10.3,24.7 14,28.4 7.4,54.1 0,0 -106.1,5.6 -87.6,124 0,0 155.9,-13.1 107.6,-176.6 0,0 49.4,-0.6 41.2,-33.5 -8.4,-33 -35.4,-48.6 -54.8,-37.7 z" />
		<path
   style="fill:#c4c5c7"
   inkscape:connector-curvature="0"
   id="path230"
   d="m 534.3,711.3 c -15.8,14.5 -24.2,33.5 -24.3,51.2 10.2,-1.2 74.3,-10.6 102.3,-62.5 -21.1,-14.9 -54.1,-10.7 -78,11.3 z" />
		<path
   style="fill:#d6d7d9"
   inkscape:connector-curvature="0"
   id="path232"
   d="m 470.3,733.1 c -6.7,31.8 -3.9,60.5 -2.8,56.7 116.5,-50.7 128.7,-151.1 128.7,-151.1 0,0 -100.9,-24.1 -125.9,94.4 z" />
		<path
   style="fill:#d9bd62"
   inkscape:connector-curvature="0"
   id="path234"
   d="m 646.6,554.2 c -4.3,1.2 -9.1,3.8 -12.1,9.1 -2.2,3.9 -6.4,6.2 -10.9,5.7 -5.9,-0.7 -12.8,-0.8 -13.1,2.7 0,0 14.7,56.8 90.3,83.8 0,0 10.7,0 -41.6,-96 -2.4,-4.5 -7.6,-6.7 -12.6,-5.3 z" />
		<path
   style="fill:#8c7a3f"
   inkscape:connector-curvature="0"
   id="path236"
   d="m 634.6,563.3 c -2.2,3.9 -6.4,6.2 -10.9,5.7 -5.9,-0.7 -12.8,-0.8 -13.1,2.7 0,0 14.6,56.4 89.7,83.6 -16.4,-22.1 -48,-70.6 -63.7,-94.8 -0.7,0.8 -1.4,1.7 -2,2.8 z" />
		<circle
   style="fill:#d9bd62"
   id="circle238"
   r="6.5"
   cy="545.40002"
   cx="636.09998" />
		<circle
   id="circle240"
   r="3.8"
   cy="545.40002"
   cx="636.09998" />
		<path
   style="fill:#d9bd62"
   inkscape:connector-curvature="0"
   id="path242"
   d="M 558,808 537.6,802.8 539,751 c 0.1,-1.9 -1.5,-3.6 -3.4,-3.6 -1.9,0 -3.6,1.5 -3.6,3.4 l -1.4,51.9 -7.4,1.9 c -1.6,0.4 -2.5,2 -2.1,3.6 0.4,1.6 2,2.5 3.6,2.1 l 9.5,-2.4 c 0,0 0,0 0,0 0,0 0,0 0,0 l 22.5,5.8 c 0.2,0.1 0.5,0.1 0.7,0.1 1.3,0 2.5,-0.9 2.8,-2.2 0.3,-1.6 -0.7,-3.2 -2.2,-3.6 z" />
	</g><g
   id="g260">
		<path
   style="fill:#b8560d"
   inkscape:connector-curvature="0"
   id="path246"
   d="m 147.6,806.1 c -0.8,5.8 5.6,9.8 10.5,6.6 47.7,-31.7 51.5,-96.6 51.5,-96.6 -46.3,14.1 -58.7,65.4 -62,90 z" />
		<path
   style="fill:#e86d11"
   inkscape:connector-curvature="0"
   id="path248"
   d="m 227.1,664.1 c 0,0 -53.3,46.1 -30.7,102 0,0 82.5,-18.9 82.3,-75.6 -0.2,-53.2 9.1,-66.4 13.5,-73.6 0,0 -66.7,-17.1 -65.1,47.2 z" />
		<path
   style="fill:#2c2c2c"
   inkscape:connector-curvature="0"
   id="path250"
   d="m 336.9,582.7 c -13.7,7.2 -51.3,27.6 -52.8,34.1 -1.9,7.9 0,7.5 0,7.5 0,0 3.5,1.7 9.3,-3.2 1.3,-1.1 29.7,-24.4 44.4,-37.4 0.5,-0.4 -0.2,-1.3 -0.9,-1 z" />
		<path
   style="fill:#c95f0f"
   inkscape:connector-curvature="0"
   id="path252"
   d="m 270.7,688.1 c -19.5,0 -35.3,15.8 -35.3,35.3 0,8.6 3,16.4 8.1,22.5 18.4,-11.9 35.2,-29.8 35.1,-55.5 0,-0.5 0,-1 0,-1.4 -2.5,-0.6 -5.1,-0.9 -7.9,-0.9 z" />
		<path
   style="fill:#e87f31"
   inkscape:connector-curvature="0"
   id="path254"
   d="m 160.1,763.7 c 0,0 59,-23.8 50.7,-64.9 0,0 -39.9,19.7 -50.7,64.9 z" />
		<path
   style="fill:#90512c"
   inkscape:connector-curvature="0"
   id="path256"
   d="M 247.4,673.8 C 219,656.6 134.5,608.2 86.1,612.6 c -4.2,0.4 -6.1,5.3 -3.4,8.5 5.6,6.6 15.6,16.1 29.4,20.2 0,0 0.4,21.8 35,29.2 0,0 2.1,14 24.7,20 0,0 7.4,14.7 19.4,17.3 0,0 38.4,9.9 59.4,-17.1 4.1,-5.4 2.6,-13.3 -3.2,-16.9 z" />
		<circle
   style="fill:#381a04"
   id="circle258"
   r="5.5999999"
   cy="624.40002"
   cx="265.20001" />
	</g>
</svg>