<?xml version="1.0" encoding="UTF-8" standalone="no"?>
<!-- Created with Inkscape (http://www.inkscape.org/) -->

<svg
   xmlns:dc="http://purl.org/dc/elements/1.1/"
   xmlns:cc="http://creativecommons.org/ns#"
   xmlns:rdf="http://www.w3.org/1999/02/22-rdf-syntax-ns#"
   xmlns:svg="http://www.w3.org/2000/svg"
   xmlns="http://www.w3.org/2000/svg"
   xmlns:sodipodi="http://sodipodi.sourceforge.net/DTD/sodipodi-0.dtd"
   xmlns:inkscape="http://www.inkscape.org/namespaces/inkscape"
   width="696.04425"
   height="605.35181"
   id="svg2"
   inkscape:label="Pozadí"
   version="1.1"
   inkscape:version="0.47 r22583"
   sodipodi:docname="Nový dokument 4">
  <defs
     id="defs2908">
    <inkscape:perspective
       sodipodi:type="inkscape:persp3d"
       inkscape:vp_x="0 : 526.18109 : 1"
       inkscape:vp_y="0 : 1000 : 0"
       inkscape:vp_z="744.09448 : 526.18109 : 1"
       inkscape:persp3d-origin="372.04724 : 350.78739 : 1"
       id="perspective2914" />
    <inkscape:perspective
       id="perspective2898"
       inkscape:persp3d-origin="0.5 : 0.33333333 : 1"
       inkscape:vp_z="1 : 0.5 : 1"
       inkscape:vp_y="0 : 1000 : 0"
       inkscape:vp_x="0 : 0.5 : 1"
       sodipodi:type="inkscape:persp3d" />
  </defs>
  <sodipodi:namedview
     id="base"
     pagecolor="#ffffff"
     bordercolor="#666666"
     borderopacity="1.0"
     inkscape:pageopacity="0.0"
     inkscape:pageshadow="2"
     inkscape:zoom="0.35"
     inkscape:cx="351.26629"
     inkscape:cy="252.67591"
     inkscape:document-units="px"
     inkscape:current-layer="layer1"
     showgrid="false"
     inkscape:window-width="1280"
     inkscape:window-height="968"
     inkscape:window-x="-4"
     inkscape:window-y="-4"
     inkscape:window-maximized="1" />
  <metadata
     id="metadata2911">
    <rdf:RDF>
      <cc:Work
         rdf:about="">
        <dc:format>image/svg+xml</dc:format>
        <dc:type
           rdf:resource="http://purl.org/dc/dcmitype/StillImage" />
        <dc:title></dc:title>
      </cc:Work>
    </rdf:RDF>
  </metadata>
  <g
     inkscape:label="Vrstva 1"
     inkscape:groupmode="layer"
     id="layer1"
     transform="translate(-23.733706,-179.68631)">
    <g
       transform="matrix(2.1871198,0,0,2.1871198,-1556.5853,-532.73306)"
       id="g2894"
       style="fill:#000000">
      <path
         id="path2821-7"
         d="m 1040.8041,453.92957 0,-82.76098 -82.76104,0 0,23.0961 43.49764,0 -62.74437,62.74436 c -13.85766,-10.39323 -30.79479,-16.16727 -48.11685,-16.16727 -44.65243,0 -80.8363,36.18388 -80.8363,80.8363 0,44.65244 36.18387,80.83631 80.8363,80.83631 44.65242,0 80.83629,-36.18387 80.83629,-80.83631 0,-17.32206 -5.77401,-34.25919 -16.16724,-48.50178 l 62.35937,-62.35943 0,43.1127 z m -92.3844,67.74851 c 0,31.94959 -25.79064,57.74021 -57.74022,57.74021 -31.94959,0 -57.74022,-25.79062 -57.74022,-57.74021 0,-31.94958 25.79063,-57.7402 57.74022,-57.7402 31.94958,0 57.74022,25.79062 57.74022,57.7402 z"
         style="fill:#000000;stroke:none" />
      <path
         id="path2821"
         d="m 953.51798,408.49502 0,-82.76098 -82.76097,0 0,23.0961 43.49762,0 -62.74436,62.74436 c -13.85764,-10.39324 -30.79477,-16.16727 -48.11684,-16.16727 -44.65243,0 -80.8363,36.18387 -80.8363,80.83631 0,44.65242 36.18387,80.83631 80.8363,80.83631 44.65243,0 80.8363,-36.18389 80.8363,-80.83631 0,-17.32205 -5.77403,-34.2592 -16.16726,-48.50179 l 62.35944,-62.35942 0,43.11269 z m -92.38434,67.74852 c 0,31.94958 -25.79063,57.74021 -57.74021,57.74021 -31.94959,0 -57.74023,-25.79063 -57.74023,-57.74021 0,-31.94959 25.79064,-57.74021 57.74023,-57.74021 31.94958,0 57.74021,25.79062 57.74021,57.74021 z"
         style="fill:#000000;stroke:none" />
      <path
         id="path2825"
         d="m 803.39343,395.40723 c -44.65243,0 -80.8363,36.18387 -80.8363,80.83631 l 23.09607,0 c 0,-31.94959 25.79064,-57.74021 57.74023,-57.74021 z"
         style="fill:#000000;stroke:none" />
      <path
         id="path2825-0"
         d="m 890.1024,441.39399 c -44.65242,0 -80.83629,36.18387 -80.83629,80.8363 l 23.09608,0 c 0,-31.94958 25.79063,-57.74023 57.74021,-57.74023 z"
         style="fill:#000000;stroke:none" />
    </g>
  </g>
</svg>
